<svg enable-background="new 0 0 512 512" height="512" viewBox="0 0 512 512" width="512" xmlns="http://www.w3.org/2000/svg"><g id="white_border"><g><g><path d="m461.51 24.1c-5.01-1.06-10.24-.19-15.18 2.47-2.21-4.32-5.21-7.68-9.09-10.2-10.14-6.57-23.01-4.13-29.94 5.69-7.69 10.9-4.72 23.61-1.81 32.21 1.81 5.35 3.85 13.93 5.24 19.93.87 3.79 1.43 9.74 1.91 14.99.76 8.14 1.19 12.79 2.88 15.24-.4.18-.79.34-1.19.53-1.65-5.06-4.58-9.49-8.57-12.86-9.61-8.08-23.28-8.21-33.25-.32-8.9 7.05-13.4 18.16-13.39 33.04.01 6.81 1.16 20.14 2.75 31.7.87 6.33 1.71 11.11 2.51 14.73-5.27-4.18-10.77-8.06-16.44-11.63.03-1.51-1.35-9.4-1.35-9.4.51-1.25.72-2.63.55-4.06-.17-1.38-.68-2.63-1.43-3.69.15-.09.29-.18.44-.28 6.45-4.15 9.38-10.31 8.03-16.9-.28-1.38-.71-2.77-1.29-4.2 2.54-3.43 6.04-8.47 6.1-15.37.03-3.48-.86-7.02-2.64-10.61 1.63-.46 5.38-2.15 5.82-2.34 2.14-.9 3.51-3.09 3.41-5.45-.1-2.29-1.55-4.22-3.7-4.93-1.24-.41-8.18-4.43-10.94-5.12-1.74-.44-3.49-.55-5.17-.36.77-.99 3.41-4.58 4.02-5.37 1.57-2.04 1.67-4.89.23-7.09-1.39-2.15-3.89-3.15-6.35-2.55-3.32.81-6.84.99-10.58 1.19-4.72.25-9.6.5-14.54 2.05-1.8.56-3.47 1.26-5.02 2.1-13.21-19.48-29.36-34.67-45.49-43.07 0 0-12.05-5.04-14.39-5.65-1.44-.46-6.02-1.79-6.75-2-4.01-1.19-8.16-2.41-12.61-2.58-6.3-.24-12.43 2.39-16.85 7.02-6.48-2.91-15-5.3-23.96-2.26-6.57 2.23-11.77 6.84-15.57 10.6-.98.98-5.95 5.08-6.44 5.62l-.21.24c-3.49 2.88-13.75 14.24-13.75 14.24-2.64 3.34-5.18 6.96-7.62 10.83-2.48 3.09-4.7 5.91-6.78 8.62 0 0-5.17 6.71-7.19 10.67-2.27 4.44-3.48 9.19-4.42 13.3-1.09 4.71-1.92 9.55-2.47 14.38-.18 1.6-2.1 15.36-2.28 15.85l-5.42 9.31c-.01.02-.02.03-.03.05-1.92 3.22-3.9 6.56-5.63 10.02-3.12 6.24-3.69 11.94-1.69 16.94 2.58 6.47 9.16 8.94 12.69 10.26 1.89.71 5.1 3.28 4.87 3.87-43.03 35.42-67.67 87.55-67.67 143.26 0 102.28 83.21 185.48 185.48 185.48 36.12 0 71.14-10.39 101.25-30.06 29.31-19.14 52.55-46.01 67.2-77.71.89-1.76 4.21-9.78 5.1-12.14 7.92-20.92 11.93-42.94 11.93-65.57 0-46.51-17.15-90.68-48.39-124.93 4.84-4.69 9.7-8.58 14.75-11.81 8.65-5.54 18.05-10.77 26.33-15.38 13.9-7.73 21.94-12.31 25.56-16.45 6.99-8 10.03-15.63 9.3-23.34-.75-8-5.86-15.51-13.66-20.09-6.7-3.93-13.93-5.22-21.82-3.88 5.87-7.04 17.9-13.86 26.18-18.56 2.36-1.34 4.59-2.6 6.45-3.73 8.8-5.35 19.51-14.67 20.57-28.74.91-12.04-7.26-23.35-18.59-25.75zm-21.8 99.76c1.88 1.62 1.99 2.92 1.86 3.98-.64 5.04-8.54 11.83-13.93 14.48-20.66 10.19-46.47 31.56-47.54 32.55.25-1.97.32-18.65.2-24.94-.21-11.57-.57-30.94 1.03-35.64 1.14-3.34 4.21-7.62 7.64-7.62.44 0 4.2 1.79 4.97 3.34 1.3 2.63 1.3 6.64-.01 10.47-1.39 4.1.19 8.71 3.94 11.48 3.65 2.7 8.25 2.83 11.72.33l.3-.21c11.29-8.15 22.06-14.91 29.82-8.22zm13.92-66.53c-3.93 3.33-18.97 11.52-21.71 13.26-.4-1.93-3.49-13.16-4.71-16.71-1.36-3.98-2.55-7.76-3.5-11.57-1.31-5.26.71-10.08 2.94-7.85 1.34 1.34 3.63 13.58 3.63 13.58.2 2.41.68 4.45 1.41 6.09 1.15 2.62 2.94 4.21 5.24 4.62 1.86.33 5.37.08 7.87-5.29 1.21-2.59 7.19-8.11 11.56-8.65 1.27-.15 1.69.22 2.03.66 3.07 3.81-2.4 9.86-4.76 11.86z" fill="#fff"/></g></g></g><g id="illustration"><g><g><g><circle cx="249.44" cy="316.13" fill="#a1bde5" r="180.48"/><g fill="#c7d9ef"><path d="m157.53 236.18c-1.29-4.37-5.66-6.93-9.75-5.72s-6.35 5.74-5.06 10.11c1.3 4.37 5.66 6.93 9.75 5.72s6.35-5.74 5.06-10.11z"/><path d="m216.29 273.5c-1.3-4.37-5.66-6.93-9.75-5.72s-6.35 5.74-5.06 10.11c1.3 4.37 5.66 6.93 9.75 5.72s6.35-5.74 5.06-10.11z"/><path d="m279.47 309.45c-1.3-4.37-5.66-6.93-9.75-5.72s-6.35 5.74-5.06 10.11c1.3 4.37 5.66 6.93 9.75 5.72s6.35-5.74 5.06-10.11z"/><path d="m341.92 346.11c-1.3-4.37-5.66-6.93-9.75-5.72s-6.35 5.74-5.06 10.11c1.3 4.37 5.66 6.93 9.75 5.72s6.35-5.74 5.06-10.11z"/><path d="m395.35 376.33c-4.09 1.21-6.35 5.74-5.06 10.11 1.3 4.37 5.66 6.93 9.75 5.72s6.35-5.74 5.06-10.11c-1.3-4.37-5.66-6.93-9.75-5.72z"/><path d="m429.81 311.41c-2.97 1.81-4.44 5.63-3.34 9.33.57 1.93 1.74 3.5 3.22 4.56.13-2.84.21-5.7.21-8.57 0-1.78-.04-3.55-.09-5.32z"/><path d="m420.54 273.56c.84 2.82 2.95 4.88 5.44 5.67-.99-4.7-2.17-9.32-3.52-13.88-1.98 2.02-2.82 5.15-1.92 8.21z"/><path d="m352.11 173.81c1.3 4.37 5.66 6.93 9.75 5.72 1.1-.33 2.07-.9 2.87-1.64-4.01-3.34-8.17-6.5-12.47-9.48-.6 1.65-.7 3.54-.15 5.4z"/><path d="m79.93 361.71c-.98-3.3-3.71-5.57-6.75-5.96 1.11 5.06 2.43 10.04 3.96 14.93 2.59-1.93 3.82-5.49 2.79-8.97z"/><path d="m133.13 194.62c4.09-1.21 6.35-5.74 5.06-10.11-.82-2.76-2.86-4.79-5.27-5.62-3.37 2.85-6.63 5.82-9.78 8.9.06.37.13.73.24 1.1 1.3 4.37 5.67 6.94 9.75 5.73z"/><path d="m207.42 215.98c-1.29-4.37-5.66-6.93-9.75-5.72s-6.35 5.74-5.06 10.11c1.3 4.37 5.66 6.93 9.75 5.72s6.36-5.74 5.06-10.11z"/><path d="m271 253.3c-1.3-4.37-5.66-6.93-9.75-5.72s-6.35 5.74-5.06 10.11c1.3 4.37 5.66 6.93 9.75 5.72s6.36-5.74 5.06-10.11z"/><path d="m334.91 297.43c4.09-1.21 6.35-5.74 5.06-10.11s-5.66-6.93-9.75-5.72-6.35 5.74-5.06 10.11 5.66 6.93 9.75 5.72z"/><path d="m397.6 326.87c-1.3-4.37-5.66-6.93-9.75-5.72s-6.35 5.74-5.06 10.11 5.66 6.93 9.75 5.72 6.35-5.74 5.06-10.11z"/><path d="m185.44 179.76c4.09-1.21 6.35-5.74 5.06-10.11-1.3-4.37-5.66-6.93-9.75-5.72s-6.35 5.74-5.06 10.11 5.66 6.94 9.75 5.72z"/><path d="m260.02 204.39c-1.29-4.37-5.66-6.93-9.75-5.72s-6.35 5.74-5.06 10.11 5.66 6.93 9.75 5.72 6.35-5.74 5.06-10.11z"/><path d="m328.42 242.68c-1.3-4.37-5.66-6.93-9.75-5.72s-6.35 5.74-5.06 10.11c1.3 4.37 5.66 6.93 9.75 5.72s6.36-5.74 5.06-10.11z"/><path d="m390.64 276.7c-1.3-4.37-5.66-6.93-9.75-5.72s-6.35 5.74-5.06 10.11c1.3 4.37 5.66 6.93 9.75 5.72s6.35-5.74 5.06-10.11z"/><path d="m243.35 161.3c4.09-1.21 6.35-5.74 5.06-10.11s-5.66-6.93-9.75-5.72-6.35 5.74-5.06 10.11 5.66 6.93 9.75 5.72z"/><path d="m286.65 144.55c1.3 4.37 5.66 6.93 9.75 5.72 2.89-.86 4.87-3.38 5.32-6.32-4.98-1.5-10.04-2.8-15.19-3.88-.34 1.42-.33 2.96.12 4.48z"/><ellipse cx="307.33" cy="186.38" rx="7.72" ry="8.26" transform="matrix(.959 -.284 .284 .959 -40.274 94.937)"/><ellipse cx="370.91" cy="223.71" rx="7.72" ry="8.26" transform="matrix(.959 -.284 .284 .959 -48.265 114.57)"/><path d="m120.07 406.21c-4.09 1.21-6.35 5.74-5.06 10.11s5.66 6.93 9.75 5.72 6.35-5.74 5.06-10.11-5.66-6.94-9.75-5.72z"/><path d="m183.25 442.15c-4.09 1.21-6.35 5.74-5.06 10.11 1.3 4.37 5.66 6.93 9.75 5.72s6.35-5.74 5.06-10.11c-1.3-4.37-5.66-6.93-9.75-5.72z"/><path d="m238.73 472.49c-4.09 1.21-6.35 5.74-5.06 10.11 1.3 4.37 5.66 6.93 9.75 5.72s6.35-5.74 5.06-10.11-5.66-6.93-9.75-5.72z"/><ellipse cx="114.68" cy="357.26" rx="7.72" ry="8.26" transform="matrix(.959 -.284 .284 .959 -96.744 47.283)"/><path d="m184.54 391.73c-1.3-4.37-5.66-6.93-9.75-5.72s-6.35 5.74-5.06 10.11c1.3 4.37 5.66 6.93 9.75 5.72s6.35-5.74 5.06-10.11z"/><path d="m242.66 437.78c4.09-1.21 6.35-5.74 5.06-10.11-1.3-4.37-5.66-6.93-9.75-5.72s-6.35 5.74-5.06 10.11 5.66 6.94 9.75 5.72z"/><path d="m301.55 459.28c-4.09 1.21-6.35 5.74-5.06 10.11 1.3 4.37 5.66 6.93 9.75 5.72s6.35-5.74 5.06-10.11c-1.3-4.37-5.66-6.94-9.75-5.72z"/><path d="m105.51 312.81c-1.3-4.37-5.66-6.93-9.75-5.72s-6.35 5.74-5.06 10.11 5.66 6.93 9.75 5.72 6.36-5.74 5.06-10.11z"/><path d="m176.4 342.97c-1.3-4.37-5.66-6.93-9.75-5.72s-6.35 5.74-5.06 10.11 5.66 6.93 9.75 5.72 6.36-5.73 5.06-10.11z"/><path d="m238.85 379.63c-1.3-4.37-5.66-6.93-9.75-5.72s-6.35 5.74-5.06 10.11c1.3 4.37 5.66 6.93 9.75 5.72s6.36-5.73 5.06-10.11z"/><path d="m302.03 415.58c-1.3-4.37-5.66-6.93-9.75-5.72s-6.35 5.74-5.06 10.11c1.3 4.37 5.66 6.93 9.75 5.72s6.36-5.74 5.06-10.11z"/><path d="m354.91 439.42c-4.09 1.21-6.35 5.74-5.06 10.11s5.66 6.93 9.75 5.72 6.35-5.74 5.06-10.11c-1.3-4.37-5.66-6.93-9.75-5.72z"/><path d="m102.43 254.32c-1.29-4.37-5.66-6.93-9.75-5.72s-6.35 5.74-5.06 10.11c1.3 4.37 5.66 6.93 9.75 5.72s6.35-5.73 5.06-10.11z"/><path d="m162.15 291.65c-1.3-4.37-5.66-6.93-9.75-5.72s-6.35 5.74-5.06 10.11c1.3 4.37 5.66 6.93 9.75 5.72s6.36-5.74 5.06-10.11z"/><path d="m226.06 332.88c4.09-1.21 6.35-5.74 5.06-10.11-1.3-4.37-5.66-6.93-9.75-5.72s-6.35 5.74-5.06 10.11 5.66 6.93 9.75 5.72z"/><path d="m293.57 359.43c-1.3-4.37-5.66-6.93-9.75-5.72s-6.35 5.74-5.06 10.11c1.3 4.37 5.66 6.93 9.75 5.72s6.36-5.74 5.06-10.11z"/><path d="m356.75 395.38c-1.29-4.37-5.66-6.93-9.75-5.72s-6.35 5.74-5.06 10.11c1.3 4.37 5.66 6.93 9.75 5.72s6.35-5.74 5.06-10.11z"/></g></g><g><g><g><g><path d="m349.5 126.13c-1.07-5.23-4.75-9.96-7.88-14.24-3.29-4.49-6.9-8.76-10.8-12.77-1.06-1.09-2.14-2.16-3.25-3.21-.38-.43-.75-.85-1.12-1.27-2.64-3.07-5.16-6.24-7.61-9.48-16.34-30.59-41.8-55.67-66.35-61.99-1.52-.48-3.04-.94-4.57-1.37-4.43-1.26-9.01-2.85-13.59-3.02-6.1-.23-11.86 2.98-15.24 8.28-7.53-3.94-15.63-6.54-23.78-3.78-5.22 1.77-9.67 5.47-13.65 9.42-1.06 1.05-2.11 2.13-3.16 3.21-.87.62-1.73 1.27-2.58 1.94-.18.02-.36.1-.52.27-.15.17-.3.34-.46.51-7.63 6.24-14.64 14.6-20.75 24.35-2.33 2.9-4.63 5.81-6.9 8.76-2.42 3.14-4.86 6.3-6.7 9.89-1.93 3.77-3.04 7.97-4 12.15-1.05 4.54-1.84 9.16-2.38 13.82-.35 3.05-.51 6.14-.85 9.19-.37 1.91-.72 3.82-1.02 5.73-.24.87-.53 1.7-.85 2.52-1.11 1.92-2.22 3.85-3.34 5.77-2.62 4.53-5.47 9.01-7.8 13.68-1.99 3.98-3.22 8.61-1.52 12.85 1.63 4.09 5.8 5.93 9.8 7.43 3.93 1.48 7.87 2.95 11.81 4.42-2.63 2.77-4.83 6.16-4.86 9.93-.03 4.11 2.9 7.04 6.53 8.78 2.1 1.01 4.33 1.73 6.57 2.45 2.77 1.41 4.89 3.69 6.59 6.23 2.33 3.48 4.04 7.4 5.29 11.35 1.34 4.2 2.13 8.62 2.23 13.03.08 3.76-.35 8.61-3.19 11.55-1.3 1.35-3.74 2.25-5.42.99-1.03-.78-1.25-2.33-.45-3.35.49-.62 2.5-1.73 2.94-.55.46 1.24 2.45.44 1.99-.79-.76-2.07-3.58-2.03-5.28-1.03-2.08 1.22-2.85 3.73-1.82 5.82.96 1.93 3.28 2.77 5.43 2.48 2.36-.32 4.2-1.86 5.4-3.77 2.96-4.71 2.85-10.79 2.19-16.02-.74-5.86-2.51-11.61-5.23-16.9-1.19-2.32-2.61-4.65-4.37-6.66 1.67.76 3.3 1.6 4.88 2.52 2.97 3.15 11.75 12.14 16.35 23.28 2.9 7.02 1.16 18.28 1.08 23.02-3.55 17.1 5.12 32.92 19.7 43.5 2.22 1.61 4.6 3.03 7.08 4.26 13.19 11.05 30.2 16.79 47.94 14.61 33.09-4.06 57.06-34.25 56.5-69.25.53 3.03.81 6.11.82 9.2.01 3.93-.44 7.87-1.3 11.72-.87 3.87-2.25 7.6-3.6 11.33-2.3 6.38-5.33 14.01-3.09 20.72.91 2.72 2.92 5.02 5.87 5.81 2.4.64 5.27.33 7.18-1.34 2.2-1.93 2.5-5.64.01-7.44-2.44-1.77-6.45.2-6.02 3.2.18 1.3 2.32 1.04 2.13-.26-.15-1.08 1.21-1.87 2.23-1.49 1.26.47 1.5 2.18 1.11 3.25-.78 2.1-3.52 2.61-5.54 2.24-6.36-1.18-5.88-9.27-4.94-13.86 1.25-6.13 3.94-11.89 5.74-17.88 1.84-6.1 1.54-12.46 2.3-18.75.98-8.08-.18-14.99-1.86-21.05-2.68-9.65-6.68-17.15-5.5-23.83.6-3.39 4.94-8.95 6.32-11.81 1.32-2.17 2.78-4.27 4.38-6.27 3.5-4.39 7.61-8.31 12.25-11.61 4.66-3.32 10.64-6.33 11.6-12.36.44-2.77-.55-5.49-2.88-7.2-1.52-1.12-3.36-1.73-5.24-2.14 1.99-1.03 3.97-2.06 5.96-3.09 2.42-1.26 4.92-2.44 7.21-3.91 4.24-2.75 6.86-6.78 5.85-11.72zm-228.04 31.68c-1.89-2.99-1.48-6.54-.31-9.77-.04 1.61.16 3.25.72 4.92 2.4 4.67 6.61 8.35 10.54 11.02-3.83-1.4-8.73-2.65-10.95-6.17zm17.15 24.59c-1.56-2.65-.91-5.54.58-8.12-.74 3.14 0 6.39 2.02 8.86 1.43 1.75 3.2 3.05 5.06 4.2-2.98-.99-6.1-2.29-7.66-4.94zm41.75 69.36c-.06-.73-.09-1.47-.11-2.2 2.77 12.54 8.59 23.68 16.49 32.58-9.36-7.48-15.46-18.37-16.38-30.38zm31.51-224.54c-.21-.39-.61-.68-1.18-.65-.74.04-1.48.1-2.22.17-6.88-.65-13.65.63-20.15 3.51 1.73-1.34 3.55-2.53 5.5-3.46 4.94-2.35 10.26-2.44 15.5-.97 1.98.55 3.9 1.3 5.79 2.16-1.08-.31-2.16-.55-3.24-.76zm11.57-1.43c3.25-3.18 7.72-4.76 12.35-4.21.49.06.98.13 1.47.21-4.75.43-9.39 1.73-13.82 4zm111.05 122.88c2.22 1.71 2.5 4.52 1.48 6.98-1.12 2.72-3.5 4.64-5.92 6.31-.33.23-.66.45-.99.68.31-.33.58-.62.78-.84 2.55-2.85 5.49-6.47 5.2-10.8-.06-.88-.25-1.64-.55-2.33zm12.89-18.44c-.53 2.23-2.17 3.97-4.05 5.31-.71.51-1.45.97-2.21 1.41 2.07-1.77 3.7-3.87 4.18-6.29.7-3.59.46-6.96-.42-10.16.42.75.83 1.51 1.2 2.28 1.09 2.31 1.9 4.9 1.3 7.45z" fill="#a97c50"/><path d="m349.5 126.13c-1.07-5.23-4.75-9.96-7.88-14.24-3.29-4.49-6.9-8.76-10.8-12.77-1.06-1.09-2.14-2.16-3.25-3.21-.38-.43-.75-.85-1.12-1.27-1.87-2.17-3.67-4.41-5.43-6.68-2.42-.26-4.64-1.7-6.54-3.24-3.46-4.59-7.27-8.91-11.39-12.9-3.68-3.57-7.62-6.89-11.77-9.92-1.22-.89-.78.72 2.21 4.82 3 4.1 8.55 10.68 10.97 13.35.9 1.55 1.27 2.75.29 3.04-.55.16-12.25-6.73-17.01-9.39-1.11-.62-2.63.15-3.1 1.23-.55 1.27 8.53 12.03 3.85 9.24-.56-.33-2.96-.07-3.31.41-.16.22 2.27 2.81 4.83 5.57 2.78 3 5.72 6.2 5.64 6.75 1.52 2.53-4.8-.04-10.28-3-11.74-6.36-24.67-10-36.88-15.32-5.73-2.5-11.36-5.27-16.18-9.3-3.87-3.24-9.33-13.52-9.11-14.01-.11.24-.02.13-.08-.1-.05-.2 14.97 7.26 20.83 9.67 7.39 3.04 15.09 5.33 22.68 7.81 1.21.39-22.57-14.27-22.85-15.44-.4-1.6.3-2.7 1.4-3.45 1.85.33 3.72.62 5.57.93 4.59.77 17.46-1.85 14.48-2.35-4.29-.72-8.58-1.43-12.87-2.15-3.91-.65-7.87-1.21-11.72-2.16-4.19-1.03-8.48-2.87-11.48-5.93-1.11-1.69-1.8-3.78-1.16-5.74.05-.15.12-.29.18-.43.71-.27 7.16-1.48 7.75-2.06.55-.54.94-1.43.75-2.22-.14-.6-7.04-1.2-9.16-.47-1.5-.55-2.94-1.22-4.1-2.39-1.41-1.41-2-3.02-2.05-4.69-.86.89-1.65 1.87-2.33 2.94-1.48-.78-2.99-1.5-4.51-2.14 2.7 2.54 4.77 5.79 2.84 9.07-5.17 2.02-10.13 4.49-14.9 7.34-1.09.65-1.16 2.37-.45 3.3.84 1.1 12.6-3.87 16.99-.96.67.44.74 1.44-.01 1.73-9.7 3.78-16.65 11.42-23.75 18.7-6.79 6.98-46.93 39.32-50 38.88-1.86-.27-2.55-1.71-1.87-3.4.01-.01.01-.03.02-.04.61-.78 8.9-10.59 8.04-11.62-.76-.91-2.33-1.33-3.3-.44-3.76 3.44-7.15 7.24-10.1 11.38-.84.13-1.66-.01-2.42-.58-.59 3.08-1.08 6.19-1.44 9.32-.35 3.05-.51 6.14-.85 9.19-.37 1.91-.72 3.82-1.02 5.73-.17.61-.37 1.2-.58 1.79 1.14-1.26 2.29-2.5 3.49-3.7 12.14-12.22 26.63-21.69 40.6-31.64 13.95-9.94 27.71-20.61 37.67-34.73.6-.85 1.44 3.15 1.12 4.33-1.41 5.18-4.86 9.62-8.45 13.5-3.7 4-7.83 7.56-11.8 11.28-6.06 5.68-12.41 11.04-18.67 16.5-7.64 6.67-15.17 13.52-21.97 21.06-6.34 7.02-12.33 14.77-15.87 23.61-3.05 7.61-3.72 15.86-.55 23.5l3.12 1.17c-2.63 2.77-4.83 6.16-4.86 9.93-.03 4.11 2.9 7.04 6.53 8.78 2.1 1.01 4.33 1.73 6.57 2.45 2.77 1.41 4.89 3.69 6.59 6.23 2.33 3.48 4.04 7.4 5.29 11.35 1.34 4.2 2.13 8.62 2.23 13.03.08 3.76-.35 8.61-3.19 11.55-1.3 1.35-3.74 2.25-5.42.99-1.03-.78-1.25-2.33-.45-3.35.49-.62 2.5-1.73 2.94-.55.46 1.24 2.45.44 1.99-.79-.76-2.07-3.58-2.03-5.28-1.03-2.08 1.22-2.85 3.73-1.82 5.82.96 1.93 3.28 2.77 5.43 2.48 2.36-.32 4.2-1.86 5.4-3.77 2.96-4.71 2.85-10.79 2.19-16.02-.74-5.86-2.51-11.61-5.23-16.9-1.19-2.32-2.61-4.65-4.37-6.66 1.67.76 3.3 1.6 4.88 2.52 2.97 3.15 11.75 12.14 16.35 23.28 2.9 7.02 1.16 18.28 1.08 23.02-.41 1.96-.65 3.91-.74 5.84.37-.11.77-.21 1.19-.26 3.61-.42 6.93 1.71 8.78 4.67 3.21 5.13 3.71 11.55 7.3 16.47 1.78 2.45 3.94 4.59 6.04 6.76 2.13 2.19 4.06 4.46 5.86 6.92 1.33 1.83 3.1 3.67 2.92 6.1-.1 1.39-.67 2.62-1.51 3.65 12.71 9.46 28.48 14.23 44.88 12.21 12.92-1.59 24.44-7.17 33.67-15.45-2.1-.54-3.6-2.35-4.42-4.28-.4-.92-.96-2.09-1.29-3.21.22-.03 7.01-6.26 9.49-9.85.43-.63.38-1.49-.24-1.98-.26-.2-.59-.29-.93-.28 1.8-2.76 3.46-5.84 4.84-8.98 4.58-10.46 6.71-21.36 6.51-21.51 1.06-1.61 2.11-2.94 3.14-4.04-.27 5.88-2.87 18.9-2.12 19.23.63.28 5.25-11.39 4.99-21.05-.01-.25-.05-.48-.13-.69 3.23-2.48 5.65-2.7 5.86-2.71-.39-3.22-1.05-6.23-1.83-9.05-2.68-9.65-6.68-17.15-5.5-23.83.6-3.39 4.94-8.95 6.32-11.81 1.32-2.17 2.78-4.27 4.38-6.27 3.5-4.39 7.61-8.31 12.25-11.61 4.66-3.32 10.64-6.33 11.6-12.36.44-2.77-.55-5.49-2.88-7.2-1.52-1.12-3.36-1.73-5.24-2.14 1.99-1.03 3.97-2.06 5.96-3.09 2.42-1.26 4.92-2.44 7.21-3.91 4.22-2.74 6.84-6.77 5.83-11.71zm-210.89 56.27c-1.56-2.65-.91-5.54.58-8.12-.74 3.14 0 6.39 2.02 8.86 1.43 1.75 3.2 3.05 5.06 4.2-2.98-.99-6.1-2.29-7.66-4.94zm195.88-33.73c2.22 1.71 2.5 4.52 1.48 6.98-1.12 2.72-3.5 4.64-5.92 6.31-.33.23-.66.45-.99.68.31-.33.58-.62.78-.84 2.55-2.85 5.49-6.47 5.2-10.8-.06-.88-.25-1.64-.55-2.33zm12.89-18.44c-.53 2.23-2.17 3.97-4.05 5.31-.71.51-1.45.97-2.21 1.41 2.07-1.77 3.7-3.87 4.18-6.29.7-3.59.46-6.96-.42-10.16.42.75.83 1.51 1.2 2.28 1.09 2.31 1.9 4.9 1.3 7.45z" fill="#8b5e3c"/><g fill="#c49a6c"><path d="m300.07 258.15c-1.03 1.25-2.15 2.4-3.36 3.46.88-2.17 1.75-4.34 2.63-6.51.68-1.69-5.61 6.36-7.12 10.1-.56 1.38.99 2.41 2.15 1.68.84-.53 1.64-1.1 2.42-1.7-2.96 5.83-9.61 19.57-8.46 18.16 5.86-7.18 10.64-15.2 14.15-23.77.61-1.49-1.39-2.67-2.41-1.42z"/><path d="m187.82 260.17c-.72-1.66-3.36-.59-2.61 1.08 7.25 16.16 16.84 20.9 15.65 19.53-5.38-6.18-9.77-13.11-13.04-20.61z"/><path d="m176.45 94.13c-.42-.22-4.07 1.96-5.38 2.91-14.45 9.01-28.54 19.03-39.08 32.56-3.06 3.94-5.77 8.14-8.06 12.58-.83 1.62 14.15-16.19 21.86-23.19-5.26 5.89-9.47 12.53-13.23 19.63-5.83 11.01-.42 18.07-.69 16.27-.74-5.02.89-9.91 2.95-14.43 1.99-4.36 4.45-8.49 7.25-12.38 5.79-8.03 12.94-14.95 20.61-21.16 3.27-2.64 6.63-5.16 10.05-7.61 1.48-.92 4.86-5 3.72-5.18z"/><path d="m198.26 30.54c-12.21 5.88-22.87 14.7-30.88 25.62-.91 1.24.72 3.09 1.97 1.99 2.92-2.56 6.03-4.9 9.33-6.96 2.18-1.36 4.62-2.92 7.2-3.58-6.68 6.27-13.22 12.73-18.46 20.27-.94 1.35.61 2.85 1.97 1.99 4.66-2.94 9.39-5.76 14.2-8.45 2.36-1.32 4.74-2.6 7.13-3.86.25-.13.5-.26.76-.4-11.36 9.28-22.33 19.02-32.88 29.21-1.29 1.25 26.96-20.98 40.39-31.65 1.19-.94.31-2.52-1.03-2.52-2.78-.01-5.3 1.17-7.72 2.43-2.6 1.35-5.17 2.75-7.73 4.17-2.77 1.55-5.52 3.15-8.25 4.78 4.96-5.92 10.63-11.24 16.28-16.51.85-.79.64-2.34-.65-2.52-4.34-.61-8.26 1.56-11.85 3.71-.14.08-.27.17-.4.25 6.32-6.26 22.27-18.76 20.62-17.97z"/><path d="m246.03 70.08c-1.77-.43-2.75 1.8-1.12 2.59 12.18 5.9 24.34 11.63 37.17 16.34 3.21 1.18-16.72-14.25-36.05-18.93z"/><path d="m288.6 55.35c-11.25-10.14-25.77-16.5-40.85-17.94 2.85-2.3 7.81-1.47 11.07-.82 4.58.9 15.42 3.16 14.77 2.77-4.8-2.85-10.03-4.85-15.55-5.78-5.15-.86-11.6-.88-14.31 4.47-.39.77.21 1.9 1.09 1.95 12.88.76 25.33 5.19 35.8 12.61-.63-.16-1.26-.32-1.9-.44-1.62-.31-3.26-.46-4.91-.43-1.36.02-3.01.11-3.71 1.49-.7 1.4.28 2.74 1.28 3.64 1.37 1.24 2.83 2.39 4.24 3.59.88.75 1.77 1.5 2.65 2.25-1.38-.45-2.77-.88-4.17-1.27-1.8-.5-3.61-.93-5.45-1.26-1.76-.32-3.84-.83-5.64-.58-1.54.21-2.63 1.62-1.86 3.11.36.7 1.11 1.21 1.69 1.72.74.65 1.49 1.28 2.26 1.91 3.05 2.49 6.27 4.77 9.63 6.83 1.53.94-3.56-5.68-6.07-7.61-1.25-.97-2.47-1.97-3.67-3 .33.01.61.02.7.03 6.47.8 12.63 3.03 18.72 5.24 1.5.54 2.68-1.35 1.43-2.41-2.18-1.84-4.36-3.69-6.53-5.53l-3.36-2.84c-.53-.45-1.06-.9-1.59-1.35-.29-.25-.59-.49-.88-.75-.08-.07-.19-.2-.3-.32.21-.03.43-.07.57-.08.63-.02 1.27 0 1.9.05 1.31.1 2.61.33 3.89.63 2.61.62 5.13 1.59 7.63 2.54 1.53.58 2.62-1.35 1.43-2.42z"/></g></g><g><g><path d="m128.87 450.36c31.98 28.78 74.29 46.3 120.7 46.3 71.46 0 133.22-41.54 162.46-101.78 2.51-4.33 4.87-9.76 4.92-12.89.18-10.91-33.59-10.54-33.86-12.5-8.6-63.53-75.78-39.73-141.23-39.73-44.23 0-80.9-9.83-101.91 3.5-4.79 1.36-11.51 4.42-16.35 12.42-6.49 10.72-9.62 30.32-.23 66.59 1.54 11.8 3.57 25.7 5.5 38.09z" fill="#f1f2f2"/><g><path d="m314.01 319.29c-21.38-4.83-38.1-22.2-40.28-38.35v-40.67h-49.66v40.67c-2.18 16.16-18.9 33.52-40.28 38.35-24.78 5.6-39.41 13.11-48.09 20.35 15.76 17.12 35.25 30.71 57.18 39.47 17.87 7.14 37.37 11.06 57.77 11.06s39.9-3.92 57.77-11.06c21.21-8.47 40.13-21.45 55.61-37.78-8.39-7.74-23.31-16-50.02-22.04z" fill="#f0d0b4"/><path d="m363.71 341.01c-8.38-7.74-23.3-16-50.02-22.04-21.38-4.83-38.1-22.2-40.28-38.35v3.21c2.18 16.16 18.9 33.52 40.28 38.35 7.43 1.68 13.95 3.53 19.67 5.5-20.31 7.57-42.16 9-63.61 10.31-1.61.1-1.62 2.63 0 2.53 22.61-1.39 45.72-2.88 66.98-11.45.08-.03.15-.07.21-.11 11.57 4.33 19.56 9.11 25.09 13.78.57-.57 1.12-1.15 1.68-1.73z" fill="#f4e1d3"/><path d="m273.56 280.94v-40.67h-49.66v40.67c-2.18 16.16-18.9 33.52-40.28 38.35-24.78 5.6-39.41 13.11-48.09 20.35 1.95 2.12 3.96 4.19 6.03 6.2.37-.65.75-1.3 1.15-1.93.97-1.52 2.09-3 3.52-4.1 14.26-8.14 31.64-3.78 47-1.6 8.87 1.26 17.81 1.95 26.77 2 4.62.03 9.24-.11 13.86-.42 2.94-.19 7.74-.39 7.78-4.5.05-4.48-6.8-3.99-9.69-4.17-.25-.02-.51-.03-.76-.04 1.19-.3 2.37-.62 3.54-.97 11.85-3.54 22.42-9.58 30.24-19.37 5.33-6.66 9.04-14.62 10.33-23.02-.85-2.25-1.44-4.53-1.74-6.78z" fill="#edba94"/></g><path d="m368.51 341.75c-1.6-1.23-1.44-3.85-.05-5.13.5-.46.53-1.43 0-1.89-1.23-1.05-2.58-1.12-4.13-.91-.61.09-1.35.32-1.96.16-.24-.06-.46-.19-.65-.34-.12-.1-.18-.16-.21-.2 1.09-1.2-.74-2.98-1.95-1.81-1.55 1.5-.5 3.58 1.12 4.51.89.51 1.82.61 2.82.48.49-.06 1.2-.26 1.86-.3-1 1.95-.8 4.35.39 6.18-.62-.25-1.4-.71-1.61-.81-1.1-.51-2.36-.65-3.44-.03-1.54.87-1.96 2.79-2.33 4.37-.17.71-.28 1.5-.64 2.14-.37.67-.71.63-1.43.35-1.11-.42-2.13-.95-3.36-.61-.92.25-1.61.92-2.03 1.75-.85 1.67-.55 3.8-1.54 5.38-.58.92-1.64.94-2.63.96-1.19.02-2.41-.05-3.56.33-2.28.75-3.04 2.88-3.74 4.95-.24.7-.5 1.7-1.18 2.1-1.1.66-2.97-.39-4.15-.47-3.11-.21-4.91 2.46-6.02 4.98-.53 1.2-1.13 3.02-2.41 3.65-.5.24-2.02.36-2.1-.45-.07-.7-.56-1.36-1.33-1.33-2.48.09-4.03 1.96-5.04 4.05-.65 1.35-1.81 5.24-3.92 4.79-.88-.19-1.48-1.25-2.07-1.84-.78-.78-1.74-1.39-2.88-1.41-1.73-.03-2.9 1.22-3.72 2.61-.71 1.2-1.23 2.99-2.43 3.8-1.46.98-3.28-1.24-4.35-2.01-1.51-1.09-3.38-1.6-5.12-.7-1.48.77-2.4 2.28-3.24 3.66-.57.93-1.4 2.85-2.68 2.96-.78.07-1.52-.66-2.09-1.09-.9-.68-1.84-1.31-3.01-1.38-1.89-.11-3.21 1.15-4.26 2.57-.79 1.08-1.58 2.91-2.91 3.43-1.57.61-3.38-1.38-4.55-2.16-1.59-1.06-3.54-1.56-5.15-.24-.67.55-1.11 1.31-1.46 2.09-.26.58-.55 1.84-1.14 2.15-.54.28-.89-.27-1.18-.67-.6-.81-1.07-1.71-1.73-2.48-1.96-2.27-4.67-1.73-6.8-.01-1.1.89-2.02 2.14-3.42 2.56-1.54.46-1.56-1.07-2.01-2.13-1.07-2.58-3.77-2.87-6.1-1.85-1.27.56-2.25 1.42-3.29 2.32-.95.82-2.08 1.75-3.33 1.67-.42-1.76-1.02-3.58-2.4-4.81-1.4-1.24-3.53-1.84-5.28-.97-.77.38-1.31 1.02-1.78 1.72-.39.59-.77 1.75-1.59 1.82-.8.07-1.62-.89-2.06-1.43-.65-.81-1.04-1.76-1.58-2.63-.99-1.56-2.45-3.24-4.41-3.44-1.86-.19-3.06 1.05-4.09 2.41-.2.27-.75 1.21-1.18 1.05-.29-.11-.43-.82-.5-1.06-.42-1.4-.67-2.92-1.77-3.98-1.47-1.41-3.42-.96-5.05-.15-1.62.8-3.15 1.95-4.84.6-.63-.51-1.14-1.29-1.2-2.11-.03-.41.14-.8.08-1.21-.07-.51-.42-.88-.81-1.19-1.15-.94-2.64-.77-3.94-.27-1.28.49-2.56 1.4-3.95 1.56-1.27.15-1.81-.96-2.2-1.99-.87-2.3-1.64-5.83-4.87-5.35-.99.15-1.75.71-2.51 1.32-.43.35-1.17 1.16-1.78.82-.48-.26-.68-1.22-.82-1.68-.27-.89-.48-1.79-.83-2.66-1.35-3.4-5.75-4.67-8.63-2.51-1.39-.84-1.96-3.31-2.65-4.57-1.31-2.38-3.49-3.19-5.86-1.6-.54.36-1.03.85-1.57.27-.46-.5-.59-1.29-.64-1.93-.11-1.73.07-3.53-1.02-5.01-1.62-2.2-4.18-1.88-6.39-.86.18-2.22-.14-4.47-1.99-5.9-1.2-.93-2.81-1.31-4.21-.95.1-.76.38-1.5.87-2.19.51-.73-.03-1.72-.8-1.96-1.92-.59-3.91-.29-5.56.72-.7-.96-1.41-1.91-2.11-2.87.55-.17 1.23-.03 1.41.55.52 1.63 3.1.93 2.57-.71-.95-2.96-5.43-3.55-6.92-.71-.21.39-.28.96 0 1.35 1.21 1.64 2.42 3.28 3.62 4.93.51.69 1.42.91 2.09.27.19-.18.4-.34.61-.48-.39.85-.7 1.74-.93 2.64-.22.91-.56 2.07.24 2.8.6.55 1.54.53 2.11-.06.27-.28.44-.67.43-1.06-.01-.3-.1-.55-.26-.76.02-.09.04-.17.06-.26.01-.04.02-.07.03-.11.04.21.07.41.14.62.33 1.1 1.84 1.31 2.44.32.31-.51.87-.61 1.43-.49-.01.04-.03.07-.04.1-.55 2.25-.81 4.58-.73 6.9.02.7.6 1.37 1.33 1.33.55-.02 1.06-.37 1.25-.87.33.68 1.11 1.16 1.82.62.8-.6 1.75-1.29 2.76-1.65-.09 2.48-.06 4.96.07 7.43.04.7.59 1.37 1.33 1.33.69-.03 1.37-.59 1.33-1.33-.13-2.29-.15-4.58-.08-6.88.34.64.37 1.55.39 2.3.05 2.47.98 6.13 4.2 5.75.71-.08 1.32-.43 1.91-.81.06-.04.12-.09.19-.13.07.38.14.77.19 1.15 0 .01.03.19.03.23.01.1.03.2.04.3.03.27.06.55.09.82.11 1.08.17 2.16.19 3.25.01.7.6 1.37 1.33 1.33.71-.03 1.35-.59 1.33-1.33-.02-1.1-.09-2.2-.2-3.29.61 1.35 1.26 2.69 2.47 3.58 1.01.74 2.03.98 3.03.15.48-.39 1.05-.61 1.64-.67.23 1.98.45 3.97.68 5.95.08.69.56 1.37 1.33 1.33.65-.03 1.42-.59 1.33-1.33-.18-1.56-.36-3.13-.53-4.69.97 1.42 1.01 3.68 1.91 5.08.63.97 1.59 1.6 2.76 1.64 1.41.04 2.39-.86 3.43-1.67.1-.08.2-.15.29-.22-.04 2.61.09 5.21.41 7.8.08.69.55 1.37 1.33 1.33.73-.03 1.33-.59 1.33-1.33 0-.55.01-1.1.01-1.66 0-.27-.09-.53-.24-.75-.06-.72-.1-1.43-.13-2.15.85 2.11 2.24 4 4.82 3.76 1.36-.13 2.59-.75 3.81-1.32.05-.02.1-.05.14-.07.24 2.24.48 4.48.72 6.72.05.48.22.89.66 1.15.39.23.96.27 1.35 0 .52-.36.87-.89.84-1.55-.01-.34-.13-.69-.33-.98-.09-.84-.18-1.69-.27-2.53.97 1.39 2.51 2.38 4.3 2.47 1.78.09 3.21-.95 4.75-1.68-.2 1.56-.3 3.12-.23 4.7.02.5.01 1.04.14 1.52.2.77.93 1.29 1.72 1.19.86-.12 1.39-1.01 1.18-1.83-.06-.24-.19-.45-.36-.63-.01-.22-.02-.43-.03-.65-.01-.55-.01-1.1.01-1.65.01-.39.05-.78.08-1.16.32 1.15.56 2.44 1.45 3.31 1 .98 2.56 1.04 3.71.29.96-.63 1.47-2.08 2.41-2.7.21 2.28.41 4.56.62 6.83.06.69.57 1.37 1.33 1.33.67-.03 1.4-.59 1.33-1.33-.17-1.86-.33-3.71-.5-5.57.39.56.71 1.14.9 1.5 1.39 2.64 4.8 6.34 7.85 3.48.78-.73 1.22-2.27 2.19-2.78-.26 2.34-.24 4.69 0 7.02-.06.22-.07.46-.01.7s.12.48.17.72c.16.68.97 1.15 1.64.93.76-.25 1.04-.9.93-1.64-.31-2.16-.34-4.56-.15-6.87.69.86 1.03 2.09 1.28 3.09.24.99.42 1.62 1.47 1.96.88.28 1.86.24 2.73-.04 1.82-.58 3.12-1.95 4.56-3.12.24-.2.59-.45.99-.68v.01c.03.27.05.54.07.81.04.56.06 1.13.06 1.69.01 1.13-.06 2.26-.19 3.38-.08.7.67 1.36 1.33 1.33.79-.04 1.25-.59 1.33-1.33.25-2.13.21-4.25-.01-6.37.15.09.28.22.39.39.39.61.45 1.42.76 2.08.36.77.93 1.41 1.71 1.77 1.59.74 3.46.07 4.81-.88.81-.57 1.85-1.9 2.95-2.61-.1 2.91-.15 5.83-.13 8.74.02 1.71 2.68 1.72 2.67 0-.03-2.83.02-5.66.12-8.48.55.62.96 1.5 1.34 2.04.74 1.05 1.71 2.05 3.08 2.08 1.42.03 2.51-.86 3.17-2.05.41-.75.7-2.24 1.45-2.86v7.56c0 .7.61 1.37 1.33 1.33.72-.03 1.33-.59 1.33-1.33v-6.8c.19.15.36.29.51.4 1.13.83 2.3 1.67 3.72 1.87 2.88.41 4.51-2.04 5.92-4.12.36-.53.84-1.33 1.47-1.72v3.76 1.9.95.17c-.2.25-.32.56-.34.87-.03.81.6 1.5 1.4 1.53.75.03 1.35-.55 1.53-1.24.14-.54.06-1.17.06-1.73l-.01-5.51c.57.45 1.12.93 1.62 1.15 2.58 1.14 4.6-.53 5.97-2.6.7-1.06 1.66-3.42 3.09-3.97-.36 2.64-.61 5.3-.74 7.97-.02.09-.03.17-.03.26-.01.26-.01.51-.02.77-.02.72.63 1.33 1.33 1.33.74 0 1.31-.61 1.33-1.33.1-2.76.32-5.51.69-8.25.66.51 1.28 1.12 1.91 1.56 1.15.79 2.53 1.27 3.92.88 2.5-.71 3.33-3.43 4.56-5.41-.36 2.52-.47 5.06-.26 7.6.06.69.57 1.37 1.33 1.33.67-.03 1.39-.59 1.33-1.33-.21-2.57-.11-5.16.29-7.68.2.24.39.48.59.68.56.57 1.19 1.08 1.96 1.35 3.65 1.28 5.82-2.81 7.02-5.48.21-.46.46-1.02.77-1.53-.08.87-.15 1.74-.23 2.61-.06.73-.13 1.45-.19 2.18-.03.36-.06.73-.1 1.09-.01.13-.02.26-.03.39-.4.46-.43 1.17-.13 1.69.46.79 1.61.87 2.24.24.49-.49.49-1.14.55-1.78.05-.58.1-1.15.15-1.73.14-1.63.29-3.26.43-4.9.93.51 2.1.67 3.23.38 2.93-.74 3.75-3.91 4.97-6.25.3-.57.67-1.19 1.15-1.67-.11 2.51-.22 5.03-.33 7.54-.03.7.63 1.36 1.33 1.33.75-.03 1.3-.59 1.33-1.33.12-2.74.24-5.48.36-8.21 1.21.23 2.38.77 3.68.46 2.49-.6 3.12-3.06 3.87-5.17.28-.77.62-1.5 1.28-1.91-.02.09-.06.18-.07.28-.14 1.56-.29 3.12-.43 4.67-.09.93-.34 1.97.52 2.63.69.53 1.63.28 2.09-.42.29-.44.27-1.06-.01-1.51 0-.01 0-.01 0-.02.02-.25.05-.49.07-.74.05-.51.09-1.03.14-1.54.09-1.03.19-2.05.28-3.08.02-.25-.06-.5-.2-.71.79 0 1.58.04 2.34-.08 2.47-.39 3.66-2.29 4.16-4.58.01-.04.01-.08.02-.12-.03 1.15-.08 2.31-.17 3.46-.06.7.65 1.36 1.33 1.33.77-.03 1.27-.59 1.33-1.33.17-2.12.22-4.25.16-6.38.02.01.03.01.05.02 2.24.93 4.18.11 5.07-2.12.17-.44.3-.88.42-1.33.02 1.08 0 2.16-.07 3.24-.04.7.64 1.36 1.33 1.33.76-.03 1.29-.59 1.33-1.33.14-2.19.09-4.39-.12-6.58.34.19.66.42.91.54.65.33 1.3.57 2.04.58 1.34.02 2.66-.66 2.96-2.04.24-.58-.02-1.06-.52-1.44zm-223.08 10.13c.02-.59.05-1.19.11-1.78.01-.12.03-.25.04-.37 0-.04.02-.14.02-.19.02-.16.05-.32.07-.47.09.91-.06 1.91-.24 2.81z" fill="#fff"/></g><g><path d="m249.11 354.19c28.04.51 51.34-18.42 53.1-42.61.03-.42-.31-.78-.73-.79-.39-.01-.71.29-.74.68-1.7 23.41-24.35 41.73-51.6 41.24-27.26-.49-49.22-19.62-50.08-43.08-.01-.39-.32-.7-.72-.71-.42-.01-.77.34-.76.76.89 24.24 23.49 44 51.53 44.51z" fill="#c2b560"/><g fill="#fff"><path d="m252.45 352.25c-3.03-.05-3.12 4.65-.09 4.7s3.12-4.65.09-4.7z"/><path d="m292.75 337.89c-.09-.29-.25-.55-.47-.77-.21-.23-.46-.4-.75-.5-.28-.15-.58-.23-.9-.22-.21.02-.42.05-.63.07-.4.1-.75.3-1.05.59-.13.16-.25.31-.38.47-.22.36-.33.76-.34 1.18l-.01.4c-.02.32.04.63.19.91.09.29.25.55.47.77.21.23.46.4.75.5.28.15.58.23.9.22.21-.02.42-.05.63-.07.4-.1.75-.3 1.05-.59.13-.16.25-.31.38-.47.22-.36.33-.76.34-1.18l.01-.4c.02-.32-.04-.62-.19-.91z"/><path d="m209.18 336.95c-3.03-.05-3.12 4.65-.09 4.7 3.04.06 3.13-4.64.09-4.7z"/><path d="m225.5 348.53c-3.03-.05-3.12 4.65-.09 4.7 3.03.06 3.12-4.64.09-4.7z"/><path d="m275.92 347.43c-3.03-.05-3.12 4.65-.09 4.7 3.03.06 3.12-4.64.09-4.7z"/></g></g><g><path d="m310.72 331.62c.15 7-11.13 48.78-18.98 77.77h43.2c.55-28.71 1.13-72.31 3.73-76.37 3.96-6.18 11.22-22.53 11.76-26.86.41 5.05 1.55 6.78 2.65 6.55.13-.03 1.66-8.02 1.94-19.77.11-4.69.8-10.55-.07-15.86-1.22-4.78-1.75-8.53-7.41-3.27 2.07-11.24-1.48-10.11-5.12-6.77-2.94 2.68-5.94 6.8-6.13 7.03.34-.54 3.47-5.92 4.07-7.64 2.27-6.46.32-10.72-7.47-2.73-1.11 1.14-5.29 6.17-6.07 7.14 6.01-9.61 17.12-26.46 20.21-31.57 5.2-8.6 5.36-11.51 4.02-12.25-.19-.11-11.09 12.38-21.97 25.28-10.94 12.97-21.86 26.35-21.86 27.76-.02 5.77.84 17.93 1.71 29.01.87 11.09 1.76 21.09 1.79 22.55z" fill="#f0d0b4"/><g><path d="m352.12 312.22c-.55-9.24-1.44-18.47-2.5-27.66-.15.13-1.69 2.85-3.68 5.41-.61.78 1.18 10.64.82 18-.32 6.51-2.12 12.24-3.14 15.62 3.28-6.88 6.46-14.76 6.81-17.57.29 3.56.95 5.47 1.69 6.2z" fill="#e8ab82"/><path d="m318.34 283.43c-.03.1-.08.17-.12.25 1.02.48 5.38 2.53 6.17 2.97.34-.4 10.68-11.06 11.49-11.94.66-1.1 3.92-6.83 4.48-8.42 1.22-3.48 1.22-6.32-.26-6.95-.02.04.21 3.06-1.15 5.65-.32.61-11.07 15.01-14.1 17.59-2.51 2.13-6.34.21-6.51.85z" fill="#e8ab82"/><g><path d="m310.72 331.47c.14 6.5-9.55 42.89-17.22 71.28h4.74s17.78-62.34 17.12-68.28c-2.08-18.56-7.34-52.31-8.13-54.08.02 5.94.86 17.74 1.7 28.54.87 11.08 1.76 21.08 1.79 22.54z" fill="#f4e1d3"/><path d="m293.2 407.38 41.74 1.86c.55-28.71 1.13-72.31 3.73-76.37.47-.73-1.46 1.6-3.28 7.49-.23.75-2.02 41.41-6.57 56.1-.54 1.75-5.05 4.82-10.22 5.68-3.92.65-8.07-.89-12.09 0-7.85 1.73-13.31 5.24-13.31 5.24z" fill="#edba94"/><path d="m327.41 269.88c6.18-9.79 16.73-25.97 19.62-30.75 1.89-3.13 3.12-5.51 3.85-7.3 1.27-3.13 1.03-4.48.17-4.95-.06-.03-.18 3.78-3.23 8.99-2.01 3.44-9.84 14.31-17.65 24.59-7.26 9.56-14.51 18.62-17.03 20.73.96.49 1.91.98 2.78 1.4.21.1 10.53-11.68 11.49-12.71z" fill="#e8ab82"/></g><g><path d="m346.64 264.82c-.03.08-.07.16-.13.24.4 1.79.42 5.37-.81 6.78-2.13 2.45-10.99 12.9-16.54 17.83 1.16.71 2.21 1.32 3.09 1.67 1.25-2.52 4.38-3.33 4.95-3.87 3.6-5.01 9.95-13.06 10.31-13.36 1.52-6.2.57-8.94-.87-9.29z" fill="#e8ab82"/></g></g></g><g><g><path d="m367.5 296.53c3.46 10.56 6.68 20.08 7.05 21.49 1.5 5.65.98 36.68.3 64.24h40.33c-6.2-27.76-14.6-65.21-13.13-69.47 2.39-6.94 5.52-30.57 5.02-34.9-.4-3.09.29-12.64-.54-19.63-.8-6.72-3.01-11.08-8.93-5.05-.64-11.41-4.72-9.5-7.47-5.4-2.22 3.3-4.17 8-4.3 8.27.2-.6 1.97-6.57 2.16-8.39.68-6.82-2.22-10.5-7.9-.89-.81 1.37-3.69 7.25-4.22 8.37 3.57-10.75 10.4-29.75 12.2-35.45 3.03-9.59 2.5-12.45 1.02-12.85-.21-.06-7.86 14.65-15.38 29.75-7.57 15.18-15.03 30.76-14.7 32.13 1.33 5.61 5.03 17.22 8.49 27.78z" fill="#f0d0b4"/></g><g><g fill="#edba94"><path d="m375.47 359.41c-.27 9.83-.58 21.52-.61 22.85h40.33c-.2-.89-.4-1.79-.6-2.7-2.2-.23-6.41-.33-11.74-1.61-1.43-.34-4.34-2.66-5.64-2.82-3.89-.49-5.18 1.62-8.87 1.21-2.9-.32-5.55-1.79-7.66-1.61-1.76.15-5.2-15.88-5.21-15.32z"/><path d="m413.94 376.68c-.02-.07-.03-.14-.05-.21-.08.07-.05.14.05.21z"/></g><g fill="#e8ab82"><path d="m362.73 264.28c-1.41 1.14-.66 5.74.75 4.61 4.9-3.94 12.34-13.29 16.79-19.53-4.97 5.66-11.67 10.2-17.54 14.92z"/><path d="m389.94 305.4c1.29-.32 8.62-21.1 10.78-22.98.82-.71 3.05-14.84 3.8-19.02.05-.29-.04-3.82-1.38-1.24-3.93 7.56-11.32 16.96-12.8 15.82-1.28-.99 5.15-14.55 6.75-21.26.91-3.8-1.04-.65-1.21-.6-.53-.84-11.99 24.29-15.02 24.29-1.89 0 2.53-12.61 4.43-18.95 1.14-3.81.11-3.03-.2-2.42-.77 1.5-6.85 16.73-8.87 17.74-1.94.97-2.02-.4-1.6-2.06.5-1.99 2.01-4.99 2.87-6.87 3.02-6.65 7.38-16.74 7.05-19.77-.11-1.03-2.07 5.73-5.39 11.76-.98 1.77-2.06 3.49-3.26 5.12-1.21 1.64-2.61 3.14-3.79 4.81-1.11 1.56-1.95 3.41-1.79 5.37.03.39 8.57 8.89 11.36 15.76 3.8 9.33 6.66 14.9 8.27 14.5z"/><path d="m387.79 208.18c-1.81 4.03-23.02 46.99-25.52 51.53-.88 1.59 20.21-32.57 27.96-50.11.72-1.64-1.3-3.97-2.44-1.42z"/></g></g><g fill="#f4e1d3"><g><path d="m398.9 252.04c-3.73 8.06-7.13 16.27-10.18 24.62-.62 1.71 2.1 2.44 2.72.75 2.96-8.12 8.22-27.02 7.46-25.37z"/><path d="m390.52 246.43c-4.55 10.52-8.57 21.26-12 32.19-.55 1.74 2.18 2.48 2.72.75 3.36-10.69 10-34.6 9.28-32.94z"/></g><path d="m382.48 247.76c.81-1.17 1.38.05 2.15-1.15.99-1.53-1.46-2.95-2.44-1.42-5.56 8.63-12.22 16.48-19.82 23.39-.35.31-.47.68-.44 1.03-.12.2 3.1 17.65 3.81 17.46.76-.21-1.09-13.09-1.17-16.68 6.64-6.07 12.79-15.26 17.91-22.63z"/></g></g><g fill="#fff"><path d="m212.79 469.29c-3.91-8.44-7.31-17.17-10.59-25.91-3.27-8.72-6.24-17.55-9.13-26.42-2.5-7.67-5.81-15.05-8.35-22.67-3.98-11.9-17.62-21.52-16.37-20.28 9.98 9.99 16.73 27.06 21.71 42.26 5.79 17.65 11.88 35.21 19.4 52.11 3.85 8.65 8.43 17.13 15.15 23.6 1.26 1.21 5.06 2.06 3.8.85-5.96-5.73-12.09-15.92-15.62-23.54z"/><path d="m128.74 423.07c-5.29-12.33-8.22-25.64-9.29-39.02-.6-7.52-.79-18.2-1.19-23.44-.14-1.81-3.63 23.78 1.08 41.6 3.49 13.21 7.89 26.26 14.68 38.12 3.84 6.71 8.29 13.06 13.26 18.99 1.17 1.39 3.19-.64 2-2-7.58-8.59-14.47-20.12-20.54-34.25z"/><path d="m340.01 407.29c-2.78-.53-5.61-.15-8.08 1.16-.95-1.12-2.38-1.82-3.86-1.98-2-.22-3.69.58-4.98 2.08-.4.47-.97 1.47-1.69 1.17-.7-.29-1.27-1.36-1.75-1.92-1.23-1.42-2.92-2.26-4.81-1.7-1.87.55-3.21 2.27-5.08 2.74-1.83.47-3.73-1.03-5.33-1.71-2.02-.86-3.97-.94-5.83.33-1.07.73-1.83 1.19-3.14.75-1.22-.41-2.28-1.19-3.49-1.64-1.82-.67-4.36-.58-5.74.94-.71.78-.95 1.87-.75 2.89.11.57.35 1.11.61 1.63.15.31.42.69.5 1.06-.23.16-.41.4-.52.73-6.27 19.67-12.53 39.34-18.8 59-1.76 5.51-3.51 11.03-5.27 16.54-.55 1.73 15.25-38.59 21.52-58.25l5.09-15.97c.34-.14.61-.43.71-.91.21-1 .04-1.86-.38-2.78-.23-.5-1.01-1.5-.63-2.05.28-.4 1.13-.41 1.55-.4.94.03 1.69.45 2.51.87 1.98 1.02 4.15 1.95 6.31.88.87-.43 1.63-1.33 2.62-1.48.76-.11 1.58.24 2.26.54 1.71.77 3.34 1.83 5.27 1.93 1.88.1 3.43-.92 4.93-1.91 1.36-.9 2.45-1.62 3.71-.24 1.06 1.16 1.9 2.64 3.57 2.97 1.07.21 2.12-.17 2.94-.86.76-.64 1.25-1.65 2.13-2.15 1.53-.86 3.48 0 4.14 1.52.29.67 1.36.9 1.93.51 1.6-1.1 3.44-1.72 5.35-1.73-.56.75-1.36 1.28-2.33 1.54-.55.15-.86.52-.96.94-.14.19-.24.43-.27.71-1.66 15.55-5.6 62.17-5.31 60.38 2.54-15.6 4.75-31.26 6.62-46.96.5-4.2.97-8.4 1.42-12.61 2.12-.83 3.72-2.6 4.3-4.84.17-.68-.23-1.58-.99-1.72z"/><path d="m414.41 377.36c-1.62.57-3.04 1.53-4.11 2.82-1.64-2.21-4.07-4.18-6.82-3.05-1.37.56-2.27 2.42-3.81 2.42-1.15 0-2.47-.86-2.55-2.09-.09-1.2-1.49-1.88-2.41-1-1.82 1.74-4.26 2.69-6.78 2.66-1.14-.02-2.25-.24-3.31-.66-1.41-.55-2.78-1.23-4.34-.88-1.09.25-1.92.95-2.81 1.56-1.09.74-1.37.72-2.07-.42-.58-.95-1.18-1.78-2.28-2.15-.96-.33-2.15-.29-2.93.44-.9.85-.67 1.96-.4 3.02.39 1.54.42 3.12.32 4.7-.08 1.32-2.07 47.12-1.94 51.55.05 1.81 4.75-55.15 4.44-56.58-.02-.06-.03-.13-.05-.19.12.13.23.37.31.5.62 1 1.3 2.04 2.49 2.4 1 .3 2.01.06 2.9-.43s1.74-1.55 2.79-1.68c1.36-.17 2.95 1.03 4.28 1.33 1.29.29 2.63.38 3.95.24 2.09-.22 4.06-.93 5.77-2.09 1.22 1.95 3.68 3.1 6.03 2.38.84-.25 1.51-.76 2.14-1.36.6-.57 1.17-1.29 2.08-1.15 1.74.27 3.02 2.48 3.77 3.86.47.87 1.99.97 2.44 0 .74-1.61 1.95-2.84 3.64-3.43 1.71-.6.98-3.32-.74-2.72z"/></g></g><g><g><g><g><g><path d="m319.1 150.25c-2.95-.25-5.57 1.05-7.45 2.46.55.07-3.71-28.81-13.37-39.44-13.6-14.97-66.97-29.32-75.25-44.76-.98 13.79-55.58 41.54-62.28 60.01-6.16 16.98-2.98 37.21-2.98 37.21-1.92-.77-4.25-1.21-6.61-.57-8.15 2.21-11.03 14.13-3.84 24.8 6.76 10.04 7.17 19.67 14.59 19.94 1.69 10.28 6.31 19.91 13.46 27.52.05.06.1.11.16.17 7.7 8.14 16.69 14.58 25.74 20.66 9.49 6.38 19.24 12.68 29.74 16.81 11.46 4.51 21.35 4.11 30.13-2.71 9.03-7.02 18.06-13.87 26.25-21.84 7.81-7.59 15.5-15.53 21.63-24.91.03-.05.06-.1.1-.15 5.23-8.05 7.5-17.69 6.64-27.28l-.17-1.84c8.32-.94 6.68-10.83 11.74-22.37 5.14-11.77.19-22.98-8.23-23.71z" fill="#f0d0b4"/><path d="m319.1 150.25c-2.95-.25-5.57 1.05-7.45 2.46.55.07-3.71-28.81-13.37-39.44-13.6-14.97-66.97-29.32-75.25-44.76-.98 13.79-55.58 41.54-62.28 60.01-6.16 16.98-2.98 37.21-2.98 37.21-1.92-.77-4.25-1.21-6.61-.57-8.15 2.21-11.03 14.13-3.84 24.8 6.76 10.04 7.17 19.67 14.59 19.94 1.32 8.02 4.43 15.64 9.13 22.22 0 0-3.24-8.96-5.26-27.9-.48-4.47-7.09-61.02 2.96-75.29 11.66-16.54 36.69-30.96 51.15-45.45 4.64-4.65 3.85 5.59-1.71 10.75-9.38 8.71-25.44 15.61-24.34 15.48 2.71-.33 14.32-3.12 25.27-10.41 6.75-4.49 13.36-11.88 14.02-11.32 14.54 12.32 55.38 17.24 57.76 23.53 3 7.93-1.99 13.65-4.9 16.44 1.93 1.98 4.17 1.68 6.25 4.51 2.06 16.8 13.37 22.73 13.37 22.73l7.62 62.05c2.24-6.04 3.1-12.56 2.52-19.06l-.17-1.84c8.32-.94 6.68-10.83 11.74-22.37 5.15-11.78.2-22.99-8.22-23.72z" fill="#edba94"/><g><path d="m310.37 220.53c-.05-.37-.54-.48-.73-.15-.37.64-.75 1.27-1.15 1.89-.03.05-.06.1-.1.15-6.12 9.38-13.81 17.32-21.63 24.91-8.2 7.97-17.23 14.82-26.25 21.84-8.77 6.82-18.67 7.22-30.12 2.71-10.5-4.14-20.25-10.43-29.74-16.81-9.04-6.08-18.03-12.52-25.74-20.66-.05-.06-.1-.11-.16-.17 0 0-.01-.01-.01-.01-.26-.28-.72-.07-.68.31l.21 1.7c.01.08.04.16.1.22.25.27.5.55.75.82.05.06.1.11.16.17 7.7 8.14 16.69 14.58 25.74 20.66 9.49 6.38 19.24 12.68 29.74 16.81 11.46 4.51 21.35 4.11 30.13-2.71 9.03-7.02 18.06-13.87 26.25-21.84 7.81-7.59 15.5-15.53 21.63-24.91.03-.05.06-.1.1-.15.6-.92 1.15-1.87 1.67-2.83.04-.07.06-.16.04-.24z" fill="#f4e1d3"/></g><path d="m322.29 158.49c-3.32-2.34-6.5-.4-8.45 2.52-.51.12-.97.54-.98 1.21-.01 2.38 0 4.76.05 7.14.03 1.5-.5 4.51.57 5.74.38.43.9.43 1.37.61 1.9.73 1.9 2.1 1.64 4-.35 2.5-.89 4.99-1.34 7.47-.27 1.53 1.93 1.87 2.32.42.64-2.35 1.61-4.45 2.65-6.64.8-1.68 1.47-3.49 1.17-5.38-.44-2.78-3.15-4.83-5.86-3.55-.07.03-.14.08-.2.12 0-.01 0-.02 0-.02.12-.06.23-.14.33-.25 2.36-2.53 2.19-6.58-.16-9 .03-.03.06-.06.08-.11 1.53-2.41 4.38-4.43 6.52-1.24 1.67 2.49.85 5.8.25 8.48-.33 1.49 1.99 1.91 2.32.42.9-4 1.59-9.21-2.28-11.94z" fill="#d8a17c"/></g><path d="m150.13 172.98c2.85-2.89 6.32-1.55 8.77.98.53.03 1.05.36 1.18 1.02.43 2.34.85 4.68 1.23 7.03.24 1.48 1.29 4.35.47 5.75-.29.49-.81.58-1.24.84-1.74 1.06-1.5 2.41-.9 4.23.79 2.4 1.77 4.75 2.65 7.11.54 1.45-1.56 2.18-2.21.83-1.05-2.2-2.38-4.09-3.79-6.06-1.08-1.51-2.07-3.17-2.12-5.09-.07-2.81 2.23-5.31 5.13-4.54.08.02.15.05.22.08 0-.01 0-.01 0-.02-.12-.04-.25-.1-.37-.19-2.77-2.06-3.33-6.08-1.45-8.89-.03-.03-.07-.05-.1-.09-1.94-2.1-5.1-3.58-6.63-.06-1.19 2.75.2 5.86 1.27 8.39.59 1.41-1.62 2.23-2.21.83-1.61-3.76-3.22-8.77.1-12.15z" fill="#d8a17c"/></g></g></g><g><g fill="#c2b560"><path d="m342.39 146.6c-.21-1.7-1.76-2.91-3.46-2.7-1.3.16-2.31 1.11-2.62 2.31-1.28-1.2-2.65-2.28-4.09-3.3.33-.73.49-1.55.38-2.4-.3-2.46-2.54-4.21-5-3.91-.99.12-1.85.56-2.52 1.2-3.19-2.63-5.89-5.9-6.1-10.21-.07-1.38-2.2-1.11-2.13.26.26 5.24 3.32 8.74 7.09 11.72-.22.63-.32 1.32-.24 2.03.3 2.46 2.54 4.21 5 3.91.85-.1 1.61-.45 2.24-.95 1.37.98 2.69 1.99 3.84 3.08 1.88 1.76 3.45 3.89 4.59 6.2.95 1.93 1.94 4.28 1.53 6.48-.36 1.93-1.95 3.01-3.88 2.72-.8-.12-1.59-.47-2.12-1.1-.57-.67-.97-3.23.55-2.4 1.21.66 2.05-1.32.85-1.97-1.68-.92-3.64.23-4.06 2.01-.41 1.77.55 3.65 2.01 4.64 2.77 1.89 6.89 1.08 8.31-2.07 1.76-3.91-.73-8.83-2.92-12.05h.04c1.71-.25 2.92-1.8 2.71-3.5z"/><path d="m345.08 66.6c-8.15 1.98-16.75.63-24.8 3.15-3.25 1.02-6.33 2.68-8.68 5.18-2.63 2.79-3.91 6.46-5.1 10.02-.04.12-.04.22-.04.33-.38.52-.37 1.29.41 1.51 4.17 1.2 8.5 1.23 12.66-.05 2.9-.89 5.96-2.5 7.18-5.35 3.46 1.21 7.32-.01 10.15-2.24 3.69-2.9 6.37-7.14 9.21-10.82.5-.67-.05-1.96-.99-1.73z"/><path d="m360.54 86.99c-3.74-1.23-6.74-4.06-10.59-5.02-1.56-.39-3.22-.45-4.83.06-1.8.56-3.32 1.86-4.77 3.14-.05.04-.08.09-.11.14-.29.13-.5.48-.26.78 1.3 1.61 2.99 2.75 4.97 3.25 1.38.35 3.03.43 4.29-.52 1.02 1.43 2.87 1.89 4.6 1.63 2.25-.33 4.47-1.53 6.6-2.43.39-.18.53-.89.1-1.03z"/></g><g><g><path d="m346.69 121.43c.02 9.25-6.61 14.51-13.54 14.66-7.59.17-12.89-4.29-13.32-4.33-2.02-.17 2.78 10.53-4.45 11.47-12.64 1.65-21.99-13.42-21.06-26.66.54-7.74 11.34-9.56 10.86-13.9-1.77-16.19 2.35-20.53 15.29-22.12 9.69-1.19 18.9 2.08 25.57 8.2 6.19 6.66 8.21 12.19 8.17 16.77-.07 7.64-5.84 12.66-7.52 15.91z" fill="#e6e7e8"/><g fill="#bcbec0"><path d="m337.1 101.47c1.84.29 3.94.35 5.67-.56 3.92-2.06-.64-5.06-.42-3.81.25 1.4-1.08 2.53-2.39 2.61-1.3.07-2.67-.16-3.93-.46-2.37-.57-4.74-1.76-5.71-4.13-.48-1.18-2.24-.44-1.83.75 1.11 3.17-.54 6.49-3.16 8.34-2.35 1.65-6.93 3.22-9.57 1.43-.62-.42-1.29-.04-1.52.48-.03-.02-.07-.05-.08-.05-5.87 6.99-7.42 16.81-3.85 25.24.81 1.91 5.63 5.2 8.39 1.66 1.54-1.97-2.69-6.79-3.75-13.18-.74-4.48 1.18-10.68 1.48-11.74 3.31.94 7.46-.43 10.09-2.27 2.33-1.63 8.31-4.67 10.58-4.31z"/><path d="m347.17 104.44c-1.63-1.66-4.16-2.11-6.37-1.56-2.39.6-4.5 2.24-5.94 4.21-1.56 2.13-2.44 4.92-1.37 7.46.46 1.08 2.03.52 1.88-.5.15-.98.71-1.79 1.41-2.47.83-.81 1.83-1.59 2.91-2.02 1.66-.66 3.5.27 3.96 1.94-.8.24-1.64.38-2.37.49-.49.07-.75.42-.81.8-.3.47-.28 1.16.39 1.42 1.93.78 1.65 3.55 1.24 5.17-.6 2.39-2.06 4.64-4.26 5.83-4.35 2.36-9.19-.67-10.55-5.07-.89-2.89-.5-10.71-1-9.54-2.4 5.59-1.84 12.82 3.85 16.18 2.52 1.49 5.57 1.67 8.21.38 2.86-1.4 4.76-4.07 5.6-7.1.56-2.02.66-4.75-.68-6.45 1.89-.44 3.72-1.22 4.78-2.95 1.22-1.99.73-4.58-.88-6.22z"/></g></g><g fill="#fff"><path d="m307.72 135.59c-3.02-1.29-5.46-4.04-6.59-7.11-1.05-2.86-1.03-5.95-.68-8.94.37-3.17 1.13-6.28 1.52-9.45.13-1.05.22-2.13.2-3.21-3.1 2.29-7.51 4.82-7.85 9.69-.93 13.24 8.42 28.31 21.06 26.66 4.66-.61 4.33-5.25 4.04-8.44-3.43 2.24-7.97 2.39-11.7.8z"/><path d="m314.3 106c.28-.46.89-.75 1.46-.36 2.64 1.79 7.22.23 9.57-1.43 2.62-1.84 4.27-5.17 3.16-8.34-.42-1.19 1.34-1.93 1.83-.75.97 2.36 3.34 3.56 5.71 4.13 1.26.3 2.63.54 3.93.46 1.32-.07 2.64-1.21 2.39-2.61-.1-.54.7-.29 1.32.34.1-.04.2-.08.33-.08 3.48-.17 6.78 1.8 9.23 4.12.21.2.42.41.63.63-.8-3.85-3.09-8.27-7.82-13.36-2.69-2.46-5.79-4.46-9.17-5.89-.3 1.49-1.52 2.7-2.69 3.58-2.89 2.16-7.02 3.63-10.72 3.12-.38 6.25-7.54 9.92-13.42 8.62.29 2.98 1.6 5.97 4.13 7.69.06.02.09.08.13.13z"/><path d="m350.94 102.31c.21.44.4.89.53 1.37.69 2.58.39 5.5-.75 7.91-1.02 2.16-2.94 4.08-5.51 3.72-.05-.01-.07-.03-.12-.04.87 2.96-.55 6.51-2.36 8.97-7.2 9.78-22.87 5.26-27.79-4.44 1.04 6.22 5.06 10.95 3.83 13 .18-.02.34.02.5.08 0-.72.12-1.16.54-1.13.43.04 5.73 4.5 13.32 4.33 6.93-.15 13.56-5.41 13.54-14.66 1.65-3.2 7.25-8.11 7.5-15.54-.68-1.04-1.5-2.01-2.4-2.85-.25-.23-.53-.48-.83-.72z"/></g></g><g fill="#c2b560"><path d="m305.03 88.62c-2.46.3-4.21 2.54-3.91 5s2.54 4.21 5 3.91 4.21-2.54 3.91-5c-.3-2.47-2.54-4.21-5-3.91z"/><path d="m307.73 104.36c-3.89-2.09-7.08-5.36-9.1-9.27.49-2.17.56-4.4.24-6.59-.08-.54-.52-.57-.84-.32-.06 0-.12 0-.19.02-.44.15-.87.3-1.31.46-.45-3.24.05-6.58 2.35-9.06.94-1.01-.76-2.33-1.69-1.32-2.83 3.05-3.36 7.26-2.69 11.25-.96.49-1.89 1.08-2.72 1.89-1.58 1.54-2.72 3.6-3.51 5.8-1.95 5.44-1.72 11.35-3.37 16.87-.19.64.51 1.05.93.71 2.28-1.84 4.88-3.56 6.77-6.01 1.45-1.88 2.4-4.48 1.92-6.88 1.5-.67 2.54-2.33 3.24-4.05 2.25 3.53 5.41 6.46 9.12 8.46 1.22.67 2.06-1.31.85-1.96z"/></g></g><g><g><path d="m231.28 249.56 27.7-3.4c3.8-3.5 5.96-8.14 5.51-12.98l-41.7 5.12c.74 4.81 3.95 8.78 8.49 11.26z" fill="#edba94"/><path d="m269.25 215.07c-.26-1.74-4.05 2.85-9.38 3.06-3.24.13-7.92-4.43-10.24-4.18-2 .21-3.95.77-5.57 1.6l-2.59 1.33-2.76-.61c-1.78-.41-3.81-.49-5.8-.21-2.81.39-6.07 4.99-9.81 5.86-4.41 1.04-9.11-1.56-8.96-.03.1 1.06 2.01 1.98 2.25 2.99 1.65 7.11 4.81 13.28 11.34 16.92 2.69 1.5 6.64 2.14 10.67 1.79l12.57-1.6c4-.64 7.67-2.22 9.92-4.32 5.25-4.91 6.72-11.2 6.85-18.21.02-1.3 1.71-3.07 1.51-4.39z" fill="#dd7682"/><path d="m217.95 224.78c1.22 4.12 3.86 7.63 9.65 9.51 2.39.78 5.96 1 9.65.63l11.52-1.45c3.67-.54 7.08-1.61 9.21-2.95 4.98-3.11 6.57-6.88 6.98-11.01.02-.16.11-.35.23-.54z" fill="#fff"/><path d="m217.95 224.78c1.22 4.12 3.86 7.63 9.65 9.51 2.39.78 5.96 1 9.65.63l11.52-1.45c3.67-.54 7.08-1.61 9.21-2.95 4.98-3.11 6.57-6.88 6.98-11.01.02-.16.11-.35.23-.54zm40.37 4.11c-1.64 1.62-7.38 2.99-13.55 3.83-7.46 1.02-15.54 1.27-17.69.29-3.93-1.8-6.11-6.39-6.11-6.39l21.47-2.56 20.21-2.41c-.01-.01-.72 3.65-4.33 7.24z" fill="#f4e1d3"/><path d="m245.26 196.44-12.06 1.48c-.18.02-.34.08-.47.16-.91-.5-1.53-1.36-1.65-2.48-.16-1.5-2.47-1.22-2.31.28.2 1.88 1.39 3.6 3.09 4.39.23.26.56.42.93.4 2.02.55 3.97 1.3 5.86 2.22 1.35.66 2.27-1.5.92-2.15-.72-.35-1.44-.67-2.18-.97l8.15-1c1.5-.18 1.21-2.51-.28-2.33z" fill="#e8ab82"/><g><g><path d="m273.67 134.17c-5.86.42-11.56 2.23-17.11 4.29-2.15.8-.98 4.19 1.17 3.39 11.1-4.13 23.01-5.7 34.81-4.49 2.27.23-5.72-4.13-18.87-3.19z" fill="#8b5e3c"/><g><path d="m277.82 166.94c-4.66.85-9.91 3.08-15.38 7.81-.07-4.32 2.54-9.67 7.39-12.12 6.57-3.31 12-3.01 16.17-1.4 5.98 2.31 9.36 7.32 9.76 8.28.2.48-7.61-4.45-17.94-2.57z" fill="#8b5e3c"/><g><path d="m259.34 162.54c8.05-10.41 23.38-12.71 34.12-5.14 1.17.83 2.55-.93 1.37-1.76-11.73-8.26-28.55-5.71-37.33 5.65-.88 1.12.96 2.38 1.84 1.25z" fill="#edba94"/></g></g></g><path d="m296.85 186.91c.59 4.82-5.1 5.9-13.52 6.93s-16.37 1.63-16.96-3.19 5.75-9.57 14.17-10.6 15.72 2.04 16.31 6.86z" fill="#e8b09e"/></g><g><g><path d="m188.53 143.92c5.79-1.01 11.75-.63 17.64.03 2.28.26 1.96 3.83-.32 3.57-11.77-1.32-23.71.03-34.86 4.06-2.14.77 4.56-5.39 17.54-7.66z" fill="#8b5e3c"/><g><path d="m173.39 185.05c-.12-.15 1.59-5.47 7.08-9.37 3.84-2.73 10.11-4.88 16.42-3.57 5.32 1.1 9.13 5.76 10.1 9.97-6.45-3.27-12.08-4.16-16.81-3.86-10.48.67-16.46 7.23-16.79 6.83z" fill="#8b5e3c"/><g><path d="m207.05 169.48c-10.33-8.15-25.75-6.68-34.35 3.26-.94 1.09-2.7-.29-1.76-1.38 9.38-10.85 26.32-12.44 37.59-3.55 1.13.89-.35 2.56-1.48 1.67z" fill="#edba94"/></g></g></g><path d="m177.28 200.47c.59 4.82 8.7 4.15 17.12 3.11 8.42-1.03 13.95-2.03 13.36-6.85s-7.89-7.89-16.31-6.86c-8.42 1.04-14.76 5.78-14.17 10.6z" fill="#e8b09e"/></g></g><g><g fill="#e8b09e"><path d="m244.03 237.77-9.2 1.13c-.73.09-1.36.82-1.23 1.57s.79 1.32 1.57 1.23l9.2-1.13c.73-.09 1.36-.82 1.23-1.57-.13-.76-.79-1.33-1.57-1.23z"/><path d="m253.07 237.07c-.3-.22-.66-.34-1.04-.29l-1.6.2c-.19.02-.37.08-.52.19-.17.08-.31.19-.42.34-.12.14-.2.31-.23.49-.07.18-.09.36-.05.55.06.36.23.72.53.94s.66.34 1.04.29l1.6-.2c.19-.02.37-.08.52-.19.17-.08.31-.19.42-.34.12-.14.2-.31.23-.49.07-.18.09-.36.05-.55-.06-.36-.23-.72-.53-.94z"/></g></g></g><g fill="#fff"><path d="m319.11 187.26c-.16-.38-.4-.7-.73-.96-.17-.1-.34-.2-.52-.31-.39-.17-.8-.22-1.22-.17l-.3.04c-.32.03-.61.13-.87.31-.28.13-.51.32-.69.57-.2.24-.33.51-.39.81-.11.3-.14.6-.09.92.05.2.11.41.16.61.16.38.4.7.73.96.17.1.34.2.52.31.39.17.8.22 1.22.17l.3-.04c.32-.03.61-.13.87-.31.28-.13.51-.32.69-.57.2-.24.33-.51.39-.81.11-.3.14-.6.09-.92-.05-.2-.11-.41-.16-.61z"/><path d="m158.49 200.06c-3 .37-2.44 5.04.57 4.67 3-.37 2.44-5.04-.57-4.67z"/></g></g></g></g><g fill="#dd7682"><path d="m446.42 108.91c-11.97-7.03-24.45-3.02-35.43 3.43-.52-6.28-3.11-12.26-8.23-16.57-7.93-6.67-18.88-6.6-26.93-.23-8.88 7.03-11.5 18.26-11.49 29.11.01 13.57 4.98 57.28 9.18 53.78 2.7-2.25 1.85-8.04 2.1-14 .4-9.67-1.52-43.91 1.21-51.92 2.09-6.12 8.13-12.95 15.3-10.52 8.5 2.87 9.24 12.68 6.77 19.94-1.46 4.29 4.15 8.92 8 6.15 9.73-7.02 24.79-18.08 36.3-8.16 10.75 9.26-5.02 22.74-13.12 26.74-16.06 7.92-32.43 19.8-43.26 28.99-22.12 18.77-28.58 41.38-26.6 39.2 7-7.7 18.82-26.59 38.5-39.2 20.81-13.32 45.25-24.52 50.82-30.9 4.75-5.43 8.79-12.1 8.09-19.58-.66-6.97-5.33-12.81-11.21-16.26z"/><path d="m460.69 28.82c-6.03-1.28-11.84 1.24-16.48 5.28-1.59-5.45-4.35-10.38-9.48-13.7-7.86-5.09-17.73-3.28-23.13 4.38-5.93 8.4-4.24 18.6-1.16 27.73 1.73 5.12 3.66 12.97 5.37 20.41 2.37 10.26 2.33 32.62 5.06 27.96 6.56-11.21 26.65-20.88 36.28-26.73 9-5.47 17.35-13.77 18.18-24.84.7-9.1-5.5-18.55-14.64-20.49zm-3.61 32.16c-8.75 7.43-20.12 10.89-28.46 18.23-.68-4.45-1.54-8.88-2.63-13.26-1.91-7.69-5.25-15.01-6.95-22.73-1.09-4.92-.63-16.38 7.34-14.8 7.85 1.55 8.58 12.93 9.1 19.03.41 4.82 2.5 9.11 5 3.74 2.6-5.59 15.98-16.55 22.03-9.01 5.09 6.33-.34 14.48-5.43 18.8z"/></g></g></g></g></g></svg>