<svg enable-background="new 0 0 512 512" height="512" viewBox="0 0 512 512" width="512" xmlns="http://www.w3.org/2000/svg"><g id="white_border"><g><path d="m446.85 227.84c-15.47-26.31-37.3-48.52-63.3-64.45 12.36-35.36 13.23-41.68 13.52-43.81 1.19-8.64-.06-17.8-3.81-27.99-2.09-5.67-5.25-11.29-9.41-16.72-.04-.12-.08-.24-.11-.36-2.96-9.18-7.81-15.58-14.41-19.01-1.47-.77-3.01-1.35-4.59-1.75-.51-6.48-2.06-11.95-4.7-16.64-7.41-13.16-22.16-17.33-33.22-18.51-1.25-.13-45.07-.71-52.89.19-21.11 2.41-41.05 4.69-49.96-4.9l-6.13-6.59-2.35 8.69c-5.49 20.27 1.76 28.56 7.16 33.93-5.92 3.73-21.35 18.49-22.53 19.73-8.89 9.36-14.12 20.3-15.11 31.63-.62 7 .56 13.85 3.39 19.82.87 1.83 2.49 3.01 4.31 3.33.81 6.58 1.84 15.1 3.07 25.43-6.49 2.31-10.99 8.96-11.6 17.34-9.96 6.63-19.23 14.18-27.71 22.56.85-3.7 1.75-8.68 2.67-15.43 1.58-11.56 2.74-24.9 2.75-31.7.01-14.87-4.49-25.99-13.39-33.04-9.97-7.89-23.64-7.76-33.25.32-4 3.36-6.93 7.79-8.57 12.86-.4-.19-.8-.35-1.19-.53 1.7-2.45 2.13-7.1 2.88-15.24.49-5.25 5.34-29.57 7.15-34.92 2.91-8.61 5.88-21.31-1.81-32.21-6.93-9.82-19.8-12.27-29.94-5.69-3.88 2.52-6.89 5.88-9.09 10.2-4.93-2.66-10.16-3.54-15.17-2.47-11.33 2.4-19.5 13.72-18.6 25.76 1.05 14.06 11.77 23.39 20.57 28.74 1.86 1.13 26.77 15.26 32.63 22.29-7.89-1.34-15.12-.05-21.82 3.88-7.8 4.58-12.9 12.09-13.66 20.09-.73 7.71 2.32 15.34 9.3 23.34 3.62 4.14 11.66 8.72 25.55 16.45 8.29 4.61 17.68 9.84 26.34 15.38 5.92 3.79 11.62 8.52 17.32 14.38-23.42 31.93-35.77 69.7-35.77 109.5 0 102.28 83.21 185.48 185.48 185.48s185.48-83.21 185.48-185.48c-.01-33.08-8.82-65.54-25.48-93.88zm-353.06-156.16c-1.22 3.55-2.48 7.23-3.42 11.03-.46 1.87-.89 3.75-1.29 5.69-2.75-1.74-5.58-3.28-8.36-4.79-4.85-2.64-9.42-5.13-13.35-8.47-2.36-2.01-7.83-8.05-4.76-11.86.35-.43.76-.81 2.03-.66 4.38.53 10.36 6.05 11.56 8.64 2.5 5.37 6 5.62 7.87 5.29 3.76-.66 6.12-4.47 6.65-10.71l.04-.53c.36-4.3 1.11-13.24 5.04-14.02.35-.07.55-.05.54-.07.94.68 1.75 5.24.95 8.88-.84 3.84-2.13 7.6-3.5 11.58zm43.85 118.1c-5.16-4.38-23.62-19.47-44.28-29.66-5.38-2.65-13.29-9.45-13.93-14.48-.13-1.06-.02-2.36 1.86-3.98 2.21-1.91 4.67-2.72 7.31-2.72 6.63 0 14.44 5.12 22.5 10.94l.29.21c3.47 2.5 8.07 2.37 11.72-.33 3.75-2.77 5.33-7.39 3.94-11.48-1.3-3.83-1.3-7.84-.01-10.47.77-1.55 1.92-2.54 3.64-3.12 3.94-1.33 7.68 3.63 8.97 7.4 1.6 4.7 1.25 24.07 1.03 35.64-.12 6.29-.22 11.73-.08 14.88.05 1.3.05 2.64.05 3.94 0 2.06-.01 4.15.24 6.12-1.06-.99-2.15-1.95-3.25-2.89z" fill="#fff"/></g></g><g id="illustration"><g><g><g><circle cx="288.06" cy="323.01" fill="#a1bde5" r="180.48"/><g fill="#c7d9ef"><path d="m196.15 243.06c-1.29-4.37-5.66-6.93-9.75-5.72s-6.35 5.74-5.06 10.11c1.3 4.37 5.66 6.93 9.75 5.72 4.09-1.22 6.35-5.74 5.06-10.11z"/><path d="m254.91 280.38c-1.3-4.37-5.66-6.93-9.75-5.72s-6.35 5.74-5.06 10.11c1.3 4.37 5.66 6.93 9.75 5.72s6.35-5.74 5.06-10.11z"/><path d="m318.09 316.33c-1.3-4.37-5.66-6.93-9.75-5.72s-6.35 5.74-5.06 10.11c1.3 4.37 5.66 6.93 9.75 5.72s6.35-5.74 5.06-10.11z"/><path d="m380.54 352.99c-1.3-4.37-5.66-6.93-9.75-5.72s-6.35 5.74-5.06 10.11c1.3 4.37 5.66 6.93 9.75 5.72 4.09-1.22 6.35-5.74 5.06-10.11z"/><path d="m433.97 383.21c-4.09 1.21-6.35 5.74-5.06 10.11 1.3 4.37 5.66 6.93 9.75 5.72s6.35-5.74 5.06-10.11c-1.3-4.37-5.67-6.93-9.75-5.72z"/><path d="m468.43 318.29c-2.97 1.81-4.44 5.63-3.34 9.33.57 1.93 1.74 3.5 3.22 4.56.13-2.84.21-5.7.21-8.57 0-1.78-.04-3.56-.09-5.32z"/><path d="m459.16 280.43c.84 2.82 2.95 4.88 5.44 5.67-.99-4.7-2.17-9.32-3.52-13.88-1.98 2.02-2.82 5.16-1.92 8.21z"/><path d="m390.73 180.69c1.3 4.37 5.66 6.93 9.75 5.72 1.1-.33 2.07-.9 2.87-1.64-4.01-3.34-8.17-6.5-12.47-9.48-.6 1.65-.7 3.54-.15 5.4z"/><path d="m118.55 368.59c-.98-3.3-3.71-5.57-6.75-5.96 1.11 5.06 2.43 10.04 3.96 14.93 2.59-1.93 3.82-5.5 2.79-8.97z"/><path d="m171.75 201.49c4.09-1.21 6.35-5.74 5.06-10.11-.82-2.76-2.86-4.79-5.27-5.62-3.37 2.85-6.63 5.82-9.78 8.9.06.37.13.73.24 1.1 1.3 4.38 5.67 6.94 9.75 5.73z"/><path d="m246.04 222.86c-1.29-4.37-5.66-6.93-9.75-5.72s-6.35 5.74-5.06 10.11c1.3 4.37 5.66 6.93 9.75 5.72s6.36-5.74 5.06-10.11z"/><path d="m309.62 260.18c-1.3-4.37-5.66-6.93-9.75-5.72s-6.35 5.74-5.06 10.11c1.3 4.37 5.66 6.93 9.75 5.72s6.36-5.74 5.06-10.11z"/><path d="m373.53 304.31c4.09-1.21 6.35-5.74 5.06-10.11s-5.66-6.93-9.75-5.72-6.35 5.74-5.06 10.11 5.66 6.93 9.75 5.72z"/><path d="m436.22 333.75c-1.3-4.37-5.66-6.93-9.75-5.72s-6.35 5.74-5.06 10.11 5.66 6.93 9.75 5.72 6.35-5.74 5.06-10.11z"/><path d="m224.06 186.64c4.09-1.21 6.35-5.74 5.06-10.11-1.3-4.37-5.66-6.93-9.75-5.72s-6.35 5.74-5.06 10.11 5.66 6.93 9.75 5.72z"/><path d="m298.64 211.27c-1.29-4.37-5.66-6.93-9.75-5.72s-6.35 5.74-5.06 10.11 5.66 6.93 9.75 5.72 6.35-5.74 5.06-10.11z"/><path d="m367.04 249.56c-1.3-4.37-5.66-6.93-9.75-5.72s-6.35 5.74-5.06 10.11c1.3 4.37 5.66 6.93 9.75 5.72 4.09-1.22 6.36-5.74 5.06-10.11z"/><path d="m429.26 283.57c-1.3-4.37-5.66-6.93-9.75-5.72s-6.35 5.74-5.06 10.11c1.3 4.37 5.66 6.93 9.75 5.72s6.35-5.73 5.06-10.11z"/><path d="m281.97 168.18c4.09-1.21 6.35-5.74 5.06-10.11s-5.66-6.93-9.75-5.72-6.35 5.74-5.06 10.11c1.29 4.36 5.66 6.93 9.75 5.72z"/><path d="m325.27 151.43c1.3 4.37 5.66 6.93 9.75 5.72 2.89-.86 4.87-3.38 5.32-6.32-4.98-1.5-10.04-2.8-15.19-3.88-.34 1.42-.33 2.96.12 4.48z"/><ellipse cx="345.95" cy="193.26" rx="7.72" ry="8.26" transform="matrix(.959 -.284 .284 .959 -40.637 106.186)"/><ellipse cx="409.53" cy="230.58" rx="7.72" ry="8.26" transform="matrix(.959 -.284 .284 .959 -48.628 125.823)"/><path d="m158.69 413.08c-4.09 1.21-6.35 5.74-5.06 10.11s5.66 6.93 9.75 5.72 6.35-5.74 5.06-10.11-5.66-6.93-9.75-5.72z"/><path d="m221.87 449.03c-4.09 1.21-6.35 5.74-5.06 10.11 1.3 4.37 5.66 6.93 9.75 5.72s6.35-5.74 5.06-10.11c-1.3-4.37-5.66-6.93-9.75-5.72z"/><path d="m277.35 479.37c-4.09 1.21-6.35 5.74-5.06 10.11 1.3 4.37 5.66 6.93 9.75 5.72s6.35-5.74 5.06-10.11-5.66-6.93-9.75-5.72z"/><ellipse cx="153.3" cy="364.14" rx="7.72" ry="8.26" transform="matrix(.959 -.284 .284 .959 -97.107 58.534)"/><path d="m223.16 398.61c-1.3-4.37-5.66-6.93-9.75-5.72s-6.35 5.74-5.06 10.11c1.3 4.37 5.66 6.93 9.75 5.72 4.09-1.22 6.35-5.74 5.06-10.11z"/><path d="m281.28 444.66c4.09-1.21 6.35-5.74 5.06-10.11-1.3-4.37-5.66-6.93-9.75-5.72s-6.35 5.74-5.06 10.11 5.66 6.93 9.75 5.72z"/><path d="m340.17 466.15c-4.09 1.21-6.35 5.74-5.06 10.11 1.3 4.37 5.66 6.93 9.75 5.72s6.35-5.74 5.06-10.11c-1.3-4.37-5.66-6.93-9.75-5.72z"/><path d="m144.13 319.69c-1.3-4.37-5.66-6.93-9.75-5.72s-6.35 5.74-5.06 10.11 5.66 6.93 9.75 5.72 6.36-5.74 5.06-10.11z"/><path d="m215.02 349.85c-1.3-4.37-5.66-6.93-9.75-5.72s-6.35 5.74-5.06 10.11 5.66 6.93 9.75 5.72 6.36-5.74 5.06-10.11z"/><path d="m277.47 386.51c-1.3-4.37-5.66-6.93-9.75-5.72s-6.35 5.74-5.06 10.11c1.3 4.37 5.66 6.93 9.75 5.72s6.36-5.74 5.06-10.11z"/><path d="m340.65 422.46c-1.3-4.37-5.66-6.93-9.75-5.72s-6.35 5.74-5.06 10.11c1.3 4.37 5.66 6.93 9.75 5.72s6.36-5.74 5.06-10.11z"/><path d="m393.53 446.3c-4.09 1.21-6.35 5.74-5.06 10.11s5.66 6.93 9.75 5.72 6.35-5.74 5.06-10.11c-1.3-4.37-5.66-6.94-9.75-5.72z"/><path d="m141.05 261.2c-1.29-4.37-5.66-6.93-9.75-5.72s-6.35 5.74-5.06 10.11c1.3 4.37 5.66 6.93 9.75 5.72s6.35-5.74 5.06-10.11z"/><path d="m200.77 298.52c-1.3-4.37-5.66-6.93-9.75-5.72s-6.35 5.74-5.06 10.11c1.3 4.37 5.66 6.93 9.75 5.72s6.36-5.73 5.06-10.11z"/><path d="m264.68 339.76c4.09-1.21 6.35-5.74 5.06-10.11-1.3-4.37-5.66-6.93-9.75-5.72s-6.35 5.74-5.06 10.11 5.66 6.93 9.75 5.72z"/><path d="m332.19 366.31c-1.3-4.37-5.66-6.93-9.75-5.72s-6.35 5.74-5.06 10.11c1.3 4.37 5.66 6.93 9.75 5.72s6.36-5.74 5.06-10.11z"/><path d="m395.37 402.26c-1.29-4.37-5.66-6.93-9.75-5.72s-6.35 5.74-5.06 10.11c1.3 4.37 5.66 6.93 9.75 5.72 4.09-1.22 6.35-5.74 5.06-10.11z"/></g></g><g><g><g><path d="m355.77 328.06c-13.26-3.03-24.79-10.76-32.41-20.11v-65.16h-72.06v67.15c-7.58 8.44-18.39 15.3-30.69 18.11-6.44 1.47 9.91 10.53 28.18 19.34 18.83 9.09 39.69 17.92 39.69 17.92s25.34-11.62 45.65-22.22c13.15-6.87 26.5-13.92 21.64-15.03z" fill="#edba94"/><g><g><path d="m288.28 503.56c62.46 0 117.5-31.73 149.9-79.94.68-14.39 1.04-29.45 1.04-35 0-37.93-18.09-52.08-45.44-56.43-8.65-3.82-19.41-7.4-32.8-10.49-11.99-2.76-22.67-9.1-30.69-17.04l-43.33 22.22-41.99-22.22c-8.01 7.95-18.69 14.28-30.68 17.04-14.2 3.27-25.43 7.11-34.34 11.18-23.89 4.13-38.04 18.32-38.04 58.37 0 7.58.95 25.28 2.4 40.68 32.96 43.51 85.18 71.63 143.97 71.63z" fill="#e6e7e8"/></g></g><g fill="#594a42"><path d="m237.42 303.92c-6.22 5.98-43.26 15.33-61.82 24.41-23.82 8.13-36.01 19.76-38.14 52.62-.15 2.26-1.15 36.39-.43 40.6 27 42.43 74.06 72.23 123.4 79.88-2.97-12.7-10.33-39.78-16.42-68.06-6.55-30.43-11.78-62.12-12.75-75.21-2.58-34.73 6.16-54.24 6.16-54.24z"/><path d="m444.95 411.9c.4-8.94 3.12-30.23 2.91-33.41-1.99-30.93-14.35-39.79-50.49-51.45-8.93-3.96-53.65-19.25-60.86-24.79-.47-.36 10.25 10.02 7.88 48.18-2.32 37.26-11.68 100.5-21.13 149.73 46.93-9.22 87.34-36.63 113.58-74.59 2.43-3.52 5.93-9.97 8.11-13.67z"/></g><path d="m323.3 289.64v6.61l-34.64 23.42-37.14-23.72-.34-6.05s-9.87 3.35-13.32 9.74c-3.68 6.83-6.89 17.02-5.86 25.13 2.29 17.96 36.54 43.17 41.93 45.05.55.19 10.12-18.88 14.23-27.03 4.2 8.31 12.91 26.85 13.46 26.66 5.39-1.88 39.53-27.11 41.93-45.05.91-6.82-3.81-17.62-7.69-25.12-2.55-4.94-12.56-9.64-12.56-9.64z" fill="#fff"/><g><path d="m225.39 439.69c.28-.61-6.88-6.19-13.76-13.04-6.33-6.3-12.42-13.68-12.25-19.25.29-9.62 9.37-71.9 14.01-90.53.44-1.75-3.59 1.11-4.03 2.86-2.74 11.02-13.91 68.91-14.48 88.96-.13 4.55 5.29 12.26 12.13 19.37 4.73 4.91 10.13 9.54 14.86 12.63-1.47 3.19-2.69 6.48-3.92 9.78-3.59 9.64-2.41 18.05.4 24.7 4.7 11.09 14.12 17.21 13.38 16.36-10.57-12.13-13.16-23-12.66-31.77.54-9.53 4.74-16.58 6.32-20.07z" fill="#726658"/></g><g><path d="m360.62 453.04c-.25-.85-.52-1.71-.84-2.58-1.23-3.3-2.45-6.59-3.92-9.78 4.72-3.09 10.13-7.72 14.86-12.63 6.84-7.11 12.26-14.82 12.13-19.37-.57-20.04-11.74-77.94-14.48-88.96-.44-1.75-4.47-4.62-4.03-2.86 4.64 18.63 13.73 80.92 14.01 90.53.17 5.57-5.92 12.94-12.25 19.25-6.88 6.85-14.03 12.43-13.76 13.04 1.17 2.62 8.28 13.36 8.28 13.36z" fill="#726658"/></g><g><path d="m317.42 358.37-26.13-8.87c-1.31-.44-2.72-.45-4.04-.02l-27.5 9.01c-4.22 1.38-8.52-1.85-8.52-6.4v-20.66c0-4.56 4.33-7.79 8.55-6.38l26.82 8.94c1.31.44 2.72.44 4.03 0l26.82-8.94c4.22-1.41 8.55 1.83 8.55 6.38v20.56c0 4.58-4.35 7.81-8.58 6.38z" fill="#726658"/><path d="m311.65 335.58c-1.52-.75-3.68-.31-5.3-.28-1.93.03-3.75-.13-5.04-1.71-.8-.97-1.12-1.9-1.11-2.78l-9.56 3.19c-1.31.44-2.72.44-4.03 0l-9.53-3.18c.46.52.87 1.07 1.21 1.64.84 1.4 1.06 3.06-.19 4.27-1.08 1.05-2.7 1.48-4.09 1.94-2.02.66-4.04 1.39-5.92 2.41-.44.24-.97.61-1.3.91.15.08.32.2.48.27 1.28.58 2.74.82 4.09 1.18 3.24.86 7.13 2.43 6.77 6.46-.09 1.01-.44 1.99-.93 2.89l10.07-3.3c1.31-.43 2.73-.42 4.04.02l11.98 4.06c-1.94-1.82-3.44-3.99-3.73-6.49-.22-1.94.55-4.17 2.22-5.29 1.49-1 3.41-1.26 5.14-1.56 1.57-.27 3.55-.39 4.91-1.33 1.06-.75 1.07-2.71-.18-3.32z" fill="#594a42"/><path d="m289.54 352.86h-1.51c-2.74 0-4.98-2.24-4.98-4.98v-11.6c0-2.74 2.24-4.98 4.98-4.98h1.51c2.74 0 4.98 2.24 4.98 4.98v11.6c0 2.73-2.24 4.98-4.98 4.98z" fill="#726658"/></g></g><g><g><path d="m389.69 92.93c-2.23-6.05-5.57-11.46-9.23-16.11-.12-.39-.23-.78-.36-1.17-2.12-6.57-5.64-12.82-11.96-16.11-2.2-1.15-4.64-1.79-7.1-1.81-.05-6.49-1.04-12.9-4.24-18.57-5.92-10.51-18-14.78-29.39-16-1.41-.15-2.83-.24-4.25-.31-33.42-7.88-83.32 13.82-101.73-5.98-6.38 23.56 6.15 27.52 10.16 33.84-6.75 3.65-15.72 9.58-22.64 18.02-1.41 1.27-2.79 2.56-4.09 3.94-7.44 7.83-12.8 17.74-13.76 28.62-.52 5.9.38 11.87 2.93 17.24.55 1.16 2.38.35 1.82-.82-4.45-9.38-3.36-20.26.78-29.54 1.56-3.51 3.58-6.75 5.91-9.75-6.42 11.9-7.07 21.48-5.79 29.42 1.44 8.92 9.84 81.2 9.84 81.2l87.4 9.29.07-.61 70.04 7.45s27.25-72.88 29.14-86.67c.95-6.87.27-15.19-3.55-25.57zm-13.05-20.81c.05.12.1.24.15.36-5.59-6.14-11.25-10.52-14.31-12.69 6.44.74 11.6 6.51 14.16 12.33zm-44.99-46.41c3.37.64 6.67 1.58 9.81 2.9 5.06 2.13 9.63 5.39 12.69 10.01 2.94 4.43 4.23 9.71 4.68 14.95v.02c-4.1-11.73-13.68-21.76-27.18-27.88z" fill="#a97c50"/><path d="m393.52 113.27c-.2.09-3.08 1.06-4.36 1.25-.34-5.25-6.5-16.89-7.82-16.3-1.13.51 2.47 11.78 2.85 16.35-.99-.12-1.98-.32-2.96-.59-7.23-1.99-13.37-7.36-18.05-13.04-3.01-3.66-4.98-7.63-6.45-12.12-1.19-3.65-2.7-8.45-1.34-12.26.52-1.46 1.42-2.23 2.49-2.56 1.53 1.18 7.29 4.17 8.01 3.1.8-1.19-3.97-6.32-5.75-7.66-1.15-3.39-1.78-7.53.63-10.41.45-.54.95-.98 1.48-1.36-.43-.04-.87-.07-1.3-.07-.02-2.62-.21-5.23-.62-7.79-.02 3.77-1.46 6.33-2.97 7.98-1.66 1.81-3.4 2.54-3.48 2.58-12.88 2.39-30.42-8.56-28.44-6.01 3.79 4.86 8.91 7.72 14.52 9.29.99 1.11 1.65 2.46 1.65 4.27.02 6.4-6.65 8.81-11.92 9.68-6.83 1.13-13.87 1.08-20.28-1.84-7.17-3.27-12.81-9.05-18.01-14.83-1.91-2.12-3.79-4.38-5.81-6.43-1.59-2.45-9.58-12.1-12.74-13.28-3.02-1.12 8.02 15.02 9.69 17.68.78 1.25 1.53 2.53 2.25 3.82-.41 1.46-1.19 2.81-2.44 3.91-4.07 3.59-10.84 3.11-15.66 1.66-6.59-1.99-11.83-6.59-15.94-12.16-.04-.07-.09-.14-.12-.22-5.64-16.51-16.52-26.76-17.27-25.75-.62.84 3.25 7.36 6.27 13.05 1.22 2.31 2.31 4.47 2.9 6.07.53 1.43 1.08 2.85 1.65 4.25-.3.14-13.03-5.54-18.19-13.78-5.08-8.12-4.65-20.09-4.86-22.24-5.89 22.86 6.39 26.82 10.35 33.06-1.28.69-2.64 1.47-4.05 2.33.56.01 1.12.05 1.67.18 1.85.42 4.04 1.38 4.72 3.31.59 1.69-.23 3.44-1.13 4.85-.13.2-11.12 8.32-10.34 9.29.92 1.14 11.41-3.93 11.53-3.98.59.06 1.17.16 1.72.36 3.93 1.41 3.76 7.02 2.16 10.1-2.28 4.38-6.61 7.56-10.43 10.52-7.96 6.17-16.32 12.31-26.2 14.21-.56-2.58-2.07-13.32-2.51-12.56-2.36 4.07-2.74 8.66-2.46 13.14-.01 0-.01 0-.02 0 .06 1.87.24 3.66.51 5.37 1.44 8.92 9.84 81.2 9.84 81.2l87.4 9.29.07-.61 70.04 7.45s27.25-72.88 29.14-86.67c.23-1.58.36-3.29.38-5.08z" fill="#8b5e3c"/><g fill="#c49a6c"><path d="m227.29 74.97c-3 1.19-6.01 2.39-9.01 3.58-1.32.52-2.65 1.19-4.01 1.57-.25.07-1.08.32-1.33.12-.01-.01-.01 0-.02.01.01-.02.03-.09.08-.28.08-.33.18-.65.3-.97 1.03-2.66 3.41-4.74 5.31-6.78 2.21-2.37 4.41-4.74 6.62-7.11 1.12-1.2-.57-2.72-1.82-2.26-4.8 1.76-9.22 4.31-13.62 6.87-1.65.96 5.78.1 8.11-1.11-1.12 1.2-2.24 2.4-3.35 3.6-2 2.16-5.14 5.45-4.49 8.71.72 3.56 5.01 2.12 7.2 1.25 2.46-.98 4.92-1.96 7.39-2.93-.35.35-.71.69-1.05 1.01-1.31 1.25-2.67 2.45-4.09 3.57-2.86 2.26-9.66 9.52-7.94 8.63 3.72-1.92 7.26-4.2 10.5-6.84 1.57-1.28 3.08-2.65 4.5-4.09 1.41-1.43 2.65-2.95 2.84-5.03.09-1.16-1.06-1.94-2.12-1.52z"/><path d="m232.25 36.37c-.53.24-.8.7-.84 1.2-1.79-3.28-4.23-12.03-4.99-11.9-.85.14-1.31.91-1.24 1.72.56 5.98 2.97 11.74 6.79 16.38.9 1.09 2.38.43 2.66-.78.44-1.97.25-3.96-.39-5.86-.27-.78-1.31-1.07-1.99-.76z"/><path d="m327.5 34.11c4.6 1.78 8.95 4.21 12.89 7.25 1.53 1.18-4.91-11.7-23.03-13.08-1.74-.13-2.21 2.22-.71 2.89 7.16 3.18 13.46 8.16 18.23 14.35-11.63-6.81-23.97-12.56-37.22-15.27-4.38-.9-8.82-1.42-13.28-1.54-1.56-.04-2.46 2.44-.71 2.89 12.09 3.09 22.95 10.43 30.27 20.51-3.61-1.48-7.22-2.96-10.83-4.44-1.37-.56-2.69 1.2-1.72 2.34 5.45 6.4 11.25 12.49 17.34 18.29-7.06-1.46-13.18-6.01-18.27-11.07-6.13-6.1-11.16-13.2-17.52-19.09-3.52-3.25-14.72-5.89-12.95-5.13 8.06 3.46 14.02 10.1 19.62 16.61 5.74 6.67 11.53 13.58 19.26 18.03 4.29 2.46 9 4.07 13.98 4.14 1.54.02 2.17-1.68 1.05-2.7-5.6-5.14-10.93-10.55-16-16.2 3.14 1.29 6.27 2.57 9.41 3.86 1.12.46 2.61-.85 1.92-2.01-5.56-9.31-13.74-16.89-23.37-21.74 11.11 2.09 21.74 6.48 31.72 11.84 3.86 2.08 7.64 4.32 11.36 6.64 1.14.71 3.07-.4 2.26-1.82-3.48-6.12-8.15-11.39-13.7-15.55z"/><path d="m262.2 32.74c-1.32-1.4 6.38 14.15 7.93 21.48-1.31-1.3-2.32-2.92-3.23-4.52-1.55-2.72-2.93-5.61-5-7.98-1.05-1.2-2.56-2.62-4.27-1.77-1.5.75-1.64 2.58-1.37 4.04.48 2.59 1.13 5.16 1.83 7.72-2.58-3.35-4.4-7.31-6.37-11.05-2.8-5.31-6.17-10.45-11.62-13.31-1.71-.9 7.18 11.19 9.79 16.3 2.71 5.31 5.5 10.78 10.34 14.48.96.73 2.75-.15 2.37-1.45-1.09-3.73-2.08-7.49-2.95-11.28-.16-.71-.27-1.48-.45-2.2.08.07.14.13.16.15.92 1.01 1.71 2.14 2.42 3.31 2.75 4.55 4.79 9.82 9.89 12.23 1.09.51 2.16-.58 2.03-1.64-1.13-9.14-5.19-17.82-11.5-24.51z"/><path d="m388.88 94.69c-3.67-8.52-10.25-15.48-18.46-19.76-1.25-.65-2.34.91-1.92 2.01 1.52 3.97 2.83 8.01 3.95 12.1-1.78-.71-3.56-1.42-5.34-2.13-1.85-.74-4.91-2.55-6.44-.27-1.19 1.78.04 4.24.8 5.94 1.03 2.28 2.39 4.42 3.99 6.35 1.23 1.49.21-4.7-.61-6.27-.42-.81-.8-1.63-1.14-2.48-.15-.38-.78-1.51-.52-1.96-.31.54 1.65 1.01 2.12 1.2.93.37 1.85.74 2.78 1.11 2.01.8 4.01 1.6 6.02 2.4 1 .4 2.31-.51 2.03-1.64-.98-3.9-2.13-7.76-3.44-11.57 5.92 3.97 16.95 16.75 16.18 14.97z"/></g></g><g><g><path d="m376.85 172.35c-2.96-.98-7.2 1.36-9.47 2.39-.31-1.36-2.89-13.19-2.89-13.19s2.28-38.18 1.47-40.81c-3.53-11.58-11.24-22.58-19.98-33.08l-97.79-10.4c-11.7 7.57-19.98 17.72-25.82 28.21-1.34 2.4-7.14 40.21-7.14 40.21s-5.01 11.02-5.6 12.29c-2-1.49-5.65-4.67-8.75-4.33-8.85.95-13.91 13.14-8.31 25.74 5.49 12.35 3.9 23.04 12.68 23.89 0 0 1.86 23 15.48 40.77 5.24 6.84 34.68 34.55 42.51 38.04 4.44 1.98 10.01 2.9 12.63 3.12 2.6.34 8.25.61 13-.39 8.39-1.77 43-22.67 49.56-28.25 17.06-14.5 23.71-36.6 23.71-36.6 8.76 1.02 9.46-9.77 17.42-20.69 8.12-11.15 5.74-24.13-2.71-26.92z" fill="#f0d0b4"/><g fill="#edba94"><path d="m200.88 153.64c-8.85.95-13.91 13.14-8.31 25.74 5.47 12.31 3.91 22.98 12.61 23.88l4.92-46.3c-.22.49-.39.85-.47 1.02-2-1.5-5.65-4.68-8.75-4.34z"/><path d="m364.49 161.55s.29 1.33.69 3.15c0 0-.19-2.36-.52-6.01-.11 1.78-.17 2.86-.17 2.86z"/><path d="m345.98 87.67-97.79-10.4c-11.7 7.57-19.98 17.72-25.82 28.21-1.34 2.4-7.14 40.21-7.14 40.21s11.54-35.38 17.3-41.63c14.79-16.07 41.1-18.06 66.24-14.94 28.27 3.51 54.98 14.06 60.84 29.74 1.73 4.64 4.03 28.49 5.05 39.84.51-8.91 1.98-35.76 1.31-37.95-3.54-11.59-11.25-22.59-19.99-33.08z"/><path d="m376.85 172.35c-2.96-.98-7.2 1.36-9.47 2.39-.11-.48-.5-2.27-.97-4.39l-5.7 53.57c.97-2.47 1.43-3.98 1.43-3.98 8.76 1.02 9.46-9.77 17.42-20.69 8.12-11.13 5.74-24.11-2.71-26.9z"/></g><g><path d="m288.63 278.96c-4.76 1.01-10.4.73-13 .39-2.62-.22-8.19-1.13-12.63-3.12-6.72-3-42.09-34.5-42.27-32.86-.06.52.1 1.04.43 1.44 6.65 7.96 34.3 33.86 41.86 37.24 4.44 1.98 10.01 2.9 12.63 3.12 2.6.34 8.25.61 13-.39 7.39-1.56 35.12-17.96 46.11-25.66.46-.32.75-.82.81-1.38 0 0-39.97 19.75-46.94 21.22z" fill="#f4e1d3"/></g><g fill="#d8a17c"><path d="m207.74 165.24c-.01-.71-.5-1.15-1.05-1.27-2.1-3.08-5.48-5.09-8.94-2.53-4.03 2.98-3.22 8.53-2.23 12.78.37 1.58 2.81 1.09 2.44-.5-.67-2.85-1.58-6.37.14-9.05 2.2-3.44 5.23-1.35 6.88 1.2.03.04.06.08.09.11-2.44 2.63-2.55 6.95-.03 9.6.11.12.23.2.35.26v.02c-.07-.05-.13-.09-.21-.12-2.87-1.31-5.69.92-6.11 3.89-.28 2.03.45 3.94 1.32 5.72 1.12 2.31 2.18 4.54 2.89 7.03.44 1.54 2.75 1.13 2.44-.5-.51-2.64-1.12-5.28-1.52-7.94-.31-2.01-.32-3.48 1.66-4.29.5-.2 1.04-.21 1.43-.68 1.1-1.33.51-4.53.51-6.13.01-2.53-.02-5.07-.06-7.6z"/><path d="m378.26 180.63c-2.84-3.23-6.57-1.97-9.27.59-.56.01-1.13.33-1.29 1.02-.58 2.47-1.14 4.95-1.66 7.43-.33 1.57-1.59 4.57-.79 6.1.28.54.82.66 1.26.96 1.77 1.22 1.45 2.64.72 4.55-.95 2.51-2.11 4.97-3.16 7.44-.65 1.52 1.53 2.41 2.28 1 1.22-2.29 2.72-4.24 4.3-6.27 1.22-1.56 2.34-3.27 2.49-5.31.22-2.99-2.07-5.77-5.15-5.09-.08.02-.16.05-.23.08 0-.01 0-.02.01-.02.13-.04.27-.09.4-.18 3.02-2.06 3.82-6.31 1.99-9.39.04-.03.07-.05.11-.09 2.15-2.14 5.55-3.55 6.98.27 1.11 2.99-.52 6.23-1.77 8.88-.7 1.47 1.58 2.46 2.28 1 1.86-3.96 3.82-9.21.5-12.97z"/></g></g><g><g><path d="m293.45 198.84-14.04-1.49c1.3-10.28 4.89-40.79 4.89-40.79.06-.54-3.15-9.39-5.35-12.13-.46-.57-1.37-.72-1.94-.21-.56.51-.7 1.39-.21 2 .52.65 3.45 8.35 4.27 9.99 0 0-3.31 27.86-4.85 40.79l-1.39-.15c-1.77-.19-2.07 2.64-.3 2.83l2.32.25c1.8 2.98 3.66 5.92 5.58 8.82.41.61 1.41.69 1.94.21.6-.54.65-1.35.21-2-1.45-2.19-2.86-4.41-4.24-6.65l12.8 1.36c1.78.18 2.08-2.65.31-2.83z" fill="#e8ab82"/><g><g><path d="m341.33 144.86c-5.76-.69-14.28-2.69-23.43-1.54-2 .25-2.55 5.93-1.41 7.89l43.05 3.06c-.28-1.23-5.27-7.85-18.21-9.41z" fill="#8b5e3c"/><g><path d="m333.79 175.94c-4.83-.22-10.59.86-17.14 4.48.94-4.51 4.8-9.45 10.2-10.85 7.31-1.89 12.65-.29 16.42 2.36 5.41 3.81 7.59 9.82 7.76 10.92.09.55-6.52-6.42-17.24-6.91z" fill="#8b5e3c"/><g><path d="m335.95 160.1c.07-.63-.38-1.21-.99-1.26-7.03-.59-14.29 1.51-20.05 6.41-1.14.97.39 2.72 1.53 1.74 5.27-4.49 11.88-6.4 18.29-5.87.61.05 1.16-.39 1.22-1.02z" fill="#edba94"/></g></g></g><path d="m344.83 198.36c-.55 5.15-6.46 4.93-15.08 4.01s-16.67-2.17-16.12-7.33c.55-5.15 7.98-8.59 16.59-7.67 8.62.91 15.16 5.83 14.61 10.99z" fill="#e8b09e"/></g><g><g><path d="m265.99 137.19c-8.71-3.05-17.45-2.89-23.23-3.42-12.97-1.2-19.25 4.23-19.78 5.37l42.73 6.07c1.52-1.69 2.18-7.35.28-8.02z" fill="#8b5e3c"/><g><path d="m222.2 169.15c.4-1.04 3.79-6.45 9.88-9.04 4.24-1.81 9.8-2.24 16.55 1.14 4.99 2.5 7.72 8.15 7.7 12.75-5.64-4.92-11.04-7.19-15.81-7.99-10.59-1.77-18.51 3.66-18.32 3.14z" fill="#8b5e3c"/><g><path d="m241.73 150.08c.07-.63.62-1.11 1.23-1.03 7 .91 13.66 4.48 18.25 10.49.91 1.19-.95 2.57-1.87 1.38-4.21-5.49-10.27-8.76-16.64-9.59-.59-.08-1.03-.62-.97-1.25z" fill="#edba94"/></g></g></g><path d="m222.48 186.99c-.55 5.15 5.28 6.17 13.9 7.09s16.75 1.38 17.3-3.77-5.99-10.07-14.61-10.99c-8.61-.91-16.04 2.52-16.59 7.67z" fill="#e8b09e"/></g></g><g><path d="m249.04 217.83c.52.8 1.06 1.59 1.06 2.29-.01 9.92 2.22 19.05 9.6 25.86 3.04 2.8 7.98 4.86 13.33 5.63l16.84 1.71c5.39.37 10.65-.6 14.21-2.7 8.32-4.91 12.14-12.79 14.45-22.02.26-1.03 1.32-2.08 2.18-3.15l-37.06-2.49z" fill="#e8ab82"/><path d="m254.8 221.09c-.27 6.82.68 11.77 6.91 16.28 2.84 2.06 7.4 3.62 12.31 4.29l15.43 1.58c4.94.38 9.72-.19 12.93-1.6 7.05-3.11 10.15-8.77 11.22-14.29z" fill="#dd7682"/><path d="m262.98 234.04c-2.48-.26-3.74 1.28-1.81 2.25.05.02.1.05.14.07 2.91 1.44 7.5 2.63 12.42 3.25l15.43 1.6c4.93.43 9.68.24 12.82-.56.02-.01.04-.01.06-.02 2.09-.54 1.18-2.32-1.3-2.58z" fill="#f4e1d3"/><path d="m308.3 233.02c.63-.89 1.11-1.81 1.46-2.76.32-.87-.68-1.8-2.14-1.95l-48.47-5.15c-1.38-.15-2.55.47-2.51 1.33.05 1.05.18 2.03.43 2.97.19.68 1.09 1.23 2.17 1.35l46.71 4.97c1.02.1 1.96-.2 2.35-.76z" fill="#fff"/><path d="m307.63 228.31-48.47-5.15c-1.38-.15-2.55.47-2.51 1.33.05 1.05.18 2.03.43 2.97.19.68 1.09 1.23 2.17 1.35l1.25-3.27 44.36 3.86v2.89l1.1 1.48c1.01.11 1.95-.2 2.34-.75.63-.89 1.11-1.81 1.46-2.76.33-.86-.67-1.79-2.13-1.95z" fill="#f4e1d3"/><g fill="#f0d0b4"><path d="m280.43 245.37-12.31-1.31c-.98-.1-1.99.5-2.04 1.33-.04.83.66 1.61 1.71 1.72l12.31 1.31c.98.1 1.99-.5 2.04-1.33.05-.82-.66-1.61-1.71-1.72z"/><path d="m292.41 247.1c-.34-.31-.77-.53-1.28-.59l-2.14-.23c-.26-.04-.5-.02-.74.05-.24.04-.45.12-.64.25-.2.12-.34.27-.44.45-.14.17-.21.36-.22.57-.02.4.1.82.43 1.14.34.31.77.53 1.28.59l2.14.23c.26.04.5.02.74-.05.24-.04.45-.12.64-.25.2-.12.34-.27.44-.45.14-.17.21-.36.22-.57.03-.4-.09-.83-.43-1.14z"/></g></g></g></g></g></g><g><g fill="#f4e1d3"><path d="m259.81 146.42-23.78 19.63c-2.49 2.05.7 5.91 3.18 3.86l27.64-22.81z"/><path d="m239.01 144.43-23.33 19.11c-2.49 2.04.69 5.9 3.18 3.86 9.07-7.43 18.14-14.86 27.21-22.29z"/></g><g fill="#f4e1d3"><path d="m355.63 155.16-23.78 19.63c-2.48 2.05.7 5.91 3.18 3.86l27.64-22.81z"/><path d="m334.83 153.17-23.33 19.11c-2.49 2.04.69 5.9 3.18 3.86l27.21-22.29z"/></g><path d="m370.96 178.22-4.48-.43 1.03-10.74c.76-7.96-5.09-15.05-13.05-15.82l-33.7-3.23c-7.96-.76-15.05 5.09-15.82 13.05l-1.03 10.74-32.78-3.14c-.03 0-.05 0-.07 0l1.03-10.74c.76-7.96-5.09-15.05-13.05-15.82l-33.7-3.23c-7.96-.76-15.05 5.09-15.82 13.05l-.97 10.1-3.27-.31c-.64-.06-1.34.15-1.83.56-.47.39-.87 1.07-.9 1.69-.07 1.35.86 2.59 2.25 2.73l3.27.31-1.05 10.95c-.76 7.96 5.09 15.05 13.05 15.82l33.7 3.23c7.96.76 15.05-5.09 15.82-13.05l.99-10.32c.02 0 .05.01.07.01l32.78 3.14-.99 10.31c-.76 7.96 5.09 15.05 13.05 15.82l33.7 3.23c7.96.76 15.05-5.09 15.82-13.05l.99-10.31 4.48.43c1.3.12 2.66-.9 2.73-2.25s-.85-2.59-2.25-2.73zm-106.34 5.25c-.5 5.21-5.15 9.05-10.36 8.55l-33.7-3.23c-5.21-.5-9.05-5.15-8.55-10.36l2.49-26.02c.5-5.21 5.15-9.05 10.36-8.55l33.7 3.23c5.21.5 9.05 5.15 8.55 10.36zm95.42 9.14c-.5 5.21-5.15 9.05-10.36 8.55l-33.7-3.23c-5.21-.5-9.05-5.15-8.55-10.36l2.49-26.02c.5-5.21 5.15-9.05 10.36-8.55l33.7 3.23c5.21.5 9.05 5.15 8.55 10.36z" fill="#8b5e3c"/></g><g><g><path d="m241.89 374.12c.98-4.31 2.12-10.68-.29-18.4-1.99-6.35-6.38-13.61-15.23-21.39-2.83-2.49-10.75-6.4-16.44-13.53-6.64-8.32-6.62-17.95-11.69-16.96-2.45.48-4.53 4.09-4.47 8.61.08 6.41 3.57 13.43 4.07 14.44-7.96-6.45-38.51-38.55-40.2-39.71-1.97-1.36-4.2-2.22-6.64-1.86-3.56.54-7.25 4.02-6.04 7.87.76 2.42 32.96 35.57 42.53 43.96-4.69-1.15-8.21.73-10.27 3.57-1.56 2.16-2.28 4.87-2.04 7.25-2.7-.29-5.87 1.29-7.96 3.87-1.91 2.36-2.73 6.16-1.62 9.52-5.79 1.97-4.66 9.23-1.81 12.53 2.5 2.9 26.39 25.66 33.1 27.67 5.47 1.64 17.79-1.33 18.28-1.56 3.42 2.75 11.33 10.33 18.13 16.91.76.74 25.82-25.84 24.96-26.59-5.58-4.87-12.7-12.34-16.37-16.2z" fill="#f0d0b4"/><g fill="#e8ab82"><path d="m199.23 315.33c1.17 1.16 2.89 1.74 4.47 1.05.92-.41 1.71-1.09 2.36-1.88-.35-.7-.67-1.38-.97-2.05-.6.77-1.38 1.36-2.39 1.44-2.41.19-3.87-2.73-4.32-4.68-.39-1.72-.27-3.56.48-5.1-.55.57-1.01 1.2-1.32 1.93-.11.35-.23.7-.33 1.06-.03.12-.06.24-.08.36-.02.09-.03.19-.06.29-.4 2.65.27 5.72 2.16 7.58z"/><path d="m214.72 348.71c1.25-1.21 2.47-2.46 3.66-3.74-5.89-7.82-20.58-20.95-22.53-26.82-1.43-4.29-1.47-8.68-.17-12.8-1.21 1.57-2.01 4.05-1.98 6.88.08 6.41 3.57 13.43 4.07 14.44-.96-.78 12.29 15.88 16.95 22.04z"/><path d="m181.99 353c.29-.52.28-1.17-.29-1.7-2.44-2.23-2.69-6.02-.44-8.43 2.1-2.25 5.73-2.56 8.17-.45.21.18.46.3.72.36.68.66 1.73.88 2.48.1.82-.85.37-2.14-.57-2.61-.04-.06-.07-.12-.11-.18-.22-.33-.47-.64-.73-.93-.44-.5-.96-.91-1.51-1.28-1.18-.8-2.58-1.23-4-1.35-.87-.07-1.71.02-2.51.21-2.61.41-4.65 1.88-6.03 3.79-1.56 2.16-2.28 4.87-2.04 7.25-2.7-.29-5.87 1.29-7.96 3.87-1.91 2.36-2.73 6.16-1.62 9.52-5.15 1.75-4.82 7.68-2.68 11.3.04-.59.52-9.47 7.16-7.97.36.08.8.23 1.14.13.35-.1.73-.38.9-.71.17-.35.26-.76.13-1.14-.13-.39-3.66-4.58-.81-8.31.81-1.06 7.11-1.15 8.4-.28.65.44 1.7.11 2.04-.58.09-.21.15-.41.16-.61z"/><path d="m241.83 373.92c.07-.28.13-.58.2-.89-2.65 2.77-5.9 5-9.02 7.18-6.9 4.83-13.43 10.2-20.83 14.3-5.44 3.01-11.73 5.63-18.03 5.54 1.06.63 1.97 1.09 2.68 1.3 5.47 1.64 17.79-1.33 18.28-1.56 3.42 2.75 11.33 10.33 18.13 16.91.76.74 25.82-25.84 24.96-26.59-5.58-4.87-12.7-12.34-16.37-16.19z"/><path d="m155.37 298.66c1.65-.5 2.86-1.85 3.33-3.49.48-1.7.02-3.4-1.12-4.72-.61-.71-4.49-3.87-5.26-3.84-.7.03 2.11 4.96 2.63 5.44.12.11.23.21.34.33.03.03.17.19.19.21.08.11.15.23.23.35 0 0 .01.02.02.03l.06.12c.04.11.05.25.1.36 0 .03.01.06.01.09 0 .13.01.25 0 .38 0 .04-.01.08-.01.12 0 .02 0 .02-.01.06-.03.12-.06.25-.09.37-.03.11-.15.34-.03.12-.06.11-.11.23-.17.34-.03.05-.07.11-.1.16v.01c-.1.1-.19.21-.29.31-.02.02-.04.04-.05.05s-.02.01-.04.02c-.11.07-.21.13-.32.2 0 0-.02.01-.04.02-.05.01-.16.06-.18.06-.07.02-.15.04-.22.06 0 0-.06.01-.1.02s-.1.01-.1.01c-.08 0-.15.01-.23.01-.15 0-.31 0-.46-.02-.17-.02-.03-.01 0 0-.1-.02-.2-.04-.3-.06-.15-.04-.3-.08-.45-.13 0 0-.07-.02-.11-.04s-.11-.05-.11-.04c-.31-.14-1.01-.58-1.06-.61-.02-.02-.09-.07-.11-.08-.15-.12-4.46-3.47-4.96-2.9-.58.65 2.34 4.79 3.84 5.76 1.47.98 3.43 1.44 5.17.92z"/></g></g><path d="m265.81 380.19c-5.99-4.46-13-10.05-18.43-4.71l-31.71 31.29c-5.7 5.6.14 11.93 5.14 18 .5-.52 42.43-40.73 45-44.58z" fill="#fff"/><g><path d="m261.53 378.48c-15.97 14.55-30.11 30.97-45.33 46.28 17.34 18 50.75 51.93 77.16 78.67 31.66-.75 61.3-9.65 86.91-24.69-35.72-31.95-89.83-80.49-115.25-103.36-1.17 1.03-2.34 2.06-3.49 3.1z" fill="#594a42"/></g><g fill="#726658"><path d="m402.52 356.62c-.41-.39-18.34 77.35-24.99 104.54-.4 1.62 2 8.29 2.43 6.19 6.11-29.98 23.44-109.91 22.56-110.73z"/><path d="m266.05 373.52-1.65-1.48-1.67 1.46c-1.19 1.03-2.36 2.08-3.52 3.14-10.09 9.2-19.58 19.26-28.75 29-5.42 5.75-11.02 11.69-16.66 17.37l-1.73 1.74 1.7 1.76c18.74 19.44 52.94 51.85 76.57 72.83h.65c-11-11.71-55.8-57.86-71.92-74.55 5.11-5.19 10.14-10.53 15.03-15.72 9.11-9.67 18.53-19.66 28.48-28.73.59-.54 1.18-1.07 1.78-1.6 24.38 21.92 113.52 99.81 113.52 99.81-.08-.07.21-1.76.78-4.66-1.46-1.36-93.02-82.74-112.61-100.37z"/></g></g></g><g fill="#dd7682"><path d="m45.18 66.77c.83 11.07 9.18 19.37 18.18 24.84 9.63 5.85 29.72 15.52 36.28 26.73 2.73 4.66 2.69-17.7 5.06-27.96 1.72-7.44 3.64-15.29 5.37-20.41 3.09-9.14 4.77-19.33-1.16-27.73-5.4-7.66-15.28-9.48-23.13-4.38-5.12 3.32-7.89 8.25-9.48 13.7-4.63-4.04-10.45-6.56-16.48-5.28-9.12 1.94-15.32 11.39-14.64 20.49zm12.83-7.14c6.05-7.54 19.43 3.42 22.03 9.01 2.5 5.37 4.59 1.08 5-3.74.52-6.1 1.25-17.47 9.1-19.03 7.97-1.58 8.43 9.88 7.34 14.8-1.71 7.72-5.04 15.04-6.95 22.73-1.09 4.38-1.95 8.81-2.63 13.26-8.34-7.34-19.71-10.8-28.46-18.23-5.09-4.31-10.52-12.46-5.43-18.8z"/><path d="m74.53 126.79c11.97-7.03 24.45-3.02 35.43 3.43.52-6.28 3.11-12.26 8.23-16.57 7.93-6.67 18.88-6.6 26.93-.23 8.88 7.03 11.5 18.26 11.49 29.11-.01 13.57-4.98 57.28-9.18 53.78-2.7-2.25-1.85-8.04-2.1-14-.4-9.67 1.52-43.91-1.21-51.92-2.09-6.12-8.13-12.95-15.3-10.52-8.5 2.87-9.24 12.68-6.77 19.94 1.46 4.29-4.15 8.92-8 6.15-9.73-7.02-24.79-18.08-36.3-8.16-10.75 9.26 5.02 22.74 13.12 26.74 16.06 7.92 32.43 19.8 43.26 28.99 22.12 18.77 28.58 41.38 26.6 39.2-7-7.7-18.82-26.59-38.5-39.2-20.81-13.32-45.25-24.52-50.82-30.9-4.75-5.43-8.79-12.1-8.09-19.58.66-6.96 5.33-12.8 11.21-16.26z"/></g></g></g></g></svg>