<svg height="512" viewBox="0 0 512 512" width="512" xmlns="http://www.w3.org/2000/svg"><g id="Cheers"><path d="m82.83 361 9.49 3.92a1.63 1.63 0 0 1 .2 2.92l-8.88 5.15a1.6 1.6 0 0 0 -.81 1.28l-.83 10.19a1.64 1.64 0 0 1 -2.72 1.09l-7.64-6.86a1.63 1.63 0 0 0 -1.48-.37l-10 2.41a1.63 1.63 0 0 1 -1.87-2.25l4.16-9.38a1.67 1.67 0 0 0 -.1-1.52l-5.35-8.75a1.63 1.63 0 0 1 1.56-2.47l10.21 1.05a1.63 1.63 0 0 0 1.41-.57l6.69-7.84a1.62 1.62 0 0 1 2.83.72l2.16 10a1.62 1.62 0 0 0 .97 1.28z" fill="#ffb833"/><path d="m454 208 10.19 1.21a1.64 1.64 0 0 1 1 2.76l-7.19 7.34a1.67 1.67 0 0 0 -.43 1.46l2 10.07a1.63 1.63 0 0 1 -2.33 1.78l-9.2-4.54a1.63 1.63 0 0 0 -1.52 0l-9 5a1.63 1.63 0 0 1 -2.41-1.66l1.47-10.16a1.6 1.6 0 0 0 -.51-1.43l-7.53-7a1.63 1.63 0 0 1 .83-2.8l10.12-1.74a1.66 1.66 0 0 0 1.21-.92l4.3-9.32a1.63 1.63 0 0 1 3-.05l4.78 9.09a1.65 1.65 0 0 0 1.22.91z" fill="#ffb833"/><path d="m196.47 46 14.64 1a2.33 2.33 0 0 1 1.57 3.88l-9.75 11a2.33 2.33 0 0 0 -.53 2.1l3.51 14.26a2.34 2.34 0 0 1 -3.21 2.69l-13.44-5.89a2.35 2.35 0 0 0 -2.17.15l-12.47 7.74a2.33 2.33 0 0 1 -3.55-2.21l1.45-14.61a2.34 2.34 0 0 0 -.82-2l-11.21-9.47a2.33 2.33 0 0 1 1-4.06l14.34-3.14a2.35 2.35 0 0 0 1.67-1.44l5.5-13.55a2.34 2.34 0 0 1 4.18-.3l7.41 12.67a2.36 2.36 0 0 0 1.88 1.18z" fill="#ffb833"/><path d="m83 171.2h-.06c-12.23-.63-20.22-4.71-23.74-12.11-6.48-13.63 4.3-34.3 10.91-43.33 2.26-3.1 2.62-5.84 1-8.14a8.36 8.36 0 0 0 -2.47-2.32 20.57 20.57 0 0 1 -2.64 2.81c-5.17 4.43-12.37 6.49-16 4.59a4.77 4.77 0 0 1 -2.47-5c.29-3.14 2.63-5.43 6.61-6.46a22 22 0 0 1 14 1.45 10.7 10.7 0 0 0 1.25-9.38c-4.84-14.41-28.33-14.57-28.56-14.57a1 1 0 0 1 0-2 53.27 53.27 0 0 1 13.1 1.94c9.14 2.59 15.13 7.42 17.31 14a12.79 12.79 0 0 1 -1.4 11 10.66 10.66 0 0 1 3 2.84c1.43 2.12 2.41 5.65-1.1 10.45-7.41 10.03-16.37 29.41-10.74 41.26 3.18 6.69 10.59 10.38 22 11a1 1 0 0 1 .94 1.05 1 1 0 0 1 -.94.92zm-24.33-68.52a16.62 16.62 0 0 0 -4.11.47c-1.79.47-4.84 1.7-5.12 4.71a2.79 2.79 0 0 0 1.39 3.06c2.92 1.51 9.38-.52 13.83-4.33a19 19 0 0 0 2.23-2.25 20.71 20.71 0 0 0 -8.22-1.66z" fill="#ff1a26"/><path d="m429.21 371.05a1 1 0 0 1 0-2c11.44-.59 18.86-4.28 22-11 5.63-11.85-3.32-31.19-10.71-41.29-3.51-4.8-2.54-8.33-1.1-10.44a10.51 10.51 0 0 1 3-2.85 12.82 12.82 0 0 1 -1.4-11c2.19-6.56 8.18-11.39 17.32-14a53.16 53.16 0 0 1 13.1-1.94 1 1 0 0 1 0 2c-.24 0-23.73.18-28.52 14.55a10.7 10.7 0 0 0 1.24 9.38 22 22 0 0 1 14-1.45c4 1 6.32 3.32 6.6 6.46a4.76 4.76 0 0 1 -2.46 5c-3.67 1.9-10.87-.16-16.05-4.59a19.91 19.91 0 0 1 -2.72-2.81 8.66 8.66 0 0 0 -2.48 2.32c-1.56 2.3-1.21 5 1.06 8.14 6.6 9 17.38 29.7 10.9 43.33-3.51 7.4-11.5 11.48-23.74 12.11zm16.1-66.86a19.8 19.8 0 0 0 2.23 2.25c4.46 3.81 10.92 5.84 13.83 4.34a2.8 2.8 0 0 0 1.39-3.07c-.27-3-3.32-4.24-5.11-4.7a20.37 20.37 0 0 0 -12.34 1.18z" fill="#ff1a26"/><path d="m164.07 332.41-7.68-1.26a72.2 72.2 0 0 1 -59.06-85.64l25.51-125.51 138.54 22.74-16.19 129a70.28 70.28 0 0 1 -81.12 60.67z" fill="#ffdb99"/><path d="m140.94 292.69h25v149.05h-25z" fill="#ffdb99" transform="matrix(.987 .162 -.162 .987 61.51 -20.01)"/><ellipse cx="140.8" cy="444.23" fill="#ffdb99" rx="18.59" ry="58.34" transform="matrix(.162 -.987 .987 .162 -320.37 511.21)"/><ellipse cx="192.15" cy="131.41" fill="#ffdb99" rx="14.39" ry="70.34" transform="matrix(.162 -.987 .987 .162 31.35 299.73)"/><path d="m143.91 445.79a19.48 19.48 0 0 1 -2.89-.21 20.83 20.83 0 0 1 -12.36-6.52.49.49 0 0 1 -.12-.42l2.37-14.44a.49.49 0 0 1 .57-.41.51.51 0 0 1 .42.58l-2.34 14.19a19.72 19.72 0 0 0 23.69 3.89l2.33-14.2a.49.49 0 0 1 .57-.41.51.51 0 0 1 .42.58l-2.37 14.44a.49.49 0 0 1 -.26.35 21.07 21.07 0 0 1 -10.03 2.58z" fill="#383333"/><path d="m244.24 186.72c-25.37 16.7-61 7.54-85.09-8.43a57.09 57.09 0 0 0 -34.51-9.21l-16 78.73a60.66 60.66 0 0 0 49.63 71.95l7.68 1.27a58.75 58.75 0 0 0 67.8-50.66z" fill="#ffb833"/><path d="m231.65 150.14a250.33 250.33 0 0 1 -36.18-3.1c-58.19-8.62-72.55-26-73.13-26.71a.5.5 0 1 1 .78-.63c.14.18 14.79 17.81 72.5 26.36 57.34 8.49 65.44-3.39 65.51-3.52a.51.51 0 0 1 .69-.16.5.5 0 0 1 .17.68c-.22.38-4.59 7.08-30.34 7.08z" fill="#383333"/><g fill="#fff"><path d="m111.42 236.61a2.94 2.94 0 0 1 -.51-.05 2.51 2.51 0 0 1 -1.94-3l16.38-78.51a2.5 2.5 0 1 1 4.89 1l-16.37 78.51a2.51 2.51 0 0 1 -2.45 2.05z"/><path d="m164.66 323.32h-.18c-35.65-2.6-51.07-31.67-51.71-32.9a2.5 2.5 0 0 1 4.44-2.3c.17.32 14.87 27.83 47.63 30.21a2.5 2.5 0 0 1 -.18 5z"/><path d="m142.82 408.89h-.41a2.5 2.5 0 0 1 -2.06-2.87l10-60.73a2.5 2.5 0 1 1 4.93.81l-10 60.73a2.52 2.52 0 0 1 -2.46 2.06z"/><path d="m97 436a2.5 2.5 0 0 1 -1.78-4.25c6.15-6.28 21.45-5.85 23.17-5.78a2.5 2.5 0 1 1 -.2 5c-4.07-.16-15.49.29-19.4 4.28a2.5 2.5 0 0 1 -1.79.75z"/><path d="m162.72 461.4c-18.53 0-39.38-5.37-40.65-5.7a2.5 2.5 0 1 1 1.26-4.84 210 210 0 0 0 24.28 4.52c16.76 2.05 28.83 1 34.9-2.92a2.5 2.5 0 1 1 2.74 4.18c-5.43 3.54-13.72 4.76-22.53 4.76z"/><path d="m186.7 442.86c-4.24-.69-4.69 6-.47 6.68s4.7-5.98.47-6.68z"/><path d="m106.43 442.11c-4.24-.69-4.69 6-.47 6.68s4.7-5.98.47-6.68z"/><path d="m142.85 417.64c-4.25-.7-4.7 6-.47 6.68s4.7-5.99.47-6.68z"/><path d="m157.06 328.13c-4.25-.7-4.7 6-.47 6.68s4.7-5.99.47-6.68z"/><path d="m177.38 317.09c-4.24-.7-4.69 6-.46 6.68s4.69-5.98.46-6.68z"/><path d="m108.49 264.85c-4.25-.69-4.7 6-.47 6.68s4.7-5.98.47-6.68z"/><path d="m130.39 137.38c-4.25-.69-4.7 6-.47 6.68s4.7-5.98.47-6.68z"/><path d="m222.64 152.14c-26 0-64.79-11.3-66.53-11.81a2.5 2.5 0 0 1 1.41-4.8c.45.13 44.86 13.06 69.63 11.47a2.51 2.51 0 0 1 .32 5c-1.55.09-3.17.14-4.83.14z"/><path d="m235.67 261.4h-.32a2.51 2.51 0 0 1 -2.16-2.8l10.72-84.23a2.5 2.5 0 1 1 5 .63l-10.72 84.23a2.51 2.51 0 0 1 -2.52 2.17z"/><path d="m229.7 281.83c-4.24-.7-4.69 6-.47 6.68s4.7-5.99.47-6.68z"/><path d="m249.4 158.87c-4.25-.7-4.7 6-.47 6.68s4.7-5.99.47-6.68z"/><path d="m246.21 145.68c-4.25-.7-4.7 6-.47 6.67s4.7-5.98.47-6.67z"/><path d="m217.11 130a2.68 2.68 0 0 1 -.83-.14c-16.57-5.8-62.76-10.3-63.23-10.35a2.5 2.5 0 0 1 .48-5c1.93.19 47.27 4.61 64.4 10.61a2.5 2.5 0 0 1 -.82 4.86z"/><path d="m141.25 117.24c-4.25-.7-4.7 6-.47 6.68s4.7-5.99.47-6.68z"/></g><path d="m358.37 348.53 7.63-1.53a72.2 72.2 0 0 0 56.48-87.36l-29.23-124.64-137.8 26.86 20 128.49a70.28 70.28 0 0 0 82.92 58.18z" fill="#ffdb99"/><path d="m357.54 308.48h25v149.05h-25z" fill="#ffdb99" transform="matrix(-.982 .191 -.191 -.982 806.52 688.11)"/><ellipse cx="384.97" cy="459.61" fill="#ffdb99" rx="58.34" ry="18.59" transform="matrix(.982 -.191 .191 .982 -80.83 82.16)"/><ellipse cx="324.31" cy="148.46" fill="#ffdb99" rx="70.34" ry="14.39" transform="matrix(.982 -.191 .191 .982 -22.41 64.8)"/><path d="m381.3 461.27a21.1 21.1 0 0 1 -9.5-2.29.49.49 0 0 1 -.26-.35l-2.8-14.36a.5.5 0 0 1 .39-.59.51.51 0 0 1 .59.4l2.75 14.12a19.72 19.72 0 0 0 23.53-4.59l-2.75-14.12a.49.49 0 0 1 .39-.59.51.51 0 0 1 .59.39l2.8 14.37a.47.47 0 0 1 -.12.42 20.85 20.85 0 0 1 -12.13 6.92 20.38 20.38 0 0 1 -3.48.27z" fill="#383333"/><path d="m273.9 205.3c25.85 15.93 61.15 5.72 84.79-11a57.17 57.17 0 0 1 34.22-10.23l18.35 78.22a60.68 60.68 0 0 1 -47.45 73.4l-7.65 1.49a58.74 58.74 0 0 1 -69.28-48.61z" fill="#ffb833"/><path d="m281.32 168.42c-22.17 0-26.25-5.88-26.47-6.23a.5.5 0 1 1 .84-.54c.08.12 8.52 11.75 65.59 1.55 57.52-10.28 71.54-28.32 71.68-28.5a.5.5 0 0 1 .7-.1.5.5 0 0 1 .1.7c-.56.75-14.39 18.53-72.3 28.88-17.54 3.14-30.54 4.24-40.14 4.24z" fill="#383333"/><path d="m408.07 251.21a2.51 2.51 0 0 1 -2.43-1.92l-18.71-78a2.5 2.5 0 1 1 4.86-1.16l18.71 78a2.52 2.52 0 0 1 -1.85 3 2.87 2.87 0 0 1 -.58.08z" fill="#fff"/><path d="m357.43 339.46a2.5 2.5 0 0 1 -.25-5c32.71-3.36 46.58-31.34 46.71-31.62a2.5 2.5 0 0 1 4.51 2.16c-.6 1.25-15.15 30.77-50.71 34.43z" fill="#fff"/><path d="m381.82 424.35a2.5 2.5 0 0 1 -2.45-2l-11.78-60.41a2.5 2.5 0 0 1 4.91-1l11.78 60.41a2.5 2.5 0 0 1 -2 2.93 2.61 2.61 0 0 1 -.46.07z" fill="#fff"/><path d="m428.47 450a2.53 2.53 0 0 1 -1.74-.69c-4-3.87-15.45-4-19.52-3.71a2.5 2.5 0 1 1 -.35-5c1.72-.13 17-1 23.34 5.08a2.5 2.5 0 0 1 -1.73 4.3z" fill="#fff"/><path d="m360.89 477.46c-7.8 0-15-1.09-20-4.12a2.5 2.5 0 0 1 2.61-4.27c6.2 3.79 18.31 4.44 35 1.88a209.85 209.85 0 0 0 24.08-5.24 2.5 2.5 0 0 1 1.41 4.8c-1.28.39-23.94 6.95-43.1 6.95z" fill="#fff"/><path d="m339 459.61c4.23-.82 4.88 5.84.67 6.66s-4.83-5.84-.67-6.66z" fill="#fff"/><path d="m419.26 456.47c4.22-.83 4.87 5.84.66 6.66s-4.87-5.84-.66-6.66z" fill="#fff"/><path d="m382.12 433.09c4.23-.82 4.88 5.84.67 6.66s-4.87-5.84-.67-6.66z" fill="#fff"/><path d="m365.25 344c4.23-.82 4.88 5.84.67 6.66s-4.87-5.8-.67-6.66z" fill="#fff"/><path d="m344.61 333.62c4.22-.83 4.87 5.84.67 6.66s-4.88-5.84-.67-6.66z" fill="#fff"/><path d="m411.91 279.35c4.23-.83 4.88 5.84.67 6.66s-4.87-5.84-.67-6.66z" fill="#fff"/><path d="m386.22 152.59c4.23-.83 4.88 5.84.67 6.66s-4.89-5.84-.67-6.66z" fill="#fff"/><path d="m292 170.13c-.81 0-1.6 0-2.38 0a2.5 2.5 0 0 1 -2.41-2.59 2.48 2.48 0 0 1 2.58-2.41c24.81.86 68.81-13.4 69.26-13.55a2.5 2.5 0 0 1 1.55 4.76c-1.78.54-42.7 13.79-68.6 13.79z" fill="#fff"/><path d="m284.61 279.69a2.51 2.51 0 0 1 -2.47-2.11l-13.23-83.88a2.5 2.5 0 0 1 4.94-.78l13.23 83.88a2.5 2.5 0 0 1 -2.08 2.86z" fill="#fff"/><path d="m291.26 299.93c4.22-.82 4.87 5.84.67 6.66s-4.88-5.84-.67-6.66z" fill="#fff"/><path d="m267.9 177.61c4.23-.82 4.88 5.84.67 6.66s-4.87-5.84-.67-6.66z" fill="#fff"/><path d="m270.7 164.33c4.23-.82 4.88 5.84.67 6.66s-4.87-5.84-.67-6.66z" fill="#fff"/><path d="m299.25 147.76a2.5 2.5 0 0 1 -.9-4.83c16.95-6.51 62.14-12.28 64-12.52a2.5 2.5 0 1 1 .63 5c-.46.06-46.5 5.94-62.89 12.23a2.54 2.54 0 0 1 -.84.12z" fill="#fff"/><path d="m374.77 132.78c4.22-.83 4.87 5.84.67 6.66s-4.88-5.84-.67-6.66z" fill="#fff"/><path d="m236.29 78.33 15.85 11.98 21.83-33.16 8.39 35.61 23.92-17.28-3.25 24.83 29.91-2.01-35.76 14.9-1.6-18.16-18.29 10.8-9.33-19.48-14.4 15.98z" fill="#ff832f"/><path d="m293.48 361.45-17.36-9.69-17.06 35.85-13.2-34.12-21.32 20.4-.19-25.04-29.35 6.1 33.37-19.67 4.07 17.77 16.64-13.22 11.91 18.02 12.07-17.8z" fill="#ff832f"/></g></svg>