<svg enable-background="new 0 0 512 512" height="512" viewBox="0 0 512 512" width="512" xmlns="http://www.w3.org/2000/svg"><g id="white_border"><g><path d="m421.79 312.35c-7.56-7.37-18.9-13.71-33.72-18.84-2.28-1.06-6.73-2.83-12.32-5.05-6.68-2.66-14.86-5.91-21.11-8.68-.92-2.1-2.04-4.32-3.32-6.64-2.42-4.36-8.33-7.57-11.52-9.05v-20.44c2.4-1.56 4.93-3.27 6.34-4.47 9.59-8.15 14.93-19.41 17.12-24.91 4.5-1.26 6.79-5.74 8.7-9.51 1.13-2.23 2.3-4.53 3.97-6.81 4.17-5.71 5.61-12.58 3.85-18.38-.75-2.48-2.08-4.6-3.82-6.19 10.28-28.58 11.02-33.53 11.27-35.21.95-6.37.19-13.13-2.33-20.68-1.38-4.14-3.5-8.27-6.31-12.26 0-.02-.01-.04-.02-.05-2.03-6.97-5.51-11.9-10.36-14.65-.8-.45-1.62-.83-2.47-1.14-.36-4.42-1.38-8.23-3.11-11.56-4.14-7.99-12.37-13.01-23.79-14.54-.85-.11-1.73-.2-2.76-.28-3.58-.92-7.35-1.38-11.22-1.55 0 0-19.21.82-22.78 1.16-14.11 1.37-27.43 2.65-32.92-3.72l-3.79-4.41c.6-4.58.48-9.54-.69-14.91-2.82-12.97-15.41-24.54-28.05-25.81-10.96-1.1-19.3 3.95-24.65 10.48-2.07-2.02-4.62-3.81-7.41-5.12-6.36-3-13.21-3.31-19.31-.86-13.39 5.39-20.75 20.53-18.73 38.58 1.55 13.87 9.9 26.88 24.29 38.07l-1.82-.23c-1.66-.58-3.31-1.05-4.95-1.42-1.06-.29-2.13-.57-3.2-.83-.49-.12-.99-.25-1.49-.38-2.76-.71-5.89-1.52-9.18-1.48-4.44.04-8.68 1.98-11.8 5.26-4.68-1.76-10.58-2.89-16.7-.41-4.75 1.93-8.34 5.55-10.95 8.49-.62.7-1.24 1.42-1.85 2.14-.34.28-.68.57-1.01.87-.54.34-1.03.77-1.43 1.28l-.08.1c-2.3 2.18-4.52 4.65-6.63 7.38l-5.45 8.01c-.67 1.12-1.33 2.26-1.97 3.44-1.6 2.28-3.03 4.36-4.36 6.34l-.07.1c-1.64 2.44-3.34 4.97-4.66 7.98-1.48 3.38-2.18 6.91-2.71 9.95-.61 3.45-1.03 6.98-1.26 10.5-.07 1.14-.12 2.29-.16 3.44v.05l-4.27 14.36c-1.21 2.36-2.46 4.8-3.55 7.34-2.09 4.91-2.3 9.34-.63 13.19 2.23 5.14 7.26 6.83 9.95 7.74.84.28 1.68.56 2.51.85-.52 1.54-.75 3.09-.69 4.63.17 4.54 2.99 8.35 7.74 10.45.79.35 1.57.64 2.32.89.85 1.43 1.55 2.84 2.23 4.23 1.57 3.17 3.42 6.92 6.93 8.62.36 1.45.61 2.88.74 4.3-1.41.11-2.82.58-4.01 1.39-3.52 2.38-4.67 6.98-2.68 10.71 1.71 3.2 5.38 4.87 9.15 4.15 2.32-.44 4.37-1.72 5.9-3.65.54.61 1.09 1.21 1.67 1.79l.12.12c.13.13.27.27.4.4-1.57 13.04 4.78 25.79 17.16 34.27 1.63 1.11 3.37 2.11 5.2 2.98.98.76 1.99 1.48 3.02 2.17-.39.44-.8.87-1.21 1.29-.89-1.78-2.71-3.01-4.82-3.05-1.5-.01-2.97.57-4.03 1.65s-1.64 2.56-1.58 4.07c.05 1.45.2 2.9.43 4.35-2.04.95-4.15 1.69-6.29 2.19-6.78 1.59-12.92 3.51-18.26 5.7-5 .83-9.18 2.31-12.74 4.5-.89.23-1.82.51-2.8.84-.99.16-1.95.51-2.79 1.04-11.58 4.86-19.29 14.71-21.73 27.79-3.42 18.34 3.97 40.5 20.3 60.94.78 3.14 2.93 9.4 7.12 21.58 4.38 12.71 10.38 30.12 16.09 48.28l1.1 3.5h38.96c4.06 4.24 11.42 11.06 17.02 11.41 7.18.47 19.59-7.67 24.88-11.41h69.22l.01-.32h58.05c7.92 6.46 33.18 24.12 52.2 24.12 3.72 0 7.21-.68 10.28-2.25 4.37-2.23 13.46-6.88 34.31-151.2.45-3.14.81-5.62.9-6.11 2.27-12.5-1.49-23.59-11.13-32.99zm-201.71-24.88c1.26 3.31 3.82 5.78 6.95 6.76-.21.11-.42.21-.62.32-1.27.47-2.51.96-3.69 1.46-1.35.1-2.57.69-3.47 1.6-.65.32-1.28.66-1.89.99-.43-.39-.84-.79-1.24-1.19-1.03-1.07-1.97-2.18-2.81-3.32 2.46-1.99 4.72-4.21 6.77-6.62zm19.2 1.49c.51-1.29.72-2.69.59-4.08-.23-2.44-1.49-4.61-3.46-5.95-1.26-.86-2.71-1.29-4.19-1.29-.41 0-.82.03-1.23.1.39-1.91.98-3.86 1.59-5.9.5-1.67 1.02-3.4 1.45-5.18.85-3.49.91-6.84.97-10.07.03-1.47.05-2.86.15-4.22.34-4.66-.09-9.15-1.34-13.99 2.07-5.14 2.95-10.71 2.56-16.32 2.56-1.98 3.59-4.98 4.15-7.22.01-.01.02-.03.03-.04.48-.69.82-1.48 1-2.3.22-.89.24-1.83.07-2.74l-.01-.07c.36-1.71.8-3.49 1.46-5.28.52-1.4.9-2.84 1.14-4.29.7-.56 1.44-1.16 2.15-1.84.3.23.62.45.96.65.81 5.85 3.31 18.19 10.7 28.62 2.79 3.94 13.05 14.61 20.88 21.79v14.89c-3.08 1.2-9 4.05-11.91 9.09-1.1 1.9-2.12 4.08-2.95 6.31-3.77 1.65-8.9 3.52-14.28 5.48-3.51 1.25-7.06 2.54-10.48 3.85zm-21.22-178.27c6.37 2.73 8.72 3.44 10.08 3.44.61 0 1.02-.15 1.51-.32h.01c.42-.15 4.04-1.57 3.18-6.08-1-5.27.69-9.89 5.03-13.75.73-.65 1.61-1.38 2.61-2.22 5.05-4.22 12.93-10.8 18.54-19.92.22 6.62 2.87 10.63 5.27 13.41-3.86 2.56-8.13 5.98-11.78 10.34-1.12 1.01-2.04 1.91-2.87 2.78-5.82 6.13-9.53 13.27-10.83 20.77-2.68-.02-5.44.09-8.32.79-2.27.55-4.3 1.42-6.07 2.57-4.92-6.28-10.19-11.72-15.62-16.2 3.59 1.86 6.79 3.33 9.26 4.39z" fill="#fff"/></g></g><g id="illustration"><g><g><path d="m259.8 41.6c-2.27-10.42-12.72-20.8-23.66-21.9-14.01-1.4-21.38 9.02-23.99 14.51-2-6.35-13.68-14.91-25.01-10.35-10.28 4.14-17.54 16.34-15.64 33.4 3.97 35.64 56.17 52.92 56.49 52.81.2-.07-3.28-10.11 6.57-18.86 7.46-6.65 31.08-22.75 25.24-49.61z" fill="#dd7682"/><g><path d="m334.8 284.96v-45.55h-50.9v38.76 8.18c-2.76 3.04 26.61 17.43 26.61 17.43s27.25-15.22 24.29-18.82z" fill="#edba94"/><g><g><path d="m292.8 474.17h31.31s80.99-170.4 61.53-173.71c-6.15-2.9-13.8-5.63-23.33-7.98-8.53-2.1-16.13-6.92-21.83-12.96l-30.82 16.9-29.87-16.9c-5.7 6.04-13.29 10.86-21.82 12.96-10.1 2.49-18.09 5.4-24.42 8.5-16.99 3.15 59.25 173.19 59.25 173.19z" fill="#e6e7e8"/></g></g><path d="m428.05 345.42c4.12-23.18-16.16-37.44-41.86-46.31-6.35-3.02-38.16-14.64-43.29-18.86-.33-.27 7.29 7.62 5.6 36.64-1.08 18.55-33.01 112.1-42.07 154.15-6.78-28.31-28.24-85.65-29.34-91.08-4.66-23.14-8.38-47.25-9.07-57.2-1.83-26.4 4.38-41.24 4.38-41.24-4.42 4.55-30.77 11.66-43.97 18.56-16.94 6.19-25.61 15.03-27.13 40.02-.1 1.72-.82 27.67-.31 30.88.49 10.68 6.26 77.51 10.46 105.75h93.83 2.38 29.45c8.24 7.34 42.33 30.63 58.38 22.42 12.52-6.4 31.62-148.47 32.56-153.73z" fill="#594a42"/><g><path d="m335.59 269.29v4.65l-25.21 16.5-27.03-16.71-.25-4.26s-7.18 2.36-9.7 6.86c-2.68 4.81-5.02 11.99-4.26 17.7 1.67 12.65 26.59 30.41 30.51 31.74.4.14 7.36-13.3 10.35-19.04 3.05 5.85 9.4 18.92 9.79 18.78 3.92-1.33 28.77-19.1 30.51-31.74.66-4.8-2.77-12.41-5.6-17.7-1.83-3.47-9.11-6.78-9.11-6.78z" fill="#e6e7e8"/><path d="m299.66 327.49c-.21 0-.42-.07-.67-.15-4.67-1.52-30.39-19.23-32.19-32.36-.85-6.21 1.9-13.7 4.52-18.22 2.81-4.86 10.44-7.31 10.76-7.42l1.93-.61.32 5.33 26.12 15.55 24.26-15.3v-6.06l2.2.97c.81.35 7.97 3.57 10.04 7.3 3.07 5.53 6.59 13.18 5.87 18.2-1.88 13.15-27.54 30.84-32.18 32.35-1.59.52-1.59.52-8.1-11.96-.85-1.62-1.69-3.23-2.44-4.66-8.02 14.83-9.25 17.04-10.44 17.04zm-18.48-54.83c-2.19.95-5.65 2.77-7.15 5.36-2.42 4.18-4.97 11.04-4.2 16.63 1.49 10.87 22.98 26.57 29.14 29.67 1.78-2.88 6.72-12.02 8.99-16.21l2.12-3.92 1.38 2.54c1.02 1.89 2.41 4.55 3.83 7.25 1.84 3.53 4.25 8.14 5.37 10.07 6.18-3.14 27.55-18.78 29.11-29.66.48-3.39-1.5-9.3-5.58-16.65-.99-1.79-4.08-3.73-6.45-4.99v2.98l-27.27 17.19-29.14-17.35z" fill="#f1f2f2"/></g><g><path d="m329.67 317.31-18.59-6.74c-.93-.34-1.94-.34-2.87-.02l-19.56 6.85c-3 1.05-6.06-1.41-6.06-4.86v-15.71c0-3.47 3.08-5.93 6.08-4.86l19.08 6.8c.93.33 1.94.33 2.87 0l19.08-6.8c3-1.07 6.08 1.39 6.08 4.86v15.63c0 3.48-3.1 5.94-6.11 4.85z" fill="#726658"/><path d="m325.56 299.98c-1.08-.57-2.61-.23-3.77-.21-1.37.02-2.66-.1-3.59-1.3-.57-.74-.8-1.45-.79-2.12l-6.8 2.42c-.93.33-1.94.33-2.87 0l-6.78-2.42c.33.4.62.81.86 1.25.6 1.06.76 2.32-.13 3.25-.76.8-1.92 1.13-2.91 1.47-1.44.5-2.88 1.06-4.21 1.83-.31.18-.69.47-.93.69.11.06.23.15.34.2.91.44 1.95.62 2.91.89 2.3.65 5.07 1.85 4.81 4.91-.07.77-.31 1.51-.66 2.2l7.16-2.51c.93-.33 1.94-.32 2.87.02l8.52 3.09c-1.38-1.39-2.45-3.03-2.65-4.93-.16-1.48.39-3.17 1.58-4.02 1.06-.76 2.42-.96 3.65-1.18 1.12-.2 2.53-.3 3.49-1.01.78-.57.79-2.06-.1-2.52z" fill="#594a42"/><path d="m309.44 313.12h-.29c-2.17 0-3.94-1.77-3.94-3.94v-8.53c0-2.17 1.77-3.94 3.94-3.94h.29c2.17 0 3.94 1.77 3.94 3.94v8.53c0 2.17-1.77 3.94-3.94 3.94z" fill="#726658"/></g><g><g><g><path d="m380.16 120.04c-1.46-4.36-3.69-8.28-6.15-11.66-.08-.28-.15-.56-.23-.84-1.38-4.73-3.72-9.26-8.03-11.7-1.5-.85-3.17-1.35-4.86-1.4.04-4.64-.56-9.25-2.69-13.35-3.94-7.61-12.2-10.84-20.02-11.89-.97-.13-1.94-.22-2.92-.28-22.89-6.14-57.47 8.64-69.89-5.8-4.68 16.76 3.89 19.78 6.57 24.36-4.69 2.51-10.93 6.62-15.79 12.55-.98.88-1.95 1.79-2.86 2.76-5.21 5.49-9.02 12.5-9.81 20.27-.43 4.21.11 8.5 1.8 12.38.36.84 1.63.28 1.26-.56-2.95-6.77-2.06-14.54.9-21.12 1.12-2.49 2.55-4.77 4.19-6.88-4.56 8.42-5.13 15.26-4.34 20.96.88 6.4 5.77 58.23 5.77 58.23l60 7.96.05-.44 48.08 6.38s19.64-51.72 21.11-61.56c.72-4.92.36-10.89-2.14-18.37zm-8.72-15.08c.03.09.06.17.1.26-3.77-4.48-7.61-7.69-9.69-9.29 4.42.62 7.9 4.83 9.59 9.03zm-30.38-33.88c2.31.51 4.57 1.23 6.71 2.22 3.46 1.6 6.56 4 8.61 7.35 1.97 3.21 2.79 7.01 3.04 10.77v.02c-2.68-8.46-9.15-15.78-18.36-20.36z" fill="#a97c50"/><path d="m382.54 134.65c-.14.06-2.13.71-3.01.83-.17-3.76-4.26-12.18-5.18-11.78-.79.35 1.56 8.47 1.76 11.74-.68-.1-1.36-.26-2.03-.47-4.95-1.53-9.11-5.47-12.25-9.6-2.03-2.66-3.33-5.53-4.29-8.77-.77-2.63-1.75-6.08-.77-8.79.38-1.04 1-1.58 1.74-1.79 1.04.86 4.96 3.09 5.47 2.34.57-.84-2.65-4.58-3.86-5.56-.75-2.44-1.13-5.41.56-7.43.32-.38.66-.69 1.03-.95-.3-.04-.6-.06-.9-.07.02-1.88-.08-3.75-.33-5.58-.06 2.7-1.08 4.51-2.14 5.67-1.16 1.27-2.37 1.76-2.42 1.79-8.89 1.52-20.81-6.58-19.49-4.73 2.54 3.54 6.03 5.66 9.87 6.87.67.81 1.1 1.78 1.09 3.08-.07 4.58-4.68 6.2-8.31 6.74-4.71.7-9.56.57-13.92-1.62-4.89-2.45-8.7-6.67-12.2-10.88-1.29-1.55-2.55-3.19-3.92-4.69-1.07-1.77-6.44-8.8-8.6-9.69-2.06-.85 5.33 10.87 6.45 12.79.52.91 1.02 1.83 1.5 2.77-.3 1.04-.86 2-1.72 2.76-2.84 2.51-7.5 2.06-10.79.95-4.51-1.52-8.05-4.89-10.81-8.94-.02-.05-.06-.1-.08-.16-3.68-11.89-11.04-19.39-11.56-18.68-.43.59 2.15 5.32 4.15 9.43.81 1.67 1.53 3.24 1.92 4.39.35 1.03.71 2.06 1.08 3.07-.21.1-8.9-4.16-12.34-10.13-3.39-5.88-2.95-14.44-3.07-15.98-4.33 16.27 4.06 19.28 6.71 23.81-.89.48-1.84 1.01-2.82 1.6.39.02.77.06 1.15.15 1.27.33 2.76 1.05 3.2 2.44.38 1.22-.2 2.46-.84 3.45-.09.14-7.75 5.78-7.22 6.49.62.83 7.89-2.64 7.98-2.67.4.05.8.13 1.18.28 2.68 1.07 2.5 5.08 1.36 7.26-1.62 3.1-4.64 5.31-7.3 7.37-5.55 4.29-11.38 8.56-18.19 9.78-.35-1.86-1.26-9.56-1.57-9.02-1.67 2.87-1.99 6.16-1.85 9.36-.01 0-.01 0-.01 0 .02 1.34.12 2.62.29 3.85.88 6.4 5.77 58.23 5.77 58.23l60 7.96.05-.44 48.08 6.38s19.64-51.72 21.11-61.56c.15-1.15.26-2.37.29-3.65z" fill="#8b5e3c"/><g fill="#c49a6c"><path d="m268.69 104.76c-2.08.81-4.16 1.62-6.24 2.43-.91.35-1.83.81-2.78 1.06-.17.05-.74.21-.92.06 0 0-.01 0-.01.01.01-.02.02-.06.06-.2.06-.23.13-.46.22-.69.74-1.89 2.4-3.34 3.73-4.77 1.55-1.66 3.09-3.32 4.64-4.98.78-.84-.36-1.95-1.23-1.64-3.32 1.19-6.39 2.94-9.45 4.71-1.15.66 3.97.16 5.59-.67-.78.84-1.57 1.68-2.35 2.52-1.4 1.51-3.6 3.83-3.19 6.17.45 2.56 3.42 1.59 4.94 1 1.7-.66 3.41-1.32 5.12-1.99-.25.25-.5.48-.73.71-.91.88-1.87 1.71-2.86 2.49-2 1.58-6.76 6.67-5.56 6.06 2.58-1.31 5.04-2.89 7.3-4.74 1.1-.89 2.15-1.85 3.14-2.86.98-1 1.86-2.07 2.01-3.55.08-.84-.7-1.42-1.43-1.13z"/><path d="m272.57 77.21c-.37.16-.56.49-.6.85-1.19-2.37-2.76-8.67-3.29-8.59-.58.09-.91.63-.87 1.21.31 4.29 1.9 8.44 4.47 11.82.6.79 1.63.35 1.84-.52.33-1.4.22-2.83-.2-4.2-.16-.55-.87-.78-1.35-.57z"/><path d="m338.11 77.03c3.15 1.35 6.11 3.15 8.78 5.38 1.04.87-3.24-8.44-15.68-9.7-1.2-.12-1.54 1.56-.52 2.06 4.89 2.38 9.16 6.04 12.36 10.54-7.91-5.05-16.33-9.35-25.41-11.48-3-.71-6.05-1.15-9.12-1.3-1.07-.05-1.72 1.71-.52 2.06 8.28 2.4 15.66 7.8 20.57 15.13-2.46-1.11-4.93-2.22-7.39-3.34-.94-.42-1.86.81-1.21 1.65 3.67 4.66 7.59 9.1 11.7 13.34-4.84-1.15-8.99-4.49-12.43-8.2-4.14-4.46-7.51-9.61-11.82-13.92-2.38-2.38-10.05-4.44-8.85-3.87 5.5 2.59 9.52 7.44 13.29 12.18 3.86 4.86 7.76 9.89 13.02 13.19 2.92 1.83 6.14 3.05 9.56 3.17 1.06.04 1.51-1.17.75-1.92-3.79-3.76-7.39-7.71-10.81-11.83 2.14.97 4.28 1.93 6.42 2.9.76.34 1.81-.57 1.34-1.41-3.71-6.74-9.25-12.29-15.81-15.9 7.62 1.66 14.87 4.96 21.67 8.95 2.63 1.54 5.2 3.2 7.73 4.92.78.53 2.11-.24 1.58-1.27-2.29-4.43-5.44-8.28-9.2-11.33z"/><path d="m293.21 75.06c-.89-1.02 4.21 10.22 5.19 15.48-.88-.95-1.56-2.13-2.16-3.28-1.03-1.97-1.94-4.06-3.34-5.79-.71-.87-1.73-1.91-2.92-1.33-1.04.51-1.16 1.82-.99 2.87.3 1.86.71 3.71 1.16 5.55-1.73-2.44-2.94-5.3-4.24-8-1.86-3.84-4.11-7.57-7.83-9.7-1.16-.67 4.8 8.11 6.53 11.81 1.8 3.84 3.65 7.79 6.94 10.52.65.54 1.89-.07 1.65-1-.7-2.69-1.34-5.39-1.89-8.12-.1-.51-.17-1.07-.28-1.58.05.05.09.09.11.11.62.73 1.15 1.56 1.62 2.4 1.84 3.29 3.17 7.09 6.65 8.9.74.38 1.49-.38 1.42-1.14-.67-6.54-3.36-12.81-7.62-17.7z"/><path d="m379.58 121.29c-2.42-6.15-6.86-11.23-12.46-14.41-.85-.49-1.62.62-1.34 1.41.99 2.86 1.85 5.77 2.57 8.72-1.22-.54-2.43-1.07-3.65-1.61-1.27-.56-3.35-1.9-4.42-.29-.84 1.25-.03 3.04.48 4.26.68 1.65 1.59 3.2 2.66 4.61.83 1.09.2-3.36-.34-4.49-.28-.58-.53-1.18-.75-1.79-.1-.27-.52-1.1-.34-1.41-.22.39 1.12.75 1.44.89.63.28 1.26.56 1.9.84 1.37.6 2.74 1.21 4.11 1.81.68.3 1.6-.33 1.42-1.14-.62-2.81-1.37-5.59-2.23-8.33 4.03 2.91 11.46 12.21 10.95 10.93z"/></g></g><g><g><path d="m370.35 176.67c-2.03-.74-4.97.87-6.54 1.57-.19-.98-1.83-9.48-1.83-9.48s2.03-27.28 1.51-29.17c-2.29-8.34-7.45-16.32-13.34-23.96l-67.13-8.91c-8.14 5.24-13.96 12.37-18.1 19.79-.95 1.7-5.4 28.66-5.4 28.66s-3.58 7.81-4 8.71c-1.36-1.09-3.83-3.42-5.97-3.23-6.1.55-9.73 9.19-6.03 18.29 3.62 8.92 2.4 16.54 8.43 17.28 0 0 1 16.48 10.15 29.4 3.52 4.97 23.43 25.23 28.77 27.86 3.03 1.49 6.85 2.22 8.65 2.42 1.79.28 5.66.56 8.95-.08 5.79-1.14 29.85-15.57 34.43-19.47 11.91-10.12 16.76-25.83 16.76-25.83 6.01.86 6.62-6.85 12.23-14.54 5.72-7.87 4.24-17.19-1.54-19.31z" fill="#f0d0b4"/><g fill="#edba94"><path d="m249.56 160.63c-6.1.55-9.73 9.19-6.03 18.29 3.61 8.89 2.41 16.5 8.38 17.27l3.95-33.05c-.16.34-.28.6-.33.72-1.36-1.09-3.83-3.42-5.97-3.23z"/><path d="m361.99 168.76s.18.96.43 2.26c0 0-.1-1.69-.29-4.31-.09 1.27-.14 2.05-.14 2.05z"/><path d="m350.16 115.62-67.13-8.91c-8.14 5.24-13.96 12.37-18.1 19.79-.95 1.7-5.4 28.66-5.4 28.66s8.37-25.14 12.41-29.52c10.37-11.28 28.49-12.3 45.74-9.69 19.4 2.93 37.64 10.89 41.48 22.19 1.14 3.34 2.42 20.44 2.98 28.57.46-6.36 1.8-25.55 1.36-27.13-2.29-8.34-7.45-16.32-13.34-23.96z"/><path d="m370.35 176.67c-2.03-.74-4.97.87-6.54 1.57-.07-.35-.32-1.63-.61-3.15l-4.57 38.24c.7-1.75 1.03-2.83 1.03-2.83 6.01.86 6.62-6.85 12.23-14.54 5.72-7.85 4.24-17.17-1.54-19.29z"/></g><g><path d="m308.38 251.61c-3.28.65-7.16.36-8.95.08-1.8-.19-5.62-.93-8.65-2.42-4.58-2.25-28.53-25.31-28.67-24.14-.04.37.05.74.28 1.04 4.47 5.79 23.18 24.74 28.33 27.27 3.03 1.49 6.85 2.22 8.65 2.42 1.79.28 5.66.56 8.95-.08 5.1-1.01 24.38-12.32 32.03-17.67.32-.22.52-.58.57-.97 0 0-27.73 13.52-32.54 14.47z" fill="#f4e1d3"/></g><g fill="#d8a17c"><path d="m254.13 169.03c0-.51-.33-.83-.7-.93-1.41-2.23-3.71-3.72-6.11-1.94-2.81 2.07-2.32 6.05-1.69 9.11.23 1.13 1.92.82 1.68-.32-.42-2.05-1.01-4.58.2-6.47 1.55-2.43 3.61-.88 4.72.96.02.03.04.05.06.08-1.71 1.85-1.84 4.94-.14 6.87.07.08.16.14.24.19v.02c-.04-.03-.09-.07-.14-.09-1.96-.98-3.93.57-4.25 2.69-.22 1.45.26 2.82.84 4.11.74 1.67 1.44 3.28 1.9 5.07.28 1.11 1.88.85 1.68-.32-.32-1.9-.7-3.8-.95-5.7-.19-1.45-.18-2.49 1.2-3.05.34-.14.72-.13.99-.46.77-.93.4-3.23.43-4.38.03-1.81.04-3.62.04-5.44z"/><path d="m371.22 182.61c-1.91-2.35-4.49-1.51-6.38.29-.38 0-.78.22-.9.71-.43 1.76-.84 3.52-1.23 5.29-.25 1.11-1.15 3.25-.62 4.35.19.39.55.48.85.71 1.2.9.96 1.91.44 3.26-.69 1.78-1.51 3.52-2.26 5.28-.46 1.08 1.02 1.74 1.55.75.87-1.62 1.92-2.99 3.04-4.42.86-1.1 1.65-2.3 1.78-3.76.19-2.14-1.35-4.16-3.48-3.72-.06.01-.11.03-.16.05 0-.01 0-.01 0-.02.09-.02.18-.06.28-.12 2.1-1.43 2.71-4.45 1.48-6.69.03-.02.05-.04.08-.06 1.5-1.5 3.86-2.46 4.8.3.73 2.15-.43 4.45-1.33 6.32-.5 1.04 1.06 1.78 1.55.75 1.34-2.8 2.75-6.53.51-9.27z"/></g></g><g><g><path d="m312.67 194.36-9.64-1.28c1.02-7.33 3.86-29.11 3.86-29.11.05-.39-2.05-6.77-3.53-8.76-.31-.42-.94-.54-1.33-.18-.39.35-.5.98-.17 1.43.35.47 2.27 6.03 2.81 7.21 0 0-2.62 19.88-3.84 29.11l-.95-.13c-1.21-.16-1.46 1.86-.24 2.02l1.6.21c1.2 2.16 2.44 4.29 3.73 6.39.27.45.96.51 1.33.18.42-.38.46-.95.17-1.43-.97-1.59-1.91-3.2-2.84-4.82l8.79 1.17c1.22.17 1.47-1.85.25-2.01z" fill="#e8ab82"/><g><g><path d="m343.3 149.27c-3.94-.69-9.73-2.4-16.05-1.88-1.38.11-1.93 4.15-1.21 5.6l29.49 3.62c-.16-.9-3.39-5.8-12.23-7.34z" fill="#8b5e3c"/><g><path d="m340.7 179.61c-3.3-.16-7.23-1.05-11.69-3.3.62 2.38 3.24 5.15 6.92 6.18 4.99 1.39 8.23 1.02 10.82-.13 3.71-1.65 5.65-4.76 5.77-5.32.06-.27-4.49 2.94-11.82 2.57z" fill="#8b5e3c"/><g><path d="m344.81 175.83c.04.49-.31.93-.79.96-5.41.36-10.95-1.36-15.27-5.24-.86-.77.36-2.1 1.22-1.33 3.95 3.54 8.99 5.12 13.92 4.8.48-.02.88.32.92.81z" fill="#edba94"/></g></g></g><path d="m348.07 190.2c-.32 2.66-4.14 2.36-9.71 1.63s-10.78-1.63-10.47-4.29c.32-2.66 5.09-4.22 10.66-3.49 5.57.74 9.83 3.49 9.52 6.15z" fill="#e8b09e"/></g><g><g><path d="m296.05 143.84c-6.04-2.06-12.05-1.83-16.03-2.13-8.94-.68-13.17 3.29-13.52 4.12l29.49 3.75c1.02-1.22 1.38-5.29.06-5.74z" fill="#8b5e3c"/><g><path d="m264.73 166.61c.09.6 1.44 3.98 5.05 6.39 2.52 1.68 6.13 2.89 11.18 2.36 3.73-.39 6.48-2.8 7.23-5.16-4.57 1.52-8.53 1.72-11.83 1.28-7.32-.98-11.68-5.17-11.63-4.87z" fill="#8b5e3c"/><g><path d="m273.45 168.33c-.17.52.02 1.05.42 1.17 4.59 1.35 9.84.5 14.63-2.88.95-.67.26-2.31-.69-1.64-4.38 3.09-9.16 3.87-13.35 2.64-.39-.11-.84.19-1.01.71z" fill="#edba94"/></g></g></g><path d="m264.34 178.91c-.24 2.04 3.24 2.65 8.38 3.33 5.13.67 9.98 1.15 10.22-.88s-3.73-4.23-8.86-4.91c-5.14-.68-9.5.42-9.74 2.46z" fill="#e8b09e"/></g></g><g><path d="m281.9 207.28c.35.58.71 1.16.7 1.66-.13 7.1 1.29 13.66 6.28 18.64 2.06 2.05 5.43 3.59 9.1 4.23l11.56 1.48c3.71.35 7.33-.27 9.81-1.72 5.78-3.39 8.51-8.96 10.21-15.53.19-.73.93-1.47 1.54-2.22l-25.46-2.34z" fill="#e8ab82"/><path d="m285.82 209.7c-.27 4.87.33 8.43 4.55 11.75 1.93 1.51 5.04 2.7 8.41 3.25l10.59 1.36c3.39.35 6.69.01 8.92-.95 4.89-2.12 7.09-6.12 7.89-10.06z" fill="#dd7682"/><path d="m298.61 223.23 10.59 1.38c3.39.38 6.65.32 8.83-.21.01 0 .03-.01.04-.01 1.44-.35.84-1.64-.86-1.87l-25.92-3.44c-1.7-.23-2.59.86-1.27 1.58" fill="#f4e1d3"/><path d="m323.51 217.09c.23-.62-.44-1.3-1.45-1.43l-33.27-4.42c-.95-.13-1.76.3-1.75.91.01.4-1.52 2.2 1.5 4.55 2.6 2.03 9.2 4.61 15.8 5.33 6.46.7 13.52.38 16.49-.74 3.76-1.41 2.54-3.83 2.68-4.2z" fill="#fff"/><g fill="#f0d0b4"><path d="m323.51 217.09c.23-.62-.44-1.3-1.45-1.43l-33.27-4.42c-.95-.13-1.76.3-1.75.91 0 .1 8.16 2.24 16.94 3.69 10.22 1.7 19.47 1.4 19.53 1.25z"/><path d="m303.15 227.46-8.45-1.12c-.67-.09-1.38.33-1.42.92s.43 1.16 1.16 1.26l8.45 1.12c.67.09 1.38-.33 1.42-.92.03-.6-.44-1.17-1.16-1.26z"/><path d="m311.37 228.87c-.23-.23-.52-.39-.87-.44l-1.47-.2c-.18-.03-.35-.02-.51.03-.16.02-.31.08-.44.17-.14.08-.24.19-.31.32-.1.12-.15.25-.16.4-.02.28.06.59.28.82.23.23.52.39.87.44l1.47.2c.18.03.35.02.51-.03.16-.02.31-.08.44-.17.14-.08.24-.19.31-.32.1-.12.15-.25.16-.4.02-.28-.05-.59-.28-.82z"/></g></g></g></g></g><g><g fill="#f4e1d3"><path d="m290.26 154.54-16.6 13.19c-1.73 1.38.35 4.13 2.09 2.75l19.29-15.32z"/><path d="m276.13 152.72-16.28 12.83c-1.74 1.37.35 4.13 2.09 2.75 6.33-4.99 12.66-9.98 18.99-14.97z"/></g><g fill="#f4e1d3"><path d="m355.36 162.62-16.6 13.19c-1.73 1.38.35 4.13 2.09 2.75l19.29-15.32z"/><path d="m341.23 160.8-16.28 12.83c-1.74 1.37.35 4.13 2.09 2.75 6.33-4.99 12.66-9.98 18.99-14.97z"/></g><path d="m365.34 179.02-3.04-.39.92-7.46c.68-5.53-3.16-10.6-8.57-11.29l-22.9-2.95c-5.41-.7-10.36 3.24-11.04 8.77l-.92 7.46-22.27-2.87c-.02 0-.03 0-.05 0l.92-7.47c.68-5.53-3.16-10.6-8.57-11.29l-22.9-2.95c-5.41-.7-10.36 3.24-11.04 8.77l-.86 7.02-2.22-.29c-.43-.06-.91.08-1.26.35-.33.26-.61.73-.65 1.16-.07.94.53 1.83 1.48 1.95l2.22.29-.94 7.61c-.68 5.53 3.16 10.6 8.57 11.29l22.9 2.95c5.41.7 10.36-3.24 11.04-8.77l.88-7.17c.02 0 .03.01.05.01l22.27 2.87-.88 7.17c-.68 5.53 3.16 10.6 8.57 11.29l22.9 2.95c5.41.7 10.36-3.24 11.04-8.77l.88-7.17 3.04.39c.88.11 1.83-.57 1.9-1.51.08-.95-.52-1.83-1.47-1.95zm-72.55 1.45c-.45 3.62-3.69 6.2-7.23 5.74l-22.9-2.95c-3.54-.46-6.06-3.78-5.62-7.4l2.23-18.09c.45-3.62 3.69-6.2 7.23-5.74l22.9 2.95c3.54.46 6.06 3.78 5.62 7.4zm64.82 8.34c-.45 3.62-3.69 6.2-7.23 5.74l-22.9-2.95c-3.54-.46-6.06-3.78-5.62-7.4l2.23-18.09c.45-3.62 3.69-6.2 7.23-5.74l22.9 2.95c3.54.46 6.06 3.78 5.62 7.4z" fill="#8b5e3c"/></g></g><g><g><path d="m252.72 169.55c-.9-3.71-3.58-6.96-5.86-9.92-2.4-3.1-5.01-6.04-7.82-8.78-.76-.74-1.54-1.47-2.33-2.19-.27-.29-.54-.58-.81-.87-1.91-2.11-3.74-4.29-5.52-6.53-12.18-21.34-30.47-38.44-47.53-42.16-1.06-.29-2.12-.57-3.18-.83-3.08-.76-6.28-1.74-9.43-1.72-4.2.04-8.06 2.52-10.21 6.42-5.3-2.57-10.94-4.17-16.46-1.93-3.53 1.44-6.47 4.22-9.08 7.17-.7.79-1.39 1.59-2.07 2.4-.58.47-1.15.96-1.71 1.47-.12.02-.25.09-.35.21-.1.13-.2.25-.3.38-5.04 4.71-9.6 10.91-13.49 18.08-1.51 2.15-3 4.31-4.47 6.49-1.56 2.32-3.14 4.66-4.29 7.29-1.21 2.76-1.84 5.8-2.37 8.81-.58 3.28-.98 6.61-1.2 9.95-.14 2.19-.15 4.4-.3 6.6-.2 1.38-.37 2.75-.52 4.13-.14.63-.31 1.23-.5 1.83-.7 1.41-1.41 2.82-2.11 4.24-1.66 3.32-3.47 6.62-4.93 10.03-1.24 2.91-1.94 6.26-.64 9.24 1.25 2.87 4.17 4.05 6.97 5 2.75.93 5.5 1.85 8.25 2.77-1.72 2.07-3.13 4.56-3.03 7.26.11 2.94 2.21 4.94 4.76 6.07 1.47.65 3.03 1.09 4.59 1.54 1.94.92 3.47 2.48 4.72 4.24 1.71 2.41 3 5.16 3.99 7.94 1.05 2.96 1.74 6.1 1.94 9.24.18 2.69.03 6.16-1.83 8.36-.85 1.01-2.5 1.73-3.69.88-.74-.52-.93-1.62-.41-2.38.32-.46 1.66-1.32 2-.49.35.87 1.7.24 1.34-.63-.59-1.45-2.53-1.33-3.66-.57-1.39.94-1.84 2.76-1.07 4.22.72 1.35 2.34 1.87 3.81 1.59 1.61-.31 2.83-1.47 3.59-2.87 1.88-3.47 1.62-7.81 1-11.52-.69-4.17-2.09-8.22-4.13-11.91-.89-1.62-1.94-3.24-3.21-4.62 1.17.49 2.32 1.04 3.43 1.65 2.14 2.16 8.46 8.3 11.96 16.11 2.21 4.93 1.37 13.03 1.47 16.42-1.9 12.34 4.55 23.37 14.9 30.46 1.58 1.08 3.26 2.02 5 2.81 9.41 7.47 21.28 11.02 33.4 8.89 22.61-3.98 38.12-26.33 36.64-51.34.46 2.15.75 4.34.85 6.55.13 2.81-.06 5.64-.53 8.42-.47 2.79-1.3 5.5-2.11 8.22-1.38 4.64-3.22 10.19-1.47 14.92.71 1.92 2.16 3.5 4.21 3.96 1.67.38 3.63.07 4.89-1.19 1.45-1.45 1.54-4.11-.23-5.32-1.73-1.18-4.42.35-4.04 2.48.17.92 1.63.67 1.46-.26-.14-.76.78-1.37 1.48-1.14.88.29 1.1 1.51.86 2.29-.47 1.53-2.34 1.98-3.74 1.78-4.4-.64-4.33-6.44-3.83-9.75.67-4.42 2.33-8.63 3.39-12.97 1.07-4.42.67-8.96.99-13.48.42-5.81-.59-10.71-1.94-14.99-2.14-6.81-5.13-12.04-4.53-16.85.31-2.44 3.11-6.56 3.97-8.65.84-1.59 1.77-3.14 2.81-4.63 2.27-3.25 4.97-6.19 8.05-8.7 3.1-2.52 7.11-4.87 7.58-9.21.22-1.99-.55-3.91-2.21-5.06-1.08-.75-2.36-1.13-3.67-1.36 1.33-.8 2.67-1.6 4-2.4 1.62-.98 3.3-1.9 4.83-3.03 2.86-2.1 4.53-5.06 3.68-8.56zm-155.67 30.04c-1.39-2.08-1.22-4.63-.52-6.98.02 1.15.21 2.32.65 3.5 1.8 3.26 4.81 5.76 7.58 7.54-2.67-.88-6.08-1.61-7.71-4.06zm12.55 17.03c-1.15-1.84-.8-3.93.14-5.82-.41 2.27.2 4.57 1.67 6.27 1.04 1.2 2.3 2.08 3.61 2.84-2.08-.62-4.27-1.45-5.42-3.29zm30.86 48.23c-.06-.52-.11-1.05-.14-1.57 2.3 8.88 6.65 16.65 12.35 22.76-6.66-5.05-11.19-12.63-12.21-21.19zm14.6-161.55c-.15-.27-.44-.47-.83-.43-.51.05-1.02.12-1.52.19-4.75-.24-9.36.9-13.73 3.16 1.14-1.02 2.36-1.93 3.67-2.65 3.32-1.84 6.97-2.08 10.62-1.2 1.37.33 2.72.8 4.05 1.36-.76-.18-1.51-.32-2.26-.43zm7.91-1.4c2.13-2.38 5.15-3.66 8.35-3.41.34.03.68.06 1.02.1-3.26.47-6.4 1.55-9.37 3.31zm80.15 84.25c1.58 1.15 1.86 3.15 1.24 4.94-.69 1.98-2.26 3.43-3.87 4.71-.22.17-.44.34-.66.52.2-.24.38-.46.51-.63 1.66-2.12 3.57-4.81 3.23-7.89-.07-.63-.22-1.17-.45-1.65zm8.28-13.6c-.29 1.61-1.37 2.91-2.61 3.93-.47.39-.97.74-1.47 1.08 1.37-1.33 2.42-2.89 2.67-4.63.37-2.59.1-4.99-.61-7.25.31.52.62 1.05.9 1.59.81 1.61 1.45 3.43 1.12 5.28z" fill="#a97c50"/><path d="m252.72 169.55c-.9-3.71-3.58-6.96-5.86-9.92-2.4-3.1-5.01-6.04-7.82-8.78-.76-.74-1.54-1.47-2.33-2.19-.27-.29-.54-.58-.81-.87-1.35-1.49-2.66-3.04-3.94-4.6-1.67-.11-3.24-1.07-4.59-2.1-2.52-3.17-5.27-6.13-8.23-8.86-2.64-2.43-5.45-4.68-8.4-6.71-.87-.6-.52.54 1.67 3.37s6.21 7.35 7.96 9.18c.67 1.08.96 1.92.3 2.16-.37.13-8.62-4.42-11.98-6.16-.78-.41-1.8.19-2.09.98-.34.92 6.24 8.32 2.93 6.48-.4-.22-2.04.04-2.26.4-.1.16 1.65 1.93 3.5 3.82 2.01 2.06 4.13 4.25 4.09 4.65 1.12 1.76-3.3.13-7.15-1.81-8.27-4.17-17.27-6.35-25.82-9.76-4.01-1.6-7.97-3.4-11.41-6.12-2.76-2.19-6.84-9.37-6.7-9.72-.07.17-.01.1-.06-.07-.04-.14 10.51 4.7 14.61 6.24 5.17 1.93 10.54 3.32 15.83 4.85.84.24-15.95-9.47-16.19-10.3-.32-1.13.12-1.94.85-2.51 1.28.17 2.57.32 3.86.49 3.18.4 11.94-1.89 9.87-2.15-2.97-.37-5.94-.75-8.91-1.12-2.71-.34-5.44-.61-8.12-1.16-2.91-.6-5.92-1.78-8.07-3.87-.82-1.17-1.36-2.65-.98-4.07.03-.11.07-.21.11-.31.48-.22 4.87-1.29 5.26-1.72.36-.4.6-1.05.45-1.61-.12-.43-4.87-.63-6.31-.04-1.05-.34-2.05-.78-2.89-1.57-1.01-.96-1.47-2.1-1.56-3.28-.56.66-1.07 1.39-1.51 2.18-1.04-.51-2.1-.97-3.17-1.38 1.93 1.73 3.46 3.98 2.23 6.39-3.49 1.61-6.82 3.54-10.01 5.73-.73.5-.72 1.73-.2 2.37.61.76 8.53-3.18 11.65-1.24.47.29.56 1 .04 1.24-6.55 3.02-11.08 8.7-15.73 14.14-4.45 5.21-31.01 29.63-33.13 29.42-1.29-.13-1.81-1.14-1.39-2.37 0-.01.01-.02.01-.03.39-.58 5.79-7.86 5.16-8.57-.55-.62-1.64-.88-2.28-.21-2.47 2.58-4.69 5.41-6.58 8.46-.57.12-1.14.04-1.68-.34-.31 2.22-.55 4.46-.69 6.71-.14 2.19-.15 4.4-.3 6.6-.2 1.38-.37 2.75-.52 4.13-.1.44-.22.87-.34 1.3.74-.94 1.5-1.86 2.28-2.76 7.96-9.13 17.62-16.37 26.9-23.94 9.27-7.56 18.39-15.63 24.79-26.05.38-.62 1.09 2.2.9 3.06-.81 3.75-3.04 7.03-5.38 9.93-2.42 2.98-5.14 5.66-7.75 8.45-3.99 4.26-8.18 8.29-12.31 12.4-5.04 5.02-10 10.16-14.43 15.77-4.14 5.23-8.01 10.96-10.16 17.4-1.86 5.54-2.06 11.46.36 16.82.73.24 1.46.49 2.18.73-1.72 2.07-3.13 4.56-3.03 7.26.11 2.94 2.21 4.94 4.76 6.07 1.47.65 3.03 1.09 4.59 1.54 1.94.92 3.47 2.48 4.72 4.24 1.71 2.41 3 5.16 3.99 7.94 1.05 2.96 1.74 6.1 1.94 9.24.18 2.69.03 6.16-1.83 8.36-.85 1.01-2.5 1.73-3.69.88-.74-.52-.93-1.62-.41-2.38.32-.46 1.66-1.32 2-.49.35.87 1.7.24 1.34-.63-.59-1.45-2.53-1.33-3.66-.57-1.39.94-1.84 2.76-1.07 4.22.72 1.35 2.34 1.87 3.81 1.59 1.61-.31 2.83-1.47 3.59-2.87 1.88-3.47 1.62-7.81 1-11.52-.69-4.17-2.09-8.22-4.13-11.91-.89-1.62-1.94-3.24-3.21-4.62 1.17.49 2.32 1.04 3.43 1.65 2.14 2.16 8.46 8.3 11.96 16.11 2.21 4.93 1.37 13.03 1.47 16.42-.22 1.42-.32 2.82-.33 4.2.25-.09.52-.17.81-.22 2.47-.42 4.81.99 6.18 3.06 2.37 3.57 2.91 8.14 5.53 11.54 1.3 1.69 2.85 3.16 4.37 4.64 1.53 1.5 2.93 3.05 4.24 4.76.97 1.26 2.25 2.52 2.2 4.26-.03 1-.38 1.89-.93 2.66 9.03 6.35 20.01 9.25 31.22 7.28 8.83-1.55 16.57-5.92 22.64-12.14-1.46-.32-2.54-1.56-3.17-2.91-.3-.65-.72-1.46-.99-2.26.15-.03 4.62-4.7 6.21-7.35.28-.46.22-1.08-.23-1.41-.18-.14-.42-.19-.65-.17 1.15-2.03 2.19-4.29 3.04-6.58 2.82-7.63 3.94-15.49 3.8-15.59.68-1.19 1.36-2.17 2.03-2.99 0 4.21-1.38 13.6-.85 13.82.44.18 3.25-8.31 2.76-15.21-.01-.18-.05-.34-.11-.49 2.14-1.88 3.8-2.12 3.94-2.13-.37-2.29-.92-4.42-1.54-6.41-2.14-6.81-5.13-12.04-4.53-16.85.31-2.44 3.11-6.56 3.97-8.65.84-1.59 1.77-3.14 2.81-4.63 2.27-3.25 4.97-6.19 8.05-8.7 3.1-2.52 7.11-4.87 7.58-9.21.22-1.99-.55-3.91-2.21-5.06-1.08-.75-2.36-1.13-3.67-1.36 1.33-.8 2.67-1.6 4-2.4 1.62-.98 3.3-1.9 4.83-3.03 2.86-2.12 4.53-5.08 3.68-8.58zm-143.12 47.07c-1.15-1.84-.8-3.93.14-5.82-.41 2.27.2 4.57 1.67 6.27 1.04 1.2 2.3 2.08 3.61 2.84-2.08-.62-4.27-1.45-5.42-3.29zm133.52-30.47c1.58 1.15 1.86 3.15 1.24 4.94-.69 1.98-2.26 3.43-3.87 4.71-.22.17-.44.34-.66.52.2-.24.38-.46.51-.63 1.66-2.12 3.57-4.81 3.23-7.89-.07-.63-.22-1.17-.45-1.65zm8.28-13.6c-.29 1.61-1.37 2.91-2.61 3.93-.47.39-.97.74-1.47 1.08 1.37-1.33 2.42-2.89 2.67-4.63.37-2.59.1-4.99-.61-7.25.31.52.62 1.05.9 1.59.81 1.61 1.45 3.43 1.12 5.28z" fill="#8b5e3c"/><g fill="#c49a6c"><path d="m223.53 265.53c-.67.93-1.4 1.79-2.2 2.58.53-1.58 1.07-3.16 1.6-4.74.41-1.23-3.66 4.73-4.58 7.46-.34 1 .76 1.69 1.53 1.13.56-.4 1.09-.84 1.61-1.29-1.85 4.27-5.99 14.3-5.24 13.26 3.8-5.32 6.83-11.21 8.97-17.46.39-1.08-1.02-1.86-1.69-.94z"/><path d="m146.48 270.62c-.55-1.16-2.33-.31-1.76.85 5.49 11.32 12.23 14.4 11.36 13.45-3.88-4.23-7.12-9.04-9.6-14.3z"/><path d="m133.45 152.28c-.29-.14-2.73 1.54-3.6 2.25-9.65 6.91-19.01 14.53-25.83 24.55-1.98 2.91-3.71 6.01-5.14 9.25-.52 1.18 9.21-12.03 14.29-17.29-3.43 4.38-6.11 9.27-8.47 14.46-3.66 8.06.28 12.94.04 11.66-.67-3.57.3-7.11 1.57-10.42 1.23-3.18 2.79-6.21 4.59-9.08 3.72-5.93 8.42-11.1 13.5-15.79 2.16-2 4.4-3.9 6.66-5.77.99-.7 3.18-3.72 2.39-3.82z"/><path d="m146.44 106.11c-8.2 4.6-15.25 11.25-20.41 19.32-.59.92.59 2.19 1.42 1.36 1.93-1.93 3.99-3.7 6.19-5.28 1.45-1.04 3.08-2.24 4.84-2.79-4.39 4.7-8.68 9.53-12.04 15.09-.6 1 .51 2.01 1.42 1.36 3.11-2.25 6.27-4.42 9.49-6.5 1.58-1.02 3.17-2.02 4.78-2.99.17-.1.34-.21.51-.31-7.51 7-14.74 14.32-21.67 21.95-.85.93 17.86-15.87 26.76-23.93.79-.71.13-1.81-.79-1.77-1.91.09-3.61 1.01-5.23 1.99-1.74 1.05-3.47 2.13-5.18 3.23-1.86 1.2-3.69 2.43-5.51 3.68 3.22-4.39 6.95-8.38 10.67-12.33.56-.59.37-1.69-.53-1.78-3-.3-5.63 1.38-8.03 3.04-.09.06-.18.13-.27.19 4.12-4.69 14.69-14.15 13.58-13.53z"/><path d="m180.5 132.83c-1.23-.25-1.83 1.38-.69 1.89 8.55 3.82 17.09 7.52 26.05 10.48 2.25.74-11.93-9.65-25.36-12.37z"/><path d="m209.29 120.92c-8.05-6.89-18.22-10.96-28.63-11.5 1.88-1.74 5.32-1.3 7.58-.95 3.17.5 10.7 1.76 10.23 1.5-3.39-1.88-7.04-3.14-10.86-3.63-3.56-.45-8-.26-9.69 3.66-.24.56.2 1.35.81 1.36 8.87.13 17.57 2.89 24.99 7.85-.44-.09-.87-.19-1.32-.26-1.12-.17-2.26-.22-3.39-.15-.93.06-2.07.18-2.5 1.19-.44 1.02.28 1.95 1 2.56.98.84 2.02 1.62 3.02 2.43.63.51 1.26 1.01 1.89 1.52-.96-.28-1.93-.54-2.91-.77-1.25-.3-2.51-.55-3.78-.72-1.22-.17-2.67-.47-3.89-.23-1.05.2-1.76 1.24-1.18 2.29.27.49.8.83 1.22 1.17.53.44 1.07.87 1.61 1.29 2.17 1.68 4.46 3.2 6.83 4.57 1.08.63-2.63-3.94-4.41-5.25-.89-.65-1.76-1.33-2.62-2.03h.48c4.47.36 8.77 1.76 13.03 3.14 1.05.34 1.8-1.05.91-1.77-1.55-1.25-3.11-2.49-4.66-3.74l-2.39-1.92c-.38-.3-.76-.61-1.13-.91-.21-.17-.42-.33-.63-.51-.06-.05-.14-.13-.22-.22.14-.03.29-.07.39-.07.44-.04.87-.04 1.31-.03.91.03 1.81.15 2.7.33 1.81.36 3.57.97 5.32 1.57 1.05.37 1.74-1.04.89-1.77z"/></g></g><g><g><path d="m355.33 359.67c-.83-.07-7.96 5.68-16.08 12.3 7.15-7.96 21.05-23.75 20.76-24.48-.27-.66-.91-1.3-1.65-1.36-1.19-.1-15.38 11.81-26.84 21.05-.07-.13-.14-.26-.21-.39 2.27-1.88 27.89-25 27.61-25.96-.2-.69-.77-1.39-1.5-1.53-1.14-.22-15.69 9.5-27.86 17.33 6.3-5.48 21.49-19.49 21.09-20.87-.2-.69-.77-1.39-1.5-1.53-1.4-.27-23.03 14.45-35.63 22.25-4.63 2.87-7.84 3.62-8.67 4.04.71-1.12 6.37-7.64 9.49-13.34 2.26-4.12 1.9-7.98 1.65-8.46-.86-1.7-17.64 18.94-18.59 20.54-3.3 5.57-4.53 12.15-3.22 18.47.31 1.5-14.18 12.35-24 18.75l12.65 20.16c9.77-7.1 26.27-20.19 28.2-19.65 5.27 1.49 22.11-6.83 24.06-10.24 6.69-7.41 22.18-24.95 21.87-25.71-.25-.68-.89-1.32-1.63-1.37z" fill="#f0d0b4"/><g fill="#edba94"><path d="m302.07 361.54c.96.08 2.04-.26 2.94-.57 1.81-.62 3.42-1.62 4.95-2.74-2.68 1.3-4.49 1.77-5.09 2.07.35-.55 1.91-2.43 3.78-4.87-.41.35-.83.69-1.26 1.01-.86.63-1.84 1.07-2.77 1.58-.88.48-1.91 1-2.5 1.86-.21.3-.73 1.02-.6 1.43.07.21.34.21.55.23z"/><path d="m320.18 391.54c-5.84-.64-12.07-.08-17.62-2.35-4.61-1.89-7.63-5.86-9.13-10.46-3.1 3.38-14.86 12.06-23.22 17.52l12.65 20.16c9.77-7.1 26.27-20.19 28.2-19.65 2.88.81 9.22-1.3 14.69-3.95-.4-.19-.82-.33-1.2-.44-1.42-.44-2.9-.67-4.37-.83z"/><path d="m355.9 359.47c-1.3.28-2.7 1.02-3.46 2.17-.39.59-.51 1.32-.21 1.97.29.64.91 1.01 1.6.9.26-.04.4-.38.34-.61-.08-.28-.34-.39-.6-.35.06-.01-.01-.01-.05-.01-.01 0-.05-.01-.07-.02-.01-.01-.08-.04-.09-.04-.08-.05 0 .01-.07-.05-.14-.13-.2-.25-.25-.44-.03-.13 0-.36.08-.55s.22-.39.36-.55c.7-.77 1.69-1.25 2.68-1.47.26-.05.41-.37.34-.61-.07-.27-.34-.4-.6-.34z"/><path d="m360.17 346.5c-.39-.42-.96-.59-1.51-.52-.62.07-1.13.39-1.59.8-.82.71-1.84 1.66-1.62 2.88.1.56.51 1.11 1.09 1.21.26.04.52-.07.6-.35.06-.24-.08-.57-.34-.61-.02 0-.19-.06-.11-.02-.03-.02-.07-.04-.1-.06-.01-.01-.06-.06-.06-.06-.04-.04-.04-.05-.01-.01-.01-.02-.03-.04-.04-.06-.07-.15-.11-.28-.1-.48 0-.02.01-.07.01-.08.01-.06.03-.12.06-.18.04-.1.11-.22.18-.32.14-.21.32-.39.5-.57.37-.37.77-.8 1.26-1 .21-.09.37-.11.59-.09.17.01.35.09.49.24.44.45 1.13-.25.7-.72z"/><path d="m345.46 357.25c3.31-3.25 6.62-6.51 10.09-9.58-4.93 3.63-15.26 12.24-24.02 19.3-.07-.13-1.86 2.15-.29 2.19.71.02 1.42-.37 2.02-.72.84-.49 1.61-1.08 2.35-1.71 1.39-1.17 2.67-2.46 3.96-3.75 1.94-1.94 3.94-3.81 5.89-5.73z"/><path d="m339.26 371.75c.27-.3.54-.61.83-.92-.08.07-.16.14-.24.22-.86.81-1.83 1.67-2.42 2.71-.2.35-.27.47-.02.76.23.28.57.3.9.24 1.06-.19 2.06-1 2.87-1.67 2.11-1.75 3.9-3.93 5.76-5.93 1.96-2.11 3.93-4.22 5.98-6.25-2.91 2.11-8.05 6.27-13.66 10.84z"/><path d="m352.21 342.4c-.21.39-.25.86.05 1.21.11.14.26.24.41.32.06.03.12.06.18.09.03.02.03.02.05.03.03.18.14.35.34.4.23.07.56-.08.6-.35.06-.35-.05-.63-.33-.84-.1-.07-.21-.12-.31-.18-.02-.01-.2-.12-.18-.07-.07-.19.45-.57.56-.66.31-.26.63-.51.96-.74.64-.45 1.32-.9 2.04-1.21.51-.23 1.36-.42 1.76.14.16.22.42.32.67.18.21-.12.33-.46.17-.68-1.26-1.76-3.51-.37-4.85.53-.4.27-.79.57-1.17.87-.37.28-.74.56-.95.96z"/><path d="m353.25 341.22c-4.63 2.79-12.37 7.87-19.85 12.71-.37.31-.75.62-1.12.93-.95.8-1.89 1.63-2.94 2.31-.87.56-1.75 1.12-2.57 1.75-.74.58-1.54 1.24-1.84 2.17-.18.56-.32 1.08.39 1.01 1.85-.19 3.47-1.73 4.82-2.86 4.51-3.77 9.11-7.4 13.79-10.95 3.1-2.36 6.22-4.7 9.32-7.07z"/><path d="m347.5 338.44c.25-.08.41-.35.34-.61-.07-.25-.35-.43-.6-.35-.02.01-.04.01-.06.02-.01 0-.01 0-.02 0 .01 0 .02-.01-.02-.01s-.01-.01-.03-.02-.02-.02-.03-.02c-.01-.01-.01-.01-.02-.02s-.06-.07-.07-.08c-.02-.03-.03-.06-.05-.09-.01-.02-.01-.02-.02-.02 0 0 0-.01-.01-.02-.01-.05-.03-.1-.04-.15 0-.01 0-.05 0-.08 0-.02 0-.02 0-.02 0-.01 0-.01.01-.02.04-.15.02-.13.1-.26.02-.04.05-.09.08-.13.05-.08-.01.01.05-.06.08-.09.16-.18.25-.26.32-.29.7-.57 1.11-.82.2-.12.42-.24.61-.31.27-.09.43-.12.7-.11.26.01.49-.24.49-.5 0-.28-.22-.48-.49-.5-1.06-.05-1.98.63-2.78 1.25-.37.29-.73.62-.93 1.07-.21.48-.22 1 .04 1.46.28.51.84.84 1.39.66z"/><path d="m312.53 345.72c.85-.29 1.61-1.01 2.19-1.69 1.18-1.4 1.87-3.18 1.91-5.03.01-.23-.16-.41-.36-.48-.45-.17-.95.33-.78.79.03.07.06.13.11.18-.12 1.22-.54 2.39-1.24 3.4-.38.55-.86 1.05-1.38 1.45-.29.22-.62.46-.99.49-.22.02-.52-.11-.52-.36-.01-.64-.98-.64-.97 0 .01 1.06 1.14 1.55 2.03 1.25z"/></g></g><g><path d="m130.8 477.06h37.46s10.1 11.1 15.17 11.42c6.68.43 22.96-11.42 22.96-11.42h66.04l2.21-51.56 27.55-17.94-16.28-21.14-11.27 5.76 2.14-53.52c-11.26-32.76-53.56-18.43-94.87-18.43-30.42 0-55.64-7.03-70.09 2.5-13.36 3.12-21.94 12.75-24.4 25.93-2.96 15.85 2.94 36.83 20.03 57.81.52 4.09 12.31 35.53 23.35 70.59z" fill="#e6e7e8"/><g><path d="m231.54 312.75c-14.71-3.46-26.2-15.89-27.7-27.45v-29.1h-34.15v29.11c-1.5 11.56-13 23.99-27.7 27.45-17.04 4.01-27.11 9.38-33.08 14.56 10.84 12.25 24.24 21.98 39.33 28.24 12.29 5.11 25.7 7.92 39.73 7.92s27.44-2.81 39.73-7.92c14.58-6.06 27.6-15.35 38.24-27.04-5.76-5.54-16.03-11.45-34.4-15.77z" fill="#f0d0b4"/><path d="m265.72 328.29c-5.77-5.54-16.03-11.45-34.4-15.77-14.71-3.46-26.2-15.89-27.7-27.45v2.3c1.5 11.56 13 23.99 27.7 27.45 5.11 1.2 9.59 2.53 13.53 3.93-13.97 5.42-28.99 6.44-43.75 7.38-1.11.07-1.11 1.88 0 1.81 15.55-.99 31.45-2.06 46.07-8.19.05-.02.1-.05.15-.08 7.96 3.1 13.46 6.52 17.26 9.86.38-.41.76-.82 1.14-1.24z" fill="#f4e1d3"/><path d="m203.72 285.3v-29.1h-34.15v29.11c-1.5 11.56-13 23.99-27.7 27.45-17.04 4.01-27.11 9.38-33.08 14.56 1.34 1.52 2.73 3 4.15 4.44.25-.47.51-.93.79-1.38.67-1.09 1.43-2.15 2.42-2.94 9.81-5.83 21.76-2.71 32.32-1.14 6.1.9 12.25 1.4 18.41 1.43 3.18.02 6.36-.08 9.53-.3 2.03-.14 5.32-.28 5.35-3.22.03-3.2-4.68-2.85-6.66-2.98-.17-.01-.35-.02-.52-.03.82-.22 1.63-.45 2.44-.7 8.15-2.53 15.42-6.85 20.8-13.86 3.66-4.77 6.22-10.46 7.1-16.48-.59-1.62-.99-3.25-1.2-4.86z" fill="#edba94"/></g><path d="m269.03 328.82c-.39-.31-.63-.75-.73-1.22-.03-.12 4.69 3.08 5.92 11.2 1.87 12.33.55 37.2.63 37.37.76 1.68 3.13-37.37 1.25-42.28-1.99-5.19-6.83-9.85-7.1-10.1-.84-.75-1.78-.8-2.84-.65-.42.06-.93.23-1.35.12-.16-.04-.31-.14-.44-.25-.08-.07-.13-.11-.15-.14.75-.86-.51-2.13-1.34-1.3-1.07 1.08-.34 2.57.77 3.23.61.37 1.25.43 1.94.34.33-.04.83-.19 1.28-.21-.69 1.4-.55 3.11.27 4.43-.43-.18-.96-.51-1.11-.58-.76-.37-1.62-.46-2.37-.02-1.06.62-1.35 1.99-1.6 3.13-.12.5-.2 1.07-.44 1.53-.25.48-.49.45-.98.25-.77-.3-1.47-.68-2.31-.44-.63.18-1.11.66-1.4 1.25-.59 1.19-.38 2.72-1.06 3.85-.4.66-1.13.67-1.81.68-.82.01-1.66-.03-2.45.24-1.57.54-2.09 2.06-2.57 3.54-.16.5-.35 1.21-.81 1.5-.76.47-2.04-.28-2.85-.33-2.14-.15-3.38 1.76-4.14 3.57-.36.86-.78 2.16-1.65 2.61-.34.17-1.39.26-1.45-.32-.05-.5-.38-.97-.92-.95-1.7.06-2.77 1.41-3.47 2.9-.45.96-1.24 3.75-2.7 3.43-.6-.13-1.02-.9-1.42-1.32-.54-.56-1.2-1-1.98-1.01-1.19-.02-1.99.88-2.56 1.87-.49.86-.85 2.14-1.67 2.72-1.01.7-2.26-.89-2.99-1.44-1.04-.78-2.33-1.15-3.52-.5-1.02.55-1.65 1.63-2.23 2.62-.39.66-.96 2.04-1.84 2.12-.54.05-1.04-.47-1.44-.78-.62-.49-1.27-.94-2.07-.99-1.3-.08-2.21.82-2.93 1.84-.55.77-1.08 2.09-2 2.46-1.08.44-2.33-.99-3.13-1.55-1.09-.76-2.43-1.12-3.54-.17-.46.4-.76.94-1 1.5-.18.41-.38 1.32-.79 1.54-.37.2-.61-.19-.81-.48-.41-.58-.73-1.22-1.19-1.77-1.35-1.63-3.21-1.24-4.68-.01-.75.63-1.39 1.53-2.35 1.83-1.06.33-1.08-.76-1.38-1.53-.74-1.85-2.59-2.06-4.19-1.33-.88.4-1.54 1.02-2.26 1.66-.65.59-1.43 1.25-2.29 1.19-.29-1.26-.7-2.56-1.65-3.44-.96-.89-2.43-1.32-3.63-.7-.53.27-.9.73-1.22 1.23-.27.42-.53 1.25-1.1 1.3-.55.05-1.11-.63-1.42-1.02-.45-.58-.71-1.26-1.09-1.88-.68-1.12-1.68-2.32-3.03-2.46-1.28-.14-2.11.75-2.82 1.73-.14.19-.51.87-.81.75-.2-.08-.29-.59-.34-.76-.29-1-.46-2.09-1.22-2.85-1.01-1.01-2.35-.69-3.47-.11-1.11.58-2.17 1.4-3.33.43-.43-.36-.78-.92-.82-1.51-.02-.29.09-.57.06-.86-.05-.37-.29-.63-.56-.85-.79-.67-1.81-.55-2.71-.19-.88.35-1.76 1-2.71 1.12-.88.11-1.25-.69-1.52-1.42-.6-1.65-1.13-4.17-3.35-3.83-.68.11-1.2.51-1.73.95-.3.25-.8.83-1.23.59-.33-.19-.47-.87-.57-1.2-.19-.63-.33-1.28-.57-1.9-.93-2.43-3.96-3.34-5.93-1.79-.96-.6-1.35-2.37-1.82-3.27-.9-1.7-2.4-2.29-4.03-1.15-.37.26-.71.61-1.08.19-.32-.36-.41-.92-.44-1.38-.08-1.24.05-2.52-.7-3.58-1.12-1.57-2.87-1.35-4.4-.61.13-1.59-.09-3.2-1.37-4.22-.83-.67-1.94-.94-2.9-.68.07-.55.26-1.07.6-1.57.35-.52-.02-1.23-.55-1.4-1.32-.42-2.69-.21-3.82.52-.48-.68-.97-1.37-1.45-2.05.38-.12.84-.02.97.39.36 1.16 2.13.67 1.77-.51-.65-2.12-3.73-2.54-4.76-.51-.14.28-.2.69 0 .96.83 1.17 1.66 2.35 2.49 3.52.35.5.98.65 1.44.19.13-.13.27-.25.42-.35-.26.61-.48 1.24-.64 1.89-.15.65-.38 1.48.16 2.01.41.39 1.06.38 1.45-.04.19-.2.31-.48.3-.76 0-.21-.07-.39-.18-.55.01-.06.02-.12.04-.19.01-.03.02-.05.02-.08.03.15.05.3.09.44.23.78 1.26.94 1.68.23.21-.37.6-.44.98-.35-.01.03-.02.05-.03.07-.38 1.61-.55 3.28-.5 4.94.02.5.41.98.92.95.38-.02.73-.26.86-.62.22.49.76.83 1.25.45.55-.43 1.2-.92 1.9-1.18-.06 1.77-.04 3.55.05 5.32.03.5.4.98.92.95.47-.02.95-.42.92-.95-.09-1.64-.1-3.28-.06-4.92.23.46.26 1.11.27 1.65.03 1.77.67 4.39 2.89 4.12.49-.06.91-.3 1.31-.58.04-.03.09-.06.13-.09.05.27.09.55.13.82 0 .01.02.14.02.17.01.07.02.14.03.21.02.2.04.39.06.59.08.77.12 1.55.13 2.32.01.5.41.98.92.95.49-.02.93-.42.92-.95-.02-.79-.06-1.57-.14-2.35.42.96.86 1.92 1.7 2.56.7.53 1.4.7 2.08.11.33-.28.72-.44 1.13-.48.16 1.42.31 2.84.47 4.26.05.49.38.98.92.95.45-.02.97-.42.92-.95-.12-1.12-.24-2.24-.37-3.36.67 1.01.69 2.64 1.31 3.63.43.69 1.09 1.15 1.9 1.17.97.03 1.65-.62 2.36-1.2.07-.05.13-.11.2-.16-.03 1.87.06 3.73.28 5.58.06.49.38.98.92.95.5-.02.91-.42.92-.95 0-.4 0-.79.01-1.19 0-.19-.06-.38-.17-.54-.04-.51-.07-1.03-.09-1.54.58 1.51 1.54 2.86 3.31 2.69.93-.09 1.78-.54 2.62-.94.03-.02.07-.03.1-.05.16 1.6.33 3.21.49 4.81.04.34.15.64.45.82.27.16.66.19.93 0 .36-.26.6-.64.58-1.11-.01-.24-.09-.49-.23-.7-.06-.6-.12-1.21-.19-1.81.66.99 1.73 1.7 2.96 1.77 1.22.06 2.21-.68 3.27-1.2-.14 1.11-.2 2.24-.16 3.36.01.36.01.74.09 1.09.14.55.64.93 1.18.85.59-.08.96-.72.81-1.31-.04-.17-.13-.32-.25-.45-.01-.15-.01-.31-.02-.46-.01-.39-.01-.79.01-1.18.01-.28.03-.56.05-.83.22.82.39 1.74 1 2.37.69.7 1.76.75 2.55.21.66-.45 1.01-1.49 1.66-1.93.14 1.63.28 3.26.42 4.89.04.5.39.98.92.95.46-.02.96-.42.92-.95-.11-1.33-.23-2.66-.34-3.99.27.4.49.82.62 1.08.96 1.89 3.3 4.54 5.4 2.49.54-.52.84-1.63 1.5-1.99-.18 1.68-.17 3.35 0 5.03-.04.16-.05.33-.01.5s.08.34.12.51c.11.49.67.82 1.13.67.52-.18.71-.64.64-1.17-.22-1.55-.24-3.27-.1-4.92.48.61.71 1.49.88 2.21.17.71.29 1.16 1.01 1.4.61.2 1.28.17 1.88-.03 1.25-.42 2.15-1.4 3.14-2.23.17-.14.41-.32.68-.49v.01c.02.19.03.39.05.58.03.4.04.81.04 1.21 0 .81-.04 1.61-.13 2.42-.06.5.46.98.92.95.54-.03.86-.42.92-.95.17-1.52.15-3.04-.01-4.56.1.06.2.16.27.28.27.43.31 1.02.52 1.49.25.55.64 1.01 1.18 1.27 1.1.53 2.38.05 3.31-.63.56-.41 1.27-1.36 2.03-1.87-.07 2.09-.11 4.17-.09 6.26.01 1.23 1.84 1.23 1.83 0-.02-2.02.02-4.05.08-6.07.38.44.66 1.07.92 1.46.51.75 1.17 1.46 2.12 1.49.98.02 1.73-.61 2.18-1.47.28-.54.48-1.61 1-2.05v5.41c0 .5.42.98.92.95.5-.02.92-.42.92-.95v-4.87c.13.11.25.21.35.29.77.59 1.58 1.2 2.56 1.34 1.98.3 3.1-1.46 4.07-2.95.25-.38.58-.95 1.01-1.23v2.69 1.36.68.12c-.13.18-.22.4-.23.62-.02.58.41 1.07.97 1.09.52.02.93-.39 1.06-.88.1-.39.04-.84.04-1.24v-3.94c.39.32.77.67 1.11.83 1.77.82 3.17-.38 4.1-1.86.48-.76 1.14-2.45 2.12-2.84-.25 1.89-.42 3.79-.51 5.7-.01.06-.02.12-.02.19 0 .18-.01.37-.01.55-.01.52.43.95.92.95.51 0 .9-.44.92-.95.07-1.97.22-3.95.47-5.9.45.36.88.8 1.31 1.11.79.57 1.74.91 2.7.63 1.72-.51 2.29-2.45 3.14-3.87-.25 1.8-.32 3.62-.18 5.44.04.5.39.98.92.95.46-.02.96-.42.92-.95-.15-1.84-.08-3.69.2-5.5.14.17.27.34.41.49.38.41.82.77 1.35.97 2.51.92 4-2.01 4.83-3.92.14-.33.32-.73.53-1.1-.05.62-.11 1.25-.16 1.87-.04.52-.09 1.04-.13 1.56-.02.26-.04.52-.07.78-.01.09-.02.19-.02.28-.28.33-.3.84-.09 1.21.32.57 1.11.62 1.54.17.33-.35.34-.82.38-1.27.04-.41.07-.82.11-1.23.1-1.17.2-2.34.3-3.5.64.37 1.45.48 2.22.27 2.02-.53 2.58-2.8 3.42-4.48.2-.41.46-.85.79-1.19-.08 1.8-.15 3.6-.23 5.4-.02.5.44.98.92.95.51-.02.89-.42.92-.95.08-1.96.16-3.92.25-5.88.83.17 1.63.55 2.53.33 1.71-.43 2.14-2.19 2.66-3.7.19-.55.42-1.07.88-1.36-.02.07-.04.13-.05.2-.1 1.12-.2 2.23-.3 3.35-.06.66-.23 1.41.36 1.88.47.38 1.12.2 1.44-.3.2-.31.18-.76-.01-1.08v-.01c.02-.18.03-.35.05-.53.03-.37.06-.73.1-1.1.06-.73.13-1.47.19-2.2.02-.18-.04-.36-.14-.51.54 0 1.09.03 1.61-.05 1.7-.28 2.52-1.64 2.86-3.28.01-.03.01-.06.02-.08-.02.83-.06 1.65-.12 2.48-.04.5.45.98.92.95.53-.02.88-.42.92-.95.12-1.52.15-3.04.11-4.57.01.01.02.01.03.02 1.54.67 2.87.08 3.48-1.51.12-.31.21-.63.29-.96.01.77 0 1.55-.05 2.32-.03.5.44.98.92.95.52-.02.89-.42.92-.95.09-1.57.06-3.14-.08-4.71.23.13.45.3.62.39.44.23.9.41 1.4.42.92.01 1.83-.47 2.04-1.46.06-.53-.12-.87-.46-1.14zm-153.43 7.25c.01-.43.03-.85.07-1.28.01-.09.02-.18.03-.27 0-.03.01-.1.02-.14.02-.11.03-.23.05-.34.06.67-.05 1.38-.17 2.03z" fill="#f1f2f2"/></g><g fill="#f1f2f2"><path d="m252.87 400.22c1.37-.39 1.93-7.71 1.7-9.04-1.5-8.82-8.25-28.07-9.58-27.7-1.21.34 4.82 18.24 4.89 29.02 0 1.35 1.81 8.05 2.99 7.72z"/><path d="m303.91 405.22-13.56-19.6c-.57-.82-2.84-3.2-3.81-2.63-13.78 8.11-83.44 50.49-93.51 54.66-1.48.61-58.86-84.55-83.49-96.51-2.82-1.37 7.68 9.81 10.02 11.96 16.62 15.2 53.45 67.14 66.79 84.55 2.84 3.7 1.21 7.94 1.67 7.69 19.2-10.68 92.46-54.11 98.93-56.8 3.66 5.29 7.74 11.94 11.4 17.23-10.94 7.26-72.28 54.03-101.33 76.46-5.14 3.97 88.53-62.16 100.32-69.89 1.9-1.24 3.8-2.49 5.69-3.73 1.04-.66 1.66-2.25.88-3.39z"/><path d="m103.7 393.25c-7.23-10.52-10.35-20.8-10.85-20.5-1.04.62 3.44 17.24 4.22 18.32 10.09 13.99 20.64 27.63 31.66 40.86 5.56 6.68 18.37 22.21 30.18 35.84 1.88 2.17 3.73 4.29 5.53 6.32 4.67 5.28 1.31.3-5.97-8.84-20.9-26.24-48.48-62.83-54.77-72z"/><path d="m253.77 447.49c-.79.05-1.5.7-1.88 1.68v23.52c.39 1.01 1.09 1.75 1.88 1.7.58-.04 1.11-.39 1.51-.96v-25c-.4-.6-.93-.98-1.51-.94z"/></g></g><g><path d="m187.12 333.01c19.29.36 35.31-13.18 36.52-30.49.02-.3-.21-.56-.5-.57-.27-.01-.49.21-.51.49-1.17 16.75-16.75 29.87-35.49 29.51-18.75-.35-33.85-14.04-34.44-30.83-.01-.28-.22-.5-.49-.51-.29-.01-.53.24-.52.55.61 17.35 16.15 31.49 35.43 31.85z" fill="#c2b560"/><g fill="#fff"><path d="m189.42 331.63c-2.08-.04-2.14 3.33-.06 3.36 2.08.04 2.14-3.33.06-3.36z"/><path d="m217.14 321.35c-.06-.21-.17-.39-.32-.55-.14-.17-.32-.29-.51-.36-.19-.11-.4-.16-.62-.16-.14.02-.29.03-.43.05-.28.07-.52.21-.72.42-.09.11-.17.22-.26.34-.15.26-.23.54-.24.85l-.01.29c-.01.23.03.45.13.65.06.21.17.39.32.55.14.17.32.29.51.36.19.11.4.16.62.16.14-.02.29-.03.43-.05.28-.07.52-.21.72-.42.09-.11.17-.22.26-.34.15-.26.23-.54.24-.85l.01-.29c.01-.23-.03-.44-.13-.65z"/><path d="m159.67 320.68c-2.08-.04-2.14 3.33-.06 3.36 2.08.04 2.14-3.32.06-3.36z"/><path d="m170.89 328.97c-2.08-.04-2.14 3.33-.06 3.36 2.08.04 2.14-3.32.06-3.36z"/><path d="m205.56 328.18c-2.08-.04-2.14 3.33-.06 3.36 2.08.04 2.15-3.32.06-3.36z"/></g></g><g><g><g><g><path d="m231.99 186.94c-2.03-.09-3.8.93-5.04 2 .38.03-3.45-20.47-10.42-27.76-9.81-10.26-46.93-18.79-53.11-29.56-.24 9.89-36.88 31.5-40.9 44.93-3.7 12.34-.88 26.7-.88 26.7-1.35-.49-2.96-.73-4.56-.19-5.53 1.85-7.13 10.46-1.86 17.85 4.96 6.96 5.55 13.83 10.65 13.78 1.48 7.3 4.96 14.03 10.12 19.24l.11.11c5.55 5.57 11.93 9.88 18.33 13.94 6.72 4.25 13.62 8.44 20.96 11.05 8.01 2.86 14.8 2.25 20.61-2.91 5.98-5.31 11.97-10.5 17.35-16.47 5.13-5.68 10.16-11.61 14.08-18.51.02-.04.04-.07.06-.11 3.34-5.93 4.6-12.89 3.7-19.72l-.17-1.31c5.69-.94 4.25-7.96 7.36-16.37 3.17-8.59-.59-16.45-6.39-16.69z" fill="#f0d0b4"/><path d="m231.99 186.94c-2.03-.09-3.8.93-5.04 2 .38.03-3.45-20.47-10.42-27.76-9.81-10.26-46.93-18.79-53.11-29.56-.24 9.89-36.88 31.5-40.9 44.93-3.7 12.34-.88 26.7-.88 26.7-1.35-.49-2.96-.73-4.56-.19-5.53 1.85-7.13 10.46-1.86 17.85 4.96 6.96 5.55 13.83 10.65 13.78 1.16 5.69 3.53 11.04 6.97 15.59 0 0-2.5-6.3-4.49-19.78-.47-3.18-6.79-43.39-.33-53.92 7.49-12.21 24.24-23.32 33.72-34.15 3.04-3.48 2.82 3.87-.84 7.74-6.17 6.53-16.99 11.98-16.24 11.85 1.85-.33 9.74-2.7 17.03-8.26 4.49-3.43 8.8-8.93 9.27-8.55 10.38 8.34 38.59 10.53 40.42 14.95 2.31 5.58-.94 9.82-2.85 11.91 1.39 1.36 2.92 1.06 4.44 3.02 1.94 11.95 9.9 15.81 9.9 15.81l7.18 44.11c1.35-4.39 1.74-9.08 1.13-13.7l-.17-1.31c5.69-.94 4.25-7.96 7.36-16.37 3.18-8.59-.58-16.45-6.38-16.69z" fill="#edba94"/><g><path d="m228.2 237.47c-.04-.27-.38-.32-.5-.08-.23.47-.48.93-.73 1.39-.02.04-.04.07-.06.11-3.91 6.91-8.95 12.83-14.08 18.51-5.38 5.96-11.37 11.16-17.35 16.47-5.81 5.16-12.6 5.77-20.61 2.91-7.34-2.62-14.24-6.8-20.96-11.05-6.4-4.05-12.78-8.37-18.33-13.94-.04-.04-.08-.08-.11-.11 0 0 0 0-.01-.01-.19-.19-.5-.02-.46.25l.2 1.21c.01.06.04.11.07.15.18.19.36.38.54.56l.11.11c5.55 5.57 11.93 9.88 18.33 13.94 6.72 4.25 13.62 8.44 20.96 11.05 8.01 2.86 14.8 2.25 20.61-2.91 5.98-5.31 11.97-10.5 17.35-16.47 5.13-5.68 10.16-11.61 14.08-18.51.02-.04.04-.07.06-.11.38-.68.73-1.37 1.06-2.07.02-.05.03-.11.02-.17z" fill="#f4e1d3"/></g><path d="m234.44 192.72c-2.35-1.56-4.48-.07-5.73 2.08-.35.11-.65.42-.63.9.07 1.7.15 3.4.26 5.1.07 1.07-.2 3.24.57 4.08.27.3.63.28.96.39 1.33.46 1.37 1.44 1.25 2.8-.16 1.8-.45 3.59-.68 5.38-.14 1.1 1.38 1.28 1.61.23.37-1.7.97-3.24 1.61-4.83.49-1.23.9-2.54.64-3.89-.39-1.97-2.31-3.35-4.14-2.35-.05.03-.09.06-.13.09 0-.01 0-.01 0-.02.08-.05.15-.11.22-.19 1.54-1.88 1.3-4.77-.39-6.43.02-.03.04-.05.05-.08.98-1.78 2.87-3.31 4.44-1.1 1.22 1.72.77 4.12.44 6.06-.18 1.08 1.43 1.3 1.61.23.47-2.87.79-6.62-1.96-8.45z" fill="#d8a17c"/></g><path d="m116.61 208.67c1.86-2.16 4.3-1.31 6.05.41.36.01.74.22.84.69.37 1.66.73 3.32 1.07 4.99.21 1.05 1.03 3.07.5 4.09-.19.36-.53.44-.82.64-1.16.81-.95 1.77-.48 3.05.62 1.69 1.36 3.34 2.04 5 .42 1.02-1 1.61-1.49.67-.79-1.54-1.77-2.85-2.8-4.21-.79-1.05-1.52-2.2-1.61-3.57-.14-2.01 1.37-3.87 3.38-3.41.05.01.1.03.15.05 0-.01 0-.01 0-.02-.09-.02-.17-.06-.26-.12-1.97-1.39-2.48-4.24-1.28-6.31-.02-.02-.05-.04-.07-.06-1.4-1.44-3.62-2.39-4.56.17-.73 2 .32 4.18 1.13 5.96.45.99-1.04 1.65-1.49.67-1.21-2.64-2.47-6.17-.3-8.69z" fill="#d8a17c"/></g></g></g><g fill="#fff"><path d="m236.59 211.24c-.12-.27-.3-.49-.53-.66-.12-.07-.24-.14-.36-.2-.27-.11-.55-.14-.84-.09l-.21.04c-.22.03-.42.11-.59.25-.19.1-.34.24-.46.43-.13.18-.21.37-.24.59-.07.22-.08.44-.04.66.04.14.08.29.13.43.12.27.3.49.53.66.12.07.24.14.36.2.27.11.55.14.84.09l.21-.04c.22-.03.42-.11.59-.25.19-.1.34-.24.46-.43.13-.18.21-.37.24-.59.07-.22.08-.44.04-.66-.05-.14-.09-.29-.13-.43z"/><path d="m126.59 225.21c-2.05.35-1.53 3.67.53 3.32 2.05-.35 1.52-3.67-.53-3.32z"/></g><g><g><g><path d="m173.66 261.12 19-2.88c2.56-2.57 3.98-5.92 3.59-9.38l-28.6 4.33c.59 3.43 2.86 6.23 6.01 7.93z" fill="#edba94"/><path d="m199.25 235.83c-.21-1.24-2.74 2.11-6.41 2.34-2.23.14-5.51-3.04-7.11-2.83-1.37.18-2.71.61-3.81 1.24l-1.76.99-1.91-.39c-1.23-.27-2.62-.29-3.99-.05-1.93.33-4.1 3.67-6.66 4.35-3.02.81-6.28-.97-6.16.12.08.75 1.41 1.38 1.59 2.11 1.24 5.06 3.51 9.43 8.05 11.93 1.87 1.03 4.59 1.43 7.36 1.11l8.62-1.35c2.74-.52 5.24-1.71 6.76-3.25 3.53-3.6 4.45-8.12 4.44-13.14.01-.94 1.15-2.23.99-3.18z" fill="#dd7682"/><path d="m164.13 243.6c.9 2.93 2.77 5.4 6.78 6.65 1.66.52 4.11.62 6.65.3l7.9-1.22c2.52-.44 4.85-1.27 6.29-2.26 3.38-2.3 4.41-5.03 4.63-7.99.01-.12.07-.25.15-.39z" fill="#fff"/><path d="m164.13 243.6c.9 2.93 2.77 5.4 6.78 6.65 1.66.52 4.11.62 6.65.3l7.9-1.22c2.52-.44 4.85-1.27 6.29-2.26 3.38-2.3 4.41-5.03 4.63-7.99.01-.12.07-.25.15-.39m-4.59 7.2c-1.1 1.19-5.03 2.26-9.26 2.96-5.12.85-10.67 1.16-12.16.49-2.73-1.23-4.3-4.48-4.3-4.48l14.72-2.18 13.86-2.05c.01.01-.42 2.64-2.86 5.26z" fill="#f4e1d3"/><path d="m182.48 222.89-8.27 1.25c-.13.02-.23.06-.32.12-.64-.34-1.07-.95-1.17-1.75-.13-1.07-1.72-.83-1.59.24.17 1.34 1.01 2.55 2.19 3.09.16.18.39.29.65.27 1.4.36 2.75.86 4.06 1.49.94.45 1.54-1.11.6-1.56-.5-.24-1-.46-1.51-.66l5.59-.85c1.02-.13.79-1.79-.23-1.64z" fill="#e8ab82"/><g><g><path d="m201.07 177.88c-4.03.39-7.91 1.78-11.7 3.35-1.46.61-.61 3.01.86 2.4 7.57-3.13 15.74-4.45 23.87-3.77 1.56.13-4-2.86-13.03-1.98z" fill="#8b5e3c"/></g><path d="m217.34 214.1c.48 3.44-3.42 4.3-9.19 5.18-5.77.87-11.23 1.43-11.71-2.01s3.81-6.94 9.58-7.81c5.77-.88 10.84 1.2 11.32 4.64z" fill="#e8b09e"/></g><g><g><path d="m142.68 186.22c3.97-.82 8.07-.64 12.13-.26 1.57.15 1.41 2.71-.16 2.56-8.11-.76-16.3.4-23.91 3.46-1.47.59 3.05-3.93 11.94-5.76z" fill="#8b5e3c"/><g><path d="m152.48 205.43c-4.16-1.31-8.31-.39-11.03 1.15-.88-.79-1.74-1.62-2.55-2.49-.35-.38-1.05-.35-1.38.04-.36.43-.33 1 .04 1.41.71.76 1.45 1.48 2.21 2.18-.81.66-1.47 1.37-2 2.05-.95-.39-1.85-.88-2.69-1.48-.19-.14-.54-.15-.75-.08-.22.07-.46.26-.57.48-.11.23-.16.52-.08.77.09.26.25.42.46.58.79.56 1.64 1.02 2.52 1.4-.54.98-.74 1.68-.7 1.73.23.32 4.45-4.04 11.78-3.79 3.31.11 7.25 1.16 11.74 4-.64-3.11-3.28-6.77-7-7.95z" fill="#8b5e3c"/><g><path d="m139.44 201.18c4.41-3.57 9.94-3.79 14.88-.44.17.12.37.18.58.17.97-.03 1.34-1.31.56-1.89-5.76-4.22-12.34-3.93-17.42.56-.72.64-.26 1.86.69 1.83h.13c.2-.01.41-.1.58-.23z" fill="#edba94"/></g><path d="m212.47 190.33c-5.66-3.69-12.22-3-17.32 2.03-.7.69-.15 1.9.82 1.78.2-.02.39-.12.55-.26 4.42-4.05 9.92-4.65 14.79-1.77.18.11.4.16.61.13l.13-.01c.94-.1 1.22-1.37.42-1.9z" fill="#edba94"/></g></g><path d="m137.66 224.12c.48 3.44 6.05 2.83 11.82 1.95 5.77-.87 9.56-1.68 9.08-5.12s-5.55-5.52-11.32-4.65c-5.77.88-10.06 4.38-9.58 7.82z" fill="#e8b09e"/></g></g><g><g fill="#e8b09e"><path d="m182.25 252.48-6.31.96c-.5.08-.92.61-.82 1.14.1.54.56.94 1.1.85l6.31-.96c.5-.08.92-.61.82-1.14-.1-.54-.56-.93-1.1-.85z"/><path d="m188.46 251.84c-.21-.15-.46-.23-.72-.19l-1.1.17c-.13.01-.25.06-.36.14-.11.06-.21.14-.28.25-.08.1-.13.22-.15.35-.04.13-.05.26-.03.4.05.26.17.51.38.66s.46.23.72.19l1.1-.17c.13-.01.25-.06.36-.14.11-.06.21-.14.28-.25.08-.1.13-.22.15-.35.04-.13.05-.26.03-.4-.05-.26-.17-.51-.38-.66z"/></g></g></g><path d="m220.03 195.7c-.4-.38-.97-.37-1.38 0-.68.63-1.37 1.27-2.05 1.9-.54-.42-1.15-.82-1.84-1.18.88-1.01 1.77-2.03 2.65-3.04.34-.39.4-1.03 0-1.41-.37-.35-1.01-.42-1.38 0-1.06 1.22-2.12 2.43-3.18 3.65-2.84-.91-6.66-1.05-10.25.63-3.54 1.66-5.68 5.65-5.94 8.84 4.09-3.41 7.87-4.98 11.13-5.54 7.24-1.23 11.98 2.52 12.16 2.18.04-.08-.54-1.37-1.9-2.8.65-.61 1.31-1.21 1.96-1.82.4-.36.39-1.06.02-1.41z" fill="#8b5e3c"/></g></g><g><g fill="#c2b560"><path d="m242.85 181.75c-.05-1.23-1.05-2.17-2.23-2.11-.9.05-1.64.67-1.92 1.51-.81-.92-1.7-1.76-2.63-2.57.27-.5.42-1.08.39-1.69-.08-1.77-1.52-3.13-3.22-3.05-.68.04-1.3.31-1.79.72-2.05-2.05-3.73-4.52-3.65-7.6.03-.99-1.45-.91-1.48.08-.1 3.75 1.82 6.41 4.25 8.73-.19.44-.29.92-.27 1.44.08 1.77 1.52 3.13 3.22 3.05.59-.03 1.13-.24 1.59-.56.89.77 1.74 1.56 2.47 2.39 1.2 1.36 2.16 2.95 2.82 4.66.55 1.42 1.11 3.15.71 4.7-.35 1.36-1.5 2.05-2.8 1.74-.54-.13-1.06-.42-1.39-.89-.35-.51-.49-2.35.51-1.68.8.54 1.48-.83.69-1.36-1.1-.74-2.51-.02-2.89 1.22s.19 2.63 1.14 3.42c1.8 1.49 4.67 1.12 5.81-1.05 1.41-2.7-.04-6.34-1.37-8.75h.03c1.15-.08 2.06-1.13 2.01-2.35z"/><path d="m248.88 124.8c-5.7.99-11.52-.42-17.18.96-2.28.56-4.48 1.58-6.23 3.25-1.95 1.86-3.02 4.41-4.03 6.89-.03.08-.04.16-.05.23-.29.35-.32.9.2 1.1 2.8 1.07 5.77 1.32 8.69.62 2.04-.49 4.22-1.48 5.2-3.45 2.31 1.04 5.02.37 7.08-1.07 2.68-1.88 4.74-4.77 6.88-7.24.41-.46.1-1.4-.56-1.29z"/><path d="m258.41 140.15c-2.5-1.07-4.41-3.24-7-4.13-1.05-.36-2.19-.49-3.32-.21-1.26.31-2.37 1.16-3.44 1.99-.03.03-.06.06-.08.09-.21.08-.37.31-.22.54.81 1.22 1.91 2.12 3.24 2.58.93.32 2.05.46 2.97-.15.63 1.08 1.87 1.5 3.07 1.4 1.56-.12 3.15-.86 4.65-1.39.29-.1.42-.6.13-.72z"/></g><g><g><path d="m247.11 164.01c-.47 6.6-5.29 10.01-10.06 9.76-5.22-.27-8.62-3.73-8.91-3.78-1.37-.23 1.36 7.66-3.66 7.95-8.76.52-14.38-10.72-13.05-20.12.78-5.49 8.28-6.23 8.18-9.36-.37-11.64 2.68-14.53 11.65-14.99 6.71-.35 12.85 2.46 17.11 7.17 3.9 5.07 4.99 9.12 4.72 12.39-.43 5.46-4.65 8.75-5.98 10.98z" fill="#e6e7e8"/><g fill="#bcbec0"><path d="m241.58 149.27c1.24.3 2.68.46 3.92-.1 2.8-1.27-.17-3.64-.09-2.74.1 1.01-.87 1.75-1.78 1.74-.89-.02-1.82-.25-2.67-.53-1.59-.53-3.16-1.5-3.7-3.24-.27-.87-1.52-.43-1.29.44.59 2.32-.71 4.61-2.6 5.79-1.7 1.06-4.92 1.94-6.64.52-.4-.33-.88-.1-1.07.26-.02-.02-.05-.04-.05-.04-4.39 4.68-5.97 11.61-3.96 17.81.45 1.41 3.59 4 5.67 1.62 1.16-1.32-1.49-4.99-1.88-9.6-.27-3.24 1.37-7.56 1.63-8.3 2.22.84 5.14.08 7.04-1.1 1.67-1.05 5.93-2.91 7.47-2.53z"/><path d="m248.33 151.91c-1.03-1.27-2.75-1.72-4.29-1.44-1.67.3-3.2 1.37-4.3 2.7-1.18 1.44-1.93 3.39-1.33 5.26.26.8 1.37.47 1.31-.26.16-.69.58-1.24 1.1-1.69.61-.53 1.34-1.04 2.1-1.29 1.17-.38 2.39.37 2.61 1.59-.56.13-1.14.18-1.65.22-.34.03-.54.26-.6.53-.23.32-.25.81.19 1.04 1.29.65.94 2.62.58 3.76-.54 1.68-1.65 3.2-3.23 3.94-3.11 1.46-6.27-.95-6.97-4.16-.46-2.11.22-7.67-.19-6.86-1.94 3.87-1.93 9.06 1.79 11.75 1.65 1.19 3.73 1.48 5.61.69 2.03-.85 3.48-2.66 4.21-4.77.49-1.41.7-3.35-.13-4.64 1.32-.21 2.61-.68 3.43-1.86.98-1.39.78-3.26-.24-4.51z"/></g></g><g fill="#fff"><path d="m219.64 172.09c-2.01-1.08-3.53-3.17-4.15-5.42-.57-2.09-.4-4.3 0-6.41.42-2.24 1.11-4.42 1.54-6.66.14-.74.26-1.51.3-2.28-2.25 1.47-5.4 3.05-5.89 6.51-1.33 9.4 4.3 20.64 13.05 20.12 3.23-.19 3.24-3.53 3.21-5.82-2.46 1.42-5.58 1.29-8.06-.04z"/><path d="m225.7 151.32c.21-.31.65-.49 1.02-.18 1.72 1.42 4.94.54 6.64-.52 1.9-1.18 3.2-3.47 2.6-5.79-.22-.87 1.02-1.31 1.29-.44.54 1.74 2.11 2.71 3.7 3.24.85.28 1.78.52 2.67.53.91.02 1.87-.73 1.78-1.74-.04-.39.49-.17.88.31.07-.02.14-.05.23-.04 2.39.06 4.56 1.63 6.12 3.42.13.15.27.32.4.48-.35-2.79-1.69-6.06-4.66-9.94-1.71-1.9-3.74-3.48-5.98-4.68-.29 1.05-1.18 1.85-2.04 2.41-2.1 1.39-5 2.23-7.51 1.67-.59 4.44-5.69 6.69-9.66 5.45.04 2.14.78 4.35 2.43 5.7.05.04.07.08.09.12z"/><path d="m251.03 150.59c.12.33.23.66.29 1.01.34 1.87-.02 3.95-.93 5.61-.81 1.49-2.23 2.76-3.98 2.37-.03-.01-.05-.03-.08-.04.44 2.16-.72 4.62-2.09 6.28-5.45 6.61-15.96 2.57-18.83-4.61.39 4.49 2.89 8.07 1.95 9.48.12 0 .24.03.34.09.04-.52.14-.82.43-.78.29.05 3.69 3.51 8.91 3.78 4.76.25 9.58-3.16 10.06-9.76 1.3-2.2 5.4-5.41 5.96-10.7-.41-.78-.93-1.51-1.5-2.16-.16-.2-.34-.39-.53-.57z"/></g></g><g fill="#c2b560"><path d="m220.26 138.44c-1.7.09-3.02 1.59-2.94 3.36s1.52 3.13 3.22 3.05c1.7-.09 3.02-1.59 2.94-3.36-.08-1.78-1.52-3.14-3.22-3.05z"/><path d="m221.29 149.81c-2.56-1.69-4.57-4.19-5.76-7.09.45-1.53.61-3.11.51-4.69-.03-.39-.32-.43-.56-.27-.04 0-.08-.01-.13 0-.31.08-.61.17-.92.26-.14-2.34.38-4.69 2.09-6.34.7-.68-.4-1.7-1.09-1.03-2.1 2.03-2.68 5.01-2.43 7.89-.69.3-1.35.67-1.96 1.21-1.16 1.02-2.06 2.43-2.71 3.96-1.62 3.78-1.77 8.01-3.19 11.87-.16.45.29.78.6.56 1.66-1.2 3.53-2.29 4.96-3.94 1.1-1.27 1.88-3.08 1.68-4.81 1.06-.4 1.86-1.53 2.43-2.72 1.36 2.64 3.37 4.89 5.81 6.51.78.53 1.46-.84.67-1.37z"/></g></g><g><path d="m320.73 422.07c1.33-6.43-.79-16.65-3.94-23.26-.08-.16-.26-.91-3.32-.86-3.84.07-10.76.94-11.27.64-8.96-5.22-26.2-14.73-29.82-15.37-1.34-.23-2.7-.33-3.95.35-1.34.73-2.13 2.27-2.11 3.8.02 1.6.71 2.78 1.69 3.74s5.35 3.51 6.3 4.07c-.9.15-1.77.46-2.55.97-1.8 1.18-3.09 3.36-2.89 5.6.12 1.32 2.86 4.59 3.55 5.13-.27.09-.54.19-.81.32-1.89.89-3.29 2.79-3.4 4.93-.11 2.23 1.36 3.99 2.56 5.67l.28.39c-.34.06-2.6 1-3.22 1.59-1.02.98-1.66 2.33-1.68 3.89-.02 2.08 11.45 15.52 15.62 17.65 7.04 3.58 13.84 4.32 19.83 2.63 2.19-.62 20.93 14.25 32.02 22.31l14.37-22.89c-11.16-7.28-27.61-19.6-27.26-21.3z" fill="#f0d0b4"/><path d="m331.32 431.6c-2.33 3.07-4.46 6.28-6.87 9.29-1.19 1.48-2.45 2.88-3.81 4.21-.87.85-1.9 1.81-3.2 1.6-1.17-.19-2.36-.96-3.37-1.56-1.1-.66-2.12-1.48-3.12-2.29-2.19-1.76-4.4-3.87-7.02-4.96-.46-.19-.96-.36-1.46-.38-.49-.02-.87.24-1.27.5-1.12.71-2.16 1.55-3.45 1.89-1.83.49-3.75.57-5.63.38-1.01-.1-2.02-.25-2.98-.61-1.93-.71-3.74-1.8-5.42-2.99-1.86-1.32-3.65-2.83-5.09-4.62-1.11-1.38-2.25-3.14-2.13-5.01.11-1.74 1.33-2.88 2.74-3.63-1.82-1.96-2.9-4.57-2.31-7.3.59-2.72 2.65-4.69 5.03-5.83-.57-1.7-.49-3.47.43-5.05.85-1.47 2.16-2.6 3.48-3.62-1.43-.87-2.83-1.78-4.2-2.75-1.13-.8-2.2-1.69-3.37-2.42-3.11-1.92-6.35-3.65-9.14-6.06-1.06-.91-2.16-2.07-2.84-3.34-.01.11-.02.22-.02.33.02 1.6.71 2.78 1.69 3.74s5.35 3.51 6.3 4.07c-.9.15-1.77.46-2.55.97-1.8 1.18-3.09 3.36-2.89 5.6.12 1.32 2.86 4.59 3.55 5.13-.27.09-.54.19-.81.32-1.89.89-3.29 2.79-3.4 4.93-.11 2.23 1.36 3.99 2.56 5.67l.28.39c-.34.06-2.6 1-3.22 1.59-1.02.98-1.66 2.33-1.68 3.89-.02 2.08 11.45 15.52 15.62 17.65 7.04 3.58 13.84 4.32 19.83 2.63 2.19-.62 20.93 14.25 32.02 22.31l14.37-22.89c-5.14-3.37-11.42-7.81-16.65-11.78z" fill="#edba94"/><g><path d="m314.71 460.72 20.04-32.03 13.15 10.89-17.53 30.75z" fill="#e6e7e8"/><path d="m314.71 461.36 20.04-32.02 13.15 10.88-11.9-3.84-15.02 23.7 9.39 10.89z" fill="#f1f2f2"/></g><g fill="#726658"><path d="m389.69 468.76c-1.49-3.77-15.31-14.92-19.26-17.88.27-.28-.06-2.57.01-2.97 2.3-13.23 14-95.45 13.87-94.84-1.29 6.3-3 15.09-4.86 24.81-5.45 28.46-12.17 64.89-13.06 69.97-1.79-1.34-13.41-10.11-17.43-13.15-1.03-.78-2.76-.19-3.33.89-5.86 11.12-11.72 22.24-17.58 33.36-1.49 2.82 2.72 5.34 4.21 2.51 5.43-10.31 12.71-18.38 18.14-28.69 5.83 4.41 28.6 17.36 34.44 24.34 3.99 4.77 3.62 12.8 3.94 12.36 2.23-3.03 2.26-7.28.91-10.71z"/><path d="m352.89 383.62c3.36-2.35 7.2-5.87 10.57-9.61 4.87-5.41 8.72-11.27 8.63-14.73-.41-15.24-8.35-59.28-10.3-67.66-.31-1.33-3.18-3.51-2.87-2.18 3.3 14.17 9.76 61.54 9.97 68.86.12 4.23-4.21 9.84-8.72 14.64-4.89 5.21-9.98 9.45-9.79 9.92.2.48 6.56 15.41 6.7 18.93.45 11.45-4.59 27.54-4.59 27.54-.06-.24 8.35-21.14 5.64-30.96-1.53-5.51-4.57-13.2-5.24-14.75z"/></g></g></g></g></g></g></svg>