<svg id="Слой_1" height="512" viewBox="0 0 122.88 122.88" width="512" xmlns="http://www.w3.org/2000/svg"><path clip-rule="evenodd" d="m38.037 35.06c.09-.347.68-1.222 1.501-2.759.06-.113-.386-1.247-.71-1.507-.901-.109-2.302-.545-2.518-.288 0 .314 1.567 4.277 1.727 4.554" fill="#9994a8" fill-rule="evenodd"/><path clip-rule="evenodd" d="m33.214 25.902c-.075.123.089 3.302.089 3.88 0 3.996 3.538 3.655 3.947 2.953 1.654-2.838-2.125-8.495-3.997-6.947z" fill="#d19181" fill-rule="evenodd"/><path clip-rule="evenodd" d="m25.169 97.358c-1.066.32-2.042 1.039-3.007 2.164-.618.721-.145 2.009.907 3.2 1.342 1.519 1.475-1.166 1.475 3.751 0 1.664 4.073 7.377 4.471 6.333.95-2.494.504-2.645.251-5.192-.14-1.413.045-8.156-.401-8.785-.463-.653-3.558-1.512-3.696-1.471" fill="#8a5939" fill-rule="evenodd"/><path clip-rule="evenodd" d="m46.506 82.959c-.972 2.075-14.928 16.613-17.098 19.021-.122.133-3.173-1.928-4.855-5.572.133-3.192 12.002-14.888 14.115-17.231.494-.548-.897-3.009-1.187-4.184-1.037-4.189-6.014-12.72.915-14.559 1.244-.33 2.141-.104 2.757.771 2.136 3.038 5.353 18.161 5.353 21.754" fill="#2f6e3f" fill-rule="evenodd"/><path clip-rule="evenodd" d="m22.852 11.569c0-1.675 1.465-4.734 2.613-5.941 1.386-1.457 2.09-.874 2.3-1.073.508-.48 1.941-.758 1.903.275-.003.079 1.308-.75 1.694.189.242.587-.984 1.614-.369 1.59.921-.037-1.098 2.975-2.247 4.542 1.209-.374 2.251-.596 2.229-.069-.042 1.013-1.858 2.002-2.767 2.71-.793.617-1.55 1.698-2.226 1.584-1.116-.19-1.869-1.035-2.044-1.815-.148-.118-.297-.263-.447-.438-.361-.429-.639-1.032-.639-1.554" fill="#f4b2a2" fill-rule="evenodd"/><path d="m28.39 4.21c0 .02-.01.04-.02.06-.23.38-.31.51-.44.72-.39.63-.91 1.47-1.37 2.25s-.86 1.51-1.04 1.93c-.06.14-.23.21-.38.15s-.22-.23-.16-.38c.38-.88 1.66-2.97 2.46-4.26l.05-.08c.13 0 .22 0 .28-.05.15-.13.37-.26.62-.34z" fill="#d19181"/><path d="m30.08 4.69c-.33.46-1.08 1.59-1.74 2.61-.55.83-1.04 1.6-1.2 1.9-.08.14-.26.19-.4.11s-.19-.26-.11-.4c.18-.31.67-1.09 1.22-1.93.39-.59.8-1.21 1.14-1.72.24-.35.44-.65.58-.85.07.11.11.24.1.42 0 .03.17-.06.41-.14z" fill="#d19181"/><path d="m30.91 6.6c-.24.3-.5.64-.77.98-.79 1-1.57 2.03-1.76 2.38-.08.14-.26.19-.4.12-.14-.08-.19-.25-.12-.39.22-.4 1.02-1.45 1.82-2.47.68-.85 1.38-1.72 1.7-2.11.1.56-.86 1.42-.47 1.49z" fill="#d19181"/><path d="m29.37 10.29c-.22.3-.42.59-.61.84v.01c-.24.09-.48.19-.72.29-.77.33-1.46.65-1.59.78-.12.11-.3.11-.41-.01s-.11-.3.01-.41c.18-.17.94-.55 1.76-.89.54-.23 1.12-.46 1.56-.61z" fill="#d19181"/><path clip-rule="evenodd" d="m31.38 5.11c.1.56-.86 1.42-.47 1.49.02.01.05.01.08.01.77-.03-.51 2.07-1.62 3.68-.22.3-.42.59-.61.84v.01c-.01 0-.01 0-.01.01 1.21-.37 2.25-.6 2.23-.07-.05 1.01-1.86 2-2.77 2.71-.79.62-1.55 1.7-2.23 1.59-1.11-.19-1.87-1.04-2.04-1.82-.15-.12-.3-.26-.45-.44-.36-.43-.64-1.03-.64-1.55 0-1.68 1.47-4.73 2.62-5.94 1.01-1.07 1.66-1.04 2.02-1.03.13 0 .22 0 .28-.05.15-.13.37-.26.62-.34.45-.14.97-.13 1.18.2.07.11.11.24.1.42 0 .03.17-.06.41-.14.41-.15 1.04-.27 1.28.33.01.03.02.05.02.08z" fill="none"/><path clip-rule="evenodd" d="m36.921 115.08c-1.002.61-1.436 6.327.654 6.458.487.031 1.527.162 1.872.112.507-.074.527-.888.979-.786.927.211 1.947 1.545 4.046 1.678 2.35.148 5.388.902 7.655.026 1.055-.408 1.323-.823-.859-2.216-2.897-1.85-5.53-3.342-8.614-4.797-2.807-1.324-2.748-1.668-5.528-.524-.161.067-.131.004-.205.049" fill="#8a5939" fill-rule="evenodd"/><path clip-rule="evenodd" d="m22.28 10.78c1.788-.097 4.51 2.664 4.742 4.412-.308.635-.664 1.08-.794 1.243-.426.534-4.401-3.504-4.503-4.116-.058-.338.342-1.28.555-1.539" fill="#012847" fill-rule="evenodd"/><path clip-rule="evenodd" d="m26.381 62.641c.375 8.455 3.138 17.098 3.931 25.899.67 7.433.979 11.407 2.966 18.566.393 1.418 1.467 6.503 2.756 8.822 1.53-.213 6.902-.24 7.813-.67-2.018-10.395-4.758-20.008-5.956-30.514-.328-2.881-1.837-15.952-2.203-22.697-.126-2.323-1.26-2.058-2.127-2.455-1.571-.72-7.567-5.686-7.18 3.049" fill="#749743" fill-rule="evenodd"/><path clip-rule="evenodd" d="m83.836 49.868c1.126 2.497 2.453 4.442 5.449 4.812-3.91-5.19 2.334-10.958 1.414-17.335-.537-3.717-2.787-4.442-5.857-3.673-.304.076-1.876.283-2.199.097-.022.01.867 15.375 1.193 16.099" fill="#012847" fill-rule="evenodd"/><path clip-rule="evenodd" d="m83.131 31.966c.515.472-.463.84-.246 1.43.417 1.137 1.074 1.371 2.665 1.371 1.872 0 3.235-1.47 3.393-3.386.223-2.72-2.123-1.644-3.49-.454-.226.197-1.984 1.227-1.986 1.269z" fill="#012847" fill-rule="evenodd"/><path clip-rule="evenodd" d="m83.568 30.785c-.656.3-1.829 2.253.265 2.196 2.659-.072 4.701-1.181 4.62-3.852-.066-2.166-1.327-3.457-3.246-1.893-.52.422-2.358 3.878-1.639 3.549" fill="#012847" fill-rule="evenodd"/><path clip-rule="evenodd" d="m82.179 25.963c.012-.003.149 3.455.338 3.913.672 1.636-.306 2.046 2.578.937 1.829-.704 2.302-4.024 1.388-5.566-.924-1.559-2.992-1.76-4.051-.265-.076.107-.842 1.125-.253.981" fill="#012847" fill-rule="evenodd"/><path clip-rule="evenodd" d="m47.838 17.525c-2.186-1.169-3.427-8.04-1.472-5.284.375.529.754.893 1.128 1.167-.095-.379-.224-1.197-.304-1.384-.233-.543-1.587-3.582-.465-3.635.031-.073-.005-.135.058-.416.148-.652.754-.361.881-.387.598-1.143 1.522.122 1.528.112.899-1.283 2.988 1.343 3.084 3.304.105 2.163.415 2.863.161 5.287-.13 1.237-1.457 1.377-2.518 1.261-.171-.018-.332-.079-.483-.172-.848.103-1.729.076-1.598.147" fill="#f4b2a2" fill-rule="evenodd"/><path d="m48.98 14.81c-.13.1-.31.09-.41-.04l-1.29-1.54c.07.08.14.13.21.18-.06-.25-.13-.68-.2-1.01.04.01.09.04.12.08l1.6 1.92c.11.12.09.31-.03.41z" fill="#d19181"/><path d="m48.82 12.29c.06.15-.01.32-.16.38-.14.06-.31-.01-.37-.16l-.12-.29c-.34-.82-1.21-2.95-1.61-3.79.04-.03.1-.04.16-.04.03-.07 0-.14.06-.42.02-.08.04-.15.07-.2l.01.01c.28.38 1.44 3.23 1.85 4.22z" fill="#d19181"/><path d="m49.71 11.5c.03.16-.06.32-.22.35-.16.04-.31-.06-.35-.22-.07-.31-.46-1.31-.87-2.26-.36-.83-.72-1.61-.87-1.82.12.02.22.05.26.04.08-.15.16-.25.24-.33.21.32.56 1.09.91 1.88.41.97.82 2.01.9 2.36z" fill="#d19181"/><path d="m51.17 11.33c0 .16-.13.29-.29.29s-.29-.13-.29-.29c0-.27-.25-.98-.56-1.75-.28-.69-.61-1.42-.86-1.91.01.02.02.03.02.03.14-.2.3-.3.48-.33.27.52.62 1.27.9 1.99.34.83.6 1.62.6 1.97z" fill="#d19181"/><g clip-rule="evenodd"><path d="m47.84 17.52s-.01 0-.01-.01" fill="none"/><path d="m47.29 12.4c.07.33.14.76.2 1.01-.07-.05-.14-.1-.21-.18h-.01c-.3-.25-.6-.56-.9-.99-1.96-2.75-.72 4.1 1.46 5.27 0-.06.82-.04 1.61-.13.15.09.31.15.48.17 1.06.12 2.39-.03 2.52-1.26.25-2.43-.06-3.13-.16-5.29-.08-1.66-1.6-3.81-2.61-3.63-.18.03-.34.13-.48.33 0 0-.01-.01-.02-.03l-.01-.01c-.13-.15-.75-.86-1.26-.4-.08.08-.16.18-.24.33-.04.01-.14-.02-.26-.04-.01 0-.01 0-.01 0-.18-.02-.41-.01-.54.22-.03.05-.05.12-.07.2-.06.28-.03.35-.06.42-.06 0-.12.01-.16.04-.81.34.41 3.08.63 3.59.03.07.06.21.1.38" fill="none"/><path d="m68.807 68.495c-.69 2.205-1.721 4.666-2.237 6.99-.805 3.628-.968 2.249 1.804 5.021 1.808 1.808 3.161 2.696 5.355 4.647 1.549 1.378 6.374 6.07 6.498 1.258.092-3.562-6.97-8.55-8.204-9.812 0-1.592 7.668-11.261 1.401-11.905-2.835-.29-3.988 1.792-4.617 3.801" fill="#de9e8e" fill-rule="evenodd"/><path d="m76.22 80.26c-.56 1.87-1.12 3.75-1.68 5.62-.32-.29-.6-.54-.81-.73-.86-.77-1.6-1.38-2.29-1.94 1.24-1.66 2.17-3.4 2.54-4.93.68.58 1.47 1.25 2.24 1.98z" fill="#d19181" fill-rule="evenodd"/><path d="m75.14 70.13c-.52 1.26-1.22 2.55-1.83 3.66-1.84-1.23-3.79-2.14-5.47-2.43.3-.88.61-1.75.88-2.59 2.14.45 4.28.9 6.42 1.36z" fill="#d19181" fill-rule="evenodd"/><path d="m76.22 80.26c-.77-.73-1.56-1.4-2.24-1.98-.9-.76-1.63-1.35-1.96-1.68 0-.44.58-1.5 1.29-2.81.61-1.11 1.31-2.4 1.83-3.66 1.08-2.64 1.35-5.12-1.72-5.44-2.83-.29-3.98 1.8-4.61 3.8-.03.09-.06.18-.09.28-.27.84-.58 1.71-.88 2.59-.49 1.37-.97 2.77-1.27 4.12-.8 3.63-.97 2.25 1.8 5.03 1.09 1.09 2.02 1.84 3.07 2.7.69.56 1.43 1.17 2.29 1.94.21.19.49.44.81.73 1.98 1.76 5.58 4.68 5.69.53.05-1.9-1.95-4.22-4.01-6.15" fill="none"/><path d="m81.977 92.77c1.994 2.981 2.452 4.963 2.03 8.396-.302 2.451 3.215-3.726 3.306-4.774.365-4.205-1.818-3.382-1.818-7.902 1.108.19 4.446 3.961 1.317-.247-2.905-3.907-1.551-1.2-3.876-2.606-3.896-2.356-5.786-5.741-8.186.087-.541 1.313 5.673 4.723 7.227 7.046" fill="#012847" fill-rule="evenodd"/><path d="m26.589 41.429c-.407 8.213-1.479 19.751-1.411 20.71 3.089.823 14.826 1.255 16.63.028-.19-6.98-.795-13.21-.281-20.269.803-11.049-3.253-7.213-11.138-10.204-1.17-.443-2.835-.899-3.658-.443-1.906-1.839-4.863-3.546-4.587-4.524.575-2.032.948-2.836 1.772-4.746.642-1.487 2.624-4.218 3.106-6.25-.098-1.5-3.674-4.197-5.267-4.163-.231.708-2.313 5.099-2.727 5.986-1.002 2.15-4.567 8.384-4.08 10.526.89 3.909 3.126 5.23 5.557 8.166.587.709 4.437 4.523 6.084 5.183" fill="#749743" fill-rule="evenodd"/><path d="m27.95 43.88c-.06 3.75-.8 7.4-.57 11.69.06 1.18.49 5.13.26 6.97-1.04-.11-1.89-.25-2.46-.4-.07-.96 1-12.5 1.41-20.71-1.65-.66-5.5-4.47-6.08-5.18-2.44-2.94-4.67-4.26-5.56-8.17-.01-.04-.02-.09-.03-.14.04-.01.1-.02.15-.02.44 0 9.07 12.11 13.89 11.85.03.7-.96 1.53-1.01 4.11z" fill="#2d6f41" fill-rule="evenodd"/><path d="m22.74 27.89c-.23 0-.45-.01-.6 0-5.94.33-4.13-1.7-1.56-1.83.83-.04 1.39-.1 1.78-.09-.07.24-.14.49-.22.76-.09.32.16.71.6 1.16z" fill="#2d6f41" fill-rule="evenodd"/><path d="m22.36 25.97c.47-1.51.84-2.34 1.56-3.99.64-1.48 2.62-4.22 3.1-6.25-.1-1.5-3.67-4.2-5.27-4.16-.23.71-2.31 5.1-2.72 5.98-.98 2.12-4.43 8.14-4.11 10.39.01.05.02.1.03.14.89 3.91 3.12 5.23 5.56 8.17.58.71 4.43 4.52 6.08 5.18-.41 8.21-1.48 19.75-1.41 20.71.57.15 1.42.29 2.46.4 4.6.52 12.69.63 14.17-.37-.19-6.98-.8-13.21-.28-20.27.8-11.05-3.26-7.21-11.14-10.21-1.17-.44-2.84-.89-3.66-.44-1.29-1.25-3.06-2.43-3.99-3.36-.44-.45-.69-.84-.6-1.16.08-.27.15-.52.22-.76" fill="none"/><path d="m74.425 21.437c-2.972 3.892-1.651 5.409 1.788 7.142-.323-1.087-.185-4.403.189-5.831.158-.605-.587-3.131-1.977-1.311" fill="#012847" fill-rule="evenodd"/><path d="m101.48 33.6c-.21.37-1.06 1.77-1.69 2.47-.77 2.98-1.97 8.82-2.62 12.28-.21 1.12-1.62 2.74-2.51 3.27-.8.47-9.02-7.51-9.55-8.47-1.06 1.83-1.14 2.13-2.56 2.82-2.67 1.27-5.86.13-7.69-2.05-.44 2.54-2.22 4.72-3.93 6.58-2.14 2.34-2.05 3.22-3.87 1.49-1.2-1.13-5.92-9.7-6.48-11.31-.24-.23-.45-.49-.68-.69-.59-.5-.91-1.17-1.31-1.75-.78-1.16-1.1-1.58-.32-2.62.33-.45 1.48-3.48 2.24-3.92.25-.15.74.28 1.16.76.68-1.62.93-.06 1.05.32.75 2.25 1.65 2.98.5 5.3-.2.41-.25 1.22-.24 1.47 1.3 2.35 4.1 5.25 5.46 7.54.11-.79 5.11-8.46 5.3-8.67 1.23-1.34 3.57-1.21 5.52-2.04.01-.13.02-.3.03-.49.05-.74.12-1.86-.03-2.38-.36-1.28 1.69-3.4 3.16-3.87.38-.12.75-.73.72 0-.03.77-.06 2-.07 3.14v.01c0 1.19.01 2.27.04 2.62 1.27.46 2.79.78 3.84 1.99 1.2 1.04 6.05 7.5 6.54 8.31.49-3.86 3.32-7.98 3.37-10.73 0-.5-1.54-2.3-.73-3.85.34-.66.32-.82.8-1.5.17-.23.8-1.6.86-1.61.82-.15.65 1.21.56 1.52-.06.21.93-.81 1.36-.5.26.18 1.17 1.33 1.29 1.46.8.85 1.24 1.85.48 3.1z" fill="#f4b2a2" fill-rule="evenodd"/><path d="m101 30.5c-.12-.13-1.03-1.28-1.29-1.46-.43-.31-1.42.71-1.36.5s.16-.92-.05-1.29c-.52 1.01-1.06 2.43-1.14 3.83-.08 1.46 2.08 1.77 1.87 3.91-.39 2.53-2.03 9.09-4.69 12.97-.54.78-6.85-8.52-9.15-9.03-.81.22-3.96 1.28-3.23 2.16.56.67 1.37 1.52 2.33 2.46.22-.35.46-.79.82-1.4.53.96 8.75 8.94 9.55 8.47.89-.53 2.3-2.15 2.51-3.27.65-3.46 1.85-9.3 2.62-12.28.63-.7 1.48-2.1 1.69-2.47.76-1.25.32-2.25-.48-3.1zm-25.06 10.92c-.53-.15-6.43 10.04-6.97 9.66-3.32-2.36-6.63-8.64-7.82-11.58-.09-2.49 1.6-2.73 1.59-4.14-.01-1.2-.33-2.35-.75-3.48-.1.11-.2.3-.32.58-.42-.48-.91-.91-1.16-.76-.76.44-1.91 3.47-2.24 3.92-.78 1.04-.46 1.46.32 2.62.4.58.72 1.25 1.31 1.75.23.2.44.46.68.69.56 1.61 5.28 10.18 6.48 11.31 1.82 1.73 1.73.85 3.87-1.49 1.71-1.86 3.49-4.04 3.93-6.58.25.3.53.58.82.83.29-1.69.36-3.05.26-3.33z" fill="#d19181" fill-rule="evenodd"/><path d="m83.14 29.64c-.03.77-.06 2-.07 3.14v.01c-.32.55-.75 1.11-1.21 1.62-.72.8-1.6 1.43-2.57 1.48.05-.74.12-1.86-.03-2.38-.36-1.28 1.69-3.4 3.16-3.87.38-.12.75-.73.72 0z" fill="#d19181" fill-rule="evenodd"/><path d="m68.69 49.57c0-.86-.52-2.37-1.15-3.83.34.47.64.92.9 1.35.03-.18.31-.73.74-1.47.28 1.2.31 2.42-.49 3.95z" fill="#d19181" fill-rule="evenodd"/><path d="m94.43 47.29c-1.21-.96-1.71-1.96-1.97-3.03.53.71.91 1.25 1.03 1.45.09-.66.24-1.34.44-2.01.04 1.46.18 2.87.5 3.59z" fill="#d19181" fill-rule="evenodd"/><path d="m83.07 32.78v.01c0 1.19.01 2.27.04 2.62 1.27.46 2.79.78 3.84 1.99.91.78 3.89 4.66 5.51 6.86.53.71.91 1.25 1.03 1.45.09-.66.24-1.34.44-2.01.94-3.23 2.89-6.44 2.93-8.72 0-.5-1.54-2.3-.73-3.85.34-.66.32-.82.8-1.5.17-.23.8-1.6.86-1.61.26-.05.42.06.51.23.21.37.11 1.08.05 1.29s.93-.81 1.36-.5c.26.18 1.17 1.33 1.29 1.46.8.85 1.24 1.85.48 3.1-.21.37-1.06 1.77-1.69 2.47-.77 2.98-1.97 8.82-2.62 12.28-.21 1.12-1.62 2.74-2.51 3.27-.8.47-9.02-7.51-9.55-8.47-.36.61-.6 1.05-.82 1.4-.44.68-.8.96-1.74 1.42-2.31 1.1-5 .4-6.87-1.22-.29-.25-.57-.53-.82-.83-.44 2.54-2.22 4.72-3.93 6.58-2.14 2.34-2.05 3.22-3.87 1.49-1.2-1.13-5.92-9.7-6.48-11.31-.24-.23-.45-.49-.68-.69-.59-.5-.91-1.17-1.31-1.75-.78-1.16-1.1-1.58-.32-2.62.33-.45 1.48-3.48 2.24-3.92.25-.15.74.28 1.16.76.12-.28.22-.47.32-.58.44-.53.63.59.73.9.75 2.25 1.65 2.98.5 5.3-.2.41-.25 1.22-.24 1.47 1.05 1.9 3.09 4.16 4.55 6.16 0 .01.01.01.01.02v.01c.34.47.64.92.9 1.35.03-.18.31-.73.74-1.47 1.42-2.46 4.41-7.04 4.56-7.2 1.23-1.34 3.57-1.21 5.52-2.04.01-.13.02-.3.03-.49.05-.74.12-1.86-.03-2.38-.36-1.28 1.69-3.4 3.16-3.87.38-.12.75-.73.72 0-.03.77-.06 2-.07 3.14" fill="none"/><path d="m76.998 21.677c-2.028.239-3.69 3.355-2.887 5.547.628 1.716-.787 2.421 1.108 5.222 2.308 3.412 4.491 2.497 5.995.831.946-1.047 1.772-2.267 1.729-3.289-.026-.609 1.727-.68 1.401-2.717-.205-1.281-1.968-.636-1.997-.729-.622-1.987-.52-3.629-3.036-4.846-1.165-.563-2.179-.034-2.313-.019" fill="#f4b2a2" fill-rule="evenodd"/><path d="m74.783 28.175c-.809.136.108 1.636.393.812.08-.231-.124-.857-.393-.812" fill="#012847" fill-rule="evenodd"/><path d="m78.148 27.245c-1.2.332.359 1.824.253.473-.02-.246-.241-.476-.253-.473" fill="#012847" fill-rule="evenodd"/><path d="m74.111 27.224c.559-1.013.941-.428 1.278-.454-.013.038-.69.166-.932.455-.114.136-.343-.006-.346-.001" fill="#012847" fill-rule="evenodd"/><path d="m77.121 26.363c-.284-.406.851-1.121 1.771-.893.267.066 2.032.775.435.511-1.035-.171-1.352.006-2.214.358 0 .021.004.018.008.024" fill="#012847" fill-rule="evenodd"/><path d="m76.572 28.703c-.328.175-.192.246-.3.72-.174.771-.124.591-.47 1.191.315.546 1.912.902.855.241-.618-.386-.245-.596-.153-1.339.029-.229-.012-.771.068-.813" fill="#d19181" fill-rule="evenodd"/><path d="m76.331 32.576c-.165-.112-.389-.768.392-.619.213-.901 1.783.179 2.354-.619.003-.007-.077.827-1.596.762-.305-.013.016.262-.714.327-.1.008-.293.061-.436.149" fill="#d83634" fill-rule="evenodd"/><path d="m77.692 33.081c.518.015.873-.735.375-.735-.18 0-1.122.117-1.301.229-.125-.069-.402.468.926.506" fill="#d83634" fill-rule="evenodd"/><path d="m82.829 28.398c0 .839.46-.018.183-.587-.177-.364 1.205-.61.163-.532-.128.009-.616.246-.596.316.001.017.25.509.25.803" fill="#694229" fill-rule="evenodd"/><path d="m75.01 22.237c.879 2.217 4.987 3.343 9.125 3.894 1.924.256 1.754-1.864 1.35-3.373-.693-2.59-4.152-4.041-7.437-3.503-1.406.229-3.709 1.288-3.038 2.982" fill="#012847" fill-rule="evenodd"/><path d="m99.293 28.559c-.224.112-1.16.945-1.501 1.607-.319.619-.097 1.101 1.138.314.827-.528 1.818-1.216 1.268-2.001-.106-.151-.688-.028-.905.08" fill="#f4b2a2" fill-rule="evenodd"/><path d="m98.682 30.93c-.45.635-.393 1.455.729.766.728-.447 1.771-.965 1.568-1.956-.171-.83-2.005.779-2.297 1.19" fill="#f4b2a2" fill-rule="evenodd"/><path d="m101.685 31.288c.188-1.172-.396-.91-1.466-.048-.285.23-1.91.976-1.717 1.538.284.828 3.094-.939 3.183-1.49" fill="#f4b2a2" fill-rule="evenodd"/><path d="m100.934 32.067c-.431.375-1.84 1.392-1.697 1.781.125.338.915.132 1.216-.042.18-.104 2.29-1.688 1.715-2.058.001-.001-.295-.497-1.234.319" fill="#f4b2a2" fill-rule="evenodd"/><path d="m77.654 71.512c-1.736 4.362-3.518 10.99-3.518 15.667 0 1.15.461 17.547.58 17.981.537 1.945 2.397 2.696 3.893.286.536-.865-.092-1.644.122-3.71.462-4.47 1.231-11.763.654-16.4.726-5.236 7.23-15.429 5.781-17.733-1.274-2.025-3.716-2.083-5.41-.476-1.096 1.04-1.546 2.985-2.102 4.385" fill="#f4b2a2" fill-rule="evenodd"/><path d="m85.04 70.42c-.35 1.18-.93 2.6-1.58 4.12-2.43-.77-4.87-1.08-6.67-.7.28-.83.57-1.61.86-2.33.07-.17.13-.34.2-.53 2.4-.19 4.8-.38 7.19-.56z" fill="#d19181" fill-rule="evenodd"/><path d="m85.04 70.42c.37-1.27.47-2.27.13-2.82-1.28-2.02-3.72-2.08-5.41-.47-.97.91-1.43 2.53-1.91 3.85-.07.19-.13.36-.2.53-.29.72-.58 1.5-.86 2.33-1.41 4.17-2.65 9.43-2.65 13.34 0 1.15.46 17.55.58 17.98.53 1.94 2.39 2.7 3.89.29.54-.87-.09-1.65.12-3.71.46-4.47 1.23-11.77.65-16.4.4-2.83 2.47-7.11 4.08-10.8.65-1.52 1.23-2.94 1.58-4.12" fill="none"/><path d="m74.136 105.363c.751-1.004 3.314-4.895 4.857-4.781 1.263.093-.429 7.572.884 9.412.63.882-.376 11.494-.974 6.646-.848-6.887-2.555 2.281-4.026 2.462-.027.003-7.28 1.996-6.166.919 1.077-1.043 3.511-4.652 4.41-6.023 1.796-2.739 1.03-8.654 1.015-8.635" fill="#012847" fill-rule="evenodd"/><path d="m34.117 20.107c.295-2.949 3.201-3.823 5.736-3.651 2.718.185 2.933 2.63 2.878 4.792-.064 2.513-.077 2.899-.695 5.39-.441 1.78-1.73 3.453-3.684 3.638-1.989.189-4.378-1.552-4.629-3.6-.178-1.456-1.234-.231-1.83-1.366-.629-1.198-.663-3.323 1.184-3.483.644-.056 1.012-1.438 1.04-1.72" fill="#f4b2a2" fill-rule="evenodd"/><path d="m31.462 23.197c-.913.303-1.946-2.469-1.539-3.992.481-1.797 1.418-1.47 1.231-3.006-.218-1.795 2.385-3.119 4.118-3.342.612-.079 2.201-.642 2.423-1.287.876 1.177.569 2.077-.36 2.487 1.487-.58 4.291 1.041 5.217-.966.201-.042 1.418 2.626-.661 3.346 1.808-.652 2.238 1.559 3.354.42.483 1.295-1.537 4.351-3.422 1.69-1.343-1.896-4.927-1.747-6.096.473-.647 1.228-1.192 2.899-2.718 2.899-.749 0-1.331.674-1.458 1.289z" fill="#8a5939" fill-rule="evenodd"/><path d="m53.462 16.006c-1.543-.91-5.23.289-6.241 1.734-.019.706.092 1.265.132 1.469.132.671 5.52-1.085 5.893-1.58.208-.275.286-1.295.216-1.623" fill="#012847" fill-rule="evenodd"/><path d="m47.596 29.597c-.116-2.211-.842-9.542-.66-10.997.438-.734 5.719-2.414 6.723-2.019.328.3.443 13.382.11 15.128-.262 1.368-1.233 2.632-2.356 3.815-.467.492-.329.548-1.136 1.287-1.951 1.787-3.869 3.491-6.213 4.756-2.635 1.423-3.089 2.21-2.733-2.385.144-1.856-.565-3.858.304-5.005.37-.49 4.055-1.422 5.961-4.58" fill="#749743" fill-rule="evenodd"/><path d="m49.58 30.1c-.85.2-1.92.59-2.63.41.23-.28.45-.58.65-.91-.01-.14-.02-.3-.03-.47 2.09-.39 5.67.08 2.01.97z" fill="#2d6f41" fill-rule="evenodd"/><path d="m53.71 31.94c-.31 1.28-1.24 2.47-2.3 3.58-.47.5-.33.55-1.13 1.29-1.96 1.79-3.87 3.49-6.22 4.76-2.05 1.11-2.78 1.83-2.83-.08 1.46-2.44 9.17-7.08 10.84-9.62.43-.66 1.21-.59 1.64.07z" fill="#2d6f41" fill-rule="evenodd"/><path d="m41.23 41.49c-.02-.54.02-1.29.1-2.31.14-1.85-.57-3.86.3-5 .33-.44 3.33-1.24 5.32-3.67.23-.28.45-.58.65-.91-.01-.14-.02-.3-.03-.47-.18-2.63-.81-9.16-.63-10.53.43-.73 5.71-2.41 6.72-2.02.33.3.44 13.38.11 15.13-.01.08-.03.15-.06.23-.31 1.28-1.24 2.47-2.3 3.58-.47.5-.33.55-1.13 1.29-1.96 1.79-3.87 3.49-6.22 4.76-2.05 1.11-2.78 1.83-2.83-.08" fill="none"/><path d="m34.36 32.057c1.811.269 3.434-.386 4.63.008.494.163 1.348.884 1.673 1.365.627.927.465 2.074.227 4.392-.303 2.941-1.056 7.741-2.729 10.175-.393.572-3.332-3.972-3.541-4.333-1.987-3.433-2.963-5.519-3.55-9.491-.383-2.59 1.113-2.44 3.29-2.116" fill="#9994a8" fill-rule="evenodd"/><path d="m37.108 33.821c-.499.085-1.305 1.062-.156 2.064-.165.617-.675 8.774.094 9.969.136.211 1.567 3.704 1.707 2.501.288-2.483 1.128-2.431.333-5.415-.34-1.275-.951-5.752-1.17-7.08.94-1.295-.11-2.258-.808-2.039" fill="#012847" fill-rule="evenodd"/><path d="m36.464 22.283c.478-.585 2.432-.714 2.783.293.009.024-1.312-.265-1.666-.265-.344.001-1.077-.077-1.117-.028" fill="#613c23" fill-rule="evenodd"/><path d="m38.326 22.197c-.555-.149-.687 1.819.137 1.082.372-.334.247-.978-.137-1.082" fill="#613c23" fill-rule="evenodd"/><path d="m40.262 22.63c.73-.458 1.616-.367 1.986.53.001.003-.385-.372-.988-.448-.369-.047-1.22.058-.998-.082" fill="#613c23" fill-rule="evenodd"/><path d="m40.956 23.03c-.334 1.045.655.945.678-.032.006-.28-.454-.669-.678.032" fill="#613c23" fill-rule="evenodd"/><path d="m40.236 23.771c.034-.355.004.262.161.666.163.418.563.876.251 1.188-.318.318-1.184.508-.646.147.355-.239.173-.842.027-1.149-.255-.538.262-1.548.222-.892z" fill="#d19181" fill-rule="evenodd"/><path d="m40.463 21.852c0-.155.151-.423.3-.433 1.761-.129 1.894 1.108 1.688.929-.605-.528-1.988-.491-1.988-.496" fill="#613c23" fill-rule="evenodd"/><path d="m39.316 21.424c-1.157-1.564-4.165.505-2.431.016.434-.122 2.076-.126 2.272.309.046.004.171-.308.159-.325" fill="#613c23" fill-rule="evenodd"/><path d="m37.901 26.126c-.149.549.494 1.155 1.272 1.284.409.068.698.079 1.124-.385.467-.509-.071-.339-.871-.492-.562-.108-1.083-.219-1.444-.359-.031-.012-.081-.049-.081-.048" fill="#f6f6ec" fill-rule="evenodd"/><path d="m32.569 23.142c.285-.073.166-.007.431.268.482.499.293-.015.397.998.048.466.081.588-.003.681-.162-.063-.305-.727-.264-1.072-.282-.249-.551-.883-.561-.875" fill="#d19181" fill-rule="evenodd"/><path d="m59.746 32.163c-.224.723 2.924 4.345 2.627 2.218-.053-.379-.922-2.441-1.309-2.67-.391-.23-1.12-.188-1.318.452" fill="#f4b2a2" fill-rule="evenodd"/><path d="m59.833 33.03c-.42-.29-.851-.412-1.121.403-.269.814 1.191 1.633 1.862 1.991.272.145 1.818 1.055 1.732.141-.01-.107.021-.193-.146-.376-.698-.761-2.171-2.051-2.327-2.159" fill="#f4b2a2" fill-rule="evenodd"/><path d="m58.97 34.439c-.52-.023-1.444.726-.251 1.367.81.435 1.991 1.465 2.817 1.141.314-.123.213-.548.004-.794-.309-.364-2.164-1.696-2.57-1.714" fill="#f4b2a2" fill-rule="evenodd"/><path d="m58.317 35.819c-.475-.059-.743.069-.628.831.182 1.209 5.91 2.129 1.962-.222-.298-.178-.949-.562-1.334-.609" fill="#f4b2a2" fill-rule="evenodd"/><path d="m31.503 31.709c1.063-.444 1.096-1.35 1.571-1.705.194-.019.603.078.958.345.518.391 2.24 1.197 2.823 1.532 0 1.09-.393 2.531-.52 3.794-.615-.405-5.041-3.878-4.832-3.966" fill="#d3d2d7" fill-rule="evenodd"/><path d="m38.5 35.675c.218-.271.809-1.353 1.629-2.89.06-.114-.977-1.732-1.301-1.992-.853.6-1.492.83-1.708 1.088 0 .315 1.219 3.517 1.38 3.794" fill="#d3d2d7" fill-rule="evenodd"/></g><path d="m44.625 115.666c.24.079.37.338.291.578s-.338.37-.578.291c-.001 0-.518-.213-1.441 1.354-.128.218-.409.291-.626.163-.218-.128-.291-.409-.163-.627 1.306-2.22 2.514-1.76 2.517-1.759" fill="#613c23"/><path d="m30.195 103.764c.092.236-.024.501-.26.592-.235.092-.501-.024-.593-.26 0-.001-.166-.535-1.962-.247-.249.041-.485-.129-.525-.379-.041-.249.129-.485.379-.525 2.545-.408 2.96.815 2.961.819" fill="#613c23"/><path d="m45.728 116.458c.254 0 .459.206.459.46s-.206.46-.459.46c-.001 0-.475-.02-.907 1.232-.082.239-.343.366-.581.284-.239-.082-.366-.343-.284-.582.65-1.886 1.768-1.854 1.772-1.854" fill="#613c23"/><path d="m29.996 105.41c.124.222.045.502-.177.625-.222.124-.502.044-.625-.177 0-.001-.213-.425-1.518-.192-.248.045-.486-.121-.531-.369-.045-.249.121-.486.37-.531 1.962-.35 2.479.642 2.481.644" fill="#613c23"/><path clip-rule="evenodd" d="m75.184 40.571c-1.008.47-1.717 5.109-1.197 6.951.43 1.524 2.098 3.404 2.159 5.488-1.201 1.515-7.251 6.253-10.09 13.725 3.379 5.905 19.204 7.578 24.737 4.193-3.65-3.477-3.353-14.184-7.663-17.867-.091-3.313 3.213-8.873 1.554-10.935-1.311-1.629-2.308-3.15-3.524-2.629-2.226.955-1.941 2.487-2.811 3.544-1.478-2.007-2.623-2.724-3.165-2.47" fill="#d83634" fill-rule="evenodd"/><path clip-rule="evenodd" d="m82.884 63.142 1.158 2.282.483-1.463z" fill="#f18988" fill-rule="evenodd"/><path clip-rule="evenodd" d="m75.718 42.058 1.159 2.282.482-1.462z" fill="#f18988" fill-rule="evenodd"/><path clip-rule="evenodd" d="m84.26 67.813-.523 1.499 1.246.187z" fill="#f18988" fill-rule="evenodd"/><path clip-rule="evenodd" d="m82.279 64.109-.958.111.081 1.5.583-.613z" fill="#f18988" fill-rule="evenodd"/><path clip-rule="evenodd" d="m79.351 61.78-1.501.516.625 1.095 1.415-1.216z" fill="#f18988" fill-rule="evenodd"/><path clip-rule="evenodd" d="m73.015 66.773.569 1.482 1.072-.663-1.265-1.372z" fill="#f18988" fill-rule="evenodd"/><path clip-rule="evenodd" d="m80.244 58.994-.669-.222.41 1.061 1.251-.154z" fill="#f18988" fill-rule="evenodd"/><path clip-rule="evenodd" d="m75.88 63.72.668-.222-.41 1.061-1.251-.153z" fill="#f18988" fill-rule="evenodd"/><path clip-rule="evenodd" d="m81.287 41.834-.669-.223.41 1.062 1.251-.154z" fill="#f18988" fill-rule="evenodd"/><path clip-rule="evenodd" d="m81.649 60.37.18 1.211.35.467.705-1.37z" fill="#f18988" fill-rule="evenodd"/><path clip-rule="evenodd" d="m75.718 65.996.181 1.211.349.467.705-1.37z" fill="#f18988" fill-rule="evenodd"/><path clip-rule="evenodd" d="m79.384 43.199.18 1.211.35.467.704-1.369z" fill="#f18988" fill-rule="evenodd"/><path clip-rule="evenodd" d="m40.571 32.99c-.304-.136-.189.424-.276 1.023-.427 2.947-.43 5.845-1.278 8.681-.413 1.38-1.155 7.834-.478 8.781.892-.813 2.355-5.336 2.498-5.79.831-2.643 2.827-10.516.028-12.277-.173-.11-.432-.39-.494-.418" fill="#2f6e3f" fill-rule="evenodd"/><path clip-rule="evenodd" d="m26.42 31.062c-.416-.115 3.687-1.068 4.763-.182 1.678 1.382 3.438 6.193 4.591 8.302.677 1.238 2.748 6.048 2.789 7.446.042 1.416.224 3.445-.042 4.842-.089-.057-.395-.621-1.318-1.848-2.023-2.689-5.006-6.851-6.471-9.772-.855-1.704-2.046-3.078-2.729-4.985-.072-.2-1.503-3.781-1.583-3.803" fill="#2f6e3f" fill-rule="evenodd"/><path clip-rule="evenodd" d="m79.724 27.547c-.19-.613-.894-.877-1.515-.575-.504.246-1.136.507-1.616.032-.088-.087.11.249.177.315.789.789 1.213-.151 2.296.165.005.002.664.08.658.063" fill="#012847" fill-rule="evenodd"/><path clip-rule="evenodd" d="m75.768 28.102c.216.152-.259-.234-.682-.234-.575 0-1.246.43-1.95.118-.103-.045.301.886 1.876.303.176-.065 1.201.286.775-.224z" fill="#012847" fill-rule="evenodd"/><path clip-rule="evenodd" d="m31.08 51.357c-.047-1.751-2.435 1.091-1.053 1.719.788.358 1.07-1.098 1.053-1.719" fill="#2f6e3f" fill-rule="evenodd"/><path clip-rule="evenodd" d="m35.481 97.317c-.851-1.531-1.654 2.094-.138 2.011.864-.047.44-1.468.138-2.011" fill="#2f6e3f" fill-rule="evenodd"/><path clip-rule="evenodd" d="m30.76 57.327c-.255-.172-.567-.346-.679 1.146-.129 1.713 2.149-.154.679-1.146" fill="#2f6e3f" fill-rule="evenodd"/><path clip-rule="evenodd" d="m33.304 50.824c-.198-.021-.908-.316-.663 1.555.132 1.012 2.033-1.41.663-1.555" fill="#2f6e3f" fill-rule="evenodd"/><path clip-rule="evenodd" d="m32.535 48.251c-1.471-1.119-1.287 2.801-.039 1.458.582-.626.24-1.305.039-1.458" fill="#2f6e3f" fill-rule="evenodd"/><path clip-rule="evenodd" d="m36.405 91.345c-1.471-1.12-1.287 2.801-.039 1.457.582-.624.24-1.304.039-1.457" fill="#2f6e3f" fill-rule="evenodd"/><path clip-rule="evenodd" d="m38.191 107.393c-1.471-1.12-1.287 2.801-.039 1.457.581-.624.24-1.304.039-1.457" fill="#2f6e3f" fill-rule="evenodd"/><path clip-rule="evenodd" d="m23.033 30.859c-1.147.115-.135 1.324.343 1.416 1.819.351.133-1.487-.343-1.416" fill="#2f6e3f" fill-rule="evenodd"/><path clip-rule="evenodd" d="m36.914 55.72c-.952-.651-.956.925-.649 1.304 1.165 1.44 1.059-1.052.649-1.304" fill="#2f6e3f" fill-rule="evenodd"/><path clip-rule="evenodd" d="m21.525 29.474c.304 1.766 2.079.341.645-.721-.247-.117-.921-.882-.645.721" fill="#2f6e3f" fill-rule="evenodd"/><path clip-rule="evenodd" d="m28.694 65.469c-.483-.841-.386 2.608.453 1.485.372-.498-.625-1.784-.453-1.485" fill="#2f6e3f" fill-rule="evenodd"/><path clip-rule="evenodd" d="m38.104 100.273c-.483-.841-.386 2.608.453 1.485.373-.499-.625-1.785-.453-1.485" fill="#2f6e3f" fill-rule="evenodd"/><path clip-rule="evenodd" d="m30.413 73.401c-1.198-.021.869 4.04.549.732-.021-.221.649-.712-.549-.732" fill="#2f6e3f" fill-rule="evenodd"/><path clip-rule="evenodd" d="m31.72 71.728c.902 1.925 1.856-1.096.71-1.476-.048-.015-1.368.072-.71 1.476" fill="#2f6e3f" fill-rule="evenodd"/><path clip-rule="evenodd" d="m31.033 68.766c.826.76 1.112-.342.543-1.157l-.35-.502c-.414-.595-1.714.257-.193 1.659" fill="#2f6e3f" fill-rule="evenodd"/><path clip-rule="evenodd" d="m30.191 44.912c-.292.005-1.881 3.251-.199 2.479 1.083-.498.491-2.485.199-2.479" fill="#2f6e3f" fill-rule="evenodd"/><path clip-rule="evenodd" d="m34.061 88.005c-.292.005-1.881 3.251-.199 2.479 1.083-.497.491-2.484.199-2.479" fill="#2f6e3f" fill-rule="evenodd"/><path clip-rule="evenodd" d="m32.696 78.11c-1.591.117-.488 3.501.322 1.528.205-.497.004-1.552-.322-1.528" fill="#2f6e3f" fill-rule="evenodd"/><path clip-rule="evenodd" d="m33.258 59.312c-.214.056-.538 2.408.444 2.002.453-.187 1.023-2.385-.444-2.002" fill="#2f6e3f" fill-rule="evenodd"/><path clip-rule="evenodd" d="m37.822 26.075c-.229.838 1.366 2.404 2.516.984.653-.806-.38.357-1.18.203-.563-.108-1.01-.499-1.263-1.031-.013-.031-.074-.154-.073-.156" fill="#d19181" fill-rule="evenodd"/><path clip-rule="evenodd" d="m37.839 26.012s-.059.105-.03.124c.65.422 1.398.508 2.152.586 1.475.153.521-.119-.342-.288-.525-.104-1.475-.208-1.78-.422" fill="#d19181" fill-rule="evenodd"/><path d="m38.695 83.903c1.829-.977 2.736-2.96 2.845-5.235-1.934 1.157-2.981 2.385-3.423 3.468-.209.514-.262.962-.199 1.317.042.239.13.413.243.5.108.083.298.077.534-.05m-16.588-10.171c.566-1.687.84-3.123.878-4.332-3.247 2.006-4.485 3.717-4.604 4.941-.045.465.123.831.401 1.063.321.268.788.392 1.278.331.788-.098 1.612-.707 2.047-2.003zm-15.299-4.127c-.349.723-1.218 1.026-1.941.677s-1.026-1.218-.677-1.941c1.896-3.916 6.792-6.721 11.365-7.294 1.685-.211 3.351-.125 4.841.312 1.572.461 2.941 1.314 3.933 2.619.259.342.491.712.691 1.113 5.486-2.229 10.064-1.299 13.416 1.137 1.598 1.161 2.905 2.671 3.888 4.345.705 1.201 1.244 2.488 1.603 3.793.954-.355 1.999-.686 3.142-.987 1.926-.507 3.58-.56 4.987-.263 2.302.486 3.9 1.863 4.934 3.724.958 1.722 1.404 3.854 1.466 6.034.088 3.076-.594 6.314-1.671 8.618-.339.726-1.204 1.04-1.93.7-.726-.339-1.039-1.204-.7-1.929.903-1.931 1.473-4.676 1.399-7.309-.05-1.746-.386-3.415-1.102-4.703-.639-1.15-1.61-1.998-2.988-2.289-.983-.207-2.191-.156-3.655.229-1.269.334-2.391.7-3.381 1.086.263 3.837-1.099 7.439-4.367 9.186-1.349.72-2.683.554-3.675-.212-.681-.526-1.166-1.327-1.337-2.298-.152-.857-.059-1.858.37-2.91.723-1.772 2.48-3.786 5.81-5.497-.288-1.205-.762-2.4-1.41-3.503-.783-1.335-1.822-2.536-3.09-3.457-2.648-1.924-6.353-2.6-10.906-.67.203 1.843-.067 4.076-.96 6.738-.85 2.535-2.663 3.752-4.449 3.973-1.285.158-2.565-.213-3.498-.992-.977-.815-1.571-2.048-1.425-3.567.199-2.057 1.884-4.684 6.244-7.314.227-.137.452-.268.676-.394-.116-.226-.247-.435-.392-.627-.587-.772-1.439-1.289-2.441-1.583-1.085-.318-2.351-.375-3.668-.21-3.713.465-7.64 2.646-9.102 5.665z" fill="#b1ca77"/><path d="m107.724 21.78c1.104-.362 2.08-.851 2.792-1.413.691-.545 1.07-1.102.867-1.527-.152-.319-.313-.45-.463-.436h-.005c-.431.039-.997.418-1.586 1.022-.597.613-1.159 1.426-1.605 2.354m-9.981-5.135c.955-.288 2.023-.732 3.213-1.357 1.364-.717 1.906-1.364 1.928-1.869.019-.429-.418-.85-1.016-1.105-.742-.317-1.681-.341-2.451.13-.916.561-1.633 1.847-1.674 4.201zm-4.128-16.549c.751-.286 1.592.091 1.878.842s-.091 1.592-.842 1.878c-2.313.884-3.852 4.37-4.015 7.744-.062 1.276.081 2.515.462 3.568.345.957.89 1.758 1.659 2.271.555.37 1.243.602 2.079.654-.042-3.816 1.321-6.022 3.068-7.092 1.638-1.003 3.586-.972 5.104-.324 1.66.71 2.858 2.167 2.78 3.906-.066 1.47-1.048 3.041-3.476 4.317-1.505.791-2.883 1.338-4.14 1.674.634 1.491 1.933 2.321 3.463 2.671.86.197 1.792.257 2.732.206.129-.427.279-.845.448-1.25.615-1.475 1.485-2.79 2.431-3.762 1.056-1.085 2.259-1.782 3.413-1.887v-.001c1.39-.125 2.597.486 3.355 2.075.896 1.88.085 3.662-1.698 5.067-1.287 1.015-3.159 1.84-5.184 2.293-.106.023-.212.046-.318.068-.157 1.851.339 3.741 1.951 5.184.764.684 2.277 1.115 3.891 1.27 1.732.165 3.487-.002 4.52-.527.717-.361 1.591-.074 1.952.643s.074 1.591-.643 1.952c-1.516.769-3.874 1.036-6.103.823-2.169-.207-4.304-.88-5.553-1.999-2.251-2.015-3.047-4.55-2.958-7.03-.985.01-1.962-.081-2.885-.292-2.684-.615-4.923-2.175-5.772-5.079-1.627.006-2.978-.419-4.072-1.149-1.316-.879-2.224-2.18-2.774-3.704-.515-1.427-.711-3.05-.632-4.684.21-4.388 2.46-9.019 5.879-10.326z" fill="#b1ca77"/><path clip-rule="evenodd" d="m106.35 55.927c1.768 0 3.201 1.433 3.201 3.201s-1.434 3.201-3.201 3.201c-1.768 0-3.201-1.433-3.201-3.201-.001-1.768 1.432-3.201 3.201-3.201" fill="#fdba47" fill-rule="evenodd"/><path clip-rule="evenodd" d="m58.329 56.423c1.768 0 3.201 1.433 3.201 3.201s-1.433 3.201-3.201 3.201-3.201-1.433-3.201-3.201c-.001-1.768 1.433-3.201 3.201-3.201" fill="#fdba47" fill-rule="evenodd"/><path clip-rule="evenodd" d="m19.021 48.026c1.768 0 3.201 1.433 3.201 3.201s-1.434 3.201-3.201 3.201c-1.768 0-3.202-1.434-3.202-3.201 0-1.768 1.434-3.201 3.202-3.201" fill="#fdba47" fill-rule="evenodd"/><path clip-rule="evenodd" d="m10.374 86.679c1.768 0 3.201 1.433 3.201 3.202 0 1.768-1.434 3.201-3.201 3.201-1.768 0-3.201-1.434-3.201-3.201-.001-1.769 1.432-3.202 3.201-3.202" fill="#fdba47" fill-rule="evenodd"/><path clip-rule="evenodd" d="m107.999 88.316c1.221 0 2.21.989 2.21 2.21s-.99 2.21-2.21 2.21c-1.221 0-2.21-.989-2.21-2.21s.99-2.21 2.21-2.21" fill="#fdba47" fill-rule="evenodd"/><path clip-rule="evenodd" d="m5.823 28.273c1.221 0 2.21.989 2.21 2.21s-.989 2.21-2.21 2.21-2.21-.989-2.21-2.21.989-2.21 2.21-2.21" fill="#fdba47" fill-rule="evenodd"/><path clip-rule="evenodd" d="m64.254 20.76c1.221 0 2.21.989 2.21 2.21s-.99 2.21-2.21 2.21c-1.221 0-2.21-.99-2.21-2.21 0-1.221.99-2.21 2.21-2.21" fill="#fdba47" fill-rule="evenodd"/><path clip-rule="evenodd" d="m101.039 67.169c1.768 0 3.201 1.433 3.201 3.202 0 1.768-1.433 3.201-3.201 3.201s-3.201-1.433-3.201-3.201c0-1.769 1.433-3.202 3.201-3.202" fill="#fdba47" fill-rule="evenodd"/><path clip-rule="evenodd" d="m96.303 82.357c1.193 0 2.161.967 2.161 2.161s-.967 2.161-2.161 2.161-2.161-.967-2.161-2.161.968-2.161 2.161-2.161" fill="#fdba47" fill-rule="evenodd"/><path clip-rule="evenodd" d="m13.575 42.035c1.193 0 2.161.967 2.161 2.161s-.967 2.161-2.161 2.161-2.161-.967-2.161-2.161.968-2.161 2.161-2.161" fill="#fdba47" fill-rule="evenodd"/><path clip-rule="evenodd" d="m109.979 74.018c.957 0 1.733.775 1.733 1.732s-.776 1.733-1.733 1.733-1.733-.776-1.733-1.733.776-1.732 1.733-1.732" fill="#fdba47" fill-rule="evenodd"/><path clip-rule="evenodd" d="m49.251 54.077c.957 0 1.733.776 1.733 1.733s-.776 1.733-1.733 1.733-1.733-.776-1.733-1.733.776-1.733 1.733-1.733" fill="#fdba47" fill-rule="evenodd"/></svg>