<svg id="Capa_1" enable-background="new 0 0 512.022 512.022" height="512" viewBox="0 0 512.022 512.022" width="512" xmlns="http://www.w3.org/2000/svg"><g><g><g><g fill="#beece1"><path d="m410.239 270.886c8.993-16.507 15.486-36.424 13.829-67.151-25.79-16.801-46.27-21.131-65.069-21.599-44.271-1.351-75.049 50.831-51.585 88.949 21.281 39.385 81.864 38.809 102.825-.199z"/><path d="m204.772 449.266c9.799 16.042 23.801 31.624 51.24 45.552 27.445-13.934 41.435-29.506 51.24-45.552 23.306-37.664-6.496-90.41-51.24-89.149-44.75-1.262-74.542 51.491-51.24 89.149z"/><path d="m153.023 182.136c-18.792.466-39.288 4.801-65.069 21.599-1.656 30.735 4.835 50.637 13.829 67.151 20.966 39.015 81.545 39.579 102.825.199 23.469-38.122-7.321-90.3-51.585-88.949z"/></g><path d="m393.283 478.49c31.276-.775 65.389-7.99 108.298-35.949 2.755-51.154-8.047-84.277-23.017-111.763-34.894-64.935-135.72-65.874-171.137-.332-39.059 63.451 12.186 150.294 85.856 148.044z" fill="#ffe6b4"/><path d="m33.459 330.779c-14.967 27.474-25.775 60.623-23.017 111.763 42.923 27.963 77.01 35.17 108.298 35.949 73.682 2.249 124.908-84.6 85.856-148.043-35.42-65.552-136.25-64.594-171.137.331z" fill="#ffe6b4"/><path d="m341.293 93.018c-16.31-26.699-39.614-52.633-85.281-75.814-45.678 23.191-68.963 49.108-85.281 75.814-38.788 62.687 10.812 150.474 85.281 148.375 74.478 2.101 124.063-85.7 85.281-148.375z" fill="#ffe6b4"/><path d="m302.028 384.096c-11.805-14.244-16.98-39.252-5.151-59.74 11.829-20.489 36.075-28.51 54.312-25.409 29.321 4.986 54.339 40.629 49.173 85.156-35.979 26.738-79.356 22.893-98.334-.007z" fill="#7dd9c2"/><path d="m160.834 298.947c18.238-3.101 42.483 4.92 54.312 25.409 11.829 20.488 6.653 45.497-5.151 59.74-18.978 22.899-62.356 26.744-98.333.007-5.167-44.527 19.852-80.17 49.172-85.156z" fill="#7dd9c2"/><path d="m305.172 219.244c-6.433 17.345-25.503 34.331-49.161 34.331s-42.728-16.987-49.161-34.331c-10.342-27.885 8.017-67.374 49.161-85.163 41.145 17.79 59.504 57.278 49.161 85.163z" fill="#7dd9c2"/><circle cx="256.011" cy="300.762" fill="#faf7f5" r="79.346"/><circle cx="256.011" cy="300.762" fill="#ffe6b4" r="32.426"/></g></g><g><path d="m487.369 326.047c-13.864-25.801-38.574-44.197-67.909-51.22 11.579-21.601 16.093-43.74 14.596-71.632-.171-3.187-1.854-6.101-4.528-7.843-23.397-15.241-44.831-22.402-69.307-23.178 8.152-27.149 5.565-55.459-7.673-79.683-2.648-4.847-8.726-6.628-13.57-3.979-4.847 2.648-6.628 8.725-3.979 13.571 12.71 23.257 13.143 51.386 1.188 77.177-4.616 9.968-10.851 18.949-18.283 26.546.569-12.298-2.55-25.387-9.215-37.691-10.103-18.651-27.401-33.998-48.708-43.212-2.533-1.096-5.405-1.096-7.938 0-21.307 9.214-38.605 24.56-48.708 43.212-6.665 12.304-9.785 25.393-9.215 37.691-7.434-7.596-13.67-16.578-18.285-26.55-12.524-27.018-11.252-57.289 3.431-81.021 12.317-20.158 32.136-46.115 76.748-69.769 10.361 5.49 19.884 11.356 28.362 17.477 4.478 3.232 10.729 2.223 13.961-2.255 3.233-4.479 2.223-10.729-2.255-13.962-10.537-7.606-22.496-14.821-35.543-21.442-2.844-1.444-6.207-1.442-9.052 0-40.802 20.713-68.339 45.239-89.257 79.475-15.414 24.915-18.988 55.514-10.396 84.424-24.501.767-45.932 7.924-69.338 23.168-2.675 1.742-4.357 4.656-4.528 7.844-1.496 27.889 3.021 50.037 14.589 71.628-29.329 7.031-54.031 25.421-67.873 51.172-19.224 35.27-26.695 71.38-24.228 117.085.172 3.186 1.853 6.099 4.527 7.84 38.346 24.98 73.354 36.566 113.452 37.566 1.009.031 2.013.047 3.019.047 28.197-.002 55.26-12.104 75.292-33.247 12.927 20.836 29.843 35.814 54.739 48.452 1.422.722 2.974 1.083 4.526 1.083s3.105-.361 4.528-1.084c24.913-12.65 41.834-27.637 54.737-48.449 20.033 21.147 47.087 33.249 75.243 33.247 1 0 2.008-.016 3.011-.046 40.165-1.002 75.173-12.589 113.51-37.569 2.673-1.741 4.354-4.653 4.526-7.839 2.466-45.695-5.005-81.805-24.197-117.034zm-135.399-133.594c2.23-.27 4.493-.393 6.781-.325 13.34.333 31.53 2.659 55.53 17.254.637 28.097-6.443 45.009-12.851 56.768-1.063 1.979-2.292 3.862-3.639 5.654-18.982-.841-37.736 3.003-54.242 11.033-3.94-19.271-14.108-36.299-28.296-48.892 15.222-10.284 27.941-24.616 36.717-41.492zm-184.979 115.889c.838 9.931 3.307 19.402 7.139 28.148l-52.953 30.572c2.013-31.555 21.14-54.823 41.342-58.255 1.434-.245 2.933-.398 4.472-.465zm17.163 45.454c5.787 7.82 12.819 14.665 20.799 20.243-.833 1.315-1.724 2.549-2.662 3.681-13.065 15.766-42.78 20.691-71.112 6.661zm2.512-53.033c0-38.237 31.108-69.346 69.346-69.346s69.346 31.108 69.346 69.346c0 38.237-31.108 69.346-69.346 69.346s-69.346-31.109-69.346-69.346zm141.202 53.033 52.975 30.585c-28.333 14.031-58.046 9.106-71.107-6.655-.94-1.136-1.832-2.373-2.665-3.688 7.98-5.578 15.011-12.422 20.797-20.242zm10.026-17.305c3.831-8.746 6.3-18.218 7.138-28.148 1.541.067 3.044.221 4.484.467 20.191 3.43 39.316 26.698 41.329 58.253zm-42.099-120.726c-.509 1.373-1.128 2.753-1.843 4.121-8.65-4.074-18.053-6.799-27.94-7.906v-61.135c26.314 17.523 36.903 45.72 29.783 64.92zm-49.783-64.921v61.135c-9.887 1.106-19.291 3.832-27.941 7.906-.715-1.368-1.334-2.749-1.844-4.122-7.12-19.198 3.469-47.396 29.785-64.919zm-148.271 58.538c24.011-14.598 42.198-16.918 55.595-17.246 2.25-.072 4.494.049 6.716.317 8.783 16.895 21.514 31.234 36.718 41.492-14.189 12.594-24.357 29.623-28.297 48.896-16.504-8.024-35.26-11.871-54.248-11.043-1.341-1.783-2.574-3.672-3.659-5.688-6.382-11.722-13.461-28.643-12.825-56.728zm21.25 259.112c-23.611-.589-55.995-4.775-98.794-31.586-1.825-50.474 10.746-80.608 22.073-101.394 13.185-24.527 38.767-40.773 68.423-43.454 10.941-.977 21.839-.062 32.136 2.579-10.937 5.654-20.714 14.9-28.038 26.825-11.102 18.076-15.741 40.73-13.063 63.789.318 2.74 1.754 5.228 3.968 6.873 17.951 13.341 38.97 20.613 59.446 20.613.778 0 1.557-.011 2.334-.032 13.989-.38 26.884-4.223 37.248-10.865-2.862 10.237-7.519 20.126-13.842 29.103-17.143 24.366-44.012 38.398-71.891 37.549zm179.727-24.437c-6.954 11.382-18.062 25.969-42.708 39.461-24.642-13.486-35.752-28.078-42.736-39.509-1.188-1.919-2.203-3.925-3.078-5.984 10.22-16.024 16.269-34.192 17.568-52.496 8.882 2.967 18.38 4.579 28.248 4.579s19.366-1.612 28.248-4.58c1.3 18.31 7.348 36.471 17.564 52.493-.879 2.065-1.902 4.085-3.106 6.036zm193.107-7.149c-42.784 26.806-75.18 30.997-98.851 31.588-27.846.855-54.691-13.184-71.837-37.552-6.32-8.976-10.976-18.862-13.838-29.1 10.365 6.641 23.258 10.484 37.246 10.864.778.021 1.554.032 2.334.032 20.475-.001 41.497-7.273 59.446-20.613 2.214-1.645 3.65-4.133 3.968-6.873 2.678-23.059-1.961-45.713-13.063-63.789-7.327-11.931-17.109-21.179-28.048-26.832 10.3-2.643 21.198-3.553 32.14-2.562 29.667 2.673 55.248 18.914 68.456 43.494 11.301 20.741 23.87 50.887 22.047 101.343z"/><circle cx="320.305" cy="64.656" r="10"/><path d="m298.437 300.763c0-23.394-19.032-42.426-42.426-42.426s-42.426 19.032-42.426 42.426c0 23.393 19.032 42.426 42.426 42.426 23.394-.001 42.426-19.033 42.426-42.426zm-64.852 0c0-12.365 10.061-22.426 22.426-22.426 12.366 0 22.426 10.06 22.426 22.426 0 12.365-10.06 22.426-22.426 22.426-12.365-.001-22.426-10.061-22.426-22.426z"/></g></g></svg>