<svg id="Layer_1" enable-background="new 0 0 468.086 468.086" height="512" viewBox="0 0 468.086 468.086" width="512" xmlns="http://www.w3.org/2000/svg"><g><g><g><ellipse cx="215.228" cy="75.897" fill="#91d728" rx="74.414" ry="59.531" transform="matrix(.53 -.848 .848 .53 36.81 218.202)"/><g fill="#6da52e"><g><path d="m208.868 100.178c-.415-23.352 15.395-41.476 23.481-47.826 23.499-18.452 23.526-33.147 21.715-39.909-2.854-1.727-5.835-3.123-8.908-4.21 1.337 7.311-.239 21.199-22.062 38.335-8.087 6.35-23.896 24.474-23.481 47.826.063 6.095 1.508 22.557-21.483 45.967 3.415 1.878 6.995 3.299 10.687 4.3 21.496-22.62 20.113-38.518 20.051-44.483z"/><path d="m178.577 81.25c-.415-23.352 15.395-41.476 23.481-47.826 13.884-10.902 19.572-20.491 21.53-27.908-4.198.324-8.428 1.103-12.627 2.324-3.293 5.847-8.899 12.53-18.159 19.801-8.087 6.35-23.896 24.474-23.481 47.826.056 5.351 1.171 18.693-14.112 37.711 1.387 3.722 3.134 7.238 5.22 10.505 19.508-21.531 18.208-36.65 18.148-42.433z"/><path d="m244.208 122.261c-.415-23.352 15.395-41.476 23.481-47.826 4.77-3.746 8.56-7.333 11.576-10.735.134-5.823-.408-11.494-1.602-16.877-3.091 6.31-8.882 13.703-19.23 21.828-8.087 6.35-23.896 24.474-23.481 47.826.04 3.889.633 12.005-4.91 23.449 4.731-2.243 9.347-5.03 13.746-8.351.609-4.153.441-7.301.42-9.314z"/></g><g><g><ellipse cx="228.402" cy="20.88" rx="3.969" ry="2.977" transform="matrix(.53 -.848 .848 .53 89.66 203.512)"/><ellipse cx="166.277" cy="109.067" rx="3.969" ry="2.977" transform="matrix(.53 -.848 .848 .53 -14.331 192.281)"/><ellipse cx="181.81" cy="101.973" rx="3.969" ry="2.977" transform="matrix(.53 -.848 .848 .53 -1.013 202.119)"/><ellipse cx="217.045" cy="37.183" rx="3.473" ry="2.778" transform="matrix(.53 -.848 .848 .53 70.496 201.544)"/></g><g><ellipse cx="264.478" cy="39.913" rx="3.969" ry="2.977" transform="matrix(.53 -.848 .848 .53 90.478 243.052)"/><ellipse cx="202.131" cy="134.638" rx="3.969" ry="2.977" transform="matrix(.53 -.848 .848 .53 -19.161 234.708)"/><ellipse cx="218.368" cy="123.089" rx="3.969" ry="2.977" transform="matrix(.53 -.848 .848 .53 -1.735 243.048)"/><ellipse cx="252.385" cy="59.266" rx="3.969" ry="2.977" transform="matrix(.53 -.848 .848 .53 68.381 241.894)"/></g></g></g></g><g><g><circle cx="57.258" cy="70.165" fill="#ff8ede" r="29.766"/><path d="m62.636 47.444c-.233.72.095 1.502.773 1.839 5.715 2.841 9.301 8.637 11.792 14.863.897 2.243 3.976 2.479 5.205.4.489-.826.532-1.838.138-2.713-3.116-6.927-8.801-12.443-15.844-15.338-.834-.343-1.786.091-2.064.949z" fill="#fff" opacity=".5"/><path d="m49.633 81.248c-4.688-5.373-6.443-12.713.43-19.858 6.287-6.537 8.203-15.855 5.955-20.959-15.863.651-28.526 13.711-28.526 29.734 0 14.94 11.007 27.306 25.353 29.438 3.175-8.689.161-14.264-3.212-18.355z" fill="#fd4cc8"/></g><g><circle cx="106.868" cy="47.345" fill="#ff8ede" r="29.766"/><path d="m112.246 24.623c-.233.72.095 1.502.773 1.839 5.715 2.841 9.301 8.637 11.792 14.863.897 2.243 3.976 2.479 5.205.4.489-.826.532-1.838.138-2.713-3.116-6.926-8.801-12.442-15.845-15.337-.834-.343-1.786.09-2.063.948z" fill="#fff" opacity=".5"/><path d="m99.243 58.428c-4.688-5.373-6.443-12.713.43-19.858 6.287-6.537 8.203-15.855 5.955-20.959-15.863.651-28.526 13.711-28.526 29.734 0 14.94 11.007 27.306 25.353 29.438 3.174-8.689.16-14.264-3.212-18.355z" fill="#fd4cc8"/></g><g><circle cx="87.358" cy="96.424" fill="#ff8ede" r="29.766"/><path d="m92.736 73.702c-.233.72.095 1.502.773 1.839 5.715 2.841 9.301 8.637 11.792 14.863.897 2.243 3.976 2.479 5.205.4.489-.826.532-1.838.138-2.713-3.116-6.926-8.801-12.442-15.845-15.337-.834-.343-1.786.09-2.063.948z" fill="#fff" opacity=".5"/><path d="m79.733 107.507c-4.688-5.373-6.443-12.713.43-19.858 6.287-6.537 8.203-15.855 5.955-20.959-15.863.65-28.525 13.71-28.525 29.734 0 14.94 11.007 27.306 25.353 29.438 3.174-8.69.16-14.265-3.213-18.355z" fill="#fd4cc8"/></g><g><circle cx="158.461" cy="64.212" fill="#ff8ede" r="29.766"/><path d="m163.839 41.491c-.233.72.095 1.502.773 1.839 5.715 2.841 9.301 8.637 11.792 14.863.897 2.243 3.976 2.479 5.205.4.489-.826.532-1.838.138-2.713-3.116-6.926-8.801-12.442-15.845-15.337-.834-.344-1.786.09-2.063.948z" fill="#fff" opacity=".5"/><path d="m150.836 75.295c-4.688-5.373-6.443-12.713.43-19.858 6.287-6.537 8.203-15.855 5.955-20.959-15.863.651-28.526 13.711-28.526 29.734 0 14.94 11.007 27.306 25.353 29.438 3.175-8.689.161-14.264-3.212-18.355z" fill="#fd4cc8"/></g><g><circle cx="125.719" cy="80.087" fill="#ff8ede" r="29.766"/><path d="m131.097 57.366c-.233.72.095 1.502.773 1.839 5.715 2.841 9.301 8.637 11.792 14.863.897 2.243 3.976 2.479 5.205.4.489-.826.532-1.838.138-2.713-3.116-6.926-8.801-12.442-15.845-15.337-.834-.344-1.786.09-2.063.948z" fill="#fff" opacity=".5"/><path d="m118.094 91.17c-4.688-5.373-6.443-12.713.43-19.858 6.287-6.537 8.203-15.855 5.955-20.959-15.863.651-28.526 13.711-28.526 29.734 0 14.94 11.007 27.306 25.353 29.438 3.175-8.689.161-14.264-3.212-18.355z" fill="#fd4cc8"/></g><g><circle cx="53.148" cy="122.249" fill="#ff8ede" r="29.766"/><path d="m58.526 99.527c-.233.72.095 1.502.773 1.839 5.715 2.841 9.301 8.637 11.792 14.863.897 2.243 3.976 2.479 5.205.4.489-.826.532-1.838.138-2.713-3.116-6.926-8.801-12.442-15.845-15.337-.834-.343-1.786.09-2.063.948z" fill="#fff" opacity=".5"/><path d="m45.523 133.332c-4.688-5.373-6.443-12.713.43-19.858 6.287-6.537 8.203-15.855 5.955-20.959-15.863.651-28.526 13.711-28.526 29.734 0 14.94 11.007 27.306 25.353 29.438 3.175-8.69.161-14.265-3.212-18.355z" fill="#fd4cc8"/></g></g><g><path d="m349.409 79.468c-1.882-9.277-5.947-17.994-11.852-25.393-7.067-8.855-5.59-17.452-5.59-17.452-.585-23.183-16.923-25.592-21.882-25.789-.872-.035-1.725.192-2.467.651-1.409.87-3.189.87-4.598 0-.742-.458-1.595-.685-2.467-.651-4.96.196-21.297 2.606-21.882 25.789 0 0 1.477 8.597-5.59 17.452-5.905 7.399-9.97 16.115-11.852 25.393-4.213 20.768-2.019 50.062 44.09 49.384 46.109.679 48.303-28.616 44.09-49.384z" fill="#db5e43"/><path d="m311.31 90.64c-18.145-16.385-11.09-39.024-9.767-50.747 1.202-10.659-3.46-14.98-4.282-22.611-.258-2.397-.645-4.305-1.091-5.854-6.748 1.536-17.037 6.883-17.499 25.197 0 0 1.477 8.597-5.59 17.452-5.905 7.399-9.97 16.115-11.852 25.393-4.213 20.768-2.019 50.062 44.09 49.384 6.267.092 11.697-.386 16.435-1.304.541-25.776-10.444-36.91-10.444-36.91z" fill="#a44a42"/></g><g><circle cx="270.43" cy="128.864" fill="#ffcf00" r="45.64"/><path d="m283.479 94.943c-1.013 1.274-.774 3.138.54 4.099 5.674 4.148 10.029 10.33 13.278 16.882 1.378 2.779 5.257 3.029 7.041.491.9-1.28 1.005-2.964.258-4.339-4.043-7.439-10.09-13.63-17.423-17.841-1.235-.711-2.807-.407-3.694.708z" fill="#fff" opacity=".5"/><path d="m269.048 105.203c7.405-8.058 7.075-16.252 5.441-21.79-1.338-.118-2.69-.189-4.059-.189-25.206 0-45.64 20.434-45.64 45.64s20.434 45.64 45.64 45.64c.499 0 .993-.022 1.488-.038-1.034-8.465-4.815-14.583-7.137-18.388-19.006-31.144-.787-45.375 4.267-50.875z" fill="#feac01"/></g><g><path d="m246.692 134.604c-1.648-8.126-5.209-15.761-10.381-22.241-6.19-7.756-4.896-15.286-4.896-15.286-.512-20.306-14.822-22.416-19.166-22.588-.763-.03-1.511.169-2.161.57-1.234.762-2.793.762-4.028 0-.65-.401-1.397-.6-2.161-.57-4.344.172-18.654 2.282-19.166 22.588 0 0 1.293 7.53-4.896 15.286-5.172 6.48-8.732 14.115-10.381 22.241-3.69 18.19-1.768 43.849 38.618 43.255 40.387.593 42.308-25.065 38.618-43.255z" fill="#ff8ede"/><path d="m213.323 144.389c-15.893-14.352-9.713-34.18-8.555-44.449 1.053-9.336-3.03-13.121-3.751-19.805-.226-2.1-.565-3.771-.956-5.128-5.911 1.346-14.923 6.029-15.327 22.069 0 0 1.293 7.53-4.896 15.286-5.172 6.48-8.732 14.115-10.381 22.241-3.69 18.19-1.768 43.849 38.618 43.255 5.489.081 10.245-.338 14.395-1.142.474-22.575-9.147-32.327-9.147-32.327z" fill="#fd4cc8"/></g><g><g><g><path d="m139.678 78.313-9.871-1.412s2.502 68.115-59.103 75.256c-3.108.36-5.642 2.671-6.226 5.745-.346 1.82.004 3.726 1.047 5.258 16.597 24.378 55.089 5.04 55.089 5.04 47.115-26.591 19.51-69.713 19.51-69.713z" fill="#ffcf00"/><path d="m120.427 161.686c-1.8-14.572 1.956-25.951 5.15-32.598 5.538-11.526 9.006-23.95 9.812-36.713.375-5.935.416-11.192.382-14.621l-5.963-.853s2.502 68.115-59.103 75.256c-3.108.36-5.642 2.671-6.226 5.745-.346 1.82.004 3.726 1.047 5.258 14.988 22.014 47.826 8.381 54.054 5.529 1.246-4.225.847-7.003.847-7.003z" fill="#feac01"/></g><g><path d="m151.333 78.093-9.894-1.239s3.691 68.06-57.781 76.276c-3.102.415-5.595 2.769-6.125 5.853-.314 1.826.069 3.726 1.138 5.239 17.02 24.085 55.168 4.078 55.168 4.078 46.644-27.41 18.291-70.043 18.291-70.043z" fill="#ffcf00"/><path d="m133.539 161.79c-2.055-14.538 1.503-25.981 4.58-32.683 5.336-11.621 8.586-24.104 9.169-36.879.271-5.941.22-11.197.127-14.626l-5.977-.749s3.691 68.06-57.781 76.276c-3.102.414-5.595 2.769-6.125 5.853-.314 1.826.069 3.726 1.138 5.239 15.37 21.749 47.965 7.545 54.142 4.585 1.175-4.245.727-7.016.727-7.016z" fill="#feac01"/></g><g><path d="m159.453 78.282-9.959.498s15.453 66.386-43.658 85.151c-2.982.947-5.029 3.699-5.015 6.828.008 1.853.715 3.657 2.031 4.961 20.943 20.763 55.038-5.564 55.038-5.564 41.175-35.093 5.85-72.155 5.85-72.155z" fill="#ffcf00"/><path d="m156.464 163.797c-4.548-13.96-3.032-25.848-1.165-32.982 3.237-12.371 4.27-25.229 2.626-37.911-.765-5.898-1.727-11.066-2.415-14.426l-6.016.301s15.453 66.386-43.658 85.151c-2.982.947-5.029 3.699-5.015 6.828.008 1.853.715 3.657 2.031 4.961 18.913 18.75 48.547-.899 54.116-4.886.417-4.385-.504-7.036-.504-7.036z" fill="#feac01"/></g><g><path d="m167.182 77.858-9.592 2.725s29.991 61.208-23.384 92.79c-2.693 1.593-4.068 4.735-3.351 7.781.424 1.803 1.52 3.403 3.095 4.377 25.077 15.52 52.376-17.802 52.376-17.802 32.226-43.456-10.531-71.622-10.531-71.622z" fill="#ffcf00"/><path d="m179.97 111.395c-1.396.814-1.74 2.674-.735 3.94 3.113 3.92 6.908 7.972 8.34 13.363.255.958 1.373 1.388 2.221.876.552-.333.841-.986.698-1.615-1.379-6.088-4.023-11.38-7.001-15.773-.779-1.151-2.321-1.492-3.523-.791z" fill="#fff" opacity=".5"/><path d="m183.506 161.854c-7.572-12.58-8.768-24.503-8.554-31.875.371-12.783-1.514-25.543-5.969-37.53-2.072-5.575-4.172-10.393-5.598-13.513l-5.795 1.646s29.991 61.208-23.384 92.79c-2.693 1.593-4.068 4.735-3.351 7.781.424 1.803 1.52 3.403 3.095 4.377 22.646 14.015 47.1-11.797 51.63-16.934-.579-4.367-2.074-6.742-2.074-6.742z" fill="#feac01"/></g></g><g><path d="m132.166 71.644c-3.073-2.536-7.64.131-6.942 4.053l2.012 11.297c.414 2.325 2.633 3.876 4.959 3.466l39.963-7.047c1.747-.308 2.913-1.974 2.605-3.721l-1.068-6.059c-.308-1.747-1.974-2.913-3.721-2.605l-24.052 4.241c-4.894.865-9.922-.461-13.756-3.625z" fill="#91d728"/><path d="m142.374 82.757c-6.67.353-11.897-5.379-11.25-11.747-2.958-1.299-6.522 1.189-5.899 4.688l2.012 11.297c.414 2.326 2.633 3.877 4.959 3.466l39.963-7.047c1.747-.308 2.913-1.974 2.605-3.721l-.74-4.199c-7.304 5.252-22.997 6.805-31.65 7.263z" fill="#6da52e"/></g></g><g><g><g><g><path d="m377.076 122.521c.765-102.133-38.16-105.682-38.16-105.682 23.965 25.457 21.295 105.684 21.295 105.684z" fill="#91d728"/><path d="m338.915 16.839c2.084 2.214 3.963 4.85 5.663 7.804 11.236 10.161 25.864 35.399 25.553 97.879l6.944-.001c.766-102.133-38.16-105.682-38.16-105.682z" fill="#6da52e"/></g><g><path d="m381.672 116.424c35.651-95.712.286-112.36.286-112.36 13.813 32.118-16.136 106.593-16.136 106.593z" fill="#91d728"/><path d="m381.958 4.063c1.201 2.793 2.065 5.913 2.653 9.27 7.083 13.391 12.197 42.11-9.464 100.716l6.525 2.374c35.651-95.712.286-112.36.286-112.36z" fill="#6da52e"/></g><g><path d="m374.454 122.059c34.213-96.236 72.004-86.257 72.004-86.257-31.226 15.725-56.156 92.027-56.156 92.027z" fill="#91d728"/><path d="m446.459 35.802c-2.716 1.368-5.383 3.202-7.991 5.396-14.034 5.706-36.412 24.418-57.489 83.236l-6.525-2.376c34.213-96.235 72.005-86.256 72.005-86.256z" fill="#6da52e"/></g></g><g><g><path d="m305.186 75.248c28.488 17.348 50.859 64.28 50.859 64.28l15.186-6.04c-23.417-59.742-66.045-58.24-66.045-58.24z" fill="#91d728"/><path d="m305.186 75.248c1.476.899 2.934 1.881 4.375 2.928 14.409 4.1 38.262 16.835 53.732 56.304l-8.144 3.239c.585 1.161.895 1.809.895 1.809l15.186-6.04c-23.415-59.742-66.044-58.24-66.044-58.24z" fill="#6da52e"/></g><g><path d="m321.538 48.702c20.837 26.046 25.807 77.798 25.807 77.798l16.336-.482c-1.572-64.147-42.143-77.316-42.143-77.316z" fill="#91d728"/><path d="m321.538 48.702c1.08 1.349 2.114 2.771 3.11 4.248 12.138 8.781 30.196 28.906 31.235 71.286l-8.76.258c.153 1.291.222 2.006.222 2.006l16.336-.482c-1.572-64.147-42.143-77.316-42.143-77.316z" fill="#6da52e"/></g></g><g><g><path d="m466.617 103.712c-32.704 6.558-69.777 43.009-69.777 43.009l-12.205-10.87c42.438-48.13 81.982-32.139 81.982-32.139z" fill="#91d728"/><path d="m466.617 103.712c-1.694.34-3.401.764-5.113 1.255-14.942-1.075-41.712 2.733-69.749 34.531l6.545 5.829c-.947.89-1.46 1.394-1.46 1.394l-12.204-10.87c42.437-48.13 81.981-32.139 81.981-32.139z" fill="#6da52e"/></g><g><path d="m451.589 71.634c-28.488 17.348-50.859 64.28-50.859 64.28l-15.186-6.04c23.416-59.742 66.045-58.24 66.045-58.24z" fill="#91d728"/><path d="m451.589 71.634c-1.476.899-2.934 1.881-4.375 2.928-14.409 4.1-38.262 16.835-53.732 56.304l8.144 3.239c-.585 1.161-.895 1.809-.895 1.809l-15.186-6.04c23.415-59.742 66.044-58.24 66.044-58.24z" fill="#6da52e"/></g></g></g><g><path d="m432.141 158.5c-5.833 33.082-49.44 123.569-82.522 117.736s-43.111-105.778-37.278-138.86 37.38-55.171 70.462-49.338 55.171 37.38 49.338 70.462z" fill="#ffcf00"/><path d="m388.079 102.385c-2.749 2.213-2.227 6.52.956 8.046 9.07 4.348 17.4 10.031 22.955 17.865 1.042 1.47 3.057 1.847 4.511.784l.171-.125c1.327-.97 1.703-2.794.861-4.206-5.733-9.615-14.075-17.625-24.257-22.897-1.681-.87-3.722-.654-5.197.533z" fill="#fff" opacity=".5"/><path d="m367.598 199.745c-9.208-9.252-16.077-20.626-19.255-33.286-5.299-21.11.465-34.251 6.019-41.442 7.106-9.201 10.181-20.981 7.595-32.316-.402-1.762-.864-3.242-1.321-4.472-23.998 4.67-43.797 23.631-48.296 49.145-5.833 33.082 4.196 133.026 37.278 138.86 11.88 2.095 25.117-8.232 37.474-23.86-.186-28.1-11.345-44.44-19.494-52.629z" fill="#feac01"/></g></g><g><circle cx="249.973" cy="212.136" fill="#ffcf00" r="45.522"/><path d="m272.947 223.476c-15.655-19.262-19.363-16.58-21.713-42.528-.671-7.405-3.49-11.611-7.185-13.937-22.34 2.906-39.598 21.994-39.598 45.126 0 25.141 20.381 45.522 45.522 45.522 13.615 0 25.825-5.985 34.167-15.458-2.633-12.418-11.193-18.725-11.193-18.725z" fill="#feac01"/></g><g><g><path d="m335.863 155.633c-6.117-24.543-39.271-25.546-39.271-25.546l-10.15 1.79s-30.812 12.282-28.165 37.436c.444 4.219 1.884 8.267 4.005 11.94 6.406 11.095 17.696 28.48 31.183 38.055 8.57 6.084 20.46 3.987 26.432-4.661 9.399-13.61 14.062-33.808 16.287-46.425.736-4.176.705-8.473-.321-12.589z" fill="#ff8ede"/><g><path d="m309.564 192.799c-8.297.787-16.5-2.909-20.77-10.067-4.278-7.172-2.763-13.039-2.763-13.039 2.744-23.814-2.746-31.752-5.817-34.688-8.852 5.097-23.817 16.457-21.939 34.308.444 4.218 1.884 8.267 4.005 11.94 6.406 11.095 17.696 28.48 31.183 38.055 8.57 6.084 20.46 3.987 26.432-4.661 2.908-4.21 5.36-9.052 7.429-14.103-5.275-7.182-12.391-8.254-17.76-7.745z" fill="#fd4cc8"/><path d="m327.322 155.506c-2.747-1.653-6.151.832-5.368 3.941.586 2.326.898 4.913.594 7.6-.453 4.008-1.597 8.706-2.898 13.733-.263 1.015.21 2.078 1.138 2.567 1.251.659 2.79.018 3.216-1.33 2.002-6.339 3.702-10.822 4.622-16.042.443-2.51.607-5.063.446-7.594-.077-1.186-.732-2.262-1.75-2.875z" fill="#fff" opacity=".5"/></g></g><g><path d="m329.187 132.014c-8.127.871-14.89-2.369-14.89-2.369-13.372-7.296-21.519-3.302-21.519-3.302-7.726-5.8-1.286-24.219-1.286-24.219l-5.25-1.068c-11.735 10.385-3.401 27.038-3.401 27.038s-9.022-.967-19.092 10.462c0 0-5.247 5.357-13.182 7.319 0 0 13.734 9.351 27.349-4.822 0 0-7.68 11.167-.258 22.093 4.431-21.149 20.484-24.114 31.979-5.639 3.238-12.806-7.798-20.673-7.798-20.673 17.64 8.665 27.348-4.82 27.348-4.82z" fill="#91d728"/><path d="m288.933 138.83c-2.242-.667-3.395-3.136-2.473-5.285.027-.064.055-.126.083-.188.896-1.963.771-4.212-.108-6.183-4.217-9.467-.285-19.907 2.61-25.546l-2.804-.57c-11.735 10.385-3.401 27.038-3.401 27.038s-9.022-.967-19.092 10.462c0 0-5.247 5.357-13.182 7.319 0 0 13.734 9.351 27.349-4.822 0 0-7.68 11.167-.258 22.093 2.795-13.34 10.215-19.437 18.197-17.49-2.199-4.515-4.899-6.227-6.921-6.828z" fill="#6da52e"/></g></g><g><g><g><path d="m184.148 141.629-12.127 5.492s16.703 16.246 13.271 32.492h6.864c4.348-14.187-8.008-37.984-8.008-37.984z" fill="#91d728"/><path d="m189.833 179.612c1.292-10.448-4.071-20.644-7.721-26.2-1.527-2.324-.612-5.455 1.921-6.602l2.104-.953c-1.155-2.619-1.989-4.229-1.989-4.229l-12.127 5.492s16.703 16.246 13.271 32.492z" fill="#6da52e"/></g><g><path d="m190.164 156.487s4.475 4.068 12.881 4.068c7.507 0 14.62-3.442 19.535-9.117 6.849-7.907 21.499-22.117 36.914-20.121-66.813-30.89-69.33 25.17-69.33 25.17z" fill="#91d728"/><path d="m257.934 131.172c.519.031 1.039.077 1.561.144-66.814-30.89-69.331 25.17-69.331 25.17s.606.547 1.779 1.238c6.767-13.474 25.292-38.581 65.991-26.552z" fill="#6da52e"/></g></g><g><path d="m193.503 169.815c-2.816 1.027-5.904 1.027-8.72 0-16.321-6.704-56.846 1.596-50.467 48.594 1.974 13.849 8.23 38.321 28.031 50.722 7.771 4.875 18.273 6.478 26.796 2.966 8.527 3.512 19.022 1.91 26.796-2.966 19.801-12.402 26.057-36.873 28.031-50.722 6.444-47.08-34.4-55.292-50.467-48.594z" fill="#ff8ede"/><path d="m202.208 177.265c-2.035 2.325-.696 6 2.363 6.432 9.126 1.287 19.188 3.859 24.699 10.633.769.945 2.072 1.258 3.155.699 1.355-.699 1.811-2.447.923-3.687-7.007-9.781-17.93-14.36-27.793-15.393-1.262-.134-2.51.36-3.347 1.316z" fill="#fff" opacity=".5"/><path d="m204.924 251.695c-43.677-22.267-37.099-44.79-32.463-53.209 2.773-5.034 5.013-10.358 6.322-15.954 1.503-6.428 1.512-10.975.872-14.179-18.329-3.361-51.124 7.431-45.339 50.056 1.974 13.849 8.23 38.32 28.031 50.722 7.771 4.875 18.273 6.478 26.796 2.966 6.962 2.868 15.236 2.323 22.27-.627.839-16.121-6.489-19.775-6.489-19.775z" fill="#fd4cc8"/><path d="m193.503 169.815h.01z"/></g></g></g><g><path d="m44.271 205.304s.634 157.328 111.615 192.208c0 0 40.86 11.525 91.384 9.642 98.225-3.545 179.408-65.872 179.408-220.822l-47.722-9.618-254.093 86.565z" fill="#db5e43"/><g><g><path d="m168.902 352.05c-37.95-25.626-16.172-71.168-29.829-93.612l-14.208 4.841-80.593-57.974s.634 157.328 111.615 192.208c0 0 17.948 5.06 44.758 7.927-1.713-21.086-13.22-40.905-31.743-53.39z" fill="#a44a42"/></g></g><path d="m104.533 364.706c-.059-.058-.12-.114-.179-.173v4.317c.059.056.12.109.179.164z"/><g fill="#a44a42"><g><path d="m324.369 195.311v194.289c5.446-2.547 10.743-5.384 15.875-8.519v-191.179z"/><path d="m215.228 232.493v174.193c5.092.326 10.397.551 15.875.637v-180.239z"/><path d="m106.088 249.772v118.677c4.893 4.567 10.177 8.823 15.875 12.695v-119.953z"/></g><g><path d="m61.825 298.123h346.106c2.027-5.093 3.905-10.383 5.625-15.875h-356.969c1.544 5.225 3.283 10.537 5.238 15.875z"/><path d="m214.712 250.498h206.585c.933-5.151 1.756-10.437 2.452-15.875h-209.037z"/><path d="m82.303 339.795h302.795c3.452-4.69 6.717-9.653 9.793-14.883h-321.274c2.649 5.052 5.537 10.031 8.686 14.883z"/><path d="m120.982 380.474h220.23c7.476-4.641 14.592-9.924 21.297-15.875h-260.377c5.703 5.765 11.967 11.104 18.85 15.875z"/></g><g><path d="m269.799 213.902v191.347c5.367-.726 10.66-1.657 15.875-2.779v-193.977z"/><path d="m394.814 179.909-15.857-3.196-.018.006v170.925c5.738-6.878 11.045-14.405 15.875-22.602z"/><path d="m160.658 251.084v147.639c3.553.848 8.969 2.045 15.875 3.281v-156.329z"/></g></g><path d="m146.138 273.121c-44.173 3.354-87.433-26.982-106.844-53.682-6.06-8.336-2.549-20.174 6.977-24.107 7.016-2.896 15.081-.478 19.373 5.783 13.857 20.215 52.234 58.103 134.617 30.567 16.132-5.403 34.072-14.938 53.065-25.032 47.316-25.148 105.244-55.935 166.919-36.023 9.143 2.952 13.651 13.231 9.538 21.914-3.41 7.199-11.631 10.739-19.211 8.289-48.952-15.828-96.378 9.379-142.364 33.819-20.186 10.728-39.253 20.862-57.885 27.103-24.308 8.125-45.637 11.369-64.185 11.369z" fill="#db5e43"/></g><g><g><path d="m96.404 168.27c4.2-4.855-3.955-6.693-6.639-7.153-.705-.121-1.346-.58-1.557-1.263-.331-1.071.474-1.916 1.381-2.5.914-.589 1.975-.925 3.053-1.067 23.035-3.04 23.711-11.642 21.606-17.036-.68-1.743-.305-3.736 1.04-5.038 10.205-9.877 14.697-21.464 10.044-27.01-4.651-5.545-16.829-3.136-28.32 5.195-1.476 1.07-3.491 1.104-4.99.067-5.028-3.478-14.277-5.56-21.515 17.346-.336 1.064-.855 2.083-1.615 2.9-.731.785-1.697 1.419-2.688.909-.631-.325-.975-1.028-.971-1.739.015-2.71-.371-11.095-5.888-7.798-2.245 1.342-3.671 3.736-3.94 6.338-.327 3.172-.473 8.412.734 15.209 0 0 .108 2.844-2.307 3.328-3.075.616-5.823 2.396-7.135 5.245-1.947 4.229-3.51 10.731-1.39 19.296l.016.019c6.432 2.853 11.979 3.168 16.245 2.578 4.181-.578 7.525-3.373 9.56-7.072 1.03-1.873 3.51-1.338 3.51-1.338 6.477 2.368 11.658 3.134 14.838 3.363 2.608.188 5.215-.799 6.928-2.779z" fill="#91d728"/><path d="m68.889 132.711c-.643.69-1.467 1.262-2.33 1.044.433 1.799.493 3.811.487 4.903-.004.711.339 1.413.971 1.738.991.51 1.957-.123 2.688-.909.76-.817 1.279-1.836 1.615-2.9 7.238-22.906 16.487-20.824 21.515-17.346 1.499 1.037 3.514 1.003 4.99-.067 11.469-8.314 23.619-10.728 28.291-5.227.23-2.681-.33-5.009-1.786-6.745-4.651-5.545-16.829-3.136-28.32 5.195-1.476 1.07-3.491 1.104-4.99.067-5.028-3.478-14.277-5.56-21.515 17.346-.337 1.064-.855 2.084-1.616 2.901z" fill="#6da52e"/></g><path d="m65.355 107.066-18.015 1.374s13.762 28.473 1.843 47.599l8.755 3.186c12.129-16.075 7.417-52.159 7.417-52.159z" fill="#91d728"/><g><g><ellipse cx="109.621" cy="158.478" fill="#915efd" rx="24.061" ry="20.66" transform="matrix(.174 -.985 .985 .174 -65.485 238.914)"/><path d="m109.645 149.479c1.416-7.313-2.117-11.6-5.198-13.87-7.44 2.66-13.523 9.926-15.173 19.282-2.308 13.087 4.931 25.302 16.168 27.283 4.946.872 9.841-.385 13.969-3.181-13.48-13.853-9.766-29.514-9.766-29.514z" fill="#7e4ce8"/><path d="m121.263 146.128c1.496 1.721 4.569 6.089 4.337 12.74 0 .007-.001.014-.001.021-.032.773-1.093.979-1.446.291-1.233-2.406-3.756-6.897-6.624-9.548-.839-.776-1.201-1.967-.85-3.054.273-.844.942-1.58 2.468-1.501.818.04 1.579.432 2.116 1.051z" fill="#fff" opacity=".5"/></g><g><ellipse cx="109.621" cy="158.478" fill="#915efd" rx="24.061" ry="20.66" transform="matrix(.174 -.985 .985 .174 -65.485 238.914)"/><path d="m108.313 139.857c-1.07-1.863-2.512-3.25-3.866-4.248-7.44 2.66-13.523 9.926-15.173 19.282-2.308 13.087 4.931 25.302 16.168 27.283 4.946.872 9.841-.385 13.969-3.181-20.01-8.468-14.87-21.537-11.545-26.99 2.262-3.706 2.61-8.382.447-12.146z" fill="#7e4ce8"/><path d="m121.263 146.128c1.496 1.721 4.569 6.089 4.337 12.74 0 .007-.001.014-.001.021-.032.773-1.093.979-1.446.291-1.233-2.406-3.756-6.897-6.624-9.548-.839-.776-1.201-1.967-.85-3.054.273-.844.942-1.58 2.468-1.501.818.04 1.579.432 2.116 1.051z" fill="#fff" opacity=".5"/></g><g><ellipse cx="115.797" cy="189.916" fill="#915efd" rx="24.061" ry="20.66" transform="matrix(.174 -.985 .985 .174 -91.342 270.975)"/><path d="m114.49 171.295c-1.07-1.863-2.512-3.25-3.866-4.248-7.44 2.66-13.523 9.926-15.173 19.282-2.308 13.087 4.931 25.302 16.168 27.283 4.946.872 9.841-.385 13.969-3.18-20.01-8.468-14.87-21.537-11.545-26.99 2.261-3.707 2.609-8.383.447-12.147z" fill="#7e4ce8"/><path d="m127.439 177.565c1.496 1.721 4.569 6.09 4.337 12.74 0 .007-.001.014-.001.021-.032.773-1.093.979-1.446.29-1.233-2.406-3.756-6.897-6.624-9.548-.839-.776-1.201-1.967-.85-3.054.273-.844.942-1.58 2.468-1.501.818.042 1.579.434 2.116 1.052z" fill="#fff" opacity=".5"/></g><g><ellipse cx="127.703" cy="216.705" fill="#915efd" rx="24.061" ry="20.66" transform="matrix(.174 -.985 .985 .174 -107.885 304.838)"/><path d="m126.396 198.083c-1.07-1.863-2.512-3.25-3.866-4.248-7.44 2.66-13.523 9.926-15.173 19.282-2.308 13.087 4.931 25.302 16.168 27.283 4.946.872 9.841-.385 13.969-3.181-20.01-8.468-14.87-21.537-11.545-26.99 2.261-3.705 2.609-8.381.447-12.146z" fill="#7e4ce8"/><path d="m139.346 204.354c1.496 1.721 4.569 6.089 4.337 12.74 0 .007-.001.014-.001.021-.032.773-1.093.979-1.446.291-1.233-2.406-3.756-6.897-6.624-9.548-.839-.776-1.201-1.967-.85-3.054.273-.844.942-1.58 2.468-1.501.817.041 1.578.433 2.116 1.051z" fill="#fff" opacity=".5"/></g><g><ellipse cx="34.509" cy="238.891" fill="#915efd" rx="24.061" ry="20.66" transform="matrix(.174 -.985 .985 .174 -206.746 231.393)"/><path d="m33.201 220.27c-1.07-1.863-2.512-3.25-3.866-4.248-7.44 2.66-13.523 9.926-15.173 19.282-2.308 13.087 4.931 25.302 16.168 27.283 4.946.872 9.841-.385 13.969-3.181-20.01-8.468-14.87-21.537-11.545-26.99 2.262-3.706 2.61-8.382.447-12.146z" fill="#7e4ce8"/><path d="m46.151 226.541c1.496 1.721 4.569 6.089 4.337 12.74 0 .007-.001.014-.001.021-.032.773-1.093.979-1.446.291-1.233-2.406-3.756-6.897-6.624-9.548-.839-.776-1.201-1.967-.85-3.054.273-.844.942-1.58 2.468-1.501.818.041 1.579.433 2.116 1.051z" fill="#fff" opacity=".5"/></g><g><ellipse cx="30.54" cy="197.22" fill="#915efd" rx="24.061" ry="20.66" transform="matrix(.174 -.985 .985 .174 -168.987 193.049)"/><path d="m29.233 178.598c-1.07-1.863-2.512-3.25-3.866-4.248-7.44 2.66-13.523 9.926-15.173 19.282-2.308 13.087 4.931 25.302 16.168 27.283 4.946.872 9.841-.385 13.969-3.181-20.01-8.468-14.87-21.537-11.545-26.99 2.261-3.706 2.609-8.382.447-12.146z" fill="#7e4ce8"/><path d="m42.182 184.869c1.496 1.721 4.569 6.09 4.337 12.74 0 .007-.001.014-.001.021-.032.773-1.093.979-1.446.29-1.233-2.406-3.756-6.897-6.624-9.548-.839-.776-1.201-1.967-.85-3.054.273-.844.942-1.58 2.468-1.501.818.042 1.579.434 2.116 1.052z" fill="#fff" opacity=".5"/></g><g><ellipse cx="82.812" cy="166.018" fill="#915efd" rx="24.061" ry="20.66" transform="matrix(.174 -.985 .985 .174 -95.064 218.744)"/><path d="m81.505 147.397c-1.07-1.863-2.512-3.25-3.866-4.248-7.44 2.66-13.523 9.926-15.173 19.282-2.308 13.087 4.931 25.302 16.168 27.283 4.946.872 9.841-.385 13.969-3.181-20.01-8.468-14.87-21.537-11.545-26.99 2.261-3.706 2.609-8.382.447-12.146z" fill="#7e4ce8"/><path d="m94.454 153.668c1.496 1.721 4.569 6.089 4.337 12.74 0 .007-.001.014-.001.021-.032.773-1.093.979-1.446.291-1.233-2.406-3.756-6.897-6.624-9.548-.839-.776-1.201-1.967-.85-3.054.273-.844.942-1.58 2.468-1.501.818.041 1.579.433 2.116 1.051z" fill="#fff" opacity=".5"/></g><g><ellipse cx="50.384" cy="173.407" fill="#915efd" rx="24.061" ry="20.66" transform="matrix(.174 -.985 .985 .174 -129.138 192.914)"/><path d="m49.076 154.786c-1.07-1.863-2.512-3.25-3.866-4.248-7.44 2.66-13.523 9.926-15.173 19.282-2.308 13.087 4.931 25.302 16.168 27.283 4.946.872 9.841-.385 13.969-3.181-20.01-8.468-14.87-21.537-11.545-26.99 2.262-3.706 2.61-8.382.447-12.146z" fill="#7e4ce8"/><path d="m62.026 161.057c1.496 1.721 4.569 6.089 4.337 12.74 0 .007-.001.014-.001.021-.032.773-1.093.979-1.446.29-1.233-2.406-3.756-6.897-6.624-9.548-.839-.776-1.201-1.967-.85-3.054.273-.844.942-1.58 2.468-1.501.818.042 1.579.434 2.116 1.052z" fill="#fff" opacity=".5"/></g><g><ellipse cx="50.384" cy="204.165" fill="#915efd" rx="24.061" ry="20.66" transform="matrix(.174 -.985 .985 .174 -159.429 218.33)"/><path d="m49.076 185.544c-1.07-1.863-2.512-3.25-3.866-4.248-7.44 2.66-13.523 9.926-15.173 19.282-2.308 13.087 4.931 25.302 16.168 27.283 4.946.872 9.841-.385 13.969-3.181-20.01-8.468-14.87-21.537-11.545-26.99 2.262-3.706 2.61-8.382.447-12.146z" fill="#7e4ce8"/><path d="m62.026 191.814c1.496 1.721 4.569 6.09 4.337 12.74 0 .007-.001.014-.001.021-.032.773-1.093.979-1.446.29-1.233-2.406-3.756-6.897-6.624-9.548-.839-.776-1.201-1.967-.85-3.054.273-.844.942-1.58 2.468-1.501.818.042 1.579.434 2.116 1.052z" fill="#fff" opacity=".5"/></g><g><ellipse cx="80.828" cy="200.745" fill="#915efd" rx="24.061" ry="20.66" transform="matrix(.174 -.985 .985 .174 -130.903 245.486)"/><path d="m79.521 182.123c-1.07-1.863-2.512-3.25-3.866-4.248-7.44 2.66-13.523 9.926-15.173 19.282-2.308 13.087 4.931 25.302 16.168 27.283 4.946.872 9.841-.385 13.969-3.181-20.01-8.468-14.87-21.537-11.545-26.99 2.261-3.705 2.609-8.381.447-12.146z" fill="#7e4ce8"/><path d="m92.47 188.394c1.496 1.721 4.569 6.09 4.337 12.74 0 .007-.001.014-.001.021-.032.773-1.093.979-1.446.29-1.233-2.406-3.756-6.897-6.624-9.548-.839-.776-1.201-1.967-.85-3.054.273-.844.942-1.58 2.468-1.501.818.042 1.579.434 2.116 1.052z" fill="#fff" opacity=".5"/></g><g><ellipse cx="63.282" cy="234.923" fill="#915efd" rx="24.061" ry="20.66" transform="matrix(.174 -.985 .985 .174 -179.06 256.45)"/><path d="m61.975 216.301c-1.07-1.863-2.512-3.25-3.866-4.248-7.44 2.66-13.523 9.926-15.173 19.282-2.308 13.087 4.931 25.302 16.168 27.283 4.946.872 9.841-.385 13.969-3.18-20.01-8.468-14.87-21.537-11.545-26.99 2.261-3.707 2.609-8.383.447-12.147z" fill="#7e4ce8"/><path d="m74.924 222.572c1.496 1.721 4.569 6.089 4.337 12.74 0 .007-.001.014-.001.021-.032.773-1.093.979-1.446.291-1.233-2.406-3.756-6.897-6.624-9.548-.839-.776-1.201-1.967-.85-3.054.273-.844.942-1.58 2.468-1.501.818.041 1.579.433 2.116 1.051z" fill="#fff" opacity=".5"/></g><g><ellipse cx="90.619" cy="266.069" fill="#915efd" rx="24.061" ry="20.66" transform="matrix(.174 -.985 .985 .174 -187.144 309.109)"/><path d="m89.312 247.447c-1.07-1.863-2.512-3.25-3.866-4.248-7.44 2.66-13.523 9.926-15.173 19.282-2.308 13.087 4.931 25.302 16.168 27.283 4.946.872 9.841-.385 13.969-3.181-20.01-8.468-14.87-21.537-11.545-26.99 2.261-3.705 2.609-8.381.447-12.146z" fill="#7e4ce8"/><path d="m102.261 253.718c1.496 1.721 4.569 6.09 4.337 12.74 0 .007-.001.014-.001.021-.032.773-1.093.979-1.446.291-1.233-2.406-3.756-6.897-6.624-9.548-.839-.776-1.201-1.967-.85-3.054.273-.844.942-1.58 2.468-1.501.818.041 1.579.433 2.116 1.051z" fill="#fff" opacity=".5"/></g><g><ellipse cx="55.806" cy="268.053" fill="#915efd" rx="24.061" ry="20.66" transform="matrix(.174 -.985 .985 .174 -217.866 276.464)"/><path d="m54.498 249.432c-1.07-1.863-2.512-3.25-3.866-4.248-7.44 2.66-13.523 9.926-15.173 19.282-2.308 13.087 4.931 25.302 16.168 27.283 4.946.872 9.841-.385 13.969-3.18-20.01-8.468-14.87-21.537-11.545-26.99 2.262-3.707 2.61-8.383.447-12.147z" fill="#7e4ce8"/><path d="m67.448 255.703c1.496 1.721 4.569 6.09 4.337 12.74 0 .007-.001.014-.001.021-.032.773-1.093.979-1.446.29-1.233-2.406-3.756-6.897-6.624-9.548-.839-.776-1.201-1.967-.85-3.054.273-.844.942-1.58 2.468-1.501.818.042 1.579.434 2.116 1.052z" fill="#fff" opacity=".5"/></g><g><ellipse cx="98.009" cy="227.977" fill="#915efd" rx="24.061" ry="20.66" transform="matrix(.174 -.985 .985 .174 -143.524 284.909)"/><path d="m96.701 209.356c-1.07-1.863-2.512-3.25-3.866-4.248-7.44 2.66-13.523 9.926-15.173 19.282-2.308 13.087 4.931 25.302 16.168 27.283 4.946.872 9.841-.385 13.969-3.181-20.01-8.468-14.87-21.537-11.545-26.99 2.261-3.706 2.61-8.382.447-12.146z" fill="#7e4ce8"/><path d="m109.651 215.627c1.496 1.721 4.569 6.089 4.337 12.74 0 .007-.001.014-.001.021-.032.773-1.093.979-1.446.291-1.233-2.406-3.756-6.897-6.624-9.548-.839-.776-1.201-1.967-.85-3.054.273-.844.942-1.58 2.468-1.501.817.041 1.578.433 2.116 1.051z" fill="#fff" opacity=".5"/></g><g><ellipse cx="122.005" cy="251.586" fill="#915efd" rx="24.061" ry="20.66" transform="matrix(.174 -.985 .985 .174 -146.945 328.051)"/><path d="m120.698 232.965c-1.07-1.863-2.512-3.25-3.866-4.248-7.44 2.66-13.523 9.926-15.173 19.282-2.308 13.087 4.931 25.302 16.168 27.283 4.946.872 9.841-.385 13.969-3.181-20.01-8.468-14.87-21.537-11.545-26.99 2.261-3.706 2.609-8.382.447-12.146z" fill="#7e4ce8"/><path d="m133.648 239.236c1.496 1.721 4.569 6.09 4.337 12.74 0 .007-.001.014-.001.021-.032.773-1.093.979-1.446.29-1.233-2.406-3.756-6.897-6.624-9.548-.839-.776-1.201-1.967-.85-3.054.273-.844.942-1.58 2.468-1.501.817.042 1.578.434 2.116 1.052z" fill="#fff" opacity=".5"/></g></g></g><g><g><g><g><path d="m355.447 372.487c5.185-3.786-2.348-7.411-4.86-8.464-.659-.276-1.181-.868-1.233-1.581-.081-1.118.893-1.761 1.908-2.126 1.023-.368 2.132-.457 3.215-.353 23.128 2.22 25.722-6.01 24.884-11.739-.271-1.851.543-3.709 2.146-4.675 12.166-7.329 19.148-17.608 15.863-24.059-3.284-6.449-15.692-6.841-28.763-1.309-1.679.711-3.65.29-4.877-1.057-4.117-4.52-12.66-8.629-24.866 12.062-.567.961-1.302 1.838-2.226 2.463-.889.601-1.973 1.001-2.824.281-.542-.459-.718-1.221-.555-1.912.624-2.638 2.134-10.895-3.983-8.922-2.49.803-4.417 2.815-5.264 5.29-1.032 3.017-2.353 8.09-2.707 14.984 0 0-.535 2.795-2.996 2.723-3.135-.091-6.213 1.024-8.132 3.506-2.848 3.683-5.834 9.666-5.695 18.488l.011.022c5.626 4.227 10.96 5.782 15.249 6.166 4.204.377 8.091-1.593 10.906-4.74 1.425-1.594 3.721-.514 3.721-.514 5.778 3.764 10.654 5.676 13.701 6.615 2.501.77 5.263.395 7.377-1.149z" fill="#91d728"/><path d="m336.637 331.65c-.782.528-1.714.9-2.505.493.018 1.85-.377 3.825-.628 4.887-.164.692.013 1.453.555 1.912.851.72 1.935.32 2.824-.281.925-.625 1.659-1.501 2.226-2.463 12.206-20.691 20.749-16.581 24.866-12.062 1.228 1.348 3.198 1.768 4.877 1.057 13.045-5.521 25.427-5.14 28.741 1.271.827-2.561.805-4.955-.223-6.974-3.284-6.449-15.692-6.841-28.763-1.309-1.679.711-3.65.29-4.877-1.057-4.117-4.52-12.66-8.629-24.866 12.062-.568.962-1.302 1.839-2.227 2.464z" fill="#6da52e"/></g><g><path d="m290.695 330.03c2.828-5.763 7.707 1.025 9.179 3.316.386.601 1.059 1.012 1.771.94 1.115-.114 1.579-1.185 1.762-2.248.185-1.072.08-2.179-.211-3.227-6.202-22.391 1.452-26.375 7.24-26.545 1.87-.055 3.558-1.179 4.231-2.925 5.105-13.253 14.015-21.915 20.939-19.799 6.921 2.115 9.462 14.265 6.284 28.099-.408 1.777.348 3.645 1.888 4.62 5.166 3.269 10.697 10.97-7.561 26.583-.848.725-1.584 1.601-2.039 2.62-.437.98-.643 2.117.214 2.83.546.454 1.327.495 1.98.214 2.489-1.072 10.358-3.994 9.478 2.373-.358 2.591-2.005 4.839-4.295 6.103-2.792 1.541-7.559 3.723-14.286 5.267 0 0-2.66 1.012-2.162 3.424.634 3.071.07 6.296-2.04 8.617-3.132 3.445-8.506 7.424-17.219 8.819l-.024-.007c-5.139-4.806-7.597-9.789-8.721-13.946-1.101-4.074.164-8.245 2.774-11.563 1.322-1.68-.14-3.754-.14-3.754-4.71-5.037-7.44-9.507-8.893-12.344-1.192-2.332-1.302-5.117-.149-7.467z" fill="#91d728"/><path d="m334.178 341.462c-.384.861-.588 1.844-.05 2.553-1.825.304-3.701 1.035-4.704 1.467-.653.281-1.433.24-1.98-.214-.857-.713-.651-1.85-.214-2.829.455-1.019 1.19-1.895 2.039-2.62 18.257-15.613 12.727-23.313 7.561-26.583-1.54-.975-2.297-2.842-1.888-4.62 3.172-13.805.647-25.933-6.243-28.084 2.378-1.259 4.74-1.653 6.906-.991 6.921 2.115 9.462 14.265 6.284 28.099-.408 1.777.348 3.645 1.888 4.62 5.166 3.269 10.697 10.97-7.561 26.583-.847.725-1.583 1.6-2.038 2.619z" fill="#6da52e"/></g></g><g><g><ellipse cx="351.835" cy="376.805" fill="#915efd" rx="24.061" ry="20.66" transform="matrix(.866 -.5 .5 .866 -141.266 226.4)"/><path d="m358.744 371.039c6.512-3.616 7.526-9.079 7.284-12.897-6.82-3.99-16.296-3.98-24.524.771-11.508 6.644-16.212 20.041-10.507 29.923 2.511 4.349 6.621 7.291 11.416 8.657 1.947-19.233 16.331-26.454 16.331-26.454z" fill="#7e4ce8"/><path d="m368.779 377.784c-.357 2.252-1.728 7.414-6.972 11.511-.005.004-.011.009-.017.013-.612.473-1.453-.208-1.152-.921 1.051-2.491 2.869-7.31 3.057-11.212.055-1.141.735-2.185 1.793-2.614.822-.334 1.816-.294 2.736.925.494.655.683 1.489.555 2.298z" fill="#fff" opacity=".5"/></g><g><ellipse cx="351.835" cy="376.805" fill="#915efd" rx="24.061" ry="20.66" transform="matrix(.866 -.5 .5 .866 -141.266 226.4)"/><path d="m365.259 363.834c.739-2.017.875-4.013.769-5.692-6.82-3.99-16.296-3.98-24.524.771-11.508 6.644-16.212 20.041-10.507 29.923 2.511 4.349 6.621 7.291 11.416 8.657-6.375-20.771 6.94-25.235 13.255-26.193 4.292-.651 8.097-3.39 9.591-7.466z" fill="#7e4ce8"/><path d="m368.779 377.784c-.357 2.252-1.728 7.414-6.972 11.511-.005.004-.011.009-.017.013-.612.473-1.453-.208-1.152-.921 1.051-2.491 2.869-7.31 3.057-11.212.055-1.141.735-2.185 1.793-2.614.822-.334 1.816-.294 2.736.925.494.655.683 1.489.555 2.298z" fill="#fff" opacity=".5"/></g><g><ellipse cx="331.722" cy="401.744" fill="#915efd" rx="24.061" ry="20.66" transform="matrix(.866 -.5 .5 .866 -156.43 219.684)"/><path d="m345.146 388.773c.739-2.017.875-4.013.769-5.692-6.82-3.99-16.296-3.98-24.524.771-11.508 6.644-16.212 20.041-10.507 29.923 2.511 4.349 6.621 7.291 11.416 8.657-6.375-20.771 6.94-25.235 13.255-26.193 4.292-.651 8.098-3.39 9.591-7.466z" fill="#7e4ce8"/><path d="m348.666 402.724c-.357 2.252-1.728 7.414-6.972 11.511-.005.004-.011.009-.017.013-.612.473-1.453-.208-1.152-.921 1.051-2.491 2.869-7.31 3.057-11.212.055-1.141.735-2.185 1.793-2.614.822-.334 1.816-.294 2.736.925.495.654.684 1.489.555 2.298z" fill="#fff" opacity=".5"/></g><g><ellipse cx="252.693" cy="444.987" fill="#915efd" rx="24.061" ry="20.66" transform="matrix(.866 -.5 .5 .866 -188.639 185.963)"/><path d="m266.117 432.016c.739-2.017.875-4.013.769-5.692-6.82-3.99-16.296-3.98-24.524.771-11.508 6.644-16.212 20.041-10.507 29.923 2.511 4.349 6.621 7.291 11.416 8.657-6.375-20.771 6.94-25.235 13.255-26.193 4.292-.651 8.098-3.39 9.591-7.466z" fill="#7e4ce8"/><path d="m269.637 445.967c-.357 2.252-1.728 7.414-6.972 11.511-.005.004-.011.009-.017.013-.612.473-1.453-.208-1.152-.921 1.051-2.491 2.869-7.31 3.057-11.212.055-1.141.735-2.185 1.793-2.614.822-.334 1.816-.294 2.736.925.495.654.684 1.489.555 2.298z" fill="#fff" opacity=".5"/></g><g><ellipse cx="237.81" cy="415.222" fill="#915efd" rx="24.061" ry="20.66" transform="matrix(.5 -.866 .866 .5 -240.688 413.561)"/><path d="m242.95 397.276c-.369-2.117-1.249-3.913-2.18-5.314-7.901-.045-16.103 4.702-20.853 12.929-6.644 11.508-4.02 25.462 5.862 31.167 4.349 2.511 9.379 3.004 14.215 1.789-15.907-14.801-6.607-25.325-1.617-29.311 3.392-2.708 5.318-6.983 4.573-11.26z" fill="#7e4ce8"/><path d="m252.974 407.598c.817 2.128 2.211 7.285-.282 13.455-.003.006-.005.013-.008.019-.294.716-1.362.546-1.458-.222-.336-2.683-1.17-7.765-2.958-11.238-.523-1.016-.456-2.259.246-3.161.545-.7 1.425-1.162 2.832-.567.754.321 1.335.949 1.628 1.714z" fill="#fff" opacity=".5"/></g><g><ellipse cx="318.854" cy="428.084" fill="#915efd" rx="24.061" ry="20.66" transform="matrix(.866 -.5 .5 .866 -171.324 216.779)"/><path d="m332.278 415.113c.739-2.017.875-4.013.769-5.692-6.82-3.99-16.296-3.98-24.524.771-11.508 6.644-16.212 20.041-10.507 29.923 2.511 4.349 6.621 7.291 11.416 8.657-6.375-20.771 6.94-25.235 13.255-26.193 4.292-.651 8.097-3.39 9.591-7.466z" fill="#7e4ce8"/><path d="m335.798 429.064c-.357 2.252-1.728 7.414-6.972 11.511-.005.004-.011.009-.017.013-.612.473-1.453-.208-1.152-.921 1.051-2.491 2.869-7.31 3.057-11.212.055-1.141.735-2.185 1.793-2.614.822-.334 1.816-.294 2.736.925.494.654.683 1.489.555 2.298z" fill="#fff" opacity=".5"/></g><g><ellipse cx="328.826" cy="361.115" fill="#915efd" rx="24.061" ry="20.66" transform="matrix(.866 -.5 .5 .866 -136.503 212.793)"/><path d="m342.251 348.144c.739-2.017.875-4.013.769-5.692-6.82-3.99-16.296-3.98-24.524.771-11.508 6.644-16.212 20.041-10.507 29.923 2.511 4.349 6.621 7.291 11.416 8.657-6.375-20.771 6.94-25.235 13.255-26.193 4.291-.651 8.097-3.39 9.591-7.466z" fill="#7e4ce8"/><path d="m345.771 362.095c-.357 2.252-1.728 7.414-6.972 11.511-.005.004-.011.009-.017.013-.612.473-1.453-.208-1.152-.921 1.051-2.491 2.869-7.31 3.057-11.212.055-1.141.735-2.185 1.793-2.614.822-.334 1.816-.294 2.736.925.494.654.683 1.489.555 2.298z" fill="#fff" opacity=".5"/></g><g><ellipse cx="301.941" cy="375.964" fill="#915efd" rx="24.061" ry="20.66" transform="matrix(.866 -.5 .5 .866 -147.529 201.34)"/><path d="m315.365 362.992c.739-2.017.875-4.013.769-5.692-6.82-3.99-16.296-3.98-24.524.771-11.508 6.644-16.212 20.041-10.507 29.923 2.511 4.349 6.621 7.291 11.416 8.657-6.375-20.771 6.94-25.235 13.255-26.193 4.292-.651 8.098-3.39 9.591-7.466z" fill="#7e4ce8"/><path d="m318.885 376.943c-.357 2.252-1.728 7.414-6.972 11.511-.005.004-.011.009-.017.013-.612.473-1.453-.208-1.152-.921 1.051-2.491 2.869-7.31 3.057-11.212.055-1.141.735-2.185 1.793-2.614.822-.334 1.816-.294 2.736.925.495.654.683 1.489.555 2.298z" fill="#fff" opacity=".5"/></g><g><ellipse cx="299.794" cy="337.737" fill="#915efd" rx="24.061" ry="20.66" transform="matrix(.866 -.5 .5 .866 -128.704 195.145)"/><path d="m313.218 324.766c.739-2.017.875-4.013.769-5.692-6.82-3.99-16.296-3.98-24.524.771-11.508 6.644-16.212 20.041-10.507 29.923 2.511 4.349 6.621 7.291 11.416 8.657-6.375-20.771 6.94-25.235 13.255-26.193 4.292-.651 8.098-3.39 9.591-7.466z" fill="#7e4ce8"/><path d="m316.738 338.716c-.357 2.252-1.728 7.414-6.972 11.511-.005.004-.011.009-.017.013-.612.473-1.453-.208-1.152-.921 1.051-2.491 2.869-7.31 3.057-11.212.055-1.141.735-2.185 1.793-2.614.822-.334 1.816-.294 2.736.925.495.655.683 1.489.555 2.298z" fill="#fff" opacity=".5"/></g><g><ellipse cx="273.997" cy="360.557" fill="#915efd" rx="24.061" ry="20.66" transform="matrix(.866 -.5 .5 .866 -143.57 185.304)"/><path d="m287.422 347.586c.739-2.017.875-4.013.769-5.692-6.82-3.99-16.296-3.98-24.524.771-11.508 6.644-16.212 20.041-10.507 29.923 2.511 4.349 6.621 7.291 11.416 8.657-6.375-20.771 6.94-25.235 13.255-26.193 4.291-.651 8.097-3.39 9.591-7.466z" fill="#7e4ce8"/><path d="m290.942 361.537c-.357 2.252-1.728 7.414-6.972 11.511-.005.004-.011.009-.017.013-.612.473-1.453-.208-1.152-.921 1.051-2.491 2.869-7.31 3.057-11.212.055-1.141.735-2.185 1.793-2.614.822-.334 1.816-.294 2.736.925.494.654.683 1.489.555 2.298z" fill="#fff" opacity=".5"/></g><g><ellipse cx="262.091" cy="390.323" fill="#915efd" rx="24.061" ry="20.66" transform="matrix(.866 -.5 .5 .866 -160.048 183.339)"/><path d="m275.515 377.351c.739-2.017.875-4.013.769-5.692-6.82-3.99-16.296-3.98-24.524.771-11.508 6.644-16.212 20.041-10.507 29.923 2.511 4.349 6.621 7.291 11.416 8.657-6.375-20.771 6.94-25.235 13.255-26.193 4.292-.651 8.098-3.39 9.591-7.466z" fill="#7e4ce8"/><path d="m279.035 391.302c-.357 2.252-1.728 7.414-6.972 11.511-.005.004-.011.009-.017.013-.612.473-1.453-.208-1.152-.921 1.051-2.491 2.869-7.31 3.057-11.212.055-1.141.735-2.185 1.793-2.614.822-.334 1.816-.294 2.736.925.495.654.683 1.489.555 2.298z" fill="#fff" opacity=".5"/></g><g><ellipse cx="263.083" cy="425.049" fill="#915efd" rx="24.061" ry="20.66" transform="matrix(.866 -.5 .5 .866 -177.278 188.487)"/><path d="m276.507 412.078c.739-2.017.875-4.013.769-5.692-6.82-3.99-16.296-3.98-24.524.771-11.508 6.644-16.212 20.041-10.507 29.923 2.511 4.349 6.621 7.291 11.416 8.657-6.375-20.771 6.94-25.235 13.255-26.193 4.292-.651 8.098-3.39 9.591-7.466z" fill="#7e4ce8"/><path d="m280.028 426.029c-.357 2.252-1.728 7.414-6.972 11.511-.005.004-.011.009-.017.013-.612.473-1.453-.208-1.152-.921 1.051-2.491 2.869-7.31 3.057-11.212.055-1.141.735-2.185 1.793-2.614.822-.334 1.816-.294 2.736.925.494.654.683 1.489.555 2.298z" fill="#fff" opacity=".5"/></g><g><ellipse cx="291.131" cy="412.582" fill="#915efd" rx="24.061" ry="20.66" transform="matrix(.866 -.5 .5 .866 -167.287 200.841)"/><path d="m304.555 399.611c.739-2.017.875-4.013.769-5.692-6.82-3.99-16.296-3.98-24.524.771-11.508 6.644-16.212 20.041-10.507 29.923 2.511 4.349 6.621 7.291 11.416 8.657-6.375-20.771 6.94-25.235 13.255-26.193 4.292-.651 8.098-3.39 9.591-7.466z" fill="#7e4ce8"/><path d="m308.075 413.562c-.357 2.252-1.728 7.414-6.972 11.511-.005.004-.011.009-.017.013-.612.473-1.453-.208-1.152-.921 1.051-2.491 2.869-7.31 3.057-11.212.055-1.141.735-2.185 1.793-2.614.822-.334 1.816-.294 2.736.925.495.654.683 1.489.555 2.298z" fill="#fff" opacity=".5"/></g><g><ellipse cx="291.388" cy="444.987" fill="#915efd" rx="24.061" ry="20.66" transform="matrix(.866 -.5 .5 .866 -183.455 205.311)"/><path d="m304.812 432.016c.739-2.017.875-4.013.769-5.692-6.82-3.99-16.296-3.98-24.524.771-11.508 6.644-16.212 20.041-10.507 29.923 2.511 4.349 6.621 7.291 11.416 8.657-6.375-20.771 6.94-25.235 13.255-26.193 4.292-.651 8.098-3.39 9.591-7.466z" fill="#7e4ce8"/><path d="m308.333 445.967c-.357 2.252-1.728 7.414-6.972 11.511-.006.004-.011.009-.017.013-.612.473-1.453-.208-1.152-.921 1.051-2.491 2.869-7.31 3.057-11.212.055-1.141.735-2.185 1.793-2.614.822-.334 1.816-.294 2.736.925.494.654.683 1.489.555 2.298z" fill="#fff" opacity=".5"/></g></g></g><g><g><ellipse cx="130.524" cy="392.137" fill="#91d728" rx="59.531" ry="74.414"/><g fill="#6da52e"><g><path d="m137.997 416.098c-12.726-19.584-8.923-43.332-5.43-53.002 10.151-28.101 2.386-40.577-2.734-45.352-3.336.048-6.603.444-9.785 1.15 5.008 5.492 11.031 18.105 1.605 44.202-3.493 9.67-7.296 33.418 5.43 53.002 3.283 5.135 13.232 18.33 6.141 50.367 3.891-.217 7.681-.909 11.342-2.016 6.241-30.576-3.355-43.325-6.569-48.351z"/><path d="m102.279 416.098c-12.726-19.584-8.923-43.332-5.43-53.002 5.997-16.603 5.739-27.748 3.469-35.077-3.388 2.5-6.563 5.401-9.477 8.662.306 6.704-.907 15.342-4.906 26.415-3.493 9.67-7.296 33.418 5.43 53.002 2.883 4.508 10.899 15.232 8.016 39.459 3.149 2.421 6.493 4.478 9.994 6.142 5.133-28.596-3.981-40.728-7.096-45.601z"/><path d="m179.669 416.098c-12.726-19.584-8.923-43.332-5.43-53.002 2.061-5.704 3.373-10.755 4.129-15.238-2.972-5.009-6.437-9.532-10.302-13.463.722 6.989-.271 16.327-4.741 28.701-3.493 9.67-7.296 33.418 5.43 53.002 2.095 3.277 6.898 9.846 8.262 22.488 2.823-4.409 5.261-9.219 7.232-14.366-1.684-3.844-3.496-6.426-4.58-8.122z"/></g><g><g><ellipse cx="112.541" cy="338.499" rx="2.977" ry="3.969"/><ellipse cx="106.588" cy="446.207" rx="2.977" ry="3.969"/><ellipse cx="116.001" cy="431.959" rx="2.977" ry="3.969"/><ellipse cx="111.549" cy="358.342" rx="2.778" ry="3.473"/></g><g><ellipse cx="153.221" cy="335.522" rx="2.977" ry="3.969"/><ellipse cx="150.545" cy="448.892" rx="2.977" ry="3.969"/><ellipse cx="158.194" cy="430.494" rx="2.977" ry="3.969"/><ellipse cx="153.221" cy="358.342" rx="2.977" ry="3.969"/></g></g></g></g><g><g><circle cx="110.683" cy="380.508" r="4.672"/><circle cx="150.37" cy="380.508" r="4.672"/></g><g><g fill="#fff"><ellipse cx="115.009" cy="396.383" opacity=".5" rx="6.285" ry="4.714"/><ellipse cx="147.661" cy="396.38" opacity=".5" rx="6.285" ry="4.714"/></g></g><path d="m130.781 389.732c-5.007 0-9.08-4.073-9.08-9.08v-.584c0-.822.666-1.488 1.488-1.488s1.488.666 1.488 1.488v.584c0 3.366 2.738 6.104 6.104 6.104s6.104-2.738 6.104-6.104v-.584c0-.822.666-1.488 1.488-1.488s1.488.666 1.488 1.488v.584c.001 5.006-4.073 9.08-9.08 9.08z"/></g></g><g><g><g><path d="m71.656 466.55c38.752 0 70.167-31.415 70.167-70.167h-140.335c0 38.752 31.415 70.167 70.168 70.167z" fill="#91d728"/><path d="m62.833 430.373c-8.997-4.154-12.557-10.389-13.919-15.321-.87-3.152-.831-6.467-.249-9.684.741-4.102.175-6.964-.9-8.984h-46.277c0 38.752 31.415 70.167 70.167 70.167 1.749 0 3.477-.086 5.194-.212 5.749-29.253-14.016-35.966-14.016-35.966z" fill="#6da52e"/></g><g><path d="m71.656 455.755c32.79 0 59.372-26.582 59.372-59.372h-118.745c0 32.79 26.582 59.372 59.373 59.372z" fill="#fff"/><path d="m63.865 430.887c-13.787-6.985-16.776-14.544-15.087-25.661.804-3.655.676-6.565.118-8.842h-36.613c0 32.79 26.582 59.372 59.372 59.372 1.993 0 3.963-.102 5.905-.294 1.511-17.883-13.695-24.575-13.695-24.575z" fill="#e3d7fe"/></g><g><path d="m20.919 396.383c0 28.021 22.715 50.736 50.736 50.736s50.736-22.715 50.736-50.736z" fill="#ff8ede"/><path d="m71.714 436.868c-2.432-2.797-5.533-4.904-8.881-6.495-18.375-8.736-14.319-24.934-14.319-24.934.988-3.539.712-6.568-.119-9.055h-27.476c0 28.021 22.715 50.736 50.736 50.736 1.688 0 3.356-.087 5.001-.248-.677-4.123-2.752-7.485-4.942-10.004z" fill="#fd4cc8"/></g></g><g><g><circle cx="55.585" cy="410.691" r="4.525"/><circle cx="89.137" cy="410.691" r="4.525"/><path d="m72.486 423.687c-4.752 0-8.618-3.866-8.618-8.618v-1.573c0-.822.666-1.488 1.488-1.488s1.488.666 1.488 1.488v1.573c0 3.111 2.531 5.642 5.642 5.642s5.642-2.531 5.642-5.642v-1.573c0-.822.666-1.488 1.488-1.488s1.488.666 1.488 1.488v1.573c0 4.752-3.866 8.618-8.618 8.618z"/></g><g><g fill="#fc0ab2"><ellipse cx="51.308" cy="424.461" rx="6.033" ry="4.525"/><ellipse cx="93.539" cy="424.461" rx="6.033" ry="4.525"/></g></g></g></g><g><g><path d="m465.288 399.392c-6.117-24.543-39.271-25.546-39.271-25.546l-10.15 1.79s-30.812 12.282-28.165 37.436c.444 4.219 1.884 8.267 4.005 11.94 6.406 11.095 17.696 28.48 31.183 38.055 8.57 6.084 20.46 3.987 26.432-4.661 9.399-13.61 14.062-33.808 16.287-46.425.736-4.176.705-8.473-.321-12.589z" fill="#ff8ede"/><g><path d="m438.989 436.558c-8.297.787-16.5-2.909-20.77-10.067-4.278-7.172-2.763-13.039-2.763-13.039 2.744-23.814-2.746-31.752-5.817-34.687-8.852 5.097-23.817 16.457-21.939 34.308.444 4.219 1.884 8.267 4.005 11.94 6.406 11.095 17.696 28.48 31.183 38.055 8.57 6.084 20.46 3.987 26.432-4.661 2.908-4.21 5.359-9.052 7.429-14.103-5.275-7.183-12.391-8.255-17.76-7.746z" fill="#fd4cc8"/><path d="m456.746 399.265c-2.747-1.653-6.151.832-5.368 3.941.586 2.326.898 4.913.594 7.6-.453 4.008-1.597 8.706-2.898 13.733-.263 1.015.21 2.078 1.138 2.567 1.251.659 2.79.018 3.216-1.33 2.002-6.339 3.702-10.822 4.622-16.042.443-2.51.607-5.063.446-7.594-.076-1.187-.731-2.262-1.75-2.875z" fill="#fff" opacity=".5"/></g></g><g><path d="m458.612 375.773c-8.127.871-14.89-2.369-14.89-2.369-13.372-7.296-21.519-3.302-21.519-3.302-7.726-5.799-1.286-24.219-1.286-24.219l-5.25-1.068c-11.736 10.385-3.401 27.038-3.401 27.038s-9.022-.967-19.092 10.462c0 0-5.247 5.357-13.182 7.319 0 0 13.734 9.351 27.349-4.822 0 0-7.68 11.167-.258 22.093 4.431-21.149 20.484-24.114 31.979-5.639 3.238-12.806-7.798-20.673-7.798-20.673 17.64 8.665 27.348-4.82 27.348-4.82z" fill="#91d728"/><path d="m418.357 382.589c-2.242-.667-3.395-3.136-2.473-5.285.027-.064.055-.126.083-.188.896-1.963.771-4.212-.108-6.183-4.217-9.467-.285-19.907 2.61-25.546l-2.804-.57c-11.736 10.385-3.401 27.038-3.401 27.038s-9.022-.967-19.092 10.462c0 0-5.247 5.357-13.182 7.319 0 0 13.734 9.351 27.349-4.822 0 0-7.68 11.167-.258 22.093 2.795-13.34 10.215-19.437 18.197-17.49-2.198-4.515-4.899-6.227-6.921-6.828z" fill="#6da52e"/><path d="m466.732 399.032c-1.997-8.014-6.768-13.613-12.365-17.539 3.528-2.257 5.408-4.79 5.452-4.851.764-.989-.132-2.524-1.366-2.35-7.578.814-14.015-2.196-14.019-2.196-11.438-6.24-19.314-4.581-21.939-3.703-4.777-4.706-1.798-17.363-.174-22.019.307-.82-.246-1.795-1.108-1.949l-5.251-1.068c-.457-.094-.933.033-1.283.344-9.915 8.774-6.468 21.742-4.609 26.745-3.516.413-10.508 2.368-17.961 10.829-.049.05-5.037 5.077-12.476 6.915-1.222.259-1.536 2.007-.481 2.675.083.057 4.887 3.228 11.64 3.24-5.9 8.653-6.406 22.001-.374 31.651 7.178 12.434 18.49 29.21 31.611 38.525 8.906 6.588 22.427 4.177 28.518-5.028 9.144-13.241 14.035-32.874 16.528-47.013.81-4.6.695-9.044-.343-13.208zm-82.804-9.097c6.206-2.442 10.124-6.39 10.361-6.634 9.364-10.628 17.743-9.974 17.817-9.966 1.125.151 2.032-1.138 1.49-2.145-.313-.628-7.419-15.251 2.517-24.764l2.883.586c-1.43 4.822-4.834 18.915 2.312 24.28.448.336 1.046.392 1.548.146.076-.036 7.601-3.576 20.221 3.308.247.118 5.269 2.483 11.935 2.655-3.676 3.167-11.508 7.548-23.094 1.858-1.579-.819-2.989 1.543-1.522 2.546.372.267 8.174 6 7.758 15.499-5.402-7.182-11.816-10.627-17.968-9.547-6.155 1.089-11 6.524-13.611 15.11-3.635-8.782 1.733-16.835 1.989-17.211 1.041-1.444-1.092-3.186-2.299-1.874-8.943 9.311-17.801 7.872-22.337 6.153zm80.215 21.789c-2.442 13.846-7.207 33.039-16.046 45.838-5.189 7.865-16.78 9.907-24.346 4.293-12.683-9.003-23.726-25.409-30.756-37.586-5.98-9.47-4.759-22.479 1.591-30.496 2.767-.496 5.738-1.591 8.771-3.631-1.356 4.593-1.884 11.156 2.494 17.601.686 1.08 2.467.723 2.688-.531 1.987-9.484 6.422-15.506 12.167-16.523 5.739-1.014 11.967 3.128 17.092 11.365.634 1.105 2.435.822 2.706-.421 1.91-7.554-.831-13.541-3.676-17.393 5.98 1.483 10.889.515 14.613-1.159 9.093 5.245 15.183 17.342 12.702 28.643z"/></g></g></g><path d="m467.175 102.332c-.419-.169-10.43-4.122-25.831-2.074-6.034.802-13.435 2.681-21.648 6.494 8.768-12.659 20.152-26.226 32.666-33.846 1.25-.707.714-2.755-.722-2.759-.447-.013-11.208-.306-24.982 6.885-6.225 3.25-13.666 8.43-21.08 16.582 10.175-22.134 25.047-48.171 41.55-56.482 1.207-.558 1.007-2.472-.29-2.768-.412-.109-10.274-2.558-24.402 7.257-9.171 6.371-17.878 16.24-26.075 29.459 3.564-18.792 3.671-34.566.258-47.118-4.513-16.598-13.642-21.062-14.028-21.244-1.184-.608-2.567.731-2.001 1.934 7.488 17.412 1.67 48.017-4.98 71.788-3.038-19.614-8.41-35.001-16.113-45.917-9.918-14.054-20.022-15.126-20.448-15.165-1.322-.167-2.161 1.565-1.219 2.502 12.826 13.625 17.862 43.764 19.799 68.212-3.15-7.941-6.925-14.271-10.67-19.168-2.134-4.921-4.897-9.566-8.241-13.756-6.528-8.179-5.299-16.197-5.286-16.272-.229-24.316-17.992-27.463-23.29-27.528-1.168-.041-2.308.256-3.308.872-.009.006-.02.007-.029.013v-8.7c0-.822-.666-1.488-1.488-1.488s-1.488.666-1.488 1.488v8.7c-.009-.006-.02-.007-.03-.013-.998-.615-2.136-.915-3.307-.871-5.297.066-23.056 3.207-23.291 27.523.005.031.185 1.226.044 3.141-3.959-11.849-11.276-21.909-21.797-28.483-26.114-16.317-62.863-5.639-85.913 23.491-.444-.169-.883-.35-1.337-.499-.245-8.902-3.513-17.653-9.631-24.679 8.506-1.069 17.136-1.198 25.693-.299.815.092 1.55-.507 1.636-1.325.086-.817-.507-1.55-1.325-1.636-22.292-2.344-45.077 1.995-64.988 12.218-3.887-1.74-8.191-2.709-12.719-2.709-16.436 0-29.939 12.755-31.155 28.885-5.174-3.805-11.552-6.065-18.454-6.065-17.233 0-31.254 14.02-31.254 31.254 0 10.031 4.76 18.96 12.13 24.681-9.67 5.32-16.24 15.607-16.24 27.402 0 12.872 7.83 23.935 18.972 28.717-6.061 3.625-10.74 10.247-12.172 18.365-.161.912-.273 1.823-.351 2.731-9.405 1.593-17.523 9.912-19.492 21.082-1.998 11.328 2.887 22.413 11.378 27.141-3.801 3.772-6.399 9.047-7.453 15.024-2.423 13.739 5.356 26.635 17.339 28.748 1.306.23 2.608.311 3.896.271-2.352 13.739 5.412 26.609 17.358 28.723 2.395.424 4.777.369 7.079-.078 6.565 19.32 14.918 36.427 24.916 51.056-8.655 13.105-13.86 29.864-13.86 48.108 0 .925.03 1.841.057 2.758h-68.07c-.822 0-1.488.666-1.488 1.488 0 39.511 32.145 71.656 71.656 71.656 11.574 0 22.507-2.775 32.194-7.67 8.063 4.902 17.111 7.67 26.675 7.67 29.928 0 54.875-26.948 60.027-62.357 7.839 1.066 16.698 2 26.269 2.572-4.431 11.291-1.168 23.739 8.242 29.172 1.491.861 3.059 1.494 4.669 1.921-2.509 6.116-2.436 12.847.826 18.497 6.082 10.534 20.955 13.373 33.155 6.329 2.456-1.418 4.596-3.145 6.434-5.061 6.535 9.412 20.631 11.712 32.291 4.98 5.535-3.196 9.577-7.886 11.78-13.039 5.338.36 10.642-.901 15.71-3.787 10.21-5.895 15.343-16.895 13.169-26.526 8.56-5.078 13.482-13.749 13.388-22.1 2.166-.636 4.311-1.537 6.38-2.731 12.2-7.044 17.178-21.344 11.097-31.878-.711-1.232-1.55-2.351-2.484-3.369 6.353-1.635 10.347-5.978 9.357-12.652-.189-1.293.377-2.542 1.442-3.184 12.325-7.425 19.165-17.496 16.983-24.614 17.806-32.722 27.441-73.715 28.727-122.501 1.254-1.308 2.33-2.819 3.14-4.53 2.134-4.504 2.223-9.711.245-14.285-.572-1.324-1.317-2.546-2.18-3.67 1.836-5.435 3.625-11.86 4.415-16.465 2.185-12.389.618-24.858-4.397-36.097 11.616-7.763 25.038-14.95 37.7-17.489 1.416-.24 1.612-2.348.265-2.843zm-46.329 11.572c2.984 4.262 5.352 8.826 7.107 13.582l-7.362 8.067-8.272-31.374c3.148 2.893 6.015 6.137 8.527 9.725zm6.264 58.049c-.081.254-.166.514-.248.77-1.775-1.558-3.86-2.768-6.161-3.511-7.438-2.401-14.824-4.065-22.145-5.101l20.55-22.516zm.76-92.196c7.304-3.84 13.784-5.462 18.109-6.145-11.045 8.113-20.908 20.045-28.693 31.263-3.08-3.23-6.482-6.09-10.139-8.563 7.29-8.188 14.619-13.346 20.723-16.555zm-19.509 21.083 9.842 37.329-23.107 25.317-11.772-42.11 20.416-23.719c1.584.994 3.135 2.041 4.621 3.183zm-71.054 54.434c-1.77-7.102-5.718-12.309-10.487-16.136l14.24-15.939 10.502 30.514-12.377 14.379c-.512.13-1.025.258-1.537.392v-.001c.813-4.601.697-9.044-.341-13.209zm-219.221 118.542c-10.367-1.828-16.976-13.667-14.838-25.789 2.138-12.123 12.31-20.498 22.677-18.67s17.062 13.177 14.924 25.3-12.396 20.987-22.763 19.159zm21.348 1.046c2.254-.037 4.509-.082 6.76-.252 4.256-.001 8.585-.185 12.975-.528v6.678h-35.719v-3.935c2.48-.351 4.885-1.166 7.124-2.402 2.911.325 5.861.488 8.86.439zm-64.474-20.451c1.916-3.219 4.482-5.841 7.425-7.638 2.957 3.283 6.78 5.589 11.187 6.366 2.128.375 4.246.345 6.311.004.149 7.827 3.464 15.012 8.781 19.418-3.135 10.502-12.459 17.413-21.964 15.737-5.022-.885-9.161-4.02-11.871-8.382 1.24-2.443 2.159-5.138 2.667-8.026 1.111-6.326.07-12.472-2.536-17.479zm-8.388-99.344c4.131-7.917 12.08-12.703 20.161-11.278 10.367 1.828 17.062 13.177 14.924 25.3-.838 4.753-2.754 9.072-5.558 12.313-2.916-2.987-6.612-5.074-10.833-5.818-4.654-.821-9.266.111-13.312 2.354 1.895-8.487-.464-17.222-5.382-22.871zm-17.011-45.304 14.475-1.104c.579 5.622 2.275 26.919-3.152 41.752-2.038-1.132-4.33-1.946-6.715-2.26 4.16-15.362-2.159-32.606-4.608-38.388zm17.605 25.506c2.082-.066 4.145-2.773 4.757-5.01 3.256-10.304 7.323-16.554 11.761-18.072 2.362-.809 4.881-.302 7.489 1.501 2.018 1.395 4.715 1.36 6.71-.086 10.766-7.804 22.322-10.195 26.306-5.443 4.071 4.755-.574 16.015-10.104 25.164-8.151-1.453-16.176 2.468-21.245 9.439-3.53-1.88-7.899-2.604-11.842-1.969 10.257-8.303 21.349-15.366 31.06-17.224.808-.155 1.337-.934 1.182-1.741-.154-.808-.935-1.341-1.741-1.182-12.668 2.424-27.206 12.876-39.501 23.799-3.028 2.107-5.656 4.977-7.611 8.425-.311-.271-.631-.53-.957-.782 1.994-5.169 3.134-11.046 3.736-16.819zm39.844-30.189c-3.519 1.418-7.208 3.455-10.873 6.112-.976.707-2.29.727-3.27.047-3.38-2.337-6.887-2.985-10.146-1.87-.316.108-.629.237-.939.378-4.011-9.152-12.276-16.03-22.286-18.104 2.278-13.323 13.901-23.497 27.863-23.497 3.119 0 6.113.525 8.919 1.466-1.169 3.277-1.811 6.802-1.811 10.475-.002 10.217 4.939 19.288 12.543 24.993zm79.215-8.093c.518-18.346 12.567-20.806 17.734-21.01.459-.017.92.102 1.319.349 1.725 1.065 3.867 1.065 5.591 0 .4-.247.862-.372 1.32-.349 5.166.204 17.215 2.664 17.734 21.01-.167 1.216-.879 8.657 5.224 16.304 2.374 2.974 4.384 6.228 6.026 9.662-14.49-3.87-26.368-3.084-35.423 2.423-2.423 1.473-4.487 3.203-6.272 5.068-1.251-11.359-7.972-21.561-13.592-27.458.639-3.098.425-5.374.339-5.999zm147.752 5.63 5.974 17.356-9.772 10.938c-.31-.277-.726-.421-1.151-.377-5.734.616-10.808-.955-12.943-1.757 3.459-10.192 9.6-19.184 17.892-26.16zm-1.036-3.017c-6.501-8.322-13.996-16.388-22.146-22.374 4.325.683 10.805 2.305 18.109 6.145 3.017 1.586 6.338 3.664 9.801 6.333.46 1.657.9 3.302 1.308 4.919-2.464 1.471-4.854 3.156-7.072 4.977zm-7.353 34.042c-3.676 3.168-11.508 7.549-23.094 1.858-1.581-.82-2.993 1.547-1.52 2.548.091.065 8.127 5.92 7.749 15.488-5.401-7.176-11.813-10.628-17.961-9.538-6.155 1.089-11 6.523-13.611 15.11-3.636-8.782 1.733-16.835 1.989-17.211 1.041-1.444-1.092-3.186-2.299-1.874-8.944 9.31-17.804 7.872-22.338 6.153 6.206-2.442 10.124-6.39 10.361-6.634 9.364-10.628 17.742-9.969 17.817-9.967 1.127.16 2.031-1.142 1.49-2.144-.313-.628-7.42-15.251 2.517-24.764l2.883.586c-1.43 4.822-4.834 18.915 2.313 24.28.448.336 1.046.392 1.548.146.076-.036 7.601-3.576 20.221 3.308.248.119 5.27 2.484 11.935 2.655zm-89.341-4.932c-21.36-.827-37.112 14.47-43.795 22.384 1.379-6.504 5.075-17.231 14.847-23.174 10.702-6.508 25.914-5.827 45.279 2.015-13.135 1.966-24.804 13.235-31.122 20.528-6.14 8.449-21.881 11.108-29.214 5.694 3.847-5.113 20.626-25.407 43.889-24.472.813.019 1.513-.608 1.546-1.429.031-.821-.608-1.514-1.43-1.546zm-12.542 23.702c4.719-5.447 12.551-13.238 21.582-17.228 1.874 9.327 2.409 22.515-5.394 31.052-4.904 1.081-9.529 2.917-13.733 5.399-10.849-5.997-23.63-6.542-31.891-3.684-.324-2.732-.894-5.491-1.59-8.15 9.396 4.856 23.996 1.473 31.026-7.389zm25.737-5.567c.084.097.176.188.285.262.084.057 4.887 3.227 11.639 3.24-2.727 4.367-4.589 9.458-4.725 15.281-4.028-.611-8.341-.661-12.394-.136 3.373-4.973 5.124-11.274 5.195-18.647zm63.942-19.341c-10.554-5.231-17.815-3.705-20.314-2.869-4.777-4.706-1.798-17.363-.174-22.019.307-.82-.246-1.794-1.108-1.949l-5.25-1.068c-.458-.096-.933.034-1.283.343-9.915 8.775-6.468 21.742-4.61 26.746-3.515.413-10.508 2.368-17.961 10.828-.049.051-5.037 5.077-12.476 6.916-.322.08-.591.268-.791.515-.094-3.351-.508-6.901-1.266-10.64-.015-.075-.034-.149-.052-.223 3.62-1.23 7.392-1.788 11.205-1.292 1.635.252 2.341-2.171.815-2.827-5.331-2.465-10.384-4.422-15.182-5.922-1.905-4.517-4.406-8.78-7.462-12.609-1.956-2.451-3.102-4.851-3.778-6.965 7.919-11.887 21.41-19.758 36.733-19.758 22.989 0 41.909 17.666 43.948 40.132-.349.88-.685 1.764-.994 2.661zm-117.116 1.458c.273 1.548.444 3.103.526 4.666-4.215 5.68-6.259 12.039-7.232 16.6-2.006-5.218-3.896-8.903-4.094-9.284-.364-.702-1.214-.996-1.934-.67l-12.127 5.492c-.938.392-1.172 1.734-.424 2.422.12.116 8.885 8.784 12.106 19.467-9.68-2.903-24.716-1.459-35.95 7.222-3.239 2.504-6.607 5.98-9.329 10.711-.397-3.857-1.575-7.472-3.399-10.582h.05c28.274-16.466 33.865-41.871 32.941-59.935-.505-11.764-3.411-21.962-5.684-28.305l7.407-1.306 5.324 11.282c.116.247.299.457.526.607.178.118 17.834 11.984 21.293 31.613zm-4.899 39.903c-1.624.329-3.297.298-4.885-.09-2.241-9.65-8.916-17.846-11.938-21.164l8.903-4.032c1.78 3.715 6.813 14.968 7.92 25.286zm-64.614-62.214c1.684-5.322 2.766-10.395 3.438-14.794.736.177 1.506.207 2.261.069l6.013-1.06.091 4.106c-.855 5.045-2.21 10.722-4.385 16.505-3.578 9.512-8.573 17.342-14.876 23.561-.623-.308-1.264-.583-1.921-.825 10.012-10.192 13.887-21.513 9.379-27.562zm25.647-18.242 6.321-1.115c2.22 6.12 5.206 16.305 5.703 27.904 1.155 25.274-9.773 44.558-31.674 57.359-1.039-1.351-2.208-2.576-3.504-3.634.97-2.128 1.716-4.417 2.146-6.859.642-3.638.561-7.215-.117-10.551 12.459-11.082 17.833-25.2 20.015-36.924 1.887-10.126 1.711-19.507 1.11-26.18zm-4.051 25.729c-2.664 14.218-8.683 25.635-17.913 34.221-1.635-4.884-4.627-9.04-8.567-11.79 7.463-7.545 12.18-16.284 15.123-24.136 3.05-8.139 4.543-15.969 5.281-22.238l7.159-1.262c.564 6.501.722 15.572-1.083 25.205zm-19.887 47.411c-.352 1.998-.939 3.88-1.701 5.639-1.996-1.186-4.2-2.033-6.572-2.451-5.485-.967-10.912.494-15.42 3.678 1.323-9.854-2.555-19.121-9.395-24.088 4.414-5.957 11.241-9.297 18.164-8.077 10.367 1.827 17.062 13.176 14.924 25.299zm-8.79 6.118c10.143 1.789 16.748 12.694 15.027 24.518-.831-.267-1.683-.486-2.562-.641-9.593-1.691-18.991 4.051-23.61 13.452-1.758-.98-3.672-1.691-5.711-2.093.909-7.224-.972-14.115-4.759-19.208 2.564-2.87 4.493-6.507 5.681-10.552 4.316-4.293 10.093-6.506 15.934-5.476zm-2.461 59.365c-8.271 2.555-15.111 10.35-16.896 20.478-.153.868-.265 1.735-.339 2.598-1.923.384-3.901.45-5.889.1-10.367-1.828-16.976-13.667-14.838-25.79s12.31-20.498 22.677-18.67c9.209 1.624 15.489 10.766 15.285 21.284zm-6.192-20.382c3.984-8.448 12.221-13.652 20.602-12.174 10.367 1.828 17.062 13.177 14.924 25.3-1.034 5.862-3.73 10.988-7.601 14.39-3.111-4.01-7.428-6.845-12.504-7.74-2.103-.371-4.196-.378-6.234-.076-.056-8.079-3.561-15.367-9.187-19.7zm20.917-117.655c-1.516.267-2.965-.748-3.236-2.262l-2.012-11.297c-.412-2.717 2.574-4.236 4.529-2.644 4.176 3.446 9.629 4.884 14.962 3.944l24.053-4.241c.937-.16 1.832.462 1.996 1.398l1.068 6.06c.165.936-.462 1.831-1.398 1.996zm13.726-15.19c-4.472.788-9.047-.418-12.55-3.308-3.899-3.471-10.46.362-9.355 5.462l2.012 11.297c.215 1.207.807 2.244 1.616 3.051-.585 4.163-1.539 9.007-3.058 14.108-3.337-2.048-8.257-2.177-13.84-.546-7.833-5.033-13.048-13.799-13.048-23.781 0-15.592 12.685-28.277 28.277-28.277 12.97 0 23.912 8.784 27.231 20.71zm-60.916 104.71c10.003 1.764 16.562 12.395 15.092 24.029-8.572-.338-16.661 5.053-20.899 13.451-2.979-3.234-6.829-5.505-11.265-6.287-1.674-.295-3.341-.357-4.979-.22-1.196-3.734-1.386-7.992-.626-12.302 2.137-12.124 12.31-20.499 22.677-18.671zm-25.609 18.153c-.817 4.633-.663 9.225.575 13.297-7.266 1.743-13.593 7.513-16.656 15.428-8.294-3.553-13.314-14.113-11.432-24.786 2.138-12.123 12.31-20.498 22.677-18.67 3.373.595 6.341 2.216 8.756 4.528-1.883 2.978-3.254 6.427-3.92 10.203zm-14.658 34.64c2.138-12.123 12.31-20.498 22.677-18.67 4.221.744 7.812 3.086 10.462 6.4-.563 1.547-1.003 3.172-1.301 4.863-1.333 7.559.401 15.008 4.223 20.535-2.82 1.778-5.326 4.201-7.315 7.136-3.143-4.427-7.678-7.576-13.07-8.53-4.891-.865-9.736.205-13.923 2.712-1.928-4.221-2.669-9.249-1.753-14.446zm66.745 43.051c2.727 1.645 6.012 2.639 9.249 2.653v3.748h-12.376c1.278-1.941 2.346-4.082 3.127-6.401zm29.399-37.723c4.51-3.841 7.674-9.657 8.853-16.344 2.024-11.477-3.077-22.358-11.795-26.864 1.988-7.439 8.952-14.401 11.275-16.196 7.12-5.503 16.28-7.942 24.243-7.942 4.176 0 8.023.671 11.072 1.923 3.141 1.146 6.6 1.146 9.74 0 .021-.008.042-.016.063-.024 8.731-3.639 24.286-2.381 35.207 6.023 6.833 5.259 14.28 15.178 13.836 33.161-15.42 8.12-30.021 15.44-43.33 19.898-22.361 7.474-41.441 10.025-57.634 9.418-.445-1.062-.956-2.082-1.53-3.053zm90.473-61.783c-.657-.506-1.331-.979-2.011-1.436 6.221-3.373 13.325-5.314 20.886-5.314 2.301 0 4.552.204 6.757.552.341 4.608 1.786 9.032 4.263 13.344 2.521 4.366 5.566 9.27 9.006 14.196-8.232 4.25-15.931 8.389-23.908 12.61-.011-18.169-7.808-28.423-14.993-33.952zm32.472 5.657c-2.125-3.681-3.408-7.5-3.813-11.352-.797-7.577 1.67-13.956 5.397-19.143 2.769-.495 5.743-1.591 8.778-3.633-1.357 4.593-1.885 11.156 2.494 17.601.686 1.08 2.467.723 2.688-.531 1.987-9.484 6.422-15.506 12.167-16.523 5.741-1.014 11.967 3.128 17.092 11.365.633 1.103 2.436.823 2.706-.421 1.91-7.554-.831-13.541-3.676-17.393 5.982 1.482 10.892.514 14.616-1.161 5.609 3.616 10.465 8.907 12.4 16.673 1.067 4.144.997 8.838.048 13.348-21.836 6.085-42.584 15.652-61.8 25.481-3.479-4.955-6.555-9.909-9.097-14.311zm79.764-59.855 27.95-31.285 8.743 31.274-26.215 30.456zm9.35 36.316 2.674 7.769c-3.77.6-7.512 1.329-11.226 2.167zm2.249-2.612 26.056-30.272 10.975 39.257c-11.39-1.037-22.611-.596-33.612.95zm68.863-110.057c7.457-5.264 13.625-6.829 17.566-7.196-15.812 10.835-29.571 35.442-39.034 56.246-3.808-2.095-7.847-3.788-12.067-5.055 12.597-25.129 24.648-37.721 33.535-43.995zm-38.771-35.963c2.784 2.817 6.502 7.979 8.831 16.803 2.743 10.396 3.885 27.506-2.37 54.309-1.412 2.575-2.807 5.253-4.186 8.036-1.398-.346-2.807-.663-4.238-.915-2.332-.412-4.667-.676-6.996-.822 7.066-22.971 14.859-56.25 8.959-77.411zm-2.48 81.164c6.629 1.169 12.88 3.432 18.592 6.615l-18.777 21.814-8.192-29.301c2.786.097 5.584.38 8.377.872zm-39.286-69.694c3.58 1.694 8.84 5.273 14.046 12.77 6.067 8.735 12.91 24.181 16.242 50.96-.213.706-.426 1.406-.638 2.093-4.1-.05-8.166.32-12.157 1.064-1.739-22.911-6.226-51.14-17.493-66.887zm24.592 68.935-25.627 28.685-5.782-16.801c.578-.442 1.166-.876 1.766-1.296 8.895-6.228 19.087-9.824 29.643-10.588zm-26.803-24.296c4.771 5.249 10.051 12.884 14.151 23.533-4.29 1.223-8.454 2.92-12.434 5.068-3.475-13.557-8.761-28.768-16.632-40.569 3.829 2.12 9.365 5.861 14.915 11.968zm-60.887-27.916c.608-21.735 15.8-24.026 20.45-24.21.572-.02 1.134.126 1.626.43 1.899 1.173 4.261 1.172 6.162 0 .493-.304 1.055-.452 1.626-.43 4.65.184 19.842 2.475 20.45 24.21-.182 1.3-1.034 9.76 5.918 18.472.642.804 1.248 1.635 1.844 2.474-8.568-7.634-15.879-10.074-16.241-10.191-1.349-.487-2.555 1.254-1.622 2.345 7.623 9.528 13.095 22.668 16.972 35.402-2.531-1.75-4.964-3.204-7.231-4.388-13.773-7.19-24.53-6.899-24.982-6.885-1.436.004-1.971 2.052-.722 2.759 9.631 5.865 18.598 15.259 26.218 25.049-5.803 5.187-10.516 11.354-13.978 18.215-4.245-21.653-23.344-38.046-46.222-38.046-2.811 0-5.56.261-8.236.735 1.564-10.006 5.734-19.566 12.049-27.467 6.954-8.714 6.101-17.173 5.919-18.474zm-26.288-22.479c11.4 7.124 18.826 18.592 22.047 32.018-.805 2.208-2.053 4.633-4.003 7.077-6.867 8.578-11.33 19.09-12.83 29.977-10.611 2.635-19.81 8.876-26.225 17.341-.172-1.834.043-3.328.041-3.425-.545-21.568-15.902-23.851-20.595-24.037-.956-.03-1.9.198-2.746.658v-25.364c0-.822-.666-1.488-1.488-1.488s-1.488.666-1.488 1.488v25.362c-.843-.46-1.777-.692-2.745-.658-4.693.186-20.051 2.469-20.595 24.038-.002.093.205 1.54.045 3.316-2.97-2.838-5.416-4.621-6.324-5.251l-2.054-4.353c8.874-5.518 14.802-15.343 14.802-26.54 0-12.236-7.077-22.836-17.346-27.963 21.437-25.93 53.61-38.424 81.504-22.196zm-67.135 50.159c0 10.008-5.243 18.792-13.111 23.816l-1.465-3.104.255-.045c2.552-.45 4.262-2.893 3.812-5.444l-1.068-6.06c-.45-2.551-2.891-4.259-5.444-3.812l-13.831 2.439c-2.86-10.654-11.205-19.084-21.825-22.03 4.912-8.385 14.001-14.038 24.4-14.038 15.592.001 28.277 12.686 28.277 28.278zm-31.743-53.862c6.284 6.488 9.748 14.813 10.198 23.346-2.17-.478-4.421-.738-6.732-.738-8.076 0-15.432 3.092-20.983 8.139-1.78-8.738-7.216-16.157-14.633-20.593 10.147-4.963 21.01-8.392 32.15-10.154zm-48.127 8.718c14.36 0 26.241 10.763 28.03 24.644-1.486 1.707-2.785 3.58-3.877 5.581-1.725-.296-3.494-.459-5.302-.459-12.498 0-23.3 7.377-28.297 18.002-3.836-1.321-8.201-1.911-12.394-1.571-4.015-4.882-6.438-11.12-6.438-17.92 0-15.592 12.686-28.277 28.278-28.277zm-77.887 51.097c0-15.592 12.685-28.277 28.277-28.277 7.032 0 13.462 2.589 18.412 6.854.281 6.319 2.428 12.158 5.93 16.962-12.795 2.393-22.848 12.614-25.031 25.481-1.124-.123-2.265-.191-3.421-.191-4.239 0-8.283.852-11.972 2.388-7.358-5.108-12.195-13.6-12.195-23.217zm-4.11 52.084c0-15.592 12.685-28.277 28.277-28.277 11.727 0 21.791 7.186 26.068 17.377-3.931 3.124-7.33 9.149-10.131 18.013-.303.958-.735 1.744-1.286 2.335-.12.129-.236.235-.349.327.931-12.819-.511-24.311-.62-25.151-.102-.784-.787-1.351-1.589-1.291l-18.016 1.374c-1.015.048-1.695 1.229-1.227 2.131.117.242 10.139 21.397 5.119 38.874-2.23.039-4.416.461-6.5 1.219-11.429-3.63-19.746-14.315-19.746-26.931zm6.755 47.599c2.138-12.123 12.31-20.498 22.677-18.67s17.062 13.177 14.924 25.3c-.253 1.437-.634 2.81-1.108 4.125-1.191 1.015-2.3 2.157-3.309 3.412-2.771-2.553-6.163-4.335-9.99-5.01-7.655-1.35-15.198 2.027-20.283 8.221-2.917-4.713-4.026-11.057-2.911-17.378zm-19.844 23.812c1.703-9.66 8.51-16.937 16.45-18.57.073 5.488 1.634 10.679 4.435 14.709-1.911 2.997-3.301 6.478-3.974 10.291-1.236 7.008.198 13.966 3.485 19.375-1.816.301-3.682.32-5.558-.011-10.365-1.828-16.975-13.671-14.838-25.794zm18.85 67.465c-10.367-1.828-17.062-13.177-14.924-25.3 1.02-5.786 3.672-10.817 7.457-14.217 3.461 1.244 7.387 1.378 10.888.522 2.192 2.707 4.929 4.831 8.059 6.132-.222.825-.411 1.669-.563 2.529-1.059 6.004-.147 11.832 2.19 16.684-4.163 3.29-7.428 8.106-9.046 13.841-1.338.1-2.696.049-4.061-.191zm21.255 28.983c-10.367-1.834-17.062-13.224-14.924-25.39s12.31-20.57 22.677-18.736 17.062 13.224 14.924 25.39-12.31 20.571-22.677 18.736zm9.432 2.085c4.671-1.64 8.844-4.955 11.839-9.425 3.141 4.386 7.652 7.515 13.024 8.462 7.349 1.296 14.595-1.764 19.66-7.493h53.327v12.898h-96.288c-.541-1.493-1.059-2.972-1.562-4.442zm97.851 7.419v25.532c-8.548-5.678-18.298-8.909-28.646-8.909-2.393 0-4.75.191-7.073.526v-17.149zm-38.695 0v17.67c-4.483.928-8.8 2.466-12.898 4.543v-22.213zm-56.49 0h40.615v23.812h-29.962c-4.182-7.989-7.708-16.024-10.653-23.812zm19.306 38.695c-2.533-3.923-4.864-7.905-7.046-11.906h23.826c-4.576 3.294-8.779 7.302-12.508 11.906zm37.59 59.564c-.789 26.471-22.567 47.76-49.225 47.76s-48.437-21.289-49.226-47.76zm-101.412 0c.793 28.11 23.889 50.737 52.187 50.737 28.297 0 51.394-22.627 52.187-50.737h5.678c-.791 31.233-26.444 56.396-57.865 56.396s-57.074-25.163-57.865-56.396zm52.187 67.191c-37.373 0-67.869-30.005-68.663-67.191h7.84c.795 32.872 27.763 59.373 60.823 59.373 33.059 0 60.027-26.501 60.823-59.373h7.84c-.795 37.186-31.291 67.191-68.663 67.191zm58.868 0c-8.409 0-16.402-2.269-23.623-6.328 21.716-12.325 36.41-35.647 36.41-62.351 0-.822-.666-1.488-1.488-1.488h-69.281c-.028-.917-.06-1.833-.06-2.758 0-40.211 26.038-72.925 58.043-72.925s58.043 32.714 58.043 72.925-26.039 72.925-58.044 72.925zm31.622-137.819v-53.414c4.243-.403 8.545-.968 12.898-1.683v68.163c-3.796-5.043-8.128-9.456-12.898-13.066zm106.164-43.506v12.898h-90.289v-12.898zm-90.289-2.977v-9.12c10.642-1.911 21.589-4.738 32.773-8.476.981-.329 1.963-.672 2.946-1.021v18.617zm38.695 0v-19.707c4.273-1.602 8.57-3.388 12.898-5.317v25.024zm160.734-44.648v12.898h-90.289v-12.898zm-90.288-2.977v-6.769c11.811-6.089 23.718-11.875 35.719-16.648v23.417zm38.695 0v-24.581c4.288-1.642 8.588-3.142 12.898-4.48v29.061zm15.875 0v-29.955c11.824-3.451 23.732-5.597 35.719-5.766v35.722h-35.719zm-17.626 129.99c-2.205-3.819-5.581-6.591-9.553-8.275 4.192-3.272 7.193-7.521 8.792-12.071 9.808-3.642 20.423-.873 25.05 7.142 5.271 9.129.801 21.613-9.964 27.828-4.293 2.479-8.939 3.564-13.315 3.42 2.321-5.995 2.171-12.534-1.01-18.044zm-71.601 10.594c10.765-6.215 23.811-3.845 29.082 5.285 2.256 3.907 2.704 8.427 1.661 12.808-1.078.46-2.145.985-3.191 1.589-4.035 2.33-7.272 5.46-9.585 8.986-5.902-1.026-12.499.038-18.463 3.481-1.04.6-2.022 1.257-2.955 1.955-2.68-1.467-4.947-3.563-6.514-6.277-5.27-9.128-.8-21.612 9.965-27.827zm-15.022 17.134c-1.65.254-3.289.705-4.892 1.322v-10.212h7.769c-1.552 2.829-2.539 5.853-2.877 8.89zm15.996 17.562c4.984-2.878 10.449-3.897 15.41-3.269-3.237 6.549-3.458 14.022.115 20.211 1.28 2.217 2.969 4.065 4.918 5.581-3.606 3.758-5.962 8.3-6.841 12.948-9.376 2.844-19.171-.032-23.566-7.643-5.271-9.129-.801-21.612 9.964-27.828zm18.103 15.454c-5.285-9.155-.816-21.667 9.963-27.89 10.778-6.224 23.848-3.838 29.135 5.317 4.274 7.402 2.161 16.992-4.499 23.685-7.244-4.111-17.187-4.07-25.802.904-1.54.889-2.965 1.895-4.267 2.993-1.809-1.337-3.368-2.996-4.53-5.009zm36.622-29.796c-5.738-4.389-13.848-5.699-21.689-3.425.58-3.758.188-7.559-1.297-11.054 7.514-4.372 12.268-11.5 13.361-18.791 4.34-.184 8.892-1.444 12.98-3.909 4.18 1.316 7.745 3.923 9.945 7.734 6.118 10.064-1.016 24.807-13.3 29.445zm16.073-54.728c.263-1.385.399-2.781.396-4.172 3.872-13.326 6.222-27.165 3.962-37.648-.173-.804-.964-1.313-1.768-1.141-.804.173-1.315.965-1.141 1.768 1.792 8.314.435 19.077-2.291 29.999-.385-1.043-.86-2.064-1.431-3.052-3.957-6.853-11.502-10.533-19.595-10.439.28-6.988 1.802-10.347 8.072-10.906 2.509-.074 4.697-1.596 5.576-3.879 4.783-12.418 13.18-20.725 19.115-18.911 5.932 1.812 8.246 13.383 5.269 26.342-.552 2.403.469 4.899 2.542 6.211 2.681 1.696 4.13 3.818 4.309 6.306.599 4.674-4.796 11.813-12.716 18.548-3.336-.337-6.842-.035-10.299.974zm1.58-58.767v-28.591h12.898v27.52c-.827-.619-1.732-1.089-2.714-1.389-3.209-.982-6.748-.025-10.184 2.46zm18.716 30.424c-1.008-.638-1.503-1.855-1.233-3.029.666-2.897 1.084-5.702 1.275-8.361h32.835v14.173c-3.014.66-6.182 1.656-9.423 3.028-1.108.47-2.393.193-3.197-.689-4.736-5.256-10.79-5.337-16.171-1.224-.959-1.471-2.327-2.785-4.086-3.898zm.16-14.367c.036-5.15-.85-9.607-2.548-12.898h35.265v12.898zm-3.001-15.875v-28.773h35.719v28.773zm-18.852-28.773v28.773h-35.719v-28.773zm-.581 31.75c-3.039 3.225-5.86 7.628-8.132 12.898h-27.005v-12.898zm-9.49 15.875c-.569.7-1.444 1.138-2.417 1.167-7.92.32-11.049 6.221-10.963 14.081-4.162.501-8.594 2.145-12.267 4.67v-19.917h25.647zm-22.391 21.381c10.661-6.155 23.673-3.646 29.007 5.593s1.001 21.763-9.659 27.918c-3.516 2.03-7.284 3.098-10.951 3.31.036-3.488-.788-6.932-2.586-10.046-3.643-6.309-10.44-9.854-17.927-10.172.933-6.466 5.448-12.753 12.116-16.603zm-6.233.82c-4.958 4.322-8.165 10.012-8.878 15.828-1.334.095-2.678.301-4.021.599v-103.54c4.286-2.277 8.585-4.548 12.898-6.792v93.905zm9.441 27.458c5.237 9.071.855 21.449-9.761 27.704-5.822-9.376-18.799-12.309-30.227-7.135-3.647-8.882.895-20.074 10.905-25.854 10.766-6.215 23.812-3.844 29.083 5.285zm-44.231 13.84h-16.804v-21.828h30.77c-.096.054-.193.101-.288.156-8.538 4.93-13.532 13.413-13.678 21.672zm18.915-39.687h-35.719v-23.812h35.719zm0-74.414h-24.48c8.004-3.984 16.147-8.302 24.48-12.731zm0 2.977v28.773h-35.719v-26.37c1.709-.784 3.421-1.581 5.14-2.404h30.579zm-38.695 47.625v23.812h-12.898v-23.812zm-15.875 0v23.812h-35.719v-23.812zm54.57 26.789v11.906h-90.289v-11.906zm-38.695 14.882v21.828h-12.898v-21.828zm-15.875 0v21.828h-26.849c-2.248-6.721-5.246-12.96-8.87-18.548v-3.28zm-25.912 24.805h61.753c.226 1.756.658 3.484 1.363 5.139-3.543 2.063-6.464 4.742-8.683 7.759h-51.642c-.631-4.443-1.568-8.755-2.791-12.898zm25.912 38.988c-8.258-.572-15.929-1.405-22.804-2.34.783-6.76.808-14.003.058-20.773h22.747v23.113zm2.976.191v-23.304h12.898v11.581c-4.6 2.466-8.821 6.676-11.476 11.809-.474-.028-.947-.057-1.422-.086zm9.849 29.555c-9.129-5.271-11.5-18.317-5.285-29.082 3.77-6.53 9.846-10.728 16.081-11.856.083 6.371 3.77 12.742 9.26 15.979-7.7 7.218-10.481 17.843-6.455 26.428-4.626 1.3-9.458.923-13.601-1.469zm35.677 26.803c-10.765 6.215-23.811 3.845-29.082-5.285-2.889-5.003-2.84-11.011-.443-16.445 2.966.313 6.011-.024 8.959-.96 5.173 7.606 15.234 10.634 25.048 8.12-.135 3.227.455 6.431 1.867 9.389-1.764 1.976-3.874 3.752-6.349 5.181zm38.725-.081c-10.765 6.215-23.811 3.845-29.082-5.285-5.271-9.129-.801-21.613 9.964-27.828s23.811-3.845 29.082 5.285.801 21.613-9.964 27.828zm27.472-16.856c-4.247 2.452-8.84 3.541-13.178 3.425 1.525-5.38 1.078-11.04-1.728-15.9-1.266-2.192-2.917-4.046-4.841-5.552 4.838-5.074 7.41-11.57 7.147-17.837 9.063-2.327 18.319.625 22.562 7.973 5.287 9.156.817 21.667-9.962 27.891zm13.753-26.861c-.342-.858-.74-1.7-1.212-2.518-4.861-8.42-15.291-11.941-25.499-9.48-.576-3.085-1.98-6.181-4.05-8.605.246-.611.517-1.216.823-1.811 5.042-2.671 9.084-6.822 11.514-11.337 4.194.327 8.634-.381 12.888-2.184 6.155.495 11.646 3.481 14.634 8.657 5.124 8.876 1.024 20.904-9.098 27.278zm19.201-24.466c-1.681.97-3.417 1.716-5.171 2.27-.369-2.284-1.131-4.508-2.33-6.584-2.804-4.857-7.484-8.062-12.904-9.429 8.455-5.379 13.124-14.328 12.555-22.764 7.401-.426 14.318 2.625 17.813 8.679 5.272 9.129.803 21.613-9.963 27.828zm19.347-51.086c-2.095 1.263-3.214 3.682-2.852 6.165.545 6.167-2.427 8.292-9.089 9.794-4.286-3.217-9.873-4.737-15.683-4.34-.924-4.42-3.669-8.623-7.292-11.271 12.097-5.971 24.829-10.556 34.933-10.169.832.028 1.512-.609 1.543-1.431.031-.821-.609-1.512-1.431-1.543-11.187-.419-25.114 4.749-38.044 11.274-1.438-.734-2.971-1.311-4.571-1.726 8.347-7.381 12.399-13.912 12.004-19.417-.048-.663-.179-1.303-.353-1.93 4.352-3.511 8.774-3.916 12.724.447 1.652 1.812 4.287 2.387 6.557 1.425 12.245-5.183 24.042-4.912 26.857.614 2.818 5.531-3.905 15.242-15.303 22.108zm-.313-29.046v-115.819c4.29.057 8.589.376 12.898.981v115.811c-3.36-1.376-7.824-1.718-12.898-.973zm16.804 3.562c-.287-.303-.598-.587-.929-.856v-16.324h9.002c-2.466 5.965-5.163 11.687-8.073 17.18zm9.27-20.156h-10.199v-12.898h14.852c-1.442 4.411-2.995 8.709-4.653 12.898zm5.6-15.875h-15.799v-28.773h22.987c-1.93 10.043-4.334 19.634-7.188 28.773zm7.757-31.75h-23.556v-12.898h25.593c-.601 4.373-1.273 8.679-2.037 12.898zm2.443-15.875h-25.999v-34.285c4.593.786 9.197 1.905 13.811 3.397 5.125 1.657 10.542.784 14.806-1.984-.391 11.385-1.273 22.343-2.618 32.872zm6.135-41.23c-3.076 6.495-10.558 9.725-17.408 7.51-49.549-16.021-97.32 9.367-143.53 33.926-20.127 10.697-39.137 20.8-57.648 27-22.417 7.493-43.852 11.292-63.711 11.292-.038 0-7.81.294-11.657.079 4.64-3.939 8.107-9.778 9.299-16.539.759-4.307.512-8.528-.55-12.363 17.57.437 36.787-2.793 57.502-9.717 16.251-5.444 34.242-15.006 53.29-25.129 46.641-24.79 104.69-55.64 165.763-35.921 3.974 1.283 7.201 4.21 8.852 8.031 1.638 3.79 1.565 8.102-.202 11.831zm2.239-33.664c-.419 2.375-1.074 5.155-1.931 8.237l-7.251-27.501 7.541-8.263c2.683 8.814 3.287 18.193 1.641 27.527zm-2.791-38.363c-1.862-3.679-4.138-7.272-6.726-10.528 7.739-3.566 14.701-5.343 20.392-6.116 8.18-1.11 14.823-.417 19.119.419-11.287 3.3-22.72 9.542-32.785 16.225z"/></g></svg>