<svg height="512" viewBox="0 0 72 72" width="512" xmlns="http://www.w3.org/2000/svg"><g id="Wedding"><circle cx="50" cy="11" fill="#3e4154" r="5"/><circle cx="50" cy="16" fill="#ed5f5f" r="6"/><circle cx="50" cy="24" fill="#3e4154" r="13"/><path d="m54 40h-8a12 12 0 0 0 -12 12v3a6 6 0 0 0 6 6h20a6 6 0 0 0 6-6v-3a12 12 0 0 0 -12-12z" fill="#f7f7f7"/><path d="m54 40h-8a12.041 12.041 0 0 0 -2.5.265v1.235a6.5 6.5 0 0 0 13 0v-1.235a12.041 12.041 0 0 0 -2.5-.265z" fill="#e0e2e2"/><path d="m45.5 37h9v4.5a4.5 4.5 0 0 1 -4.5 4.5 4.5 4.5 0 0 1 -4.5-4.5z" fill="#feb592"/><path d="m50 40.8a10.079 10.079 0 0 1 -10-10.156v-5.688a10.079 10.079 0 0 1 10-10.156 10.079 10.079 0 0 1 10 10.156v5.688a10.079 10.079 0 0 1 -10 10.156z" fill="#ffcca9"/><path d="m60.4 29.081-1.733-3.466a6.157 6.157 0 0 1 -5.2-3.467s-3.467 3.467-12.134 3.467l-1.733 3.466v-5.281a10.4 10.4 0 0 1 10.4-10.4 10.4 10.4 0 0 1 10.4 10.4z" fill="#3e4154"/><rect fill="#ffcca9" height="6" rx="3" width="6" x="58" y="27"/><rect fill="#ffcca9" height="6" rx="3" width="6" x="36" y="27"/><path d="m47.237 33.4a.805.805 0 0 0 -.684 1.223 4.126 4.126 0 0 0 7.044 0 .805.805 0 0 0 -.684-1.223z" fill="#ed5f5f"/><circle cx="54" cy="29" fill="#f7f7f7" r="2.5"/><path d="m55.167 29a1.166 1.166 0 0 1 -1.167-1.167 1.132 1.132 0 0 1 .167-.566 1.523 1.523 0 0 0 -.167-.017 1.75 1.75 0 1 0 1.75 1.75 1.548 1.548 0 0 0 -.017-.167 1.132 1.132 0 0 1 -.566.167z" fill="#3e4154"/><circle cx="46" cy="29" fill="#f7f7f7" r="2.5"/><path d="m47.167 29a1.166 1.166 0 0 1 -1.167-1.167 1.132 1.132 0 0 1 .167-.566 1.523 1.523 0 0 0 -.167-.017 1.75 1.75 0 1 0 1.75 1.75 1.548 1.548 0 0 0 -.017-.167 1.132 1.132 0 0 1 -.566.167z" fill="#3e4154"/><path d="m26 40h-8a12 12 0 0 0 -12 12v3a6 6 0 0 0 6 6h20a6 6 0 0 0 6-6v-3a12 12 0 0 0 -12-12z" fill="#3e4154"/><path d="m23 46.828 1.831 10.985a2 2 0 0 1 -.559 1.743l-.858.858a2 2 0 0 1 -2.828 0l-.858-.858a2 2 0 0 1 -.559-1.743l1.831-10.985z" fill="#ed5f5f"/><path d="m26 44-2.552 3.081a1.881 1.881 0 0 1 -2.9 0l-2.548-3.081z" fill="#ed5f5f"/><path d="m27 46h-10a2 2 0 0 1 -2-2 6 6 0 0 1 6-6h2a6 6 0 0 1 6 6 2 2 0 0 1 -2 2z" fill="#2e313f"/><path d="m17.5 37h9v4.5a4.5 4.5 0 0 1 -4.5 4.5 4.5 4.5 0 0 1 -4.5-4.5z" fill="#feb592"/><path d="m22 40.8a10.079 10.079 0 0 1 -10-10.156v-5.688a10.079 10.079 0 0 1 10-10.156 10.079 10.079 0 0 1 10 10.156v5.688a10.079 10.079 0 0 1 -10 10.156z" fill="#ffcca9"/><path d="m11.814 29.035 1.711-3.42a6.075 6.075 0 0 0 5.13-3.42s3.42 3.42 11.97 3.42l1.71 3.42s5.192-6.413.581-12.673c-4.536-6.158-14.2-6.94-17.681-2.718 0 0-6.138-.58-6.841 6.841-.644 6.809 3.42 8.55 3.42 8.55z" fill="#3e4154"/><rect fill="#ffcca9" height="6" rx="3" width="6" x="30" y="27"/><rect fill="#ffcca9" height="6" rx="3" width="6" x="8" y="27"/><path d="m19.237 33.4a.805.805 0 0 0 -.684 1.223 4.126 4.126 0 0 0 7.044 0 .805.805 0 0 0 -.684-1.223z" fill="#ed5f5f"/><circle cx="26" cy="29" fill="#f7f7f7" r="2.5"/><path d="m27.167 29a1.166 1.166 0 0 1 -1.167-1.167 1.132 1.132 0 0 1 .167-.566 1.523 1.523 0 0 0 -.167-.017 1.75 1.75 0 1 0 1.75 1.75 1.548 1.548 0 0 0 -.017-.167 1.132 1.132 0 0 1 -.566.167z" fill="#3e4154"/><circle cx="18" cy="29" fill="#f7f7f7" r="2.5"/><path d="m19.167 29a1.166 1.166 0 0 1 -1.167-1.167 1.132 1.132 0 0 1 .167-.566 1.523 1.523 0 0 0 -.167-.017 1.75 1.75 0 1 0 1.75 1.75 1.548 1.548 0 0 0 -.017-.167 1.132 1.132 0 0 1 -.566.167z" fill="#3e4154"/><path d="m36 43.354a7.614 7.614 0 0 0 -10.769 0 7.616 7.616 0 0 0 0 10.769l5.385 5.385 2.154 2.154a4.57 4.57 0 0 0 6.462 0l2.154-2.154 5.385-5.385a7.616 7.616 0 0 0 0-10.769 7.614 7.614 0 0 0 -10.771 0z" fill="#c43745"/><path d="m27.318 52.682a1 1 0 0 1 -.707-.293 5.505 5.505 0 0 1 0-7.778 1 1 0 0 1 1.414 1.414 3.5 3.5 0 0 0 0 4.95 1 1 0 0 1 -.707 1.707z" fill="#ed5f5f"/></g></svg>