<svg height="512" viewBox="0 0 512 512" width="512" xmlns="http://www.w3.org/2000/svg"><g id="Budha"><circle cx="254.54" cy="195.64" fill="#383333" r="110.43"/><path d="m166.05 227.08c-1-.86-6.34-5.34-13.58-4.39-1.06.14-5.27.69-8 3.53-7 7.34-2.91 29 10.19 33.92 7.33 2.72 14.74-.81 17.23-2.15q-2.89-15.45-5.84-30.91z" fill="#ffc871"/><path d="m143.72 230.66s-5.18 9.77 0 24.15 13.6 26.27 13.89 41.41 12.66 14.38 18.7 10.07 9.2-27 9.2-27l-16.68-48.6s-14.57-8.08-25.11-.03z" fill="#ffc871"/><path d="m343.47 227.08c1-.86 6.34-5.34 13.58-4.39 1.06.14 5.27.69 8 3.53 7 7.34 2.91 29-10.2 33.92-7.32 2.72-14.73-.81-17.23-2.15q2.92-15.45 5.85-30.91z" fill="#ffc871"/><path d="m365.8 230.66s5.18 9.77 0 24.15-13.6 26.27-13.89 41.41-12.66 14.38-18.7 10.07-9.2-27-9.2-27l16.68-48.6s14.57-8.08 25.11-.03z" fill="#ffc871"/><path d="m227.14 298.52s2.3 39.79-6.9 51.3-53 17.63-72.49 36.81-21.07 78.21-21.07 78.21 177.15 42.16 280.67-11.5c0 0-22.43-70.74-37.38-81.67s-71.89-13.8-81.67-29.33-11.45-48.22-11.45-48.22z" fill="#ffdb99"/><circle cx="253.7" cy="213.86" fill="#ffdb99" r="96.82"/><path d="m223.5 325.37-1.5 21.72s35 7.52 64.69-7.68v-15.58z" fill="#ffc871"/><path d="m158.88 234.74s8.79 100.95 92.9 103.44 94.13-82.86 98.1-108.43c0 0-88.34-79.97-191 4.99z" fill="#ffdb99"/><path d="m293.38 347.2s-57.57 64.82-122.2 93l-7.87 31.61s128.13 28.92 214.56-6.23a234 234 0 0 1 -25.17-100.8 207 207 0 0 0 -22.07-9.44c-12.3-4.61-27.13-9.01-37.25-8.14z" fill="#ff832f"/><path d="m205.56 248.27a17.08 17.08 0 0 1 -15.79-11.5 1 1 0 1 1 1.89-.67c2.34 6.6 8.83 10.84 15.43 10.08a14.72 14.72 0 0 0 12-10.07 1 1 0 0 1 1.9.65 16.73 16.73 0 0 1 -13.68 11.4 15 15 0 0 1 -1.75.11z"/><path d="m306.21 248.27a17.08 17.08 0 0 1 -15.79-11.5 1 1 0 0 1 1.89-.67c2.34 6.6 8.83 10.84 15.43 10.08a14.72 14.72 0 0 0 12-10.07 1 1 0 0 1 1.9.65 16.73 16.73 0 0 1 -13.64 11.4 15 15 0 0 1 -1.79.11z"/><path d="m257.19 269.7c-4.23 0-9.85-.49-10.85-3-1.32-3.32 4.77-17.1 6-19.83a1 1 0 1 1 1.82.83c-3.46 7.65-6.64 16.57-6 18.26.57 1.45 7.06 2 12.76 1.63a1 1 0 1 1 .14 2c-.83.04-2.25.11-3.87.11z"/><path d="m269.13 292.05h-30.13a1 1 0 0 1 0-2h30.1a1 1 0 0 1 0 2z"/><path d="m260.61 298.35h-13.81a.5.5 0 0 1 -.5-.5.51.51 0 0 1 .5-.5h13.81a.51.51 0 0 1 .5.5.5.5 0 0 1 -.5.5z"/><path d="m155.06 222.57s.52 25.61 7 30a.85.85 0 0 0 .61.19c5.23-.35-6.15-49.6 12.93-78.25 19.91-29.9 67.73-29.45 80-29.34 9.48.09 61.23.58 82.08 33.55 17.47 27.62 7.85 69.12 8.46 69.4 4.55 2.11 8.09-23.82 8.62-24.68a1.87 1.87 0 0 1 1.49-.86s2.87-62.26-23.58-86c-41.55-37.31-111.32-42.68-150.77-2.74-33.04 33.45-27.76 81.42-26.84 88.73z" fill="#383333"/><circle cx="253.7" cy="75.99" fill="#383333" r="42.99"/><g fill="#fff"><path d="m158.88 205.76a.46.46 0 0 1 -.29-.1c-.49-.35-12.05-8.67-8.51-18.69a7.43 7.43 0 0 1 4.71-4.86c-.18-.27-.36-.54-.52-.81-1.39-2.32-5.33-10.28 2.55-15.57a14 14 0 0 1 7.27-2.66c-1.38-6.35-.66-14.53 5.13-19.17a10.09 10.09 0 0 1 10.48-1.55 14.14 14.14 0 0 1 8.3-11.75 11.81 11.81 0 0 1 9.46-.42c5.64 2.32 8.26 8.76 8.37 9a.5.5 0 1 1 -.93.37c0-.07-2.58-6.33-7.82-8.48a10.81 10.81 0 0 0 -8.68.41 13.16 13.16 0 0 0 -7.75 11.26 13.18 13.18 0 0 1 1.48.86c3.56 2.34 6.07 6.15 5.48 8.31a2 2 0 0 1 -2.09 1.47c-2.46.11-4.65-2.23-5.53-6a15.6 15.6 0 0 1 -.38-4.06 9 9 0 0 0 -9.79 1.28c-5.44 4.36-6 12.38-4.7 18.42a8.19 8.19 0 0 1 4 1.34c2.09 1.4 3.34 3.73 3 5.54a2.25 2.25 0 0 1 -1.89 1.83c-1.57.3-3.26-1.22-4.61-4.17a21.6 21.6 0 0 1 -1.26-3.57 13.11 13.11 0 0 0 -7 2.49c-7.15 4.8-3.53 12.1-2.26 14.22.23.37.46.73.7 1.08a8.56 8.56 0 0 1 2-.11c3.2.2 6.48 2.05 6.88 3.88a1.73 1.73 0 0 1 -1 2c-2.16 1.16-5.77-1.32-8.29-4.61a6.28 6.28 0 0 0 -4.39 4.36c-3.28 9.31 8 17.47 8.15 17.55a.5.5 0 0 1 .12.69.5.5 0 0 1 -.39.22zm-2.37-23c2.46 3.08 5.39 4.63 6.72 3.93.65-.35.57-.72.54-.86-.25-1.11-2.86-2.89-6-3.09a9.45 9.45 0 0 0 -1.26.03zm8.88-18.65a19.45 19.45 0 0 0 1.11 3.11c1.11 2.42 2.46 3.8 3.51 3.6a1.26 1.26 0 0 0 1.1-1.06c.25-1.2-.64-3.22-2.55-4.5a7 7 0 0 0 -3.17-1.14zm15.23-20.24a13.71 13.71 0 0 0 .37 3.35c.76 3.24 2.52 5.27 4.5 5.19 1 0 1.13-.56 1.17-.73.42-1.52-1.7-5-5.06-7.22-.29-.18-.6-.38-.98-.58z"/><path d="m356.26 210.48a.42.42 0 0 1 -.22 0 .5.5 0 0 1 -.23-.67c3.16-6.41 3.28-11.72.33-14.93a8.13 8.13 0 0 0 -3.08-2.08c-1.74 1.71-4.05 3.14-5.41 2.58a1.54 1.54 0 0 1 -.9-1.58 2.36 2.36 0 0 1 1.69-2.16 7 7 0 0 1 4.33 0c2.74-2.92 4.9-7.5 3-12s-6.41-6.63-10-7h-.13c-1.05 2-2.27 3.55-3.38 4a1.78 1.78 0 0 1 -2.42-1.06 2.18 2.18 0 0 1 .08-2.36c.77-1.12 2.74-1.74 5.15-1.63 1.66-3.49 2.84-8.39 1.66-11.84-.73-2.17-3.21-3.72-6.8-4.26a18.08 18.08 0 0 0 -3.35-.19c-1.39 2.74-3.35 4.69-4.94 4.78a1.9 1.9 0 0 1 -1.86-1.18 2.12 2.12 0 0 1 .16-2.32c1-1.33 3.38-2.06 6-2.24.17-.37.33-.75.47-1.15.74-2 2.05-7-1.63-10.54-3.46-3.29-8.21-2.27-10.4-1.54-.56 3.33-2.24 6.24-4 7.29a2.52 2.52 0 0 1 -2.82.06 2.13 2.13 0 0 1 -1-2.09c.25-2.06 3.19-4.61 6.88-6a12.09 12.09 0 0 0 0-2.82 8.13 8.13 0 0 0 -5.8-7.19c-11.1-3.76-22.14 4.76-22.25 4.84a.5.5 0 1 1 -.62-.78c.12-.09 11.58-8.94 23.19-5a9.16 9.16 0 0 1 6.47 8 12.28 12.28 0 0 1 0 2.57c4.31-1.31 8.27-.63 10.95 1.92 4.11 3.91 2.69 9.42 1.88 11.61-.09.25-.19.51-.3.75a18.85 18.85 0 0 1 3 .21c4 .6 6.74 2.4 7.6 4.92 1.18 3.46.13 8.5-1.58 12.25a13 13 0 0 1 10.56 7.6c2 4.76-.11 9.56-2.93 12.73a8.75 8.75 0 0 1 3.09 2.17c1.88 2 4.35 6.85-.17 16a.5.5 0 0 1 -.27.33zm-5.82-18.23a4.62 4.62 0 0 0 -1.64.27 1.4 1.4 0 0 0 -1.05 1.23c0 .54.21.62.28.65.63.26 2.21-.42 3.92-2a7.36 7.36 0 0 0 -1.51-.15zm-5.82-19.68c-1.81 0-3.3.45-3.82 1.21a1.2 1.2 0 0 0 0 1.34c.38.78.79.73 1.14.58a7.24 7.24 0 0 0 2.68-3.13zm-9.16-17.19c-2.19.23-4 .87-4.65 1.78a1.14 1.14 0 0 0 -.08 1.29c.3.59.66.64.91.62 1.01-.07 2.57-1.48 3.82-3.69zm-12.13-13.87c-3.33 1.39-5.53 3.59-5.7 5a1.1 1.1 0 0 0 .57 1.13 1.53 1.53 0 0 0 1.74-.07c1.43-.9 2.81-3.29 3.39-6.06z"/><path d="m285.42 121.5a.5.5 0 0 1 -.43-.25.51.51 0 0 1 .19-.69c2.77-1.59 4.25-6.12 3.43-10.56-.48-2.64-2.57-8.94-11.32-10.29a10.43 10.43 0 0 0 -10.8 4.78 15.89 15.89 0 0 1 2.89 6.77c.52 3.34-.52 5.74-2.71 6.26a2.45 2.45 0 0 1 -2.67-1c-1.73-2.39-1.11-8 1.33-12a13.32 13.32 0 0 0 -10.75-4.72 10.58 10.58 0 0 0 -8.23 4.58 12.51 12.51 0 0 1 .89 1.52c1.68 3.43 1.43 7-.61 8.63a1.88 1.88 0 0 1 -2.31.38c-1.26-.8-1.63-3.55-.88-6.53a14.75 14.75 0 0 1 1.69-4c-2.44-3.15-7-5.64-13.37-4.15a14.1 14.1 0 0 0 -9.68 7.6 12.83 12.83 0 0 1 2.93 4c1.1 2.5.67 4.61-1.17 5.65a2.41 2.41 0 0 1 -2.71 0c-1.33-1-1.8-3.5-1.21-6.46a15.51 15.51 0 0 1 .94-3c-3.17-2.72-7.93-4.51-12.64-3a8.88 8.88 0 0 0 -5.58 4.6c-2.27 4.77.12 11.07.14 11.14a.5.5 0 0 1 -.93.36c-.11-.28-2.57-6.77-.12-11.92a9.8 9.8 0 0 1 6.18-5.13 14.1 14.1 0 0 1 13.4 3 15.09 15.09 0 0 1 10.22-7.88c6.71-1.57 11.5 1 14.19 4.25a11.53 11.53 0 0 1 8.78-4.73 13.15 13.15 0 0 1 11.35 4.91 11.32 11.32 0 0 1 11.6-4.94c9.38 1.45 11.62 8.25 12.15 11.1.89 4.83-.8 9.82-3.93 11.61a.45.45 0 0 1 -.25.11zm-63.78-12.72a14.46 14.46 0 0 0 -.74 2.45c-.5 2.51-.16 4.75.82 5.46a1.43 1.43 0 0 0 1.63-.1c1.93-1.09 1.17-3.42.75-4.37a11.52 11.52 0 0 0 -2.46-3.44zm44.36-3.46c-2.24 4-2.49 8.78-1.18 10.6a1.44 1.44 0 0 0 1.63.62c1.95-.46 2.29-3 1.95-5.13a14 14 0 0 0 -2.4-6.09zm-20.23-.07a13.35 13.35 0 0 0 -1.35 3.33c-.69 2.74-.31 5 .44 5.43.29.19.67.08 1.15-.3 1.68-1.36 1.82-4.41.35-7.42-.18-.29-.36-.69-.6-1.04z"/><path d="m221.3 72.88h-.25a2.49 2.49 0 0 1 -2.24-2.73c2.74-28.4 21.77-31.18 22.58-31.28a2.5 2.5 0 0 1 .66 5c-.68.09-15.92 2.56-18.27 26.81a2.49 2.49 0 0 1 -2.48 2.2z"/><path d="m156.87 162a2.45 2.45 0 0 1 -.83-.14 2.51 2.51 0 0 1 -1.53-3.19 121.45 121.45 0 0 1 13.57-25.67c12.24-17.79 27.52-29.65 44.21-34.27a2.5 2.5 0 0 1 1.33 4.81c-37.62 10.46-54.23 56.36-54.39 56.82a2.5 2.5 0 0 1 -2.36 1.64z"/><path d="m337.6 139a2.5 2.5 0 0 1 -2.3-1.54c-7-16.63-33.4-28.94-33.67-29.06a2.5 2.5 0 0 1 2.09-4.55c1.16.54 28.47 13.25 36.19 31.68a2.5 2.5 0 0 1 -1.34 3.27 2.55 2.55 0 0 1 -.97.2z"/><path d="m236.25 330h-.25c-10-1.13-20.65-6.08-31.61-14.72a102.86 102.86 0 0 1 -13.43-12.6 2.5 2.5 0 0 1 3.79-3.25c.2.23 20.07 23.15 41.81 25.6a2.5 2.5 0 0 1 -.28 5z"/><path d="m141.42 423.15a2.59 2.59 0 0 1 -.47 0 2.49 2.49 0 0 1 -2-2.92 77.92 77.92 0 0 1 6.74-18.86c6.69-13.14 16.19-21.81 27.45-25.06a2.5 2.5 0 1 1 1.39 4.8c-24.08 7-30.6 39.73-30.67 40.06a2.49 2.49 0 0 1 -2.44 1.98z"/><path d="m377.87 404.17a2.5 2.5 0 0 1 -2.4-1.79c0-.14-4.39-14.62-9.37-21.37-3.5-4.73-30.06-13.59-46-18.06a2.5 2.5 0 0 1 1.35-4.81c7.15 2 43.1 12.4 48.65 19.9s10 22.29 10.14 22.92a2.49 2.49 0 0 1 -1.68 3.1 2.56 2.56 0 0 1 -.69.11z"/><path d="m205.38 431.78a2.5 2.5 0 0 1 -.76-4.89c33.13-10.58 60.26-40.89 60.53-41.19a2.5 2.5 0 0 1 3.74 3.31c-1.14 1.29-28.29 31.64-62.75 42.65a2.51 2.51 0 0 1 -.76.12z"/><path d="m156.52 271.17a2.48 2.48 0 0 1 -2.21-1.33c-.38-.72-9.34-17.8-11.12-28.82-.8-5-.19-8.81 1.81-11.32a7 7 0 0 1 4.76-2.69l.32 5h.09a2.1 2.1 0 0 0 -1.33.92c-.58.79-1.44 2.78-.71 7.31 1.64 10.2 10.51 27.11 10.6 27.28a2.5 2.5 0 0 1 -1 3.37 2.43 2.43 0 0 1 -1.21.28z"/><path d="m359.62 260.09a2.41 2.41 0 0 1 -1-.21 2.49 2.49 0 0 1 -1.28-3.29c4.33-9.88 4.47-16.17 3.83-19.71s-2.23-5.07-2.3-5.13a2.48 2.48 0 0 1 -.34-3.5 2.52 2.52 0 0 1 3.53-.35c.4.33 9.71 8.22-.14 30.7a2.49 2.49 0 0 1 -2.3 1.49z"/><path d="m353.36 266.16c-4.42 0-3.76 6.83.63 6.83s3.76-6.83-.63-6.83z" fill-rule="evenodd"/><path d="m347.6 145.76c-4.41 0-3.75 6.84.64 6.84s3.76-6.84-.64-6.84z" fill-rule="evenodd"/><path d="m290.47 97.45c-4.41 0-3.76 6.83.64 6.83s3.76-6.83-.64-6.83z" fill-rule="evenodd"/><path d="m225.67 82.11c-4.41 0-3.75 6.84.64 6.84s3.76-6.84-.64-6.84z" fill-rule="evenodd"/><path d="m260.18 38.78c-4.41 0-3.76 6.84.64 6.84s3.76-6.84-.64-6.84z" fill-rule="evenodd"/><path d="m154.6 173.41-.39-.39a3.44 3.44 0 0 0 -4.83.39 3.52 3.52 0 0 0 .38 4.84l.39.38a3.45 3.45 0 0 0 4.84-.39 3.52 3.52 0 0 0 -.39-4.83z" fill-rule="evenodd"/><path d="m162.41 277.28c-4.41 0-3.76 6.83.63 6.83s3.76-6.83-.63-6.83z" fill-rule="evenodd"/><path d="m250.21 325.21c-4.41 0-3.76 6.83.64 6.83s3.76-6.83-.64-6.83z" fill-rule="evenodd"/><path d="m185 285.71c-4.41 0-3.76 6.84.64 6.84s3.78-6.84-.64-6.84z" fill-rule="evenodd"/><path d="m190 370.07c-4.42 0-3.76 6.83.63 6.83s3.78-6.83-.63-6.83z" fill-rule="evenodd"/><path d="m137.49 437.17c-4.42 0-3.76 6.83.63 6.83s3.76-6.83-.63-6.83z" fill-rule="evenodd"/><path d="m188.86 438.7c-4.41 0-3.75 6.84.64 6.84s3.76-6.84-.64-6.84z" fill-rule="evenodd"/><path d="m275.14 373.52c-4.42 0-3.76 6.83.63 6.83s3.76-6.83-.63-6.83z" fill-rule="evenodd"/><path d="m298.91 352.43c-4.41 0-3.76 6.84.63 6.84s3.76-6.84-.63-6.84z" fill-rule="evenodd"/><path d="m382.88 414.55c-4.41 0-3.76 6.83.64 6.83s3.75-6.83-.64-6.83z" fill-rule="evenodd"/></g><path d="m90.44 293.1a29.46 29.46 0 0 1 7.44 5 31 31 0 0 1 9 15.55 22.88 22.88 0 0 1 5.64-14.42 22.49 22.49 0 0 1 11-6.76 21.38 21.38 0 0 1 -10.14-4.29 22 22 0 0 1 -7.89-13.52 19.49 19.49 0 0 1 -3.38 10.59 19.87 19.87 0 0 1 -11.67 7.85z" fill="#ffb833"/><path d="m388.42 347.94a29.37 29.37 0 0 1 7.44 5 30.92 30.92 0 0 1 9 15.55 22.89 22.89 0 0 1 5.65-14.49 22.58 22.58 0 0 1 11.05-6.76 21.33 21.33 0 0 1 -10.15-4.24 22.07 22.07 0 0 1 -7.89-13.53 19.51 19.51 0 0 1 -3.38 10.6 19.94 19.94 0 0 1 -11.72 7.87z" fill="#ffb833"/><path d="m150.14 326.58s9.72 1 9.4 2.22-9.53 2.94-10 3.65-2.09 10.7-3.92 11-2.09-11-3.52-11.29-11.06-1.1-11-2.75 10.17-3.18 10.83-3.71 1.15-9.89 3-10.3 5.21 11.18 5.21 11.18z" fill="#ff1a26"/><path d="m382.66 303.2s9.72 1 9.39 2.22-9.52 2.93-10 3.65-2.08 10.7-3.91 11-2.09-11-3.53-11.29-11.05-1.1-11-2.75 10.18-3.19 10.83-3.71 1.16-9.89 3-10.31 5.22 11.19 5.22 11.19z" fill="#ff1a26"/><circle cx="252.29" cy="209.98" fill="#383333" r="9.04"/><ellipse cx="308.38" cy="263.06" fill="#ffc871" rx="12.32" ry="8.34"/><ellipse cx="200.54" cy="263.06" fill="#ffc871" rx="12.32" ry="8.34"/></g></svg>