<svg id="Wedding" height="512" viewBox="-70.866 -70.866 850.394 850.394" width="512" xmlns="http://www.w3.org/2000/svg"><g><path d="m27.007 715.594c22.906 19.617 58.852 25.859 88.941 17.703 26.461 7.094 49.809 5.176 74.957 4.773 142.871 4.086 154.793-77.969 113.367-183.371-16.75-49.484-44.727-95.383-82.773-135.172 167.516-59.762 104.551-155.969 157.141-70.168 22.445 30.047 58.7 53.684 107.993 70.465-52.523 48.477-153.872 237.762-76.438 292.973 25.294 18.004 59.345 26.758 104.11 26.758 22.262 0 47.16-2.215 76.109-6.785 10.227 2.848 21.074 4.363 31.582 4.363 67.613-.473 84.605-50.754 81.113-102.949 3.617-70.125 2.813-143.613-2.465-224.66-3.66-56.137-8.668-133.012-39.645-199.758-33.757-72.774-100.605-132.168-185.632-165.813-3.012-15.543-9.875-29.781-20.289-41.672-24.707-28.867-68.669-38.074-104.552-24.102-54.297-27.086-123.801 9.461-127.613 70.105-151.063 66.4-210.496 189.634-213.934 344.751-6.679 77.758-6.554 159.352-4.09 243.035-.593 25.285-1.41 59.926 22.118 79.524z" fill="#fff"/><g><path d="m51.507 686.191c17.441 14.535 44.352 15.531 64.988 6.602 20.227 9.973 52.965 7.289 73.902 7.012 21.746-.289 62.055-1.402 80.34-14.414 34-24.215 6.078-93.52-4.719-123.992-18.688-52.754-52.195-99.359-93.859-136.305 6.707-10.285 11.43-22.301 13.836-34.543 42.984-11.871 85.586-31.613 111.473-61.961 30.93-36.27 48.633-91.027 56.781-140.633 8.332 48.965 26.203 99.879 55.047 138.504 23.872 31.949 68.669 52.266 113.149 64.27 2.422 12.18 7.129 24.125 13.813 34.355-39.148 34.707-71.016 77.738-90.109 126.688-9.559 24.5-44.024 108.305-13.758 129.852 38.965 27.738 109.824 20.117 153.832 13.066 2.121-.344 4.035-.977 5.813-1.77 18.465 7.766 45.715 9.238 61.148-3.625 14.535-12.109 10.816-39.957 11.707-57.086 3.781-73.254 2.332-147.035-2.434-220.203-4.086-62.723-9.406-128.469-36.168-186.141-35.27-76.023-110.066-129.449-188.031-154.582 5.719-43.105-30.853-70.031-70.259-58.656-1.477.43-4.516 1.426-8.25 3.191-10.867 5.137-7.449 6.086-18.168.48-22.348-11.711-43.52-12.773-63.691 2.512-15.445 11.723-19.695 36.73-16.609 55.523-73.402 25.781-135.984 74.305-174.598 142.668-31.277 55.363-35.379 124.391-40.117 186.375-5.645 73.848-6.402 148.363-3.336 222.348.554 13.446-3.559 50.606 8.277 60.465z" fill="#68182b"/><path d="m234.589 541.043c10.441 20.75 17.383 43.004 23.004 65.461 3.113 12.426 4.906 25.188 6.375 37.883 2.605 22.484-14.898 26.191-32.469 29.969-24.301 5.219-49.664 5.035-74.332 3.637-21.289-1.199-35.188 2.281-37.77-25.867-1.344-14.703-2.07-29.465-2.742-44.211-2.207-48.305-.719-96.773 2.332-145.004.184-2.883.371-5.781.555-8.676 2.281.145 4.516.172 6.699.039.051 17.078 3.531 34.48 7.156 51.008 4.383 19.965 9.781 40.281 18.695 58.766 3.387 7.035 8.254 16.828 16.895 17.891 11.285 1.383 15.406-12.445 16.492-21.047 2.246-17.832-3.91-37.43-8.926-54.305-6.156-20.699-13.539-42.082-24.52-60.855 2.195-1.43 4.289-3.023 6.301-4.746 31.872 28.541 56.973 61.733 76.255 100.057z" fill="#e5e5e5"/><path d="m153.37 398.145c6.855-1.305 9.961-.539 6.473 6.996-6.082 13.168-16.18 24.215-29.516 27.25-8.352 1.898-9.301-.25-8.707-7.953.547-7.211 1.137-14.445 1.797-21.699 9.613-1.134 19.664-2.641 29.953-4.594z" fill="#00ebed"/><path d="m148.288 370.945c2.262-11.766 6.078-23.398 9.902-34.547 5.891-17.195 12.727-34.262 21.586-50.168 1.41-2.539 2.867-5.02 4.43-7.418 11.18-17.184 11.723-7.684 9.449 5.887-2.711 16.27-9.809 32.223-16.707 47.066-6.199 13.359-13.016 27.008-21.277 39.477-3.723 5.625-10.422 15.524-7.383-.297z" fill="#00ebed"/><path d="m159.975 496.203c5.598 16.535 10.977 33.883 12.816 51.32 2.398 22.609-3.555 24.402-11.359 6.703-7.094-16.117-11.641-33.539-15.465-50.68-3.078-13.77-6.043-28.105-6.855-42.379-.797-14.25.922-11.535 5.895-1.813 6.043 11.802 10.742 24.373 14.968 36.849z" fill="#00ebed"/><path d="m333.163 185.383c-7.438 41.641-22.75 83.457-44.105 118.863-21.938 36.352-72.477 57.816-119.898 69.168 6.73-10.863 12.641-22.281 18.02-33.75 8.148-17.371 16.805-36.184 19.242-55.406 1.074-8.457.852-21.363-7.125-26.73-8.715-5.859-16.953 2.395-21.969 9.039-11.75 15.582-19.406 34.574-26.336 52.668-7.449 19.453-14.641 40.098-16.887 60.969-2.867.422-5.734.844-8.496 1.191 4.406-39.035 11.375-77.926 24.258-114.082 22.238-62.434 77.293-99.688 137.66-119.516 13.516-4.445 14.57-3.832 21.469 2.047 4.137 3.527 8.906 7.254 13.93 10.422 8.858 5.597 12.647 11.597 10.237 25.117z" fill="#e5e5e5"/><path d="m580.621 674.348c-24.676 8.734-59.184 5.082-84.758 2.848-13.621-1.188-26.789-4.391-39.949-7.871-19.16-5.063-10.836-31.172-9.133-42.582 3.926-26.289 12.293-51.965 22.695-76.34 18.027-42.234 46.535-78.977 80.602-109.418 2.023 1.727 4.129 3.336 6.344 4.773-13.41 24.738-58.543 125.641-21.551 135.816 31.781 8.742 45.859-97.664 47.172-127.309 2.203.133 4.457.121 6.758-.031 3.598 47.387 4.582 94.961 3.359 142.461-.32 12.493 2.539 72.668-11.539 77.653z" fill="#e5e5e5"/><path d="m555.301 398.223c10.27 1.918 20.195 3.395 29.543 4.504.641 7.516 1.227 14.988 1.789 22.398.59 7.852-.582 8.852-7.609 7.477-13.797-2.723-24.223-13.988-30.453-27.469-3.634-7.852-2.52-8.637 6.73-6.91z" fill="#00ebed"/><path d="m532.164 333.27c-5.168-10.777-9.539-21.887-13.375-33.199-.336-.98-3.539-11.539-4.102-19.617-.91-13.012 4.68-10.359 11.035-1.508 9.762 13.578 15.895 34.219 20.918 47.414 5.313 13.961 10.328 28.648 13.281 43.5 2.707 13.719-1.352 10-6.77 1.746-8.011-12.18-14.714-25.254-20.987-38.336z" fill="#00ebed"/><path d="m569.367 457.953c-.844 31.797-8.938 67.98-22.645 96.867-5.219 11.008-14.215 10.422-11.414-3.641.32-4.383.902-8.719 1.754-13.023 1.738-10.121 4.625-20.055 7.512-29.895 5.121-17.469 11.523-34.898 20.066-51.074 2.235-4.21 5.043-11.16 4.727.766z" fill="#00ebed"/><path d="m422.362 113.285c4.207-7.078 7.731-14.375 10.462-21.598 72.051 23.273 133.234 69.648 170.695 135.961 26.703 47.262 31.18 105.797 35.879 158.695 5.094 57.316 6.465 115.008 6.25 172.527-.094 24.457-.727 48.914-1.852 73.34-.449 9.625-1.09 19.238-1.836 28.84-1.031 13.414-12.781 17.574-25.086 16.684-9.906-.719-8.684-4.652-7.758-14.785 3.051-33.313 4.449-66.629 4.691-100.074.699-95.621-3.27-201.559-32.305-293.605-22.887-72.559-82.934-117.527-152.063-140.828-11.604-3.915-12.753-5.61-7.077-15.157z" fill="#fff18a"/><path d="m557.015 263.258c14.844 36.625 21.645 77.492 25.84 118.145-2.805-.355-5.691-.777-8.582-1.207-3.266-26.281-12.559-52.352-23.152-76.465-4.84-11.008-19.73-53.004-38.246-47.914-32.953 9.063 4.867 81.758 27.016 117.707-44.973-10.781-92.156-30.637-116.485-63.207-25.715-34.441-41.629-83.02-48.84-127.586-2.617-16.16-1.488-20.863 8.766-27.527 17.57-11.43 17.699-13.73 33.117-8.906 61.285 19.163 115.508 55.175 140.566 116.96z" fill="#e5e5e5"/><path d="m340.221 39.645c9.109 5.781 15.082 2.551 25.879-4.008 32.781-16.348 54.266 10.656 49.598 40.914-2.168 14.074-11.188 27.363-19.867 38.207-9.234 11.535-32.387 34.738-49.227 32.383-20.563-2.871-37.715-24.797-48.559-39.016-26.449-34.641-17.413-106.055 42.176-68.48z" fill="#ff2e60"/><path d="m69.014 386.344c4.172-50.617 9.723-103.277 31.324-149.828 31.746-68.418 96.934-117.289 166.859-141.938 2.875 7.168 6.414 13.922 10.539 20.324 5.777 8.973 5.77 11.805-4.316 15.391-65.938 23.469-120.773 66.504-145.277 135.285-31.363 88.047-32.617 193.891-33.523 286.004-.297 29.902.801 59.789 2.82 89.617.68 10.051.461 23.398 4.18 34.355-13.727 3.539-33.461 3.98-34.738-9.527-.871-9.168-1.406-18.363-1.934-27.551-1.371-23.816-1.844-47.691-2.121-71.547-.692-60.23 1.23-120.558 6.187-180.585z" fill="#fff18a"/><path d="m429.44 128.441c69.13 23.301 129.177 68.27 152.063 140.828 29.035 92.047 33.004 197.984 32.305 293.605-.242 33.445-1.641 66.762-4.691 100.074-.918 10.035-2.09 13.977 7.5 14.754 8.801-32.328 4.371-70.953 4.957-102.398 1.004-54.422-.051-108.902-3.297-163.23-4.164-69.945-16.031-141.977-53.262-202.566-16.559-26.949-44.242-45.285-70.664-61.402-14.633-8.926-29.512-17.461-44.473-25.813-7.102-3.965-13.371-8.246-17.859-15.156-1.363-2.102-2.239-4.391-2.946-6.75-2.004 4.336-4.191 8.66-6.711 12.898-5.676 9.547-4.527 11.242 7.078 15.156z" fill="#f3af79"/><path d="m91.604 414c-4.078 50.563-5.441 101.188-5.188 151.914.191 36.934.488 74.711 7.027 111.227 2.828-.375 5.609-.926 8.176-1.586-3.719-10.957-3.5-24.305-4.18-34.355-2.02-29.828-3.117-59.715-2.82-89.617.906-92.113 2.16-197.957 33.523-286.004 24.504-68.781 79.34-111.816 145.277-135.285 10.086-3.586 10.094-6.418 4.316-15.391-2.609-4.055-4.895-8.305-7.02-12.664-5.918 17.727-23.422 25.055-40.023 35.07-18.992 11.449-36.328 25.391-52.359 40.664-31.293 29.809-54.18 64.766-67.262 105.977-13.275 41.835-15.959 86.589-19.467 130.05z" fill="#f3af79"/><path d="m490.238 116.535c37.125 28.195 71.859 59.23 96.875 99.293 22.852 36.617 32.246 79.582 38.91 121.672 15.832 99.965 17.375 202.652 17.172 304.164.184-3.148.453-6.293.602-9.453 1.125-24.426 1.758-48.883 1.852-73.34.215-57.52-1.156-115.211-6.25-172.527-4.699-52.898-9.176-111.434-35.879-158.695-27.012-47.825-66.415-85.211-113.282-111.114z" fill="#fff7cf"/><path d="m69.014 386.344c-4.957 60.027-6.879 120.355-6.188 180.586.059 5.313.195 10.629.289 15.945.086-3.105.199-6.219.277-9.328 2.559-97.184 3.855-196.199 29.156-290.711 18.852-70.414 68.77-127.297 128.559-167.945-51.43 27.367-96.16 68.594-120.77 121.625-21.6 46.55-27.151 99.211-31.323 149.828z" fill="#fff7cf"/><g fill="#c6c6c6"><path d="m529.316 262.855c10.566 11.594 18.516 33.387 21.805 40.875 10.594 24.113 19.887 50.184 23.152 76.465 2.047.305 4.066.578 6.082.855-1.02-14.68-5.926-29.391-9.953-43.387-6.137-21.323-17.152-63.214-41.086-74.808z"/><path d="m588.801 454.234c-2.301.152-4.555.164-6.758.031-.27 6.18-1.105 15.723-2.539 26.832 4.852 23.648 4.957 47.461 3.832 71.953-1.391 30.277 4.047 70.191-9.254 97.922-11.504 23.98-55.625 20.555-77.164 18.523-14.891-1.402-30.535-5.313-41.629-15.852-6.293-5.98-8.594-13.871-9.367-22.137-2.465 12.703-6.836 33.375 9.992 37.816 13.16 3.48 26.328 6.684 39.949 7.871 25.574 2.234 60.082 5.887 84.758-2.848 14.078-4.984 11.219-65.16 11.539-77.652 1.223-47.498.238-95.072-3.359-142.459z"/><path d="m129.428 380.859c1.563-.223 3.098-.426 4.676-.656 2.246-20.871 9.438-41.516 16.887-60.969 6.93-18.094 14.586-37.086 26.336-52.668 2.418-3.211 5.602-6.762 9.219-8.953-17.422 1.113-30.184 33.738-35.488 46.09-7.277 16.941-12.367 34.918-16.34 52.887-.872 3.941-4.618 15.187-5.29 24.269z"/><path d="m118.987 462.91c-3.051 48.23-4.539 96.699-2.332 145.004.672 14.746 1.398 29.508 2.742 44.211 2.582 28.148 16.48 24.668 37.77 25.867 24.668 1.398 50.031 1.582 74.332-3.637 17.57-3.777 35.074-7.484 32.469-29.969-.406-3.531-.855-7.07-1.336-10.605-1.289 3.602-2.77 7.074-4.254 10.258-8.324 17.871-29.453 20.848-46.664 22.598-21.309 2.152-55.727 6.16-72.945-9.383-11.547-10.422-9.266-36.156-9.57-50.398-.309-14.258-.566-28.516-.758-42.777-.316-23.074.969-45.875 2.863-68.742-2.758-13.496-5.023-27.371-5.063-41.063-2.184.133-4.418.105-6.699-.039-.184 2.894-.371 5.792-.555 8.675z"/><path d="m289.057 304.246c21.355-35.406 36.668-77.223 44.105-118.863 2.332-13.066-1.18-19.098-9.406-24.543 2.582 20.184-3.441 43.414-7.984 60.73-7.844 29.906-22.59 57.492-42.945 80.695-15.07 17.172-36.406 35.922-58.844 42.398-13.449 3.891-18.031-7.816-19.273-21.605-2.434 5.648-5 11.207-7.531 16.605-5.379 11.469-11.289 22.887-18.02 33.75 47.422-11.35 97.961-32.815 119.898-69.167z"/><path d="m383.331 155.203c-10.254 6.664-11.383 11.367-8.766 27.527 7.211 44.566 23.125 93.145 48.84 127.586 24.329 32.57 71.513 52.426 116.485 63.207-7.398-12.008-16.539-28.121-24.215-44.586-4.223 11.219-13.25 18.449-29.906 13.492-26.895-8.008-48.16-36.43-62.7-58.77-24.832-38.16-40.539-84.918-36.469-130.605-1.019.68-2.101 1.391-3.269 2.149z"/></g><path d="m266.499 175.836c-18.93 10.535-30.625 18.207-37.969 24.25-12.684 10.441-15.227 19.395-11.191 27.266 8.582 16.703 13.586 29.543 10.836 48.633-2.953 20.523.219 30.402 21.766 16.508 16.508-10.641 31.391-34.277 37.961-45.242 5.73-9.555 15.234-28.805 18.879-46.93 6.026-29.923-12.063-40.188-40.282-24.485z" fill="#f4f4f4"/><path d="m451.797 178.473c-33.606-21.555-48.255-15.906-41.267 17.141 6.406 30.387 17.594 60.59 35.993 84.953 15.66 20.777 33.398 18.391 27.277-11.352-.676-3.25-4.723-23.273 22.102-26.309 33.887-3.828-29.445-55.027-44.105-64.433z" fill="#f4f4f4"/><path d="m203.284 541.965c6.375 61.48-40.047 49.496-56.156 69.965-14.672 18.641 6.004 39.875 22.902 42.75 24.988 4.25 61.023-.93 67.012-30.207 3.043-14.91-4.121-32.027-8.281-45.988-4-13.434-8.59-25.961-14.434-38.004-12.387-25.563-12.125-8.977-11.043 1.484z" fill="#f4f4f4"/><path d="m553.89 618.398c-7.418-10.57-21.074-14.242-31.695-20.859-15.363-9.578-21.277-28.496-21.898-47.078-.508-15.32-2.555-20.328-10.762-5.234-13.219 24.297-24.867 51.316-23.289 78.113 1.523 25.934 29.871 32.625 51.199 32.223 11.707-.23 22.609-3.957 31.195-11.938 5.805-5.395 10.246-18.117 5.25-25.227z" fill="#f4f4f4"/><path d="m346.604 147.141c16.84 2.355 39.992-20.848 49.227-32.383 8.68-10.844 17.699-24.133 19.867-38.207 2.637-17.074-3.066-33.098-14.41-40.895 12.078 18.527 11.152 36.563-.492 57.004-10.543 18.504-29.953 37.18-52.102 39.129-21.934 1.934-41.773-23.664-51.703-40.156-8.898-14.773-11.605-31.035-9.133-47.191-7.754 17.383-3.652 45.559 10.188 63.684 10.843 14.218 27.996 36.144 48.558 39.015z" fill="#ea0f4d"/><path d="m387.557 60.191c-5.688-14.582-19.188-11.32-30.25-3.68-6.875 4.754-9.82 7.469-16.531 2.914-5.484-3.707-11.867-5.867-18.781-5.703-7.836.191-12.668 6.012-12.559 13.344.313 19.957 25 39.563 43.242 39.563 20.125.008 42.508-26.883 34.879-46.438z" fill="#f69"/><path d="m130.327 432.391c12.254-2.789 21.73-12.375 27.914-24.129-10.633 10.238-24.672 17.871-36.188 10.945-.141 1.738-.305 3.492-.434 5.23-.593 7.704.356 9.852 8.708 7.954z" fill="#19bfbb"/><path d="m546.64 326.359c-5.023-13.195-11.156-33.836-20.918-47.414-6.355-8.852-11.945-11.504-11.035 1.508.16 2.262.527 4.715.984 7.102 17.445 19.77 30.473 42.219 40.34 66.59-2.707-9.454-5.945-18.782-9.371-27.786z" fill="#19bfbb"/><path d="m569.367 457.953c.316-11.926-2.492-4.977-4.727-.766-.746 1.418-1.391 2.887-2.102 4.316.539 19.488-.844 38.629-4.852 58.066-2.598 12.617-7 24.477-11.555 36.258.188-.355.406-.621.59-1.008 13.708-28.885 21.802-65.069 22.646-96.866z" fill="#19bfbb"/><path d="m194.202 281.055c1.52-11.445.145-17.824-9.996-2.242-1.563 2.398-3.02 4.879-4.43 7.418-8.859 15.906-15.695 32.973-21.586 50.168-.938 2.73-1.867 5.484-2.781 8.266 4.16-8.641 8.688-17.031 13.031-24.996 7.336-13.446 15.543-27.001 25.762-38.614z" fill="#19bfbb"/><path d="m584.844 402.727c-9.348-1.109-19.273-2.586-29.543-4.504-1.004-.184-1.867-.328-2.684-.453 4.594 4.438 11.977 6.059 17.555 8.656 9.801 4.559 12.438 16.285 10.883 26.516 5.195.727 6.105-.801 5.578-7.816-.563-7.411-1.149-14.884-1.789-22.399z" fill="#19bfbb"/><path d="m166.885 563.875c-4.801-11.086-8.668-22.582-11.531-34.988-4.758-20.633-10.328-44.824-9.082-66.887-.43-.879-.824-1.773-1.266-2.645-4.973-9.723-6.691-12.438-5.895 1.813.813 14.273 3.777 28.609 6.855 42.379 3.824 17.141 8.371 34.563 15.465 50.68 1.974 4.468 3.826 7.691 5.454 9.648z" fill="#19bfbb"/><path d="m122.378 415.324c8.297-6.707 17.223-12.605 26.945-16.488-8.867 1.59-17.574 2.922-25.906 3.902-.383 4.207-.699 8.391-1.039 12.586z" fill="#6cfffb"/><path d="m577.836 432.266c-.195-.277-.395-.59-.586-.82-8.02-9.898-18.996-17.453-28.566-26.094 6.054 12.984 16.035 23.808 29.152 26.914z" fill="#6cfffb"/></g></g></svg>