<svg id="Wedding" height="512" viewBox="-70.866 -70.866 850.394 850.394" width="512" xmlns="http://www.w3.org/2000/svg"><g><path d="m694.392 252.748c-19.508-28.309-46.844-62.402-85.449-74.891-32.043-11.414-64.574 8.082-78.879 33.684-1.766-1.074-3.539-2.125-5.32-3.152-10.988-24.207-24.691-46.074-41.422-66.332 18.379-17.18 32.328-42.191 21.992-77.629-13.574-46.559-64.152-66.668-94.371-78.68-59.688-28.234-156.094-41.055-157.532 52.914-293.637 16.965-367.801 378.141-135.379 527.02 4.703 2.848 9.578 5.578 14.699 8.234 44.125 100.23 145.129 169.824 255.179 169.641 169.134 1.93 325.696-159.047 283.474-331.996 86.387-28.258 56.704-116.435 23.008-158.813zm-556.262 64.582c-.305-14.227 1.613-28.23 5.926-41.141 18.906-53.617 75.219-80.141 124.461-80.668 5.488 0 10.855.34 16.082 1.012-59.602 22.984-113.813 63.902-146.469 120.797zm125.586 131.738c-1.688-17.133 4.613-37.105 11.676-51.047 20.203-39.129 69.84-65.637 115.031-65.61 11.59 5.113-9.387 53.329-17.191 62.274-23.528 33.04-66.512 54.383-109.516 54.383zm241.239 71.586c-21.047 37.324-66.047 63.598-111.985 65.383-6.793.273-13.594-.098-20.332-1.039 53.97-21.703 101.903-58.523 133.849-105.191 4.477-6.535 8.637-13.297 12.477-20.25 1.108 20.394-2.88 41.375-14.009 61.097z" fill="#fff"/><g><path d="m662.877 274.458c-16.02-23.25-37.844-51.176-65.719-60.195-28.457-9.211-43.18 32.324-51.938 55.582-15.168-13.137-31.754-24.578-49.566-33.762-.281-.145-.551-.211-.828-.332-7.168-17.934-16.242-35.16-27.277-51.152-12.559-18.207-27.336-34.707-43.828-49.195 25.16-12.48 54.281-27.945 44.855-60.27-8.715-29.895-49.648-44.98-75.134-55.168-23.895-9.551-57.679-22.773-83.722-14.602-25.707 8.059-17.348 50.402-15.762 72.266-28.633-2.813-57.828-.445-85.902 6.141-93.48 21.93-173.379 94.449-186.832 192.059-13.637 98.997 30.164 204.86 116.613 257.114 7.945 4.805 16.203 9.047 24.641 12.906 27.008 69.867 82.664 126.121 159.629 149.719 105.516 32.359 226.098-19.023 284.098-110.578 40.91-64.578 41.406-141.23 14.773-208.301 23.375 1.277 50.969 2.398 64.219-19.57 15.465-25.642-8.406-62.462-22.32-82.662zm-517.466 143.794c-.512 5.293-.824 10.574-1.039 15.832-39.75-44.957-55.66-112.997-36.613-170.02 19.766-59.152 78.07-97.547 138.238-105.344 32.023-4.145 64.559.332 93.293 15.418 18.746 9.844 35.273 23.332 49.101 39.23-115.487 4.368-231.171 82.887-242.98 204.884zm105.227 68.566c-19.129-1.523-23.703-3.422-25.094-18.813-2.789-30.664 2.07-61.73 16.082-88 17.246-32.313 46.395-56.825 79.875-71.153 16.313-6.984 33.98-11.73 51.617-13.738 12.711-1.445 24.938-1.191 37.212.199 15.063 1.703 21.031 9.008 21.727 26.125 1.367 33.43-7.387 66.977-27.652 95.442-34.021 47.778-95.56 74.571-153.767 69.938zm287.653 52.637c-28.469 50.48-86.41 82.59-143.825 84.824-48.042 1.875-96.117-19.816-127.625-55.875 80.914-1.203 162.469-43.602 208.071-110.215 22.555-32.949 34.605-70.473 37.586-108.762 44.961 51.856 60.769 128.012 25.793 190.028z" fill="#68182b"/><path d="m665.677 323.388c1.207 3.965 2.07 7.984 2.48 12.031 2.805 27.836-38.813 20.465-55.73 19.735-.395-.016-.73.043-1.098.063-3.582-7.161-7.488-14.157-11.676-20.993 16.941-4.93 33.895-9.59 50.047-16.52 10.763-4.605 13.599-2.171 15.977 5.684z" fill="#ff7a0d"/><path d="m636.607 274.361c1.344 1.742 2.656 3.445 3.922 5.086 2.816 3.652 5.668 7.512 8.434 11.531 5.977 8.68 4.617 11.301-4.016 15.047-16.895 7.309-34.727 11.914-52.445 17.117-2.418-3.559-4.918-7.059-7.496-10.5 9.785-14.93 22.129-27.969 35.387-39.953 7.421-6.703 10.921-5.168 16.214 1.672z" fill="#ffc522"/><path d="m600.42 238.548c4.555 2.48 8.906 5.766 13.051 9.516 7.555 6.816 5.156 9.184-2.121 15.785-12.797 11.602-24.754 24.141-34.594 38.297-4.828-5.84-9.91-11.465-15.195-16.883 6.316-17.168 17.538-58.324 38.859-46.715z" fill="#ff7a0d"/><path d="m587.994 574.346c-49.223 84.867-160.898 125.863-254.133 102.594-109.906-27.434-169.938-131.23-168.758-239.949 1.254-114.961 104.422-191.739 210.859-201.625 22.773-2.113 32.313 4.203 38.97 18.063 3.508 7.313 6.492 14.836 8.965 22.5-14.625-2.41-29.188-3.711-44.212-2.531-18.43 1.445-36.714 5.133-54.136 11.363-33.617 12.02-64.313 32.469-86.398 60.719-47.324 60.52-44.758 150.083-4.938 214.063 31.047 49.891 86.219 81.863 144.695 85.625 62.954 4.055 128.642-27.453 166.208-77.656 57.34-76.625 35.945-185.449-32.02-247.907-.816-18.121-3.625-36.195-8.297-53.84 101.07 64.975 145.902 200.44 83.195 308.581z" fill="#fff18a"/><path d="m430.107 61.634c9.906 6.422 27.23 21.293 15.406 35.602-9.008 10.898-26.941 17.176-39.215 23.32-.219.109-.371.246-.574.363-7.872-5.734-16.106-10.949-24.63-15.711 17.153-13.664 33.939-27.628 49.013-43.574z" fill="#ff7a0d"/><path d="m357.477 43.943c1.34-12.504 6.191-12.039 16.719-8.582 11.051 3.625 21.836 7.984 32.259 13.082 10.875 5.32 9.578 9.715 2.176 16.703-12.591 11.887-26.024 22.828-39.646 33.645-4.344-2.113-8.754-4.113-13.234-5.957-.976-16.309-.016-32.641 1.726-48.891z" fill="#ffc522"/><path d="m322.001 24.134c7.91-.941 16.453.383 24.902 2.539-2.656 20.332-4.832 40.816-4.086 61.309-9.059-3.047-18.277-5.453-27.613-7.258-.851-12.18-7.968-54.844 6.797-56.59z" fill="#ff7a0d"/><path d="m40.2 316.021c-1.652-45.863 11.551-90.762 39.145-127.594 25.516-34.047 62.211-59.672 101.887-74.508 41.766-15.613 88.879-21.563 132.746-12.09 45.472 9.809 85.8 35.23 116.684 69.715 59.871 66.867 81.789 167.277 41.387 249.7-34.855 71.117-110.899 117.879-188.879 125.27-2.758.266-5.52.469-8.273.613-15.887.836-25.465-1.84-31.594-14.555-4.133-8.57-7.602-17.555-10.402-26.781 62.734 10.551 129.976-12.289 173.747-58.699 49.477-52.484 59.176-129.875 30.824-195.161-29.211-67.258-94.911-116.574-169.528-115.773-68.027.73-137.719 36.02-169.973 97.516-38.871 74.121-16.379 175.856 46.219 230.086.145.125.297.199.441.313.762 12.148 2.32 24.125 4.613 35.863 2.371 12.098 5.973 19.34-9.34 9.09-21.676-14.496-40.816-32.602-55.918-54.137-28.434-40.547-42.004-89.688-43.786-138.868z" fill="#e5e5e5"/><path d="m512.314 308.767c.316 3.609.617 7.223.781 10.836 37.488 34.453 60.766 83.02 64.516 132.497-.07-20.672-3.527-41.535-10.461-61.352-10.664-30.473-30.078-59.168-54.836-81.981z" fill="#f3af79"/><path d="m214.728 517.732c-19.223-57.453-13.27-124.051 24.422-172.254 22.086-28.25 52.781-48.699 86.398-60.719 17.422-6.23 35.707-9.918 54.136-11.363 15.023-1.18 29.587.121 44.212 2.531-1.629-5.055-3.57-10.02-5.648-14.93-6.059-1-12.148-1.77-18.306-2.016-69.832-2.773-137.703 31.16-174.011 91.137-30.797 50.876-32.719 113.45-11.203 167.614z" fill="#f3af79"/><path d="m333.861 676.939c93.235 23.27 204.911-17.727 254.133-102.594 20.953-36.129 29.84-75.313 28.695-113.902-.613 7.383-1.426 14.754-2.574 22.063-4.652 29.613-15.297 58.121-30.328 83.988-28.863 49.703-75.449 83.836-130.973 98.633-74.356 19.82-159.903 2.016-216.52-50.805-23.254-21.691-41.02-48.258-54.02-77.234 24.989 67 76.696 121.156 151.587 139.851z" fill="#f3af79"/><path d="m378.907 645.166c-53.796-3.461-104.742-30.844-136.738-74.043 23.563 40.379 62.41 69.102 112.566 77.637 74.758 12.715 159.938-20.625 199.641-86.348 10.09-16.703 16.148-34.836 18.535-53.445-5.188 20.613-14.277 40.48-27.797 58.543-37.565 50.203-103.253 81.711-166.207 77.656z" fill="#fff7cf"/><path d="m184.009 357.611c1.418-1.992 2.84-3.965 4.277-5.922 19.965-27.199 43.59-49.855 72.133-67.977 45.551-28.914 97.363-39.777 149.637-38.145-6.575-8.27-16.251-11.859-34.095-10.203-79.538 7.391-157.225 52.137-191.952 122.247z" fill="#fff7cf"/><path d="m40.2 316.021c1.781 49.18 15.352 98.321 43.785 138.868 15.102 21.535 34.242 39.641 55.918 54.137 15.313 10.25 11.711 3.008 9.34-9.09-.371-1.883-.594-3.816-.922-5.715-27.383-17.824-51.188-41.719-69.145-70.84-32.648-52.945-41.309-113.887-30.914-172.446-6.105 20.941-8.866 42.891-8.062 65.086z" fill="#c6c6c6"/><path d="m221.548 132.294c-73.512 15.094-130.707 72.219-140.438 147.137-.844 6.516-1.359 13.195-1.563 19.941 1.871-22.938 7.758-45.367 18.422-65.699 32.254-61.496 101.945-96.785 169.973-97.516 74.617-.801 140.317 48.516 169.528 115.773 16.836 38.77 20.137 81.785 9.773 121.344 20.613-53.004 1.703-122.02-28.879-165.704-20.591-29.422-50.669-54.086-83.86-67.922-35.909-14.971-75.268-15.092-112.956-7.354z" fill="#c6c6c6"/><path d="m482.631 351.771c-12.512 87.278-77.941 151.489-162.2 172.016-26.559 6.473-53.223 7.68-78.988 4.492.641 1.418 1.188 2.895 1.859 4.293 6.129 12.715 15.707 15.391 31.594 14.555 2.754-.145 5.516-.348 8.273-.613 77.98-7.391 154.024-54.152 188.879-125.27 37.785-77.083 21.051-169.887-30.254-236.286 33.251 48.067 49.622 105.493 40.837 166.813z" fill="#c6c6c6"/><path d="m291.064 111.974c54.715 6.004 104.007 31.176 144.461 67.898 2.836 2.57 5.598 5.211 8.305 7.902-4.184-5.578-8.516-11.035-13.168-16.23-30.884-34.484-71.212-59.906-116.684-69.715-43.867-9.473-90.98-3.523-132.746 12.09-39.676 14.836-76.371 40.461-101.887 74.508-.621.832-1.137 1.719-1.742 2.555 53.547-58.098 131.699-87.977 213.461-79.008z" fill="#f4f4f4"/><g fill="#ef6200"><path d="m319.857 65.416c-5.465-13.02-2.488-32.711 9.23-41.516-2.398-.074-4.773-.039-7.086.234-14.766 1.746-7.648 44.41-6.797 56.59 6.488 1.254 12.895 2.914 19.262 4.762-5.84-5.688-11.105-11.731-14.609-20.07z"/><path d="m601.494 337.373c3.48 5.84 6.797 11.77 9.836 17.844.367-.02.703-.078 1.098-.063 16.918.73 58.535 8.102 55.73-19.735 0 0 0 0 0-.004-13.008 19.814-46.977 14.032-66.664 1.958z"/><path d="m561.56 285.263c4.527 4.645 8.871 9.469 13.066 14.422-3.594-14.289-5.215-26.492 1.832-41.254 4.566-9.57 11.227-16.703 19.688-21.508-18.562-4.355-28.707 32.36-34.586 48.34z"/><path d="m445.513 97.236c7.395-8.949 3.387-18.117-3.074-25.297 6.652 22.715-21.027 38.086-45.36 43.094 2.91 1.922 5.828 3.832 8.646 5.887.203-.117.355-.254.574-.363 12.273-6.145 30.207-12.423 39.214-23.321z"/></g><path d="m650.904 325.619c-6.012.945-16.012 6.156-29.043 7.801-9.625 1.219-2.391 2.73.027 3.246 12.379 2.656 35.277 5.75 35.887-2.742.363-5.157-1.312-9.18-6.871-8.305z" fill="#ffb85a"/><path d="m597.705 248.076c-11.18-6.809-16.344 20.422-17.477 33.473-.477 5.484-.574 6.727 3.23 1.645 3.152-4.234 6.629-8.191 10.137-12.152 3.039-3.434 8.418-6.844 10.738-10.719 3.145-5.236-2.37-9.654-6.628-12.247z" fill="#ffb85a"/><path d="m334.54 32.533c-6.43.133-9.473 8.973-9.941 14.238-.672 7.512 3.098 15.93 7.723 22.855 6.555 9.793 5.539 5.898 5.375-2.098-.152-7.609.645-15.148.977-22.844.108-2.558.569-12.253-4.134-12.151z" fill="#ffb85a"/><path d="m425.748 75.63c-4.855 1.816-7.645 5.539-10.941 9.359-3.902 4.516-8.293 8.359-12.927 11.938-6.703 5.176-6.598 6.672 1.727 4.797 4.591-1.035 9.138-2.379 13.536-3.797 5.574-1.793 14.871-4.781 17.043-11.02 1.656-4.749-2.216-13.609-8.438-11.277z" fill="#ffb85a"/><path d="m408.631 65.146c7.402-6.988 8.699-11.383-2.176-16.703-3.876-1.895-7.845-3.582-11.813-5.273 7.691 6.453 15.474 14.457 5.117 24.656-5.863 5.777-13.039 10.406-19.766 15.105-3.723 2.605-7.445 5.176-11.836 6.512-6.961 2.113-10.488-3.32-12.789-9.121.02 4.168.133 8.344.383 12.512 4.48 1.844 8.891 3.844 13.234 5.957 13.621-10.817 27.055-21.758 39.646-33.645z" fill="#ffa222"/><path d="m647.498 288.974c-3.367 13.898-18.641 18.164-32.578 22.043-5.457 1.523-11.094 2.871-16.789 2.797-7.723-.098-7.051-6.414-5.09-12.313-2.824 3.602-5.523 7.305-8.035 11.141 2.578 3.441 5.078 6.941 7.496 10.5 17.719-5.203 35.551-9.809 52.445-17.117 8.633-3.746 9.992-6.367 4.016-15.047-.485-.699-.985-1.312-1.465-2.004z" fill="#ffa222"/><path d="m365.04 58.275c-1.223 16.047-.035 25.922 12.449 15.531 3.434-2.859 6.5-6.086 9.605-9.289 2.563-2.641 5.906-5.484 5.094-9.531-.652-3.285-6.813-7.035-13.082-8.551-8.015-1.945-13.012-1.906-14.066 11.84z" fill="#fbe134"/><path d="m615.06 285.861c-4.023 3.824-7.871 8.047-9.164 9.504-7.633 8.586-3.539 10.762 2.051 9.695 4.113-.793 8.035-2.25 12.031-3.445 5.18-1.547 10.883-2.996 14.641-7.145 2.801-3.102 1.074-8.211-2.078-11.754-5.09-5.711-9.77-4.187-17.481 3.145z" fill="#fbe134"/></g></g></svg>