<?xml version="1.0" encoding="iso-8859-1"?>
<!-- Generator: Adobe Illustrator 27.7.0, SVG Export Plug-In . SVG Version: 6.00 Build 0)  -->
<svg xmlns="http://www.w3.org/2000/svg" xmlns:xlink="http://www.w3.org/1999/xlink" version="1.1" id="Layer_1" x="0px" y="0px" viewBox="0 0 512 512" style="enable-background:new 0 0 512 512;" xml:space="preserve">
<g>
	<g>
		<path style="fill:#0095FF;" d="M466.964,36.661c-5.073-5.338-12.261-10.404-20.649-14.971c-0.852-0.464-3.356,0.891-4.231,0.438    c-0.822-0.426-0.014-2.66-0.856-3.076c-38.123-18.844-95.275-27.558-97.662-7.96c-1.08,8.87,3.903,13.789,11.903,16.944    c0.778,0.307,1.931-0.78,2.764-0.504c0.77,0.255,1.216,1.874,2.028,2.105c22.422,6.386,59.958,4.399,65.899,27.556    c1.494,5.822,2.131,13.726,2.043,22.908l-25.879-5.362l-3.006,1.007l-1.889-2.021l-60.333-12.501    c-4.057-0.839-8.025,1.766-8.866,5.822c-0.84,4.056,1.767,8.025,5.822,8.865l93.444,19.362c-0.76,9.634-2.104,20.032-3.935,30.557    c-0.6-0.312-1.248-0.554-1.943-0.698l-22.801-4.725l-2.774,1.423l-4.094-2.847l-29.485-6.109L359.51,114l-4.296-2.628    l-27.336-5.664c-4.059-0.84-8.025,1.766-8.866,5.822c-0.84,4.056,1.767,8.025,5.822,8.865l39.716,8.229l2.555-0.475l3.027,1.632    l48.442,10.037c0.513,0.106,1.025,0.158,1.529,0.158c0.243,0,0.485-0.015,0.724-0.038c-2.203,10.309-4.831,20.457-7.794,29.842    c-0.208-0.062-0.417-0.12-0.634-0.165l-41.457-8.59l-2.944,2.272l-1.8-3.256l-47.538-9.85c-4.053-0.84-8.024,1.766-8.866,5.822    c-0.84,4.056,1.767,8.025,5.823,8.865l47.346,9.81l2.802-2.137l1.93,3.117l40.336,8.358    c-6.842,17.456-14.908,30.202-23.366,32.755c-22.682,6.845-72.906-20.322-81.876-6.446c-0.522,0.807,0.237,1.759,0.008,2.859    c-0.138,0.662-1.376,1.313-1.433,1.963c-1.046,11.792,10.834,21.562,25.886,29.128c0.879,0.442,2.171-1.203,3.069-0.777    c0.811,0.385,1.227,2.843,2.051,3.216c5.847,2.645,11.987,4.98,17.908,6.993c1.142,0.388,1.43-1.127,2.552-0.763    c1.371,0.445,3.57,2.764,4.899,3.174c14.54,4.478,26.178,6.798,26.178,6.798s-0.68,3.004-1.817,8.347    c-0.199,0.936,1.051,2.988,0.825,4.064c-0.16,0.764-1.791,0.52-1.964,1.351c-2.179,10.469-5.314,26.186-8.549,44.591    c-0.161,0.917,3.1,1.511,2.939,2.441c-0.124,0.715-3.672,1.764-3.796,2.487c-2.149,12.491-4.309,26.062-6.231,39.971    c-0.122,0.883,1.508,2.188,1.388,3.073c-0.105,0.773-1.96,1.126-2.063,1.901c-1.668,12.534-3.121,25.269-4.178,37.667    c-0.079,0.926,1.975,1.297,1.901,2.219c-0.074,0.922-2.277,2.395-2.347,3.312c-3.506,46.076-1.073,86.305,16.775,92.426    c0.906,0.311,2.075-2.168,3.062-2.036c0.676,0.09,1.123,2.85,1.788,2.878c9.978,0.422,18.734-6.048,26.481-17.408    c0.48-0.704,0.109-2.899,0.582-3.64c0.495-0.776,1.832-0.099,2.319-0.915c5.469-9.171,10.416-20.81,14.923-34.139    c0.296-0.876-1.598-1.949-1.306-2.839c0.307-0.936,2.801-1.688,3.104-2.639c2.934-9.203,5.677-19.114,8.253-29.5    c0.443-1.788,0.018-5.493,0.451-7.307c0.401-1.677,1.662-1.463,2.055-3.161c6.133-26.522,11.288-55.506,15.847-83.391    c0.169-1.036-1.559-3.479-1.391-4.512c0.154-0.946,2.203-0.483,2.356-1.426c2.247-13.911,4.35-27.48,6.357-40.259    c0.164-1.047-1.302-2.023-1.139-3.059c0.165-1.048,1.96-2.156,2.124-3.192c1.436-9.08,2.825-17.704,4.187-25.699    c0.132-0.772-0.548-2.327-0.417-3.087c0.178-1.035,1.167-1.271,1.344-2.283c0.957-5.46,1.903-10.585,2.843-15.312    c1.246-6.265,2.442-12.477,3.576-18.622c0.227-1.229-0.517-2.326-0.296-3.549c0.298-1.644,1.561-3.413,1.849-5.047    c1.767-9.996,3.354-19.792,4.711-29.32c0.178-1.252-0.539-3.156-0.369-4.399c0.153-1.116,1.194-1.572,1.34-2.681    c1.226-9.293,2.213-18.308,2.914-26.98c0.093-1.155-0.827-2.791-0.744-3.934c0.078-1.076,1.16-1.659,1.229-2.724    c0.91-14.072,0.998-27.157,0.04-38.96c-0.062-0.771-1.495-1.238-1.567-1.997c-0.095-1.009,1.168-2.306,1.057-3.295    c-1.889-16.832-6.127-30.778-13.427-40.891c-0.522-0.724-2.162-0.258-2.716-0.942c-0.502-0.62,0.084-2.394-0.444-2.981    C467.503,37.236,467.235,36.946,466.964,36.661z"/>
		<g>
			<path style="fill:#FFB7F7;" d="M410.184,401.465c-5.42-9.02-18.22-9.7-27.519-5.76c-4.47,1.89-8.5,4.56-12.39,7.14     c-3.3,2.19-6.44,4.27-9.81,5.9c-0.16,1.9-0.31,3.78-0.45,5.66c0.4-0.15,0.79-0.31,1.19-0.49c4.25-1.87,8.1-4.43,11.83-6.9     c3.88-2.57,7.54-4.99,11.58-6.71c7.46-3.16,17.46-2.63,21.289,3.74c3.53,5.88,0.39,14.06-4.29,19.56     c-2.09,2.46-4.45,4.65-6.94,6.98c-3.57,3.32-7.26,6.75-10.07,10.99c-7.56,11.4-6.99,25.249-6.44,38.639     c0.37,8.99,0.75,18.22-1.43,26.539c0.92,0.33,1.88,0.56,2.89,0.69c0.69,0.09,1.38,0.15,2.06,0.18     c2.24-8.87,1.85-18.359,1.47-27.609c-0.53-13.18-1.04-25.62,5.62-35.669c2.49-3.75,5.8-6.84,9.3-10.1     c2.49-2.32,5.07-4.72,7.35-7.4C410.834,420.484,415.334,410.024,410.184,401.465z"/>
			<path style="fill:#FFB7F7;" d="M425.944,451.504c0.61-1.8,1.21-3.63,1.8-5.49c-9.95,1.85-18.64,6.34-23.27,12.99     c-3.68,5.28-7.41,15.81,3.63,31.219c0.99-1.44,1.95-2.96,2.91-4.55c-6.1-9.2-6.96-17.31-2.44-23.81     C412.044,456.884,418.424,453.334,425.944,451.504z"/>
			<path style="fill:#FFB7F7;" d="M446.144,310.287c-6.32-3.19-15.72-4.77-23.13,0.35c-5.79,4-9.13,11.74-8.74,20.19     c0.34,7.3,3.16,14.27,5.64,20.41l0.36,0.88c5.85,14.47,10.9,26.969,12.2,42.329c0.11,1.28,0.2,2.56,0.29,3.84     c0.45,6.28,0.91,12.66,3.22,18.28c0.86-3.44,1.69-6.94,2.51-10.49c-0.34-2.59-0.54-5.32-0.74-8.14c-0.1-1.3-0.19-2.61-0.3-3.91     c-1.36-16.12-6.54-28.939-12.55-43.779l-0.35-0.88c-2.45-6.06-4.98-12.32-5.29-18.78c-0.24-5.28,1.36-12.21,6.59-15.83     c2.31-1.6,5.24-2.4,8.38-2.4c3.14,0,6.49,0.8,9.66,2.4c3.9,1.97,7.33,4.88,10.45,7.98c0.32-2,0.64-3.99,0.97-5.98     C452.574,314.276,449.554,312.016,446.144,310.287z"/>
			<path style="fill:#FFB7F7;" d="M332.116,242.058c-0.29-8.26-0.58-16.8-10.75-24.51c-4.93-3.74-11.74-6.57-18.54-7.25     c-0.55,0.82-0.94,1.77-1.17,2.89c-0.14,0.68-0.24,1.35-0.29,2.01c6.05,0.38,12.41,2.87,16.98,6.34     c8.27,6.27,8.49,12.64,8.78,20.689c0.02,0.66,0.05,1.34,0.07,2.03c1.68,0.85,3.4,1.66,5.15,2.45     C332.226,245.138,332.176,243.588,332.116,242.058z"/>
			<path style="fill:#FFB7F7;" d="M389.795,330.296c-4.68-4.66-10.99-7.8-17.39-9.05c-0.29,1.63-0.57,3.28-0.86,4.94     c5.42,1.08,10.81,3.75,14.72,7.65c3.53,3.51,8.7,11.01,3.74,21.77c-3.3,7.13-11.08,11.91-18.94,11.65     c-1.96-0.07-3.89-0.46-5.75-1.14c-0.23,1.68-0.46,3.37-0.68,5.06c2.02,0.63,4.12,1.01,6.26,1.08c0.27,0.01,0.53,0.01,0.8,0.01     c9.53,0,18.84-5.9,22.85-14.57C399.095,347.826,397.365,337.846,389.795,330.296z"/>
			<path style="fill:#FFB7F7;" d="M464.313,237.118c-24.72-13.84-53.769-19.15-81.798-14.95c-6.63,0.99-15.14,2.77-22.24,7.74     c-8.16,5.73-12.09,12.83-11.05,19.99c0.19,1.31,0.54,2.59,1.05,3.82c2.56,0.87,5.07,1.68,7.51,2.43     c-1.98-2.1-3.24-4.48-3.61-6.97c-0.75-5.2,2.43-10.59,8.98-15.18c6.23-4.37,14.02-5.97,20.1-6.89c6.02-0.9,12.08-1.34,18.14-1.34     c21.06,0,42.029,5.38,60.479,15.71c1.68,0.94,3.38,1.94,4.97,3.07c0.31-1.83,0.62-3.63,0.93-5.39     C466.633,238.438,465.473,237.758,464.313,237.118z M431.364,287.647c-4.55,2.53-9.7,5.4-15.01,5.63     c-10.26,0.44-18.38-7.31-26.979-15.52c-2.37-2.26-4.77-4.54-7.25-6.67c-0.35,1.65-0.75,3.54-1.18,5.63     c1.68,1.52,3.33,3.09,4.97,4.66c8.73,8.32,17.74,16.92,29.599,16.92c0.35,0,0.7-0.01,1.06-0.03c6.49-0.27,12.19-3.45,17.22-6.25     l27.879-15.52c0.33-2.12,0.66-4.21,0.98-6.28L431.364,287.647z"/>
			<path style="fill:#FFB7F7;" d="M397.435,73.721c-0.87,3.15-2.55,6.47-4.29,9.88c-0.69,1.36-1.39,2.74-2.04,4.13l5.03,1.04     c0.47-0.95,0.96-1.92,1.46-2.9c1.8-3.54,3.72-7.31,4.74-11.13L397.435,73.721z M467.733,37.502c-1.75,2.03-3.72,3.87-5.81,5.82     c-3.1,2.89-6.3,5.87-8.76,9.58c-6.61,9.96-6.11,22-5.64,33.649c0.43,10.3,0.82,20.03-3.23,28.459     c-6.04,12.54-22.57,18.76-35.379,13.29c-4.03-1.72-7.48-4.5-10.16-7.91l-6.85-1.41c3.39,6.1,8.59,11.17,15.04,13.92     c3.76,1.6,7.79,2.36,11.83,2.36c12.26,0,24.65-6.93,30.019-18.09c4.6-9.55,4.16-20.369,3.73-30.829     c-0.47-11.35-0.9-22.07,4.81-30.679c2.13-3.21,4.98-5.87,8-8.68c1.87-1.75,3.81-3.55,5.59-5.52     C469.923,40.072,468.863,38.752,467.733,37.502z M441.194,19.042c-0.12,0.08-0.23,0.15-0.35,0.23c-3.21,2.12-6.24,4.13-9.55,5.59     c-9.77,4.32-21.17-1.04-32.189-6.23c-14.42-6.79-29.329-13.81-40.229,1.48c-1.66,2.33-2.81,5.03-3.41,7.92     c1.49,0.59,3.09,1.12,4.78,1.6c0.42-2.43,1.33-4.7,2.7-6.62c3.62-5.07,7.85-6.97,12.58-6.97c6.35,0,13.59,3.41,21.45,7.11     c12.04,5.67,24.48,11.53,36.339,6.29c3.7-1.64,7.05-3.86,10.29-6c0.91-0.6,1.8-1.19,2.68-1.76     C444.634,20.782,442.934,19.892,441.194,19.042z"/>
			<path style="fill:#FFB7F7;" d="M476.053,94.851c2.04-2.93,5.1-5.37,8.8-7.24c-0.14-1.79-0.31-3.55-0.5-5.28     c-5.23,2.34-9.57,5.6-12.4,9.66c-4.29,6.16-8.64,19.439,10.39,39.289c0.63,0.65,1.29,1.32,1.99,1.99     c0.18-2.25,0.35-4.47,0.49-6.67C473.303,114.12,470.263,103.161,476.053,94.851z"/>
			<path style="fill:#FFB7F7;" d="M479.073,158.1c-9.09-7.23-25.02-7.58-38.529,8.7c-13.35,16.1-11.01,33.139-1.8,41.649     c3.71,3.42,8.77,5.55,14.57,5.55c6.33,0,13.56-2.55,20.87-8.74c0.54-2.91,1.06-5.8,1.57-8.68c-0.72,0.94-1.51,1.82-2.34,2.63     c-13.41,13.04-25.229,11.15-31.269,5.56c-7.48-6.91-9.11-21.08,2.25-34.779c6.94-8.37,14.34-11.71,20.75-11.71     c4.15,0,7.88,1.4,10.82,3.73c1.8,1.43,3.32,3.22,4.49,5.31c0.34-2.37,0.66-4.73,0.97-7.07     C480.683,159.47,479.903,158.76,479.073,158.1z"/>
			<path style="fill:#FFB7F7;" d="M366.085,160.02c-0.79,4.66-1.88,9.71-3.27,14.64l4.87,1.01c1.4-4.96,2.49-9.99,3.28-14.64     L366.085,160.02z M362.455,112.871l-7.31-1.51c4.04,4.95,7.24,11.04,9.38,17.26l5.63,1.16     C368.445,123.95,365.845,118.08,362.455,112.871z"/>
		</g>
	</g>
	<g>
		<g>
			<path style="fill:#FFCB00;" d="M214.388,174.999c-4.87,25.6-11.65,48.919-19.03,67.759l18.87,44.039l-15.825,22.029l-25.294-4.75     c-2.84-4.41-5.72-8.58-8.63-12.42c-1.98,2.9-4.11,7.08-6.34,12.17l-27.072-0.106l-14.238-14.253l13.84-44.939     c-10.5-23.529-22.11-58.109-33.139-99.238c-14.63-54.559-7.17-106.718-3.36-126.338c0.5-2.57,4.02-2.94,5.06-0.53L158.03,155.65     l44.089-143.167c0.75-2.44,4.17-2.54,5.05-0.14C214.168,31.642,230.618,89.591,214.388,174.999z"/>
			<g>
				<path d="M175.337,239.922c-1.125,7.541-8.15,12.741-15.691,11.616c-7.541-1.125-12.741-8.15-11.616-15.691      c1.125-7.541,8.15-12.741,15.691-11.616C171.261,225.356,176.462,232.381,175.337,239.922z"/>
				<g>
					<path d="M161.577,289.464c-0.783,0-1.554-0.366-2.041-1.054c-2.196-3.097-5.85-7.418-10.788-10.419       c-6.625-4.027-13.149-16.161-17.455-25.629c-0.571-1.257-0.016-2.739,1.241-3.311c1.255-0.576,2.739-0.017,3.311,1.24       c5.593,12.301,11.242,20.839,15.5,23.426c5.669,3.446,9.801,8.318,12.27,11.8c0.799,1.126,0.533,2.686-0.593,3.485       C162.582,289.314,162.077,289.464,161.577,289.464z"/>
					<path d="M192.276,238.056c-0.97,0-1.893-0.568-2.299-1.516l-31.635-73.823c-0.544-1.269,0.044-2.738,1.313-3.282       c1.27-0.544,2.739,0.044,3.283,1.313l31.635,73.823c0.544,1.269-0.044,2.738-1.313,3.282       C192.938,237.99,192.604,238.056,192.276,238.056z"/>
				</g>
			</g>
		</g>
		<g>
			<g>
				<path style="fill:#FF4521;" d="M270.007,394.105c-1.038-0.155-2.074-0.28-3.107-0.379c0,0-0.088-0.179-0.258-0.523      c-0.202-0.41-1.5-0.157-1.921-1.01c-0.379-0.769,0.14-2.605-0.397-3.695c-2.359-4.791-6.16-12.508-10.642-21.607      c-0.345-0.701-1.726-0.838-2.078-1.554c-0.419-0.85,0.189-2.282-0.239-3.152c-3.357-6.816-6.998-14.207-10.642-21.607      c-0.354-0.719-2.28-0.422-2.634-1.141c-0.425-0.863,0.721-2.743,0.297-3.604c-3.704-7.52-7.35-14.923-10.643-21.607      c-0.412-0.838-1.653-0.976-2.054-1.79c-0.374-0.76,0.09-2.198-0.273-2.935c-5.208-10.574-9.219-18.716-10.632-21.585      c-0.36-0.731-4.382,2.361-4.382,2.361l-5.676,0.514l-31.618,13.286l5.251,13.153l2.474,1.828l-0.456,3.227l9.195,23.032      l2.686,1.779l-0.679,3.249l9.209,23.067l2.289,1.992l-0.281,3.036l9.206,23.059l2.118,1.671l-0.118,3.338l2.799,7.012      c-7.302,8.277-12.409,18.698-14.164,30.454c-0.342,2.29-0.547,4.569-0.623,6.828c-0.042,1.246,1.618,1.656,1.654,2.889      c0.031,1.054-1.572,2.933-1.486,3.975c0.73,8.804,3.42,17.171,7.686,24.584c0.415,0.721,2.562,0.596,3.007,1.298      c0.47,0.743-0.761,2.312-0.258,3.034c4.357,6.256,9.909,11.67,16.385,15.876c0.629,0.409,2.344-0.051,2.99,0.334      c0.805,0.48,0.546,1.799,1.377,2.242c5.814,3.101,12.248,5.277,19.137,6.307c2.115,0.316,4.221,0.515,6.311,0.604      c1.186,0.05,3.149-1.202,4.324-1.223c1.209-0.021,1.63,1.188,2.824,1.093c26.897-2.121,49.75-22.524,53.91-50.343      c0.199-1.332,0.352-2.661,0.46-3.984c0.088-1.084-1.02-1.956-0.991-3.032c0.036-1.337,1.193-2.875,1.14-4.196      c-0.366-9.039-2.798-17.674-6.892-25.362c-0.371-0.696-1.653-0.752-2.051-1.432c-0.469-0.803-0.059-2.226-0.565-3.006      c-4.155-6.398-9.528-11.984-15.848-16.392c-0.613-0.427-2.488,0.175-3.118-0.23c-0.802-0.515-0.366-2.03-1.195-2.508      C284.571,397.739,277.562,395.232,270.007,394.105z M295.157,457.784c-2.8,18.72-20.24,31.629-38.959,28.839      c-18.72-2.8-31.629-20.239-28.839-38.959c2.79-18.72,20.24-31.629,38.959-28.839      C285.037,421.614,297.947,439.064,295.157,457.784z"/>
				<g>
					<path style="fill:#FFB7F7;" d="M214.758,287.877l-34.389,34.389l-2.02-5.06l26.449-26.449l9.43-3.96       C214.228,286.797,214.408,287.167,214.758,287.877z"/>
					<path style="fill:#FFB7F7;" d="M227.728,314.206l-36.149,36.149l-2.01-5.06l35.829-35.829       C226.148,310.996,226.928,312.586,227.728,314.206z"/>
					<path style="fill:#FFB7F7;" d="M240.708,340.546l-37.909,37.909l-2.02-5.06l37.589-37.589       C239.148,337.386,239.928,338.966,240.708,340.546z"/>
					<path style="fill:#FFB7F7;" d="M253.678,366.875l-39.669,39.669l-2.01-5.06l39.339-39.339       C252.138,363.755,252.918,365.335,253.678,366.875z"/>
					<path style="fill:#FFB7F7;" d="M266.647,393.205l-64.469,64.469c-0.18-2.28-0.24-4.58-0.16-6.9l62.299-62.299       C265.457,390.795,266.257,392.435,266.647,393.205z"/>
					<path style="fill:#FFB7F7;" d="M228.688,463.403c0.56,1.72,1.26,3.39,2.09,4.99l-18.17,18.17c-0.98-1.4-1.9-2.85-2.75-4.33       L228.688,463.403z"/>
					<path style="fill:#FFB7F7;" d="M295.107,404.065l-18.17,18.17c-1.59-0.82-3.26-1.52-5-2.08l18.84-18.839       C292.267,402.165,293.717,403.085,295.107,404.065z"/>
					<path style="fill:#FFB7F7;" d="M247.358,484.053c1.67,0.75,3.42,1.36,5.24,1.83l-19.18,19.18c-1.52-0.81-3.01-1.69-4.45-2.62       L247.358,484.053z"/>
					<path style="fill:#FFB7F7;" d="M313.586,424.884l-19.17,19.17c-0.46-1.8-1.08-3.55-1.83-5.23l18.38-18.38       C311.906,421.884,312.776,423.364,313.586,424.884z"/>
					<path style="fill:#FFB7F7;" d="M320.336,457.443l-54.369,54.369c-2.37,0.19-4.77,0.24-7.2,0.13l61.719-61.709       C320.576,452.614,320.536,455.014,320.336,457.443z"/>
				</g>
			</g>
			<g>
				<path style="fill:#FF4521;" d="M128.559,410.843l6.719-24.309l-0.115-4.268l2.819-5.516l12.271-44.395l-0.489-3.526l3.22-6.356      l5.154-18.648l-13.989-4.864l-4.215,0.74l-0.914-2.523l-22.191-7.715c0,0-7.956,22.378-16.581,46.369      c-0.599,1.667,1.002,2.726,0.399,4.401c-0.715,1.985-3.633,4.586-4.346,6.561c-7.892,21.873-15.421,42.47-17.074,46.081      c-26.111,2.864-48.057,22.968-52.116,50.168c-0.292,1.951-0.485,3.895-0.583,5.825c-0.051,1.005,2.182,1.081,2.182,2.078      c0,1.339-2.214,3.595-2.124,4.916c0.603,8.906,3.21,17.384,7.431,24.905c0.365,0.65,2.922-0.138,3.311,0.498      c0.496,0.811-1.169,3.041-0.635,3.827c4.293,6.319,9.795,11.804,16.232,16.085c0.623,0.415,3.518-0.708,4.158-0.317      c0.811,0.496-0.626,2.499,0.212,2.957c5.955,3.254,12.573,5.533,19.676,6.593c1.837,0.274,3.667,0.461,5.485,0.563      c1.218,0.069,3.261-1.682,4.468-1.688c1.122-0.006,1.41,1.738,2.52,1.669c27.324-1.694,50.694-22.254,54.896-50.413      c0.252-1.685,0.429-3.364,0.536-5.034c0.069-1.089-1.376-1.982-1.366-3.062c0.011-1.273,1.465-2.731,1.395-3.989      c-0.499-8.953-3.027-17.49-7.186-25.078c-0.437-0.797-2.067-0.11-2.54-0.885c-0.417-0.685,0.327-2.835-0.117-3.502      c-1.933-2.903-4.118-5.634-6.53-8.159L128.559,410.843z M119.62,456.853c-2.79,18.72-20.229,31.629-38.959,28.839      c-18.72-2.79-31.629-20.24-28.839-38.959c2.8-18.719,20.24-31.629,38.959-28.84C109.501,420.694,122.41,438.134,119.62,456.853z      "/>
				<g>
					<path style="fill:#FFB7F7;" d="M144.19,298.977l-47.939,47.939c1.34-3.67,2.67-7.39,4-11.06l38.689-38.699L144.19,298.977z"/>
					<path style="fill:#FFB7F7;" d="M153.01,322.396l-2.7,9.78L26.592,455.893c-0.16-2.31-0.18-4.66-0.06-7.02L153.01,322.396z"/>
					<path style="fill:#FFB7F7;" d="M52.942,461.783c0.52,1.75,1.19,3.44,1.99,5.07l-18.24,18.24c-0.96-1.41-1.86-2.87-2.69-4.37       L52.942,461.783z"/>
					<path style="fill:#FFB7F7;" d="M137.99,376.725l-2.7,9.77l-34.509,34.509c-1.61-0.8-3.31-1.47-5.07-2L137.99,376.725z"/>
					<path style="fill:#FFB7F7;" d="M71.181,482.843c1.64,0.77,3.37,1.42,5.16,1.92l-19.05,19.05c-1.52-0.83-2.99-1.72-4.41-2.67       L71.181,482.843z"/>
					<path style="fill:#FFB7F7;" d="M137.71,423.384l-19.02,19.03c-0.5-1.77-1.15-3.5-1.93-5.15l18.29-18.29       C136,420.404,136.89,421.874,137.71,423.384z"/>
					<path style="fill:#FFB7F7;" d="M144.88,455.524l-55.429,55.429c-2.33,0.15-4.7,0.16-7.09,0.02l62.549-62.549       C145.03,450.764,145.03,453.134,144.88,455.524z"/>
				</g>
			</g>
		</g>
	</g>
</g>
<g>
</g>
<g>
</g>
<g>
</g>
<g>
</g>
<g>
</g>
<g>
</g>
<g>
</g>
<g>
</g>
<g>
</g>
<g>
</g>
<g>
</g>
<g>
</g>
<g>
</g>
<g>
</g>
<g>
</g>
</svg>
