<svg id="Namaste_Hand" height="512" viewBox="0 0 512 512" width="512" xmlns="http://www.w3.org/2000/svg" data-name="Namaste Hand"><path d="m83.87 411.2a14.65 14.65 0 0 1 6.85-15.3c18.21-10.92 44.33-29.8 55.82-54.84 8-17.4 15.06-40.89 18.2-65.16 4.46-34.47 29.73-86.54 44.67-146.93 4.64-18.73 10.26-37.21 15.18-55.87 7.31-27.76 12.92-50.87 27.19-35.47 6.65 7.19 6.81 19.7 6.82 19.75-3.09 130.55-7.14 192.3-7.17 193.54.11 32 3.5 42.4 5 63 1.76 24.5 2.74 41.31-7 57.78-4.65 7.86-12.22 16-20 20.18a74.94 74.94 0 0 1 -20.28 7.28l-40.78 76.05a12.56 12.56 0 0 1 -12.43 6.53c-36.14-3.89-64.29-29.5-72.07-70.54z" fill="#f5b493"/><path d="m197.34 217.49s13.39-33.16 24.51-80.5 10.08-66.49 20.58-67.78 14.77 16.79 14.57 26.56c0 0-9.49-22-16.38-18.57s-7.85 98.32-43.28 140.29z" fill="#eba284"/><path d="m213.38 258.2s13.81-39.23 19.55-74.76 4.55-65.5 23-50.18c0 0-11.22-2.28-12.33 22.92s-16.23 83.51-30.22 102.02z" fill="#eba284"/><path d="m428.49 410.35a12.35 12.35 0 0 0 -5.73-12.81c-18.14-11-45.06-30.42-56.58-56.19-7.82-17.49-14.65-41.07-17.54-65.33-4.11-34.52-28.87-86.83-43.2-147.37-4.45-18.78-9.89-37.31-14.62-56-7-27.83-12.42-51-26.84-35.74-6.72 7.12-7 19.63-7 19.69-.2 21.28-.39 51.87-.26 88.76.22 61.45 1.06 67.32 1.25 79.24.16 9.57.14 1.26-1.54 103.58-2 24.82 4.66 50.58 26.43 63.23a75.29 75.29 0 0 0 20.21 7.48l39.81 76.06a13.16 13.16 0 0 0 13 7c39.12-4.08 65.57-32.86 72.61-71.6z" fill="#f5b493"/><g fill="#eba284"><path d="m316.62 217.29s-13.06-33.3-23.7-80.74-9.41-66.55-19.92-67.99-14.92 16.69-14.77 26.44c0 0 9.71-21.88 16.56-18.41s6.83 98.41 41.83 140.7z"/><path d="m300.18 257.83s-13.42-39.36-18.8-74.95-3.9-65.54-22.53-50.4c0 0 11.25-2.17 12.1 23s15.43 83.71 29.23 102.35z"/></g></svg>